G04*
G04 #@! TF.GenerationSoftware,Altium Limited,Altium Designer,21.0.9 (235)*
G04*
G04 Layer_Color=255*
%FSLAX44Y44*%
%MOMM*%
G71*
G04*
G04 #@! TF.SameCoordinates,736B1018-3895-43CE-9238-027F92C9441B*
G04*
G04*
G04 #@! TF.FilePolarity,Positive*
G04*
G01*
G75*
%ADD16R,0.9500X0.6000*%
%ADD47O,1.5000X2.0000*%
%ADD48O,2.6000X1.6000*%
%ADD49C,1.2000*%
%ADD50C,2.0000*%
%ADD51O,1.6000X2.6000*%
D16*
X170688Y784732D02*
D03*
Y768732D02*
D03*
X201507Y784732D02*
D03*
Y768732D02*
D03*
D47*
X148600Y830650D02*
D03*
X174000D02*
D03*
X199400D02*
D03*
X224800D02*
D03*
X250200D02*
D03*
X275600D02*
D03*
X301000D02*
D03*
X326400D02*
D03*
X351800D02*
D03*
X377200D02*
D03*
X402600D02*
D03*
X428000D02*
D03*
X453400D02*
D03*
D03*
X148600Y627150D02*
D03*
X174000D02*
D03*
X199400D02*
D03*
X224800D02*
D03*
X250200D02*
D03*
X275600D02*
D03*
X301000D02*
D03*
X326400D02*
D03*
X351800D02*
D03*
X377200D02*
D03*
X402600D02*
D03*
X428000D02*
D03*
X453400D02*
D03*
X478800D02*
D03*
Y830650D02*
D03*
D48*
X41402Y243078D02*
D03*
Y319278D02*
D03*
Y294278D02*
D03*
Y268478D02*
D03*
Y395478D02*
D03*
Y421278D02*
D03*
Y446278D02*
D03*
Y370078D02*
D03*
Y344678D02*
D03*
D49*
X835500Y177250D02*
D03*
Y197250D02*
D03*
Y217250D02*
D03*
X815500Y177250D02*
D03*
Y197250D02*
D03*
Y217250D02*
D03*
D50*
X825500Y149250D02*
D03*
Y245250D02*
D03*
D51*
X844650Y32250D02*
D03*
X869650D02*
D03*
X40352Y32000D02*
D03*
X65752D02*
D03*
X116152D02*
D03*
X91152D02*
D03*
X300777Y32500D02*
D03*
X275777D02*
D03*
X250377D02*
D03*
X413250Y32250D02*
D03*
X388250D02*
D03*
X362850D02*
D03*
X523750Y31500D02*
D03*
X548750D02*
D03*
X498350D02*
D03*
X472950D02*
D03*
X610500Y31750D02*
D03*
X635900D02*
D03*
X660900D02*
D03*
M02*
