G04*
G04 #@! TF.GenerationSoftware,Altium Limited,Altium Designer,21.0.9 (235)*
G04*
G04 Layer_Color=8421504*
%FSLAX44Y44*%
%MOMM*%
G71*
G04*
G04 #@! TF.SameCoordinates,736B1018-3895-43CE-9238-027F92C9441B*
G04*
G04*
G04 #@! TF.FilePolarity,Positive*
G04*
G01*
G75*
%ADD16R,0.9500X0.6000*%
%ADD17R,0.6000X0.9500*%
%ADD18R,1.3000X0.6000*%
%ADD19R,1.5500X1.0000*%
%ADD20O,2.1000X0.6500*%
%ADD21R,1.0000X0.5000*%
%ADD22R,1.3000X1.5000*%
%ADD23R,1.7000X1.5000*%
%ADD24R,1.4000X1.2000*%
%ADD25R,1.5000X1.7000*%
%ADD26R,1.5000X1.6000*%
%ADD27R,1.4000X0.8000*%
D16*
X172974Y271908D02*
D03*
Y287908D02*
D03*
X755250Y197778D02*
D03*
Y181778D02*
D03*
X738500Y197250D02*
D03*
Y181250D02*
D03*
X751234Y301450D02*
D03*
Y317450D02*
D03*
X733484Y316950D02*
D03*
Y300950D02*
D03*
X734894Y414200D02*
D03*
Y430200D02*
D03*
X751490Y430017D02*
D03*
Y414017D02*
D03*
X651106Y699250D02*
D03*
Y715250D02*
D03*
X311500Y174750D02*
D03*
Y158750D02*
D03*
X293000Y175000D02*
D03*
Y159000D02*
D03*
D17*
X772032Y493240D02*
D03*
X756032D02*
D03*
X772032Y509750D02*
D03*
X756032D02*
D03*
X772032Y525780D02*
D03*
X756032D02*
D03*
X801750Y592000D02*
D03*
X785750D02*
D03*
X525258Y690036D02*
D03*
X509258D02*
D03*
X476008Y690544D02*
D03*
X460009D02*
D03*
D18*
X814250Y519750D02*
D03*
Y509750D02*
D03*
X840250Y519250D02*
D03*
Y509750D02*
D03*
Y500250D02*
D03*
X814250D02*
D03*
D19*
X855658Y429560D02*
D03*
X796658D02*
D03*
Y399560D02*
D03*
X855658D02*
D03*
Y336339D02*
D03*
X796658D02*
D03*
Y306339D02*
D03*
X855658D02*
D03*
D20*
X466365Y751504D02*
D03*
Y738804D02*
D03*
Y726104D02*
D03*
Y713404D02*
D03*
X514865Y751504D02*
D03*
Y738804D02*
D03*
Y726104D02*
D03*
Y713404D02*
D03*
D21*
X124296Y267000D02*
D03*
Y276500D02*
D03*
Y286000D02*
D03*
X151296D02*
D03*
Y276500D02*
D03*
Y267000D02*
D03*
D22*
X716500Y761750D02*
D03*
D23*
X848500Y626750D02*
D03*
Y761750D02*
D03*
D24*
X790500D02*
D03*
D25*
X700000Y629250D02*
D03*
D26*
Y755250D02*
D03*
D27*
X699000Y663250D02*
D03*
Y674250D02*
D03*
Y685250D02*
D03*
Y696250D02*
D03*
Y707250D02*
D03*
Y718250D02*
D03*
Y729250D02*
D03*
Y740250D02*
D03*
M02*
