M48
;Layer_Color=9474304
;FILE_FORMAT=4:4
METRIC,LZ
;TYPE=PLATED
T1F00S00C0.3000
T2F00S00C0.6000
T3F00S00C1.0000
%
T01
X00020238Y00171704
X00144526Y00138684
Y00212
X00185Y00235731
X0020832Y002642
X00315471Y00314452
X00134366Y00439674
T02
X00206618Y00389636
Y00402336
Y00415036
T03
X0003199Y00042
X0005739
X0008279
X0016
X00185
X002108
X002362
X002616
X003376Y00041
X00363
X003884
X00354Y002134
Y002388
Y002642
Y002896
X00363Y00408
X003376
X003884
X0008155Y004089
X0005615
X0003075
X001Y00315
Y0029
Y002642
Y002388
Y00212
Y00188
M30
