G04*
G04 #@! TF.GenerationSoftware,Altium Limited,Altium Designer,21.0.9 (235)*
G04*
G04 Layer_Color=2752767*
%FSLAX44Y44*%
%MOMM*%
G71*
G04*
G04 #@! TF.SameCoordinates,2588B0E2-F362-4AB3-B6B3-F61507E4C0EF*
G04*
G04*
G04 #@! TF.FilePolarity,Positive*
G04*
G01*
G75*
%ADD15C,0.1270*%
%ADD63C,0.1693*%
D15*
X869420Y192698D02*
Y202858D01*
X879580D01*
Y192698D01*
X869420D01*
X773420D02*
Y202858D01*
X783580D01*
Y192698D01*
X773420D01*
X476700Y172640D02*
X471620Y182800D01*
X481780D01*
X476700Y172640D01*
X502100Y147240D02*
X497020Y157400D01*
X507180D01*
X502100Y147240D01*
Y172640D02*
X497020Y182800D01*
X507180D01*
X502100Y172640D01*
X476700Y147240D02*
X471620Y157400D01*
X481780D01*
X476700Y147240D01*
X451300D02*
X446220Y157400D01*
X456380D01*
X451300Y147240D01*
Y172640D02*
X446220Y182800D01*
X456380D01*
X451300Y172640D01*
X505910Y547540D02*
X500830Y557700D01*
X510990D01*
X505910Y547540D01*
X531310D02*
X526230Y557700D01*
X536390D01*
X531310Y547540D01*
X552900Y146220D02*
X555440Y148760D01*
X557980D01*
X555440Y151300D01*
X557980Y153840D01*
X555440D01*
X552900Y156380D01*
X550360Y153840D01*
X547820D01*
X550360Y151300D01*
X547820Y148760D01*
X550360D01*
X552900Y146220D01*
X400500D02*
X403040Y148760D01*
X405580D01*
X403040Y151300D01*
X405580Y153840D01*
X403040D01*
X400500Y156380D01*
X397960Y153840D01*
X395420D01*
X397960Y151300D01*
X395420Y148760D01*
X397960D01*
X400500Y146220D01*
Y552620D02*
X403040Y555160D01*
X405580D01*
X403040Y557700D01*
X405580Y560240D01*
X403040D01*
X400500Y562780D01*
X397960Y560240D01*
X395420D01*
X397960Y557700D01*
X395420Y555160D01*
X397960D01*
X400500Y552620D01*
X552900D02*
X555440Y555160D01*
X557980D01*
X555440Y557700D01*
X557980Y560240D01*
X555440D01*
X552900Y562780D01*
X550360Y560240D01*
X547820D01*
X550360Y557700D01*
X547820Y555160D01*
X550360D01*
X552900Y552620D01*
X395420Y171620D02*
X397960Y176700D01*
X395420Y181780D01*
X400500Y179240D01*
X405580Y181780D01*
X403040Y176700D01*
X405580Y171620D01*
X400500Y174160D01*
X395420Y171620D01*
Y197020D02*
X397960Y202100D01*
X395420Y207180D01*
X400500Y204640D01*
X405580Y207180D01*
X403040Y202100D01*
X405580Y197020D01*
X400500Y199560D01*
X395420Y197020D01*
Y222420D02*
X397960Y227500D01*
X395420Y232580D01*
X400500Y230040D01*
X405580Y232580D01*
X403040Y227500D01*
X405580Y222420D01*
X400500Y224960D01*
X395420Y222420D01*
Y247820D02*
X397960Y252900D01*
X395420Y257980D01*
X400500Y255440D01*
X405580Y257980D01*
X403040Y252900D01*
X405580Y247820D01*
X400500Y250360D01*
X395420Y247820D01*
Y273220D02*
X397960Y278300D01*
X395420Y283380D01*
X400500Y280840D01*
X405580Y283380D01*
X403040Y278300D01*
X405580Y273220D01*
X400500Y275760D01*
X395420Y273220D01*
Y298620D02*
X397960Y303700D01*
X395420Y308780D01*
X400500Y306240D01*
X405580Y308780D01*
X403040Y303700D01*
X405580Y298620D01*
X400500Y301160D01*
X395420Y298620D01*
Y324020D02*
X397960Y329100D01*
X395420Y334180D01*
X400500Y331640D01*
X405580Y334180D01*
X403040Y329100D01*
X405580Y324020D01*
X400500Y326560D01*
X395420Y324020D01*
Y349420D02*
X397960Y354500D01*
X395420Y359580D01*
X400500Y357040D01*
X405580Y359580D01*
X403040Y354500D01*
X405580Y349420D01*
X400500Y351960D01*
X395420Y349420D01*
Y374820D02*
X397960Y379900D01*
X395420Y384980D01*
X400500Y382440D01*
X405580Y384980D01*
X403040Y379900D01*
X405580Y374820D01*
X400500Y377360D01*
X395420Y374820D01*
Y400220D02*
X397960Y405300D01*
X395420Y410380D01*
X400500Y407840D01*
X405580Y410380D01*
X403040Y405300D01*
X405580Y400220D01*
X400500Y402760D01*
X395420Y400220D01*
Y425620D02*
X397960Y430700D01*
X395420Y435780D01*
X400500Y433240D01*
X405580Y435780D01*
X403040Y430700D01*
X405580Y425620D01*
X400500Y428160D01*
X395420Y425620D01*
Y451020D02*
X397960Y456100D01*
X395420Y461180D01*
X400500Y458640D01*
X405580Y461180D01*
X403040Y456100D01*
X405580Y451020D01*
X400500Y453560D01*
X395420Y451020D01*
Y476420D02*
X397960Y481500D01*
X395420Y486580D01*
X400500Y484040D01*
X405580Y486580D01*
X403040Y481500D01*
X405580Y476420D01*
X400500Y478960D01*
X395420Y476420D01*
Y501820D02*
X397960Y506900D01*
X395420Y511980D01*
X400500Y509440D01*
X405580Y511980D01*
X403040Y506900D01*
X405580Y501820D01*
X400500Y504360D01*
X395420Y501820D01*
Y527220D02*
X397960Y532300D01*
X395420Y537380D01*
X400500Y534840D01*
X405580Y537380D01*
X403040Y532300D01*
X405580Y527220D01*
X400500Y529760D01*
X395420Y527220D01*
X547820Y171620D02*
X550360Y176700D01*
X547820Y181780D01*
X552900Y179240D01*
X557980Y181780D01*
X555440Y176700D01*
X557980Y171620D01*
X552900Y174160D01*
X547820Y171620D01*
X550360Y176700D01*
X547820Y181780D01*
X552900Y179240D01*
X557980Y181780D01*
X555440Y176700D01*
X557980Y171620D01*
X552900Y174160D01*
X547820Y171620D01*
Y197020D02*
X550360Y202100D01*
X547820Y207180D01*
X552900Y204640D01*
X557980Y207180D01*
X555440Y202100D01*
X557980Y197020D01*
X552900Y199560D01*
X547820Y197020D01*
Y222420D02*
X550360Y227500D01*
X547820Y232580D01*
X552900Y230040D01*
X557980Y232580D01*
X555440Y227500D01*
X557980Y222420D01*
X552900Y224960D01*
X547820Y222420D01*
Y247820D02*
X550360Y252900D01*
X547820Y257980D01*
X552900Y255440D01*
X557980Y257980D01*
X555440Y252900D01*
X557980Y247820D01*
X552900Y250360D01*
X547820Y247820D01*
Y273220D02*
X550360Y278300D01*
X547820Y283380D01*
X552900Y280840D01*
X557980Y283380D01*
X555440Y278300D01*
X557980Y273220D01*
X552900Y275760D01*
X547820Y273220D01*
Y298620D02*
X550360Y303700D01*
X547820Y308780D01*
X552900Y306240D01*
X557980Y308780D01*
X555440Y303700D01*
X557980Y298620D01*
X552900Y301160D01*
X547820Y298620D01*
Y324020D02*
X550360Y329100D01*
X547820Y334180D01*
X552900Y331640D01*
X557980Y334180D01*
X555440Y329100D01*
X557980Y324020D01*
X552900Y326560D01*
X547820Y324020D01*
Y349420D02*
X550360Y354500D01*
X547820Y359580D01*
X552900Y357040D01*
X557980Y359580D01*
X555440Y354500D01*
X557980Y349420D01*
X552900Y351960D01*
X547820Y349420D01*
Y374820D02*
X550360Y379900D01*
X547820Y384980D01*
X552900Y382440D01*
X557980Y384980D01*
X555440Y379900D01*
X557980Y374820D01*
X552900Y377360D01*
X547820Y374820D01*
Y400220D02*
X550360Y405300D01*
X547820Y410380D01*
X552900Y407840D01*
X557980Y410380D01*
X555440Y405300D01*
X557980Y400220D01*
X552900Y402760D01*
X547820Y400220D01*
Y425620D02*
X550360Y430700D01*
X547820Y435780D01*
X552900Y433240D01*
X557980Y435780D01*
X555440Y430700D01*
X557980Y425620D01*
X552900Y428160D01*
X547820Y425620D01*
Y451020D02*
X550360Y456100D01*
X547820Y461180D01*
X552900Y458640D01*
X557980Y461180D01*
X555440Y456100D01*
X557980Y451020D01*
X552900Y453560D01*
X547820Y451020D01*
Y476420D02*
X550360Y481500D01*
X547820Y486580D01*
X552900Y484040D01*
X557980Y486580D01*
X555440Y481500D01*
X557980Y476420D01*
X552900Y478960D01*
X547820Y476420D01*
Y501820D02*
X550360Y506900D01*
X547820Y511980D01*
X552900Y509440D01*
X557980Y511980D01*
X555440Y506900D01*
X557980Y501820D01*
X552900Y504360D01*
X547820Y501820D01*
Y527220D02*
X550360Y532300D01*
X547820Y537380D01*
X552900Y534840D01*
X557980Y537380D01*
X555440Y532300D01*
X557980Y527220D01*
X552900Y529760D01*
X547820Y527220D01*
X38862Y342138D02*
Y339598D01*
X43942D01*
Y342138D01*
X46482D01*
Y347218D01*
X43942D01*
Y349758D01*
X38862D01*
Y347218D01*
X36322D01*
Y342138D01*
X38862D01*
Y367538D02*
Y364998D01*
X43942D01*
Y367538D01*
X46482D01*
Y372618D01*
X43942D01*
Y375158D01*
X38862D01*
Y372618D01*
X36322D01*
Y367538D01*
X38862D01*
Y443738D02*
Y441198D01*
X43942D01*
Y443738D01*
X46482D01*
Y448818D01*
X43942D01*
Y451358D01*
X38862D01*
Y448818D01*
X36322D01*
Y443738D01*
X38862D01*
Y418738D02*
Y416198D01*
X43942D01*
Y418738D01*
X46482D01*
Y423818D01*
X43942D01*
Y426358D01*
X38862D01*
Y423818D01*
X36322D01*
Y418738D01*
X38862D01*
Y392938D02*
Y390398D01*
X43942D01*
Y392938D01*
X46482D01*
Y398018D01*
X43942D01*
Y400558D01*
X38862D01*
Y398018D01*
X36322D01*
Y392938D01*
X38862D01*
Y265938D02*
Y263398D01*
X43942D01*
Y265938D01*
X46482D01*
Y271018D01*
X43942D01*
Y273558D01*
X38862D01*
Y271018D01*
X36322D01*
Y265938D01*
X38862D01*
Y291738D02*
Y289198D01*
X43942D01*
Y291738D01*
X46482D01*
Y296818D01*
X43942D01*
Y299358D01*
X38862D01*
Y296818D01*
X36322D01*
Y291738D01*
X38862D01*
Y316738D02*
Y314198D01*
X43942D01*
Y316738D01*
X46482D01*
Y321818D01*
X43942D01*
Y324358D01*
X38862D01*
Y321818D01*
X36322D01*
Y316738D01*
X38862D01*
Y240538D02*
Y237998D01*
X43942D01*
Y240538D01*
X46482D01*
Y245618D01*
X43942D01*
Y248158D01*
X38862D01*
Y245618D01*
X36322D01*
Y240538D01*
X38862D01*
X842110Y29710D02*
Y27170D01*
X847190D01*
Y29710D01*
X849730D01*
Y34790D01*
X847190D01*
Y37330D01*
X842110D01*
Y34790D01*
X839570D01*
Y29710D01*
X842110D01*
X867110D02*
Y27170D01*
X872190D01*
Y29710D01*
X874730D01*
Y34790D01*
X872190D01*
Y37330D01*
X867110D01*
Y34790D01*
X864570D01*
Y29710D01*
X867110D01*
X816710D02*
Y27170D01*
X821790D01*
Y29710D01*
X824330D01*
Y34790D01*
X821790D01*
Y37330D01*
X816710D01*
Y34790D01*
X814170D01*
Y29710D01*
X816710D01*
X791310D02*
Y27170D01*
X796390D01*
Y29710D01*
X798930D01*
Y34790D01*
X796390D01*
Y37330D01*
X791310D01*
Y34790D01*
X788770D01*
Y29710D01*
X791310D01*
X37812Y29460D02*
Y26920D01*
X42892D01*
Y29460D01*
X45432D01*
Y34540D01*
X42892D01*
Y37080D01*
X37812D01*
Y34540D01*
X35272D01*
Y29460D01*
X37812D01*
X63212D02*
Y26920D01*
X68292D01*
Y29460D01*
X70832D01*
Y34540D01*
X68292D01*
Y37080D01*
X63212D01*
Y34540D01*
X60672D01*
Y29460D01*
X63212D01*
X113612D02*
Y26920D01*
X118692D01*
Y29460D01*
X121232D01*
Y34540D01*
X118692D01*
Y37080D01*
X113612D01*
Y34540D01*
X111072D01*
Y29460D01*
X113612D01*
X88612D02*
Y26920D01*
X93692D01*
Y29460D01*
X96232D01*
Y34540D01*
X93692D01*
Y37080D01*
X88612D01*
Y34540D01*
X86072D01*
Y29460D01*
X88612D01*
X298237Y29960D02*
Y27420D01*
X303317D01*
Y29960D01*
X305857D01*
Y35040D01*
X303317D01*
Y37580D01*
X298237D01*
Y35040D01*
X295697D01*
Y29960D01*
X298237D01*
X273237D02*
Y27420D01*
X278317D01*
Y29960D01*
X280857D01*
Y35040D01*
X278317D01*
Y37580D01*
X273237D01*
Y35040D01*
X270697D01*
Y29960D01*
X273237D01*
X247837D02*
Y27420D01*
X252917D01*
Y29960D01*
X255457D01*
Y35040D01*
X252917D01*
Y37580D01*
X247837D01*
Y35040D01*
X245297D01*
Y29960D01*
X247837D01*
X410710Y29710D02*
Y27170D01*
X415790D01*
Y29710D01*
X418330D01*
Y34790D01*
X415790D01*
Y37330D01*
X410710D01*
Y34790D01*
X408170D01*
Y29710D01*
X410710D01*
X385710D02*
Y27170D01*
X390790D01*
Y29710D01*
X393330D01*
Y34790D01*
X390790D01*
Y37330D01*
X385710D01*
Y34790D01*
X383170D01*
Y29710D01*
X385710D01*
X360310D02*
Y27170D01*
X365390D01*
Y29710D01*
X367930D01*
Y34790D01*
X365390D01*
Y37330D01*
X360310D01*
Y34790D01*
X357770D01*
Y29710D01*
X360310D01*
X521210Y28960D02*
Y26420D01*
X526290D01*
Y28960D01*
X528830D01*
Y34040D01*
X526290D01*
Y36580D01*
X521210D01*
Y34040D01*
X518670D01*
Y28960D01*
X521210D01*
X546210D02*
Y26420D01*
X551290D01*
Y28960D01*
X553830D01*
Y34040D01*
X551290D01*
Y36580D01*
X546210D01*
Y34040D01*
X543670D01*
Y28960D01*
X546210D01*
X495810D02*
Y26420D01*
X500890D01*
Y28960D01*
X503430D01*
Y34040D01*
X500890D01*
Y36580D01*
X495810D01*
Y34040D01*
X493270D01*
Y28960D01*
X495810D01*
X470410D02*
Y26420D01*
X475490D01*
Y28960D01*
X478030D01*
Y34040D01*
X475490D01*
Y36580D01*
X470410D01*
Y34040D01*
X467870D01*
Y28960D01*
X470410D01*
X607960Y29210D02*
Y26670D01*
X613040D01*
Y29210D01*
X615580D01*
Y34290D01*
X613040D01*
Y36830D01*
X607960D01*
Y34290D01*
X605420D01*
Y29210D01*
X607960D01*
X633360D02*
Y26670D01*
X638440D01*
Y29210D01*
X640980D01*
Y34290D01*
X638440D01*
Y36830D01*
X633360D01*
Y34290D01*
X630820D01*
Y29210D01*
X633360D01*
X658360D02*
Y26670D01*
X663440D01*
Y29210D01*
X665980D01*
Y34290D01*
X663440D01*
Y36830D01*
X658360D01*
Y34290D01*
X655820D01*
Y29210D01*
X658360D01*
X272542Y168098D02*
X275082D01*
X277622Y170638D01*
X280162Y168098D01*
X282702D01*
Y170638D01*
X280162Y173178D01*
X282702Y175718D01*
Y178258D01*
X280162D01*
X277622Y175718D01*
X275082Y178258D01*
X272542D01*
Y175718D01*
X275082Y173178D01*
X272542Y170638D01*
Y168098D01*
X213966Y207920D02*
X216506D01*
X219046Y210460D01*
X221586Y207920D01*
X224126D01*
Y210460D01*
X221586Y213000D01*
X224126Y215540D01*
Y218080D01*
X221586D01*
X219046Y215540D01*
X216506Y218080D01*
X213966D01*
Y215540D01*
X216506Y213000D01*
X213966Y210460D01*
Y207920D01*
X269748Y461264D02*
X272288D01*
X274828Y463804D01*
X277368Y461264D01*
X279908D01*
Y463804D01*
X277368Y466344D01*
X279908Y468884D01*
Y471424D01*
X277368D01*
X274828Y468884D01*
X272288Y471424D01*
X269748D01*
Y468884D01*
X272288Y466344D01*
X269748Y463804D01*
Y461264D01*
Y316992D02*
X272288D01*
X274828Y319532D01*
X277368Y316992D01*
X279908D01*
Y319532D01*
X277368Y322072D01*
X279908Y324612D01*
Y327152D01*
X277368D01*
X274828Y324612D01*
X272288Y327152D01*
X269748D01*
Y324612D01*
X272288Y322072D01*
X269748Y319532D01*
Y316992D01*
X251460Y406146D02*
X254000D01*
X256540Y408686D01*
X259080Y406146D01*
X261620D01*
Y408686D01*
X259080Y411226D01*
X261620Y413766D01*
Y416306D01*
X259080D01*
X256540Y413766D01*
X254000Y416306D01*
X251460D01*
Y413766D01*
X254000Y411226D01*
X251460Y408686D01*
Y406146D01*
X282448Y502412D02*
X284988D01*
X287528Y504952D01*
X290068Y502412D01*
X292608D01*
Y504952D01*
X290068Y507492D01*
X292608Y510032D01*
Y512572D01*
X290068D01*
X287528Y510032D01*
X284988Y512572D01*
X282448D01*
Y510032D01*
X284988Y507492D01*
X282448Y504952D01*
Y502412D01*
X282089Y302761D02*
X284629D01*
X287169Y305301D01*
X289708Y302761D01*
X292248D01*
Y305301D01*
X289708Y307841D01*
X292248Y310381D01*
Y312921D01*
X289708D01*
X287169Y310381D01*
X284629Y312921D01*
X282089D01*
Y310381D01*
X284629Y307841D01*
X282089Y305301D01*
Y302761D01*
X296039Y419986D02*
X298579D01*
X301119Y422526D01*
X303659Y419986D01*
X306199D01*
Y422526D01*
X303659Y425066D01*
X306199Y427606D01*
Y430146D01*
X303659D01*
X301119Y427606D01*
X298579Y430146D01*
X296039D01*
Y427606D01*
X298579Y425066D01*
X296039Y422526D01*
Y419986D01*
X294539Y313400D02*
X297079D01*
X299619Y315940D01*
X302159Y313400D01*
X304699D01*
Y315940D01*
X302159Y318480D01*
X304699Y321020D01*
Y323560D01*
X302159D01*
X299619Y321020D01*
X297079Y323560D01*
X294539D01*
Y321020D01*
X297079Y318480D01*
X294539Y315940D01*
Y313400D01*
X313436Y278130D02*
X315976D01*
X318516Y280670D01*
X321056Y278130D01*
X323596D01*
Y280670D01*
X321056Y283210D01*
X323596Y285750D01*
Y288290D01*
X321056D01*
X318516Y285750D01*
X315976Y288290D01*
X313436D01*
Y285750D01*
X315976Y283210D01*
X313436Y280670D01*
Y278130D01*
X312928Y401574D02*
X315468D01*
X318008Y404114D01*
X320548Y401574D01*
X323088D01*
Y404114D01*
X320548Y406654D01*
X323088Y409194D01*
Y411734D01*
X320548D01*
X318008Y409194D01*
X315468Y411734D01*
X312928D01*
Y409194D01*
X315468Y406654D01*
X312928Y404114D01*
Y401574D01*
X320051Y271136D02*
X322590D01*
X325131Y273676D01*
X327671Y271136D01*
X330210D01*
Y273676D01*
X327671Y276216D01*
X330210Y278756D01*
Y281296D01*
X327671D01*
X325131Y278756D01*
X322590Y281296D01*
X320051D01*
Y278756D01*
X322590Y276216D01*
X320051Y273676D01*
Y271136D01*
X321310Y427736D02*
X323850D01*
X326390Y430276D01*
X328930Y427736D01*
X331470D01*
Y430276D01*
X328930Y432816D01*
X331470Y435356D01*
Y437896D01*
X328930D01*
X326390Y435356D01*
X323850Y437896D01*
X321310D01*
Y435356D01*
X323850Y432816D01*
X321310Y430276D01*
Y427736D01*
X329670Y290636D02*
X332210D01*
X334750Y293176D01*
X337290Y290636D01*
X339830D01*
Y293176D01*
X337290Y295716D01*
X339830Y298256D01*
Y300796D01*
X337290D01*
X334750Y298256D01*
X332210Y300796D01*
X329670D01*
Y298256D01*
X332210Y295716D01*
X329670Y293176D01*
Y290636D01*
X329184Y449834D02*
X331724D01*
X334264Y452374D01*
X336804Y449834D01*
X339344D01*
Y452374D01*
X336804Y454914D01*
X339344Y457454D01*
Y459994D01*
X336804D01*
X334264Y457454D01*
X331724Y459994D01*
X329184D01*
Y457454D01*
X331724Y454914D01*
X329184Y452374D01*
Y449834D01*
X338836Y265430D02*
X341376D01*
X343916Y267970D01*
X346456Y265430D01*
X348996D01*
Y267970D01*
X346456Y270510D01*
X348996Y273050D01*
Y275590D01*
X346456D01*
X343916Y273050D01*
X341376Y275590D01*
X338836D01*
Y273050D01*
X341376Y270510D01*
X338836Y267970D01*
Y265430D01*
X339852Y489204D02*
X342392D01*
X344932Y491744D01*
X347472Y489204D01*
X350012D01*
Y491744D01*
X347472Y494284D01*
X350012Y496824D01*
Y499364D01*
X347472D01*
X344932Y496824D01*
X342392Y499364D01*
X339852D01*
Y496824D01*
X342392Y494284D01*
X339852Y491744D01*
Y489204D01*
X348189Y520029D02*
X350728D01*
X353269Y522569D01*
X355808Y520029D01*
X358349D01*
Y522569D01*
X355808Y525109D01*
X358349Y527649D01*
Y530189D01*
X355808D01*
X353269Y527649D01*
X350728Y530189D01*
X348189D01*
Y527649D01*
X350728Y525109D01*
X348189Y522569D01*
Y520029D01*
X347127Y258989D02*
X349667D01*
X352207Y261529D01*
X354747Y258989D01*
X357287D01*
Y261529D01*
X354747Y264069D01*
X357287Y266609D01*
Y269149D01*
X354747D01*
X352207Y266609D01*
X349667Y269149D01*
X347127D01*
Y266609D01*
X349667Y264069D01*
X347127Y261529D01*
Y258989D01*
X355264Y253828D02*
X357804D01*
X360344Y256368D01*
X362884Y253828D01*
X365424D01*
Y256368D01*
X362884Y258908D01*
X365424Y261448D01*
Y263988D01*
X362884D01*
X360344Y261448D01*
X357804Y263988D01*
X355264D01*
Y261448D01*
X357804Y258908D01*
X355264Y256368D01*
Y253828D01*
X359664Y514858D02*
X362204D01*
X364744Y517398D01*
X367284Y514858D01*
X369824D01*
Y517398D01*
X367284Y519938D01*
X369824Y522478D01*
Y525018D01*
X367284D01*
X364744Y522478D01*
X362204Y525018D01*
X359664D01*
Y522478D01*
X362204Y519938D01*
X359664Y517398D01*
Y514858D01*
X212910Y264636D02*
X215450D01*
X217990Y267176D01*
X220530Y264636D01*
X223071D01*
Y267176D01*
X220530Y269716D01*
X223071Y272256D01*
Y274796D01*
X220530D01*
X217990Y272256D01*
X215450Y274796D01*
X212910D01*
Y272256D01*
X215450Y269716D01*
X212910Y267176D01*
Y264636D01*
Y371094D02*
X215450D01*
X217990Y373634D01*
X220530Y371094D01*
X223071D01*
Y373634D01*
X220530Y376174D01*
X223071Y378714D01*
Y381254D01*
X220530D01*
X217990Y378714D01*
X215450Y381254D01*
X212910D01*
Y378714D01*
X215450Y376174D01*
X212910Y373634D01*
Y371094D01*
X191770Y258136D02*
X194310D01*
X196850Y260676D01*
X199390Y258136D01*
X201930D01*
Y260676D01*
X199390Y263216D01*
X201930Y265756D01*
Y268296D01*
X199390D01*
X196850Y265756D01*
X194310Y268296D01*
X191770D01*
Y265756D01*
X194310Y263216D01*
X191770Y260676D01*
Y258136D01*
Y374142D02*
X194310D01*
X196850Y376682D01*
X199390Y374142D01*
X201930D01*
Y376682D01*
X199390Y379222D01*
X201930Y381762D01*
Y384302D01*
X199390D01*
X196850Y381762D01*
X194310Y384302D01*
X191770D01*
Y381762D01*
X194310Y379222D01*
X191770Y376682D01*
Y374142D01*
X169358Y373420D02*
X171898D01*
X174438Y375960D01*
X176978Y373420D01*
X179518D01*
Y375960D01*
X176978Y378500D01*
X179518Y381040D01*
Y383580D01*
X176978D01*
X174438Y381040D01*
X171898Y383580D01*
X169358D01*
Y381040D01*
X171898Y378500D01*
X169358Y375960D01*
Y373420D01*
X171684Y247820D02*
X174224D01*
X176764Y250360D01*
X179304Y247820D01*
X181844D01*
Y250360D01*
X179304Y252900D01*
X181844Y255440D01*
Y257980D01*
X179304D01*
X176764Y255440D01*
X174224Y257980D01*
X171684D01*
Y255440D01*
X174224Y252900D01*
X171684Y250360D01*
Y247820D01*
X716670Y295420D02*
X719210D01*
X721750Y297960D01*
X724290Y295420D01*
X726830D01*
Y297960D01*
X724290Y300500D01*
X726830Y303040D01*
Y305580D01*
X724290D01*
X721750Y303040D01*
X719210Y305580D01*
X716670D01*
Y303040D01*
X719210Y300500D01*
X716670Y297960D01*
Y295420D01*
X654920Y279420D02*
X657460D01*
X660000Y281960D01*
X662540Y279420D01*
X665080D01*
Y281960D01*
X662540Y284500D01*
X665080Y287040D01*
Y289580D01*
X662540D01*
X660000Y287040D01*
X657460Y289580D01*
X654920D01*
Y287040D01*
X657460Y284500D01*
X654920Y281960D01*
Y279420D01*
X423410Y5920D02*
X425950D01*
X428490Y8460D01*
X431030Y5920D01*
X433570D01*
Y8460D01*
X431030Y11000D01*
X433570Y13540D01*
Y16080D01*
X431030D01*
X428490Y13540D01*
X425950Y16080D01*
X423410D01*
Y13540D01*
X425950Y11000D01*
X423410Y8460D01*
Y5920D01*
X525670Y252670D02*
X528210D01*
X530750Y255210D01*
X533290Y252670D01*
X535830D01*
Y255210D01*
X533290Y257750D01*
X535830Y260290D01*
Y262830D01*
X533290D01*
X530750Y260290D01*
X528210Y262830D01*
X525670D01*
Y260290D01*
X528210Y257750D01*
X525670Y255210D01*
Y252670D01*
X612420Y463670D02*
X614960D01*
X617500Y466210D01*
X620040Y463670D01*
X622580D01*
Y466210D01*
X620040Y468750D01*
X622580Y471290D01*
Y473830D01*
X620040D01*
X617500Y471290D01*
X614960Y473830D01*
X612420D01*
Y471290D01*
X614960Y468750D01*
X612420Y466210D01*
Y463670D01*
X365670Y358170D02*
X368210D01*
X370750Y360710D01*
X373290Y358170D01*
X375830D01*
Y360710D01*
X373290Y363250D01*
X375830Y365790D01*
Y368330D01*
X373290D01*
X370750Y365790D01*
X368210Y368330D01*
X365670D01*
Y365790D01*
X368210Y363250D01*
X365670Y360710D01*
Y358170D01*
X678170Y418170D02*
X680710D01*
X683250Y420710D01*
X685790Y418170D01*
X688330D01*
Y420710D01*
X685790Y423250D01*
X688330Y425790D01*
Y428330D01*
X685790D01*
X683250Y425790D01*
X680710Y428330D01*
X678170D01*
Y425790D01*
X680710Y423250D01*
X678170Y420710D01*
Y418170D01*
X674906Y334156D02*
X677446D01*
X679986Y336696D01*
X682526Y334156D01*
X685066D01*
Y336696D01*
X682526Y339236D01*
X685066Y341776D01*
Y344316D01*
X682526D01*
X679986Y341776D01*
X677446Y344316D01*
X674906D01*
Y341776D01*
X677446Y339236D01*
X674906Y336696D01*
Y334156D01*
X704420Y486420D02*
X706960D01*
X709500Y488960D01*
X712040Y486420D01*
X714580D01*
Y488960D01*
X712040Y491500D01*
X714580Y494040D01*
Y496580D01*
X712040D01*
X709500Y494040D01*
X706960Y496580D01*
X704420D01*
Y494040D01*
X706960Y491500D01*
X704420Y488960D01*
Y486420D01*
X691170Y304170D02*
X693710D01*
X696250Y306710D01*
X698790Y304170D01*
X701330D01*
Y306710D01*
X698790Y309250D01*
X701330Y311790D01*
Y314330D01*
X698790D01*
X696250Y311790D01*
X693710Y314330D01*
X691170D01*
Y311790D01*
X693710Y309250D01*
X691170Y306710D01*
Y304170D01*
X684420Y458170D02*
X686960D01*
X689500Y460710D01*
X692040Y458170D01*
X694580D01*
Y460710D01*
X692040Y463250D01*
X694580Y465790D01*
Y468330D01*
X692040D01*
X689500Y465790D01*
X686960Y468330D01*
X684420D01*
Y465790D01*
X686960Y463250D01*
X684420Y460710D01*
Y458170D01*
Y307170D02*
X686960D01*
X689500Y309710D01*
X692040Y307170D01*
X694580D01*
Y309710D01*
X692040Y312250D01*
X694580Y314790D01*
Y317330D01*
X692040D01*
X689500Y314790D01*
X686960Y317330D01*
X684420D01*
Y314790D01*
X686960Y312250D01*
X684420Y309710D01*
Y307170D01*
X357770Y153920D02*
X360310D01*
X362850Y156460D01*
X365390Y153920D01*
X367930D01*
Y156460D01*
X365390Y159000D01*
X367930Y161540D01*
Y164080D01*
X365390D01*
X362850Y161540D01*
X360310Y164080D01*
X357770D01*
Y161540D01*
X360310Y159000D01*
X357770Y156460D01*
Y153920D01*
X648170Y348420D02*
X650710D01*
X653250Y350960D01*
X655790Y348420D01*
X658330D01*
Y350960D01*
X655790Y353500D01*
X658330Y356040D01*
Y358580D01*
X655790D01*
X653250Y356040D01*
X650710Y358580D01*
X648170D01*
Y356040D01*
X650710Y353500D01*
X648170Y350960D01*
Y348420D01*
X641420Y322420D02*
X643960D01*
X646500Y324960D01*
X649040Y322420D01*
X651580D01*
Y324960D01*
X649040Y327500D01*
X651580Y330040D01*
Y332580D01*
X649040D01*
X646500Y330040D01*
X643960Y332580D01*
X641420D01*
Y330040D01*
X643960Y327500D01*
X641420Y324960D01*
Y322420D01*
X270920Y135670D02*
X273460D01*
X276000Y138210D01*
X278540Y135670D01*
X281080D01*
Y138210D01*
X278540Y140750D01*
X281080Y143290D01*
Y145830D01*
X278540D01*
X276000Y143290D01*
X273460Y145830D01*
X270920D01*
Y143290D01*
X273460Y140750D01*
X270920Y138210D01*
Y135670D01*
X51822Y517878D02*
X56902Y522958D01*
X61982Y517878D01*
X56902Y512798D01*
X51822Y517878D01*
Y173178D02*
X56902Y178258D01*
X61982Y173178D01*
X56902Y168098D01*
X51822Y173178D01*
X666322Y173278D02*
X671402Y178358D01*
X676482Y173278D01*
X671402Y168198D01*
X666322Y173278D01*
X665822Y516278D02*
X670902Y521358D01*
X675982Y516278D01*
X670902Y511198D01*
X665822Y516278D01*
X738670Y371000D02*
X743750Y376080D01*
X748830Y371000D01*
X743750Y365920D01*
X738670Y371000D01*
X724170Y60734D02*
X729250Y65814D01*
X734330Y60734D01*
X729250Y55654D01*
X724170Y60734D01*
X182420Y62984D02*
X187500Y68064D01*
X192580Y62984D01*
X187500Y57904D01*
X182420Y62984D01*
D63*
X851580Y207778D02*
G03*
X851580Y207778I-5080J0D01*
G01*
X831580D02*
G03*
X831580Y207778I-5080J0D01*
G01*
X811580D02*
G03*
X811580Y207778I-5080J0D01*
G01*
X851580Y187778D02*
G03*
X851580Y187778I-5080J0D01*
G01*
X831580D02*
G03*
X831580Y187778I-5080J0D01*
G01*
X811580D02*
G03*
X811580Y187778I-5080J0D01*
G01*
M02*
