G04*
G04 #@! TF.GenerationSoftware,Altium Limited,Altium Designer,21.0.9 (235)*
G04*
G04 Layer_Physical_Order=1*
G04 Layer_Color=255*
%FSLAX44Y44*%
%MOMM*%
G71*
G04*
G04 #@! TF.SameCoordinates,2588B0E2-F362-4AB3-B6B3-F61507E4C0EF*
G04*
G04*
G04 #@! TF.FilePolarity,Positive*
G04*
G01*
G75*
%ADD16R,1.5500X1.0000*%
%ADD17R,1.0000X0.5000*%
%ADD18R,0.6400X0.5000*%
%ADD19R,0.9500X0.6000*%
%ADD20R,0.6000X0.9500*%
%ADD21R,1.5000X1.3000*%
%ADD22R,1.5000X1.7000*%
%ADD23R,1.2000X1.4000*%
%ADD24R,1.7000X1.5000*%
%ADD25R,1.6000X1.5000*%
%ADD26R,0.8000X1.4000*%
%ADD27R,1.0000X0.9000*%
%ADD28R,1.5000X1.0000*%
%ADD29O,1.2000X0.4000*%
%ADD51C,6.0000*%
%ADD52C,0.3000*%
%ADD53C,0.5000*%
%ADD54C,2.0000*%
%ADD55C,1.2000*%
%ADD56C,1.0000*%
%ADD57C,1.6510*%
%ADD58O,3.0480X1.5240*%
%ADD59O,2.6000X1.6000*%
%ADD60O,1.6000X2.6000*%
%ADD61C,0.5000*%
%ADD62C,5.0000*%
G36*
X397750Y568442D02*
X397953Y567204D01*
X395580Y566221D01*
X393543Y564657D01*
X391979Y562620D01*
X390996Y560247D01*
X390661Y557700D01*
X390996Y555154D01*
X391979Y552780D01*
X393543Y550743D01*
X395580Y549179D01*
X397953Y548196D01*
X400500Y547861D01*
X403047Y548196D01*
X405420Y549179D01*
X407457Y550743D01*
X409021Y552780D01*
X410004Y555154D01*
X410339Y557700D01*
X410004Y560247D01*
X409021Y562620D01*
X407457Y564657D01*
X405420Y566221D01*
X403047Y567204D01*
X403250Y568442D01*
X550150Y568441D01*
X550353Y567204D01*
X547980Y566221D01*
X545943Y564657D01*
X544379Y562620D01*
X543396Y560247D01*
X543061Y557700D01*
X543396Y555154D01*
X544379Y552780D01*
X545943Y550743D01*
X547980Y549179D01*
X550354Y548196D01*
X552900Y547861D01*
X555447Y548196D01*
X557820Y549179D01*
X559857Y550743D01*
X561421Y552780D01*
X562404Y555154D01*
X562739Y557700D01*
X562404Y560247D01*
X561421Y562620D01*
X559857Y564657D01*
X557820Y566221D01*
X555447Y567204D01*
X555650Y568441D01*
X898441Y568441D01*
X898441Y1558D01*
X1558Y1558D01*
X1558Y568442D01*
X397750Y568442D01*
D02*
G37*
%LPC*%
G36*
X531310Y559176D02*
X529613Y558953D01*
X528032Y558298D01*
X526674Y557256D01*
X525632Y555898D01*
X524977Y554317D01*
X524754Y552620D01*
X524977Y550923D01*
X525632Y549342D01*
X526674Y547984D01*
X528032Y546942D01*
X529613Y546287D01*
X531310Y546064D01*
X533007Y546287D01*
X534588Y546942D01*
X535946Y547984D01*
X536988Y549342D01*
X537643Y550923D01*
X537866Y552620D01*
X537643Y554317D01*
X536988Y555898D01*
X535946Y557256D01*
X534588Y558298D01*
X533007Y558953D01*
X531310Y559176D01*
D02*
G37*
G36*
X505910D02*
X504213Y558953D01*
X502632Y558298D01*
X501274Y557256D01*
X500232Y555898D01*
X499577Y554317D01*
X499354Y552620D01*
X499577Y550923D01*
X500232Y549342D01*
X501274Y547984D01*
X502632Y546942D01*
X504213Y546287D01*
X505910Y546064D01*
X507607Y546287D01*
X509188Y546942D01*
X510546Y547984D01*
X511588Y549342D01*
X512243Y550923D01*
X512466Y552620D01*
X512243Y554317D01*
X511588Y555898D01*
X510546Y557256D01*
X509188Y558298D01*
X507607Y558953D01*
X505910Y559176D01*
D02*
G37*
G36*
X286546Y549802D02*
X278296D01*
Y540552D01*
X286546D01*
Y549802D01*
D02*
G37*
G36*
X276796D02*
X268546D01*
Y540552D01*
X276796D01*
Y549802D01*
D02*
G37*
G36*
X151546D02*
X143296D01*
Y540552D01*
X151546D01*
Y549802D01*
D02*
G37*
G36*
X141796D02*
X133546D01*
Y540552D01*
X141796D01*
Y549802D01*
D02*
G37*
G36*
X754394Y537500D02*
X748644D01*
Y532250D01*
X754394D01*
Y537500D01*
D02*
G37*
G36*
X747144D02*
X741394D01*
Y532250D01*
X747144D01*
Y537500D01*
D02*
G37*
G36*
X286546Y539052D02*
X278296D01*
Y529802D01*
X286546D01*
Y539052D01*
D02*
G37*
G36*
X276796D02*
X268546D01*
Y529802D01*
X276796D01*
Y539052D01*
D02*
G37*
G36*
X151546D02*
X143296D01*
Y529802D01*
X151546D01*
Y539052D01*
D02*
G37*
G36*
X141796D02*
X133546D01*
Y529802D01*
X141796D01*
Y539052D01*
D02*
G37*
G36*
X811250Y532250D02*
X803000D01*
Y526500D01*
X811250D01*
Y532250D01*
D02*
G37*
G36*
X801500D02*
X793250D01*
Y526500D01*
X801500D01*
Y532250D01*
D02*
G37*
G36*
X754394Y530750D02*
X748644D01*
Y525500D01*
X754394D01*
Y530750D01*
D02*
G37*
G36*
X747144D02*
X741394D01*
Y525500D01*
X747144D01*
Y530750D01*
D02*
G37*
G36*
X568140Y541499D02*
X552900D01*
X550519Y541185D01*
X548301Y540266D01*
X546396Y538805D01*
X544934Y536899D01*
X544015Y534681D01*
X543701Y532300D01*
X544015Y529919D01*
X544653Y528379D01*
X539271Y522997D01*
X405190D01*
X404938Y524267D01*
X405099Y524334D01*
X407005Y525796D01*
X408466Y527701D01*
X409385Y529919D01*
X409699Y532300D01*
X409385Y534681D01*
X408466Y536899D01*
X407005Y538805D01*
X405099Y540266D01*
X402881Y541185D01*
X400500Y541499D01*
X385260D01*
X382879Y541185D01*
X380661Y540266D01*
X378756Y538805D01*
X377294Y536899D01*
X376656Y535359D01*
X360460D01*
X360460Y535359D01*
X359289Y535126D01*
X358297Y534463D01*
X352960Y529126D01*
X351708Y528877D01*
X350385Y527993D01*
X349501Y526670D01*
X349190Y525109D01*
X349501Y523548D01*
X350385Y522225D01*
X351708Y521341D01*
X353269Y521031D01*
X354829Y521341D01*
X356152Y522225D01*
X357036Y523548D01*
X357285Y524800D01*
X361727Y529241D01*
X376656D01*
X377294Y527701D01*
X378756Y525796D01*
X380661Y524334D01*
X380822Y524267D01*
X380570Y522997D01*
X367366D01*
X366305Y523706D01*
X364744Y524016D01*
X363183Y523706D01*
X361860Y522822D01*
X360976Y521499D01*
X360666Y519938D01*
X360976Y518377D01*
X361860Y517054D01*
X363183Y516170D01*
X364744Y515860D01*
X366305Y516170D01*
X367366Y516879D01*
X382202D01*
X382454Y515609D01*
X380661Y514866D01*
X378756Y513405D01*
X377294Y511499D01*
X376375Y509281D01*
X376061Y506900D01*
X376375Y504519D01*
X377294Y502301D01*
X378756Y500396D01*
X379320Y499963D01*
X378889Y498693D01*
X348683D01*
X348210Y498787D01*
X348210Y498787D01*
X346376D01*
X345205Y498554D01*
X344913Y498359D01*
X343371Y498052D01*
X342048Y497168D01*
X341164Y495845D01*
X340854Y494284D01*
X341164Y492723D01*
X342048Y491400D01*
X343371Y490516D01*
X344932Y490206D01*
X346493Y490516D01*
X347816Y491400D01*
X348601Y492575D01*
X430600D01*
X430600Y492575D01*
X431771Y492808D01*
X432763Y493471D01*
X443133Y503841D01*
X544296D01*
X544934Y502301D01*
X546396Y500396D01*
X548301Y498934D01*
X550519Y498015D01*
X552900Y497701D01*
X568140D01*
X570521Y498015D01*
X572739Y498934D01*
X574645Y500396D01*
X576106Y502301D01*
X577025Y504519D01*
X577339Y506900D01*
X577025Y509281D01*
X576106Y511499D01*
X574645Y513405D01*
X572739Y514866D01*
X570521Y515785D01*
X568140Y516099D01*
X552900D01*
X550519Y515785D01*
X548301Y514866D01*
X546396Y513405D01*
X544934Y511499D01*
X544296Y509959D01*
X441866D01*
X441866Y509959D01*
X440695Y509726D01*
X439703Y509063D01*
X429333Y498693D01*
X406872D01*
X406441Y499963D01*
X407005Y500396D01*
X408466Y502301D01*
X409385Y504519D01*
X409699Y506900D01*
X409385Y509281D01*
X408466Y511499D01*
X407005Y513405D01*
X405099Y514866D01*
X403306Y515609D01*
X403559Y516879D01*
X540538D01*
X540538Y516879D01*
X541708Y517112D01*
X542701Y517775D01*
X548979Y524053D01*
X550519Y523415D01*
X552900Y523101D01*
X568140D01*
X570521Y523415D01*
X572739Y524334D01*
X574645Y525796D01*
X576106Y527701D01*
X577025Y529919D01*
X577339Y532300D01*
X577025Y534681D01*
X576106Y536899D01*
X574645Y538805D01*
X572739Y540266D01*
X570521Y541185D01*
X568140Y541499D01*
D02*
G37*
G36*
X861250Y532250D02*
X843250D01*
Y519250D01*
X861250D01*
Y532250D01*
D02*
G37*
G36*
X811250Y525000D02*
X803000D01*
Y519250D01*
X811250D01*
Y525000D01*
D02*
G37*
G36*
X801500D02*
X793250D01*
Y519250D01*
X801500D01*
Y525000D01*
D02*
G37*
G36*
X287528Y511570D02*
X285967Y511260D01*
X285692Y511076D01*
X168761D01*
X168761Y511076D01*
X167591Y510843D01*
X166598Y510180D01*
X166598Y510180D01*
X146720Y490302D01*
X135046D01*
Y473302D01*
X150046D01*
Y485030D01*
X150209Y485139D01*
X170028Y504958D01*
X284410D01*
X284644Y504608D01*
X285967Y503724D01*
X287528Y503414D01*
X289089Y503724D01*
X290412Y504608D01*
X290646Y504958D01*
X314692D01*
X327903Y491747D01*
Y490020D01*
X324712D01*
Y481020D01*
X337212D01*
Y490020D01*
X334021D01*
Y493014D01*
X334021Y493014D01*
X333788Y494184D01*
X333125Y495177D01*
X318122Y510180D01*
X317129Y510843D01*
X315959Y511076D01*
X315959Y511076D01*
X289364D01*
X289089Y511260D01*
X287528Y511570D01*
D02*
G37*
G36*
X738394Y537500D02*
X725394D01*
Y525500D01*
X728835D01*
Y497500D01*
X725394D01*
Y494559D01*
X712122D01*
X711061Y495268D01*
X709500Y495578D01*
X707939Y495268D01*
X706616Y494384D01*
X705732Y493061D01*
X705422Y491500D01*
X705732Y489939D01*
X706616Y488616D01*
X707939Y487732D01*
X709500Y487422D01*
X711061Y487732D01*
X712122Y488441D01*
X725394D01*
Y485500D01*
X738394D01*
Y497500D01*
X734952D01*
Y525500D01*
X738394D01*
Y537500D01*
D02*
G37*
G36*
X754394Y497500D02*
X748644D01*
Y492250D01*
X754394D01*
Y497500D01*
D02*
G37*
G36*
X747144D02*
X741394D01*
Y492250D01*
X747144D01*
Y497500D01*
D02*
G37*
G36*
X56902Y544460D02*
X52744Y544133D01*
X48688Y543159D01*
X44834Y541563D01*
X41277Y539383D01*
X38106Y536674D01*
X35397Y533503D01*
X33217Y529946D01*
X31621Y526092D01*
X30647Y522036D01*
X30320Y517878D01*
X30647Y513720D01*
X31621Y509664D01*
X33217Y505810D01*
X35397Y502253D01*
X38106Y499082D01*
X41277Y496373D01*
X44834Y494193D01*
X48688Y492597D01*
X52744Y491623D01*
X56902Y491296D01*
X61060Y491623D01*
X65116Y492597D01*
X68970Y494193D01*
X72526Y496373D01*
X75698Y499082D01*
X78407Y502253D01*
X80587Y505810D01*
X82183Y509664D01*
X83157Y513720D01*
X83484Y517878D01*
X83157Y522036D01*
X82183Y526092D01*
X80587Y529946D01*
X78407Y533503D01*
X75698Y536674D01*
X72526Y539383D01*
X68970Y541563D01*
X65116Y543159D01*
X61060Y544133D01*
X56902Y544460D01*
D02*
G37*
G36*
X670902Y542860D02*
X666744Y542533D01*
X662688Y541559D01*
X658834Y539963D01*
X655277Y537783D01*
X652106Y535074D01*
X649397Y531903D01*
X647217Y528346D01*
X645621Y524492D01*
X644647Y520436D01*
X644320Y516278D01*
X644647Y512120D01*
X645621Y508064D01*
X647217Y504210D01*
X649397Y500653D01*
X652106Y497482D01*
X655277Y494773D01*
X658834Y492593D01*
X662688Y490997D01*
X666744Y490023D01*
X670902Y489696D01*
X675060Y490023D01*
X679116Y490997D01*
X682970Y492593D01*
X686526Y494773D01*
X689698Y497482D01*
X692407Y500653D01*
X694587Y504210D01*
X696183Y508064D01*
X697157Y512120D01*
X697484Y516278D01*
X697157Y520436D01*
X696183Y524492D01*
X694587Y528346D01*
X692407Y531903D01*
X689698Y535074D01*
X686526Y537783D01*
X682970Y539963D01*
X679116Y541559D01*
X675060Y542533D01*
X670902Y542860D01*
D02*
G37*
G36*
X319407Y489418D02*
X313907D01*
Y485668D01*
X319407D01*
Y489418D01*
D02*
G37*
G36*
X312407D02*
X306907D01*
Y485668D01*
X312407D01*
Y489418D01*
D02*
G37*
G36*
X754394Y490750D02*
X748644D01*
Y485500D01*
X754394D01*
Y490750D01*
D02*
G37*
G36*
X747144D02*
X741394D01*
Y485500D01*
X747144D01*
Y490750D01*
D02*
G37*
G36*
X568140Y490699D02*
X552900D01*
X550519Y490385D01*
X548301Y489466D01*
X546396Y488004D01*
X544934Y486099D01*
X544296Y484559D01*
X433119D01*
X433119Y484559D01*
X431948Y484326D01*
X430956Y483663D01*
X430956Y483663D01*
X419102Y471809D01*
X404254D01*
X404001Y473079D01*
X405099Y473534D01*
X407005Y474996D01*
X408466Y476901D01*
X409385Y479119D01*
X409699Y481500D01*
X409385Y483881D01*
X408466Y486099D01*
X407005Y488004D01*
X405099Y489466D01*
X402881Y490385D01*
X400500Y490699D01*
X385260D01*
X382879Y490385D01*
X380661Y489466D01*
X378756Y488004D01*
X377294Y486099D01*
X376375Y483881D01*
X376061Y481500D01*
X376375Y479119D01*
X377294Y476901D01*
X378756Y474996D01*
X380661Y473534D01*
X381759Y473079D01*
X381506Y471809D01*
X369980D01*
X368810Y471576D01*
X367817Y470913D01*
X354877Y457973D01*
X336886D01*
X335825Y458682D01*
X334264Y458992D01*
X332703Y458682D01*
X331380Y457798D01*
X330496Y456475D01*
X330186Y454914D01*
X330496Y453353D01*
X331380Y452030D01*
X332703Y451146D01*
X334264Y450836D01*
X335825Y451146D01*
X336886Y451855D01*
X356144D01*
X356144Y451855D01*
X357315Y452088D01*
X358307Y452751D01*
X371247Y465691D01*
X381265D01*
X381517Y464421D01*
X380661Y464066D01*
X378756Y462604D01*
X377294Y460699D01*
X376375Y458481D01*
X376061Y456100D01*
X376375Y453719D01*
X377294Y451501D01*
X378756Y449596D01*
X380086Y448575D01*
X379655Y447305D01*
X337820D01*
X336650Y447072D01*
X335657Y446409D01*
X326081Y436833D01*
X324829Y436584D01*
X323506Y435700D01*
X322622Y434377D01*
X322312Y432816D01*
X322622Y431255D01*
X323506Y429932D01*
X324829Y429048D01*
X326390Y428738D01*
X327951Y429048D01*
X329274Y429932D01*
X330158Y431255D01*
X330407Y432507D01*
X339087Y441187D01*
X541046D01*
X541046Y441187D01*
X542216Y441420D01*
X543209Y442083D01*
X548979Y447853D01*
X550519Y447215D01*
X552900Y446901D01*
X568140D01*
X570521Y447215D01*
X572739Y448134D01*
X574645Y449596D01*
X576106Y451501D01*
X577025Y453719D01*
X577339Y456100D01*
X577025Y458481D01*
X576106Y460699D01*
X574645Y462604D01*
X572739Y464066D01*
X571883Y464421D01*
X572135Y465691D01*
X614878D01*
X615939Y464982D01*
X617500Y464672D01*
X619061Y464982D01*
X620384Y465866D01*
X621268Y467189D01*
X621578Y468750D01*
X621268Y470311D01*
X620384Y471634D01*
X619061Y472518D01*
X617500Y472828D01*
X615939Y472518D01*
X614878Y471809D01*
X571894D01*
X571641Y473079D01*
X572739Y473534D01*
X574645Y474996D01*
X576106Y476901D01*
X577025Y479119D01*
X577339Y481500D01*
X577025Y483881D01*
X576106Y486099D01*
X574645Y488004D01*
X572739Y489466D01*
X570521Y490385D01*
X568140Y490699D01*
D02*
G37*
G36*
X319407Y484168D02*
X313907D01*
Y480418D01*
X319407D01*
Y484168D01*
D02*
G37*
G36*
X312407D02*
X306907D01*
Y480418D01*
X312407D01*
Y484168D01*
D02*
G37*
G36*
X329205Y478801D02*
X329204Y478801D01*
X284226D01*
X284226Y478801D01*
X283055Y478568D01*
X282063Y477905D01*
X274519Y470361D01*
X273267Y470112D01*
X271944Y469228D01*
X271060Y467905D01*
X270750Y466344D01*
X271060Y464783D01*
X271944Y463460D01*
X273267Y462576D01*
X274828Y462266D01*
X276389Y462576D01*
X277712Y463460D01*
X278596Y464783D01*
X278845Y466035D01*
X285493Y472683D01*
X306907D01*
Y464418D01*
X310099D01*
Y445566D01*
X306907D01*
Y444125D01*
X249834D01*
X249834Y444125D01*
X248664Y443892D01*
X247671Y443229D01*
X227883Y423441D01*
X227220Y422449D01*
X226987Y421278D01*
X226987Y421278D01*
Y399700D01*
X226089Y398802D01*
X224546Y398802D01*
X223276Y398802D01*
X214816D01*
X213546Y398802D01*
X212276Y398802D01*
X203816D01*
X202546Y398802D01*
X201276Y398802D01*
X186796D01*
Y390302D01*
Y381802D01*
X192352D01*
X193032Y380532D01*
X192772Y379222D01*
X193082Y377661D01*
X193966Y376338D01*
X195289Y375454D01*
X196850Y375144D01*
X198411Y375454D01*
X199734Y376338D01*
X200618Y377661D01*
X200928Y379222D01*
X200668Y380532D01*
X201348Y381802D01*
X202546Y381802D01*
X204089Y381802D01*
X204987Y380904D01*
Y364714D01*
X204987Y364714D01*
X205009Y364601D01*
Y357000D01*
X206451D01*
Y355577D01*
X206451Y355577D01*
X206684Y354407D01*
X207347Y353414D01*
X248688Y312073D01*
X248202Y310899D01*
X181106D01*
X53136Y438870D01*
X53177Y439503D01*
X54700Y441487D01*
X55658Y443798D01*
X55984Y446278D01*
X55658Y448758D01*
X54700Y451069D01*
X53177Y453053D01*
X51193Y454576D01*
X48882Y455533D01*
X46402Y455860D01*
X36402D01*
X33922Y455533D01*
X31611Y454576D01*
X29627Y453053D01*
X28104Y451069D01*
X27146Y448758D01*
X26820Y446278D01*
X27146Y443798D01*
X28104Y441487D01*
X29627Y439502D01*
X31611Y437980D01*
X33922Y437023D01*
X36402Y436696D01*
X46402D01*
X46658Y436730D01*
X46726Y436628D01*
X177677Y305678D01*
X177677Y305678D01*
X178669Y305015D01*
X179839Y304782D01*
X254187D01*
Y292873D01*
X253589Y292275D01*
X245670D01*
X245560Y292401D01*
X245107Y293545D01*
X245646Y294350D01*
X245917Y295716D01*
X245646Y297082D01*
X244872Y298239D01*
X243714Y299013D01*
X242348Y299285D01*
X234349D01*
X232983Y299013D01*
X232626Y298775D01*
X175705D01*
X76839Y397641D01*
X75847Y398304D01*
X74676Y398537D01*
X74676Y398537D01*
X55418D01*
X54700Y400269D01*
X53177Y402253D01*
X51193Y403776D01*
X48882Y404734D01*
X46402Y405060D01*
X36402D01*
X33922Y404734D01*
X31611Y403776D01*
X29627Y402253D01*
X28104Y400269D01*
X27146Y397958D01*
X26820Y395478D01*
X27146Y392998D01*
X28104Y390687D01*
X29627Y388703D01*
X31611Y387180D01*
X33922Y386222D01*
X36402Y385896D01*
X46402D01*
X48882Y386222D01*
X51193Y387180D01*
X53177Y388703D01*
X54700Y390687D01*
X55418Y392419D01*
X73409D01*
X172275Y293553D01*
X172275Y293553D01*
X173267Y292890D01*
X174438Y292657D01*
X174438Y292657D01*
X231027D01*
X231137Y292531D01*
X231590Y291387D01*
X231052Y290582D01*
X230780Y289216D01*
X231052Y287850D01*
X231590Y287045D01*
X231137Y285901D01*
X231027Y285775D01*
X167877D01*
X81411Y372241D01*
X80419Y372904D01*
X79248Y373137D01*
X79248Y373137D01*
X55418D01*
X54700Y374869D01*
X53177Y376853D01*
X51193Y378376D01*
X48882Y379333D01*
X46402Y379660D01*
X36402D01*
X33922Y379333D01*
X31611Y378376D01*
X29627Y376853D01*
X28104Y374869D01*
X27146Y372558D01*
X26820Y370078D01*
X27146Y367598D01*
X28104Y365287D01*
X29627Y363303D01*
X31611Y361780D01*
X33922Y360822D01*
X36402Y360496D01*
X46402D01*
X48882Y360822D01*
X51193Y361780D01*
X53177Y363303D01*
X54700Y365287D01*
X55418Y367019D01*
X77981D01*
X164447Y280553D01*
X164460Y280545D01*
X164074Y279275D01*
X111131D01*
X53136Y337270D01*
X53177Y337903D01*
X54700Y339887D01*
X55658Y342198D01*
X55984Y344678D01*
X55658Y347158D01*
X54700Y349469D01*
X53177Y351453D01*
X51193Y352976D01*
X48882Y353933D01*
X46402Y354260D01*
X36402D01*
X33922Y353933D01*
X31611Y352976D01*
X29627Y351453D01*
X28104Y349469D01*
X27146Y347158D01*
X26820Y344678D01*
X27146Y342198D01*
X28104Y339887D01*
X29627Y337903D01*
X31611Y336380D01*
X33922Y335423D01*
X36402Y335096D01*
X46402D01*
X46658Y335130D01*
X46726Y335028D01*
X107701Y274053D01*
X107701Y274053D01*
X107714Y274045D01*
X107328Y272775D01*
X91469D01*
X53046Y311198D01*
X53129Y312465D01*
X53177Y312502D01*
X54700Y314487D01*
X55658Y316798D01*
X55984Y319278D01*
X55658Y321758D01*
X54700Y324069D01*
X53177Y326053D01*
X51193Y327576D01*
X48882Y328534D01*
X46402Y328860D01*
X36402D01*
X33922Y328534D01*
X31611Y327576D01*
X29627Y326053D01*
X28104Y324069D01*
X27146Y321758D01*
X26820Y319278D01*
X27146Y316798D01*
X28104Y314487D01*
X29627Y312502D01*
X31611Y310980D01*
X33922Y310023D01*
X36402Y309696D01*
X46172D01*
X46726Y308866D01*
X52148Y303444D01*
X51309Y302487D01*
X51193Y302576D01*
X48882Y303533D01*
X46402Y303860D01*
X36402D01*
X33922Y303533D01*
X31611Y302576D01*
X29627Y301053D01*
X28104Y299069D01*
X27146Y296758D01*
X26820Y294278D01*
X27146Y291798D01*
X28104Y289487D01*
X29627Y287502D01*
X31611Y285980D01*
X33922Y285023D01*
X36402Y284696D01*
X46402D01*
X46658Y284730D01*
X46726Y284628D01*
X70301Y261053D01*
X70301Y261053D01*
X71294Y260390D01*
X72464Y260157D01*
X178044D01*
X178429Y258887D01*
X178417Y258879D01*
X178417Y258879D01*
X176455Y256917D01*
X175203Y256668D01*
X173880Y255784D01*
X172996Y254461D01*
X172685Y252900D01*
X172996Y251339D01*
X173880Y250016D01*
X175203Y249132D01*
X176764Y248822D01*
X178325Y249132D01*
X179648Y250016D01*
X180532Y251339D01*
X180781Y252591D01*
X181847Y253657D01*
X231027D01*
X231137Y253531D01*
X231590Y252387D01*
X231052Y251582D01*
X230780Y250216D01*
X231052Y248850D01*
X231825Y247693D01*
X232983Y246919D01*
X233184Y246879D01*
Y237306D01*
X231742D01*
Y224806D01*
X233184D01*
Y192665D01*
X171207D01*
X162605Y201267D01*
Y202500D01*
X162605Y202500D01*
X162546Y202796D01*
Y207500D01*
X149546D01*
Y199500D01*
X156587D01*
X156720Y198829D01*
X157383Y197837D01*
X167777Y187443D01*
X168769Y186780D01*
X169940Y186547D01*
X234975D01*
X248686Y172837D01*
X249678Y172174D01*
X250849Y171941D01*
X250849Y171941D01*
X273790D01*
X273854Y171617D01*
X274738Y170294D01*
X276061Y169410D01*
X277622Y169100D01*
X279183Y169410D01*
X280506Y170294D01*
X281390Y171617D01*
X281454Y171941D01*
X286750D01*
Y170500D01*
X299250D01*
Y171941D01*
X305250D01*
Y170250D01*
X317750D01*
Y179250D01*
X305250D01*
Y178059D01*
X299250D01*
Y179500D01*
X286750D01*
Y178059D01*
X280244D01*
X279183Y178768D01*
X277622Y179078D01*
X276061Y178768D01*
X275000Y178059D01*
X252115D01*
X239301Y190873D01*
Y224806D01*
X240742D01*
Y237306D01*
X239301D01*
Y246647D01*
X242348D01*
X243714Y246919D01*
X244071Y247157D01*
X251848D01*
X251849Y247157D01*
X253019Y247390D01*
X254011Y248053D01*
X260511Y254553D01*
X260511Y254553D01*
X261175Y255546D01*
X261407Y256716D01*
X261407Y256716D01*
Y290503D01*
X261175Y291674D01*
X260511Y292666D01*
X260511Y292666D01*
X260305Y292873D01*
Y307840D01*
X260305Y307841D01*
X260072Y309011D01*
X259409Y310003D01*
X213682Y355730D01*
X214010Y357000D01*
X214009D01*
Y369500D01*
X211105D01*
Y380904D01*
X212003Y381802D01*
X213546Y381802D01*
X215089Y381802D01*
X215987Y380904D01*
Y379646D01*
X215107Y379058D01*
X214223Y377735D01*
X213912Y376174D01*
X214223Y374613D01*
X215107Y373290D01*
X216430Y372406D01*
X217990Y372096D01*
X219551Y372406D01*
X220874Y373290D01*
X221758Y374613D01*
X222069Y376174D01*
X221982Y376612D01*
X222105Y377230D01*
X222105Y377230D01*
Y380904D01*
X223003Y381802D01*
X224546Y381802D01*
X225816Y381802D01*
X228388D01*
X228876Y381476D01*
X230046Y381243D01*
X231217Y381476D01*
X231704Y381802D01*
X235546Y381802D01*
X236816Y381802D01*
X246546D01*
Y398802D01*
X236816D01*
X235546Y398802D01*
X234003Y398802D01*
X233105Y399700D01*
Y420011D01*
X251101Y438007D01*
X306907D01*
Y436566D01*
X319407D01*
Y445566D01*
X316216D01*
Y464418D01*
X319407D01*
Y472683D01*
X324712D01*
Y465020D01*
X337212D01*
Y474020D01*
X332743D01*
Y475262D01*
X332743Y475263D01*
X332510Y476433D01*
X331847Y477425D01*
X331367Y477905D01*
X330375Y478568D01*
X329205Y478801D01*
D02*
G37*
G36*
X811250Y500250D02*
X793250D01*
Y487250D01*
X794765D01*
X795251Y486077D01*
X775483Y466309D01*
X753250D01*
Y469500D01*
X744250D01*
Y457000D01*
X753250D01*
Y460191D01*
X776750D01*
X776750Y460191D01*
X777921Y460424D01*
X778913Y461087D01*
X801670Y483844D01*
X801670Y483844D01*
X802333Y484837D01*
X802566Y486007D01*
X802566Y486007D01*
Y487250D01*
X811250D01*
Y500250D01*
D02*
G37*
G36*
X737250Y469500D02*
X728250D01*
Y466309D01*
X692122D01*
X691061Y467018D01*
X689500Y467328D01*
X687939Y467018D01*
X686616Y466134D01*
X685732Y464811D01*
X685422Y463250D01*
X685732Y461689D01*
X686616Y460366D01*
X687939Y459482D01*
X689500Y459172D01*
X691061Y459482D01*
X692122Y460191D01*
X728250D01*
Y457000D01*
X737250D01*
Y469500D01*
D02*
G37*
G36*
X864908Y436060D02*
X846408D01*
Y432619D01*
X805908D01*
Y436060D01*
X787408D01*
Y432619D01*
X757740D01*
Y434517D01*
X745240D01*
Y432619D01*
X741144D01*
Y434700D01*
X728644D01*
Y433259D01*
X690200D01*
X690200Y433259D01*
X689029Y433026D01*
X688037Y432363D01*
X682941Y427267D01*
X681689Y427018D01*
X680366Y426134D01*
X679482Y424811D01*
X679172Y423250D01*
X679482Y421689D01*
X680366Y420366D01*
X681689Y419482D01*
X683250Y419172D01*
X684811Y419482D01*
X686134Y420366D01*
X687018Y421689D01*
X687267Y422941D01*
X691467Y427141D01*
X728644D01*
Y425700D01*
X741144D01*
Y426501D01*
X745240D01*
Y425517D01*
X757740D01*
Y426501D01*
X787408D01*
Y423060D01*
X805908D01*
Y426501D01*
X846408D01*
Y423060D01*
X864908D01*
Y427121D01*
X865321Y427397D01*
X865984Y428390D01*
X866217Y429560D01*
X865984Y430731D01*
X865321Y431723D01*
X864908Y431999D01*
Y436060D01*
D02*
G37*
G36*
X319407Y429566D02*
X306907D01*
Y428125D01*
X303741D01*
X302680Y428834D01*
X301119Y429144D01*
X299558Y428834D01*
X298235Y427950D01*
X297351Y426627D01*
X297041Y425066D01*
X297351Y423505D01*
X298235Y422182D01*
X299558Y421298D01*
X301119Y420988D01*
X302680Y421298D01*
X303741Y422007D01*
X306907D01*
Y420566D01*
X319407D01*
Y429566D01*
D02*
G37*
G36*
X46402Y430860D02*
X42152D01*
Y422028D01*
X55885D01*
X55658Y423758D01*
X54700Y426069D01*
X53177Y428053D01*
X51193Y429576D01*
X48882Y430533D01*
X46402Y430860D01*
D02*
G37*
G36*
X40652D02*
X36402D01*
X33922Y430533D01*
X31611Y429576D01*
X29627Y428053D01*
X28104Y426069D01*
X27146Y423758D01*
X26919Y422028D01*
X40652D01*
Y430860D01*
D02*
G37*
G36*
X568140Y439899D02*
X552900D01*
X550519Y439585D01*
X548301Y438666D01*
X546396Y437205D01*
X544934Y435299D01*
X544015Y433081D01*
X543701Y430700D01*
X544015Y428319D01*
X544653Y426779D01*
X538485Y420611D01*
X403142D01*
X402881Y421815D01*
X405099Y422734D01*
X407005Y424196D01*
X408466Y426101D01*
X409385Y428319D01*
X409699Y430700D01*
X409385Y433081D01*
X408466Y435299D01*
X407005Y437205D01*
X405099Y438666D01*
X402881Y439585D01*
X400500Y439899D01*
X385260D01*
X382879Y439585D01*
X380661Y438666D01*
X378756Y437205D01*
X377294Y435299D01*
X376656Y433759D01*
X340530D01*
X340530Y433759D01*
X339360Y433526D01*
X338367Y432863D01*
X338367Y432863D01*
X320717Y415213D01*
X315730D01*
X314559Y414980D01*
X313567Y414317D01*
X313567Y414317D01*
X313535Y414285D01*
X259162D01*
X258101Y414994D01*
X256540Y415304D01*
X254979Y414994D01*
X253656Y414110D01*
X252772Y412787D01*
X252462Y411226D01*
X252772Y409665D01*
X253656Y408342D01*
X254979Y407458D01*
X256540Y407148D01*
X258101Y407458D01*
X259162Y408167D01*
X313230D01*
X314035Y407186D01*
X313930Y406654D01*
X314240Y405093D01*
X315124Y403770D01*
X316447Y402886D01*
X318008Y402576D01*
X319569Y402886D01*
X320630Y403595D01*
X360040D01*
X360040Y403595D01*
X361211Y403828D01*
X362203Y404491D01*
X372205Y414493D01*
X380160D01*
X380615Y413352D01*
X380605Y413223D01*
X378756Y411805D01*
X377294Y409899D01*
X376375Y407681D01*
X376061Y405300D01*
X376375Y402919D01*
X377294Y400701D01*
X378756Y398796D01*
X380661Y397334D01*
X382879Y396415D01*
X385260Y396101D01*
X400500D01*
X402881Y396415D01*
X405099Y397334D01*
X407005Y398796D01*
X408466Y400701D01*
X409385Y402919D01*
X409699Y405300D01*
X409385Y407681D01*
X408466Y409899D01*
X407005Y411805D01*
X405155Y413223D01*
X405145Y413352D01*
X405600Y414493D01*
X539752D01*
X539752Y414493D01*
X540923Y414726D01*
X541915Y415389D01*
X548979Y422453D01*
X550519Y421815D01*
X552900Y421501D01*
X568140D01*
X570521Y421815D01*
X572739Y422734D01*
X574645Y424196D01*
X576106Y426101D01*
X577025Y428319D01*
X577339Y430700D01*
X577025Y433081D01*
X576106Y435299D01*
X574645Y437205D01*
X572739Y438666D01*
X570521Y439585D01*
X568140Y439899D01*
D02*
G37*
G36*
X741144Y418700D02*
X735644D01*
Y414950D01*
X741144D01*
Y418700D01*
D02*
G37*
G36*
X734144D02*
X728644D01*
Y414950D01*
X734144D01*
Y418700D01*
D02*
G37*
G36*
X55885Y420528D02*
X42152D01*
Y411696D01*
X46402D01*
X48882Y412023D01*
X51193Y412980D01*
X53177Y414502D01*
X54700Y416487D01*
X55658Y418798D01*
X55885Y420528D01*
D02*
G37*
G36*
X40652D02*
X26919D01*
X27146Y418798D01*
X28104Y416487D01*
X29627Y414502D01*
X31611Y412980D01*
X33922Y412023D01*
X36402Y411696D01*
X40652D01*
Y420528D01*
D02*
G37*
G36*
X741144Y413450D02*
X735644D01*
Y409700D01*
X741144D01*
Y413450D01*
D02*
G37*
G36*
X734144D02*
X728644D01*
Y409700D01*
X734144D01*
Y413450D01*
D02*
G37*
G36*
X151546Y415802D02*
X143296D01*
Y408552D01*
X151546D01*
Y415802D01*
D02*
G37*
G36*
X141796D02*
X133546D01*
Y408552D01*
X141796D01*
Y415802D01*
D02*
G37*
G36*
X861250Y500250D02*
X843250D01*
Y487250D01*
X861250D01*
Y487515D01*
X862423Y488001D01*
X873691Y476733D01*
Y410919D01*
X866178Y403406D01*
X864908Y403932D01*
Y406060D01*
X846408D01*
Y402619D01*
X805908D01*
Y406060D01*
X787408D01*
X787408Y406060D01*
Y406060D01*
X786394Y406650D01*
X776864Y416180D01*
X775872Y416843D01*
X774701Y417076D01*
X774701Y417076D01*
X757740D01*
Y418517D01*
X745240D01*
Y409517D01*
X757740D01*
Y410958D01*
X773434D01*
X786995Y397397D01*
X787408Y397121D01*
Y393060D01*
X805908D01*
Y396501D01*
X846408D01*
Y393060D01*
X864908D01*
Y395188D01*
X866178Y395714D01*
X873533Y388359D01*
Y331517D01*
X857495Y315479D01*
X856832Y314487D01*
X856599Y313316D01*
X855507Y312839D01*
X846408D01*
Y309398D01*
X805908D01*
Y312839D01*
X787408D01*
Y308778D01*
X786995Y308502D01*
X786332Y307510D01*
X786099Y306339D01*
Y297106D01*
X780052Y291059D01*
X747701D01*
X739793Y298967D01*
Y299450D01*
X739734Y299746D01*
Y305450D01*
X727234D01*
Y304009D01*
X723699D01*
X723311Y304268D01*
X721750Y304578D01*
X720189Y304268D01*
X718866Y303384D01*
X717982Y302061D01*
X717871Y301501D01*
X716493Y301083D01*
X703969Y313607D01*
X703913Y313691D01*
X703913Y313691D01*
X700691Y316913D01*
X700607Y316969D01*
X696663Y320913D01*
X695671Y321576D01*
X694500Y321809D01*
X694500Y321809D01*
X575628D01*
X575015Y323079D01*
X576061Y324441D01*
X643878D01*
X644939Y323732D01*
X646500Y323422D01*
X648061Y323732D01*
X649384Y324616D01*
X650268Y325939D01*
X650578Y327500D01*
X650268Y329061D01*
X649384Y330384D01*
X648061Y331268D01*
X646500Y331578D01*
X644939Y331268D01*
X643878Y330559D01*
X577147D01*
X577025Y331481D01*
X576106Y333699D01*
X574808Y335391D01*
X575161Y336661D01*
X676896D01*
X677102Y336352D01*
X678425Y335468D01*
X679986Y335158D01*
X681547Y335468D01*
X682870Y336352D01*
X683533Y337345D01*
X684958Y337716D01*
X707387Y315287D01*
X708379Y314624D01*
X709550Y314391D01*
X709550Y314391D01*
X727234D01*
Y312450D01*
X739734D01*
Y314391D01*
X744984D01*
Y312950D01*
X757484D01*
Y314391D01*
X766769D01*
X766769Y314391D01*
X767939Y314624D01*
X768932Y315287D01*
X786235Y332590D01*
X787408Y332104D01*
Y329839D01*
X805908D01*
Y335777D01*
X846408D01*
Y329839D01*
X864908D01*
Y342839D01*
X846408D01*
Y341895D01*
X805908D01*
Y342839D01*
X787408D01*
Y340398D01*
X786658D01*
X785487Y340165D01*
X784495Y339502D01*
X784495Y339502D01*
X765502Y320509D01*
X757484D01*
Y321950D01*
X744984D01*
Y320509D01*
X739734D01*
Y321450D01*
X727234D01*
Y320509D01*
X710817D01*
X664043Y367283D01*
X663051Y367946D01*
X661880Y368179D01*
X661880Y368179D01*
X548501D01*
X548501Y368179D01*
X547331Y367946D01*
X546338Y367283D01*
X536614Y357559D01*
X409104D01*
X408466Y359099D01*
X407168Y360791D01*
X407521Y362061D01*
X491130D01*
X491130Y362061D01*
X492300Y362294D01*
X493293Y362957D01*
X532577Y402241D01*
X544296D01*
X544934Y400701D01*
X546396Y398796D01*
X548301Y397334D01*
X550519Y396415D01*
X552900Y396101D01*
X568140D01*
X570521Y396415D01*
X572739Y397334D01*
X574645Y398796D01*
X576106Y400701D01*
X577025Y402919D01*
X577339Y405300D01*
X577025Y407681D01*
X576106Y409899D01*
X574645Y411805D01*
X572739Y413266D01*
X570521Y414185D01*
X568140Y414499D01*
X552900D01*
X550519Y414185D01*
X548301Y413266D01*
X546396Y411805D01*
X544934Y409899D01*
X544296Y408359D01*
X531310D01*
X530140Y408126D01*
X529147Y407463D01*
X529147Y407463D01*
X489863Y368179D01*
X380861D01*
X380861Y368179D01*
X379691Y367946D01*
X378698Y367283D01*
X378698Y367283D01*
X377724Y366309D01*
X373372D01*
X372311Y367018D01*
X370750Y367328D01*
X369189Y367018D01*
X367866Y366134D01*
X366982Y364811D01*
X366672Y363250D01*
X366982Y361689D01*
X367866Y360366D01*
X369189Y359482D01*
X370750Y359172D01*
X372311Y359482D01*
X373372Y360191D01*
X376726D01*
X377220Y358921D01*
X376375Y356881D01*
X376061Y354500D01*
X376375Y352119D01*
X377294Y349901D01*
X378756Y347996D01*
X380661Y346534D01*
X382879Y345615D01*
X385260Y345301D01*
X400500D01*
X402881Y345615D01*
X405099Y346534D01*
X407005Y347996D01*
X408466Y349901D01*
X409104Y351441D01*
X537881D01*
X537881Y351441D01*
X539052Y351674D01*
X540044Y352337D01*
X542589Y354882D01*
X543736Y354234D01*
X544015Y352119D01*
X544934Y349901D01*
X546396Y347996D01*
X548301Y346534D01*
X550519Y345615D01*
X552900Y345301D01*
X568140D01*
X570521Y345615D01*
X572739Y346534D01*
X574645Y347996D01*
X576106Y349901D01*
X576744Y351441D01*
X649815D01*
X650366Y350616D01*
X651689Y349732D01*
X653250Y349422D01*
X654811Y349732D01*
X656134Y350616D01*
X657018Y351939D01*
X657328Y353500D01*
X657018Y355061D01*
X656134Y356384D01*
X654811Y357268D01*
X653250Y357578D01*
X652430Y357415D01*
X651709Y357559D01*
X651709Y357559D01*
X576744D01*
X576106Y359099D01*
X574808Y360791D01*
X575161Y362061D01*
X660613D01*
X678466Y344208D01*
X678095Y342783D01*
X678088Y342779D01*
X678088Y342779D01*
X678087Y342779D01*
X548501D01*
X548501Y342779D01*
X547331Y342546D01*
X546338Y341883D01*
X536614Y332159D01*
X409104D01*
X408466Y333699D01*
X407005Y335605D01*
X405099Y337066D01*
X402881Y337985D01*
X400500Y338299D01*
X385260D01*
X382879Y337985D01*
X380661Y337066D01*
X378756Y335605D01*
X377294Y333699D01*
X376375Y331481D01*
X376061Y329100D01*
X376375Y326719D01*
X377294Y324501D01*
X378756Y322596D01*
X380661Y321134D01*
X382879Y320215D01*
X385260Y319901D01*
X400500D01*
X402881Y320215D01*
X405099Y321134D01*
X407005Y322596D01*
X408466Y324501D01*
X409104Y326041D01*
X537881D01*
X537881Y326041D01*
X539052Y326274D01*
X540044Y326937D01*
X542589Y329482D01*
X543736Y328834D01*
X544015Y326719D01*
X544934Y324501D01*
X546232Y322809D01*
X545879Y321539D01*
X415280D01*
X415280Y321539D01*
X414109Y321306D01*
X413117Y320643D01*
X413117Y320643D01*
X404421Y311947D01*
X402881Y312585D01*
X400500Y312899D01*
X385260D01*
X382879Y312585D01*
X380661Y311666D01*
X378756Y310205D01*
X377294Y308299D01*
X376375Y306081D01*
X376061Y303700D01*
X376375Y301319D01*
X377294Y299101D01*
X378756Y297196D01*
X380661Y295734D01*
X382879Y294815D01*
X382702Y293562D01*
X375736D01*
X348655Y320643D01*
X347663Y321306D01*
X346492Y321539D01*
X346492Y321539D01*
X302241D01*
X301180Y322248D01*
X299619Y322558D01*
X298058Y322248D01*
X296735Y321364D01*
X295851Y320041D01*
X295541Y318480D01*
X295851Y316919D01*
X296735Y315596D01*
X298058Y314712D01*
X299619Y314402D01*
X301180Y314712D01*
X302241Y315421D01*
X345225D01*
X372306Y288340D01*
X373298Y287677D01*
X374469Y287445D01*
X380187D01*
X380536Y286576D01*
X380541Y286175D01*
X378756Y284804D01*
X377294Y282899D01*
X376375Y280681D01*
X376061Y278300D01*
X376375Y275919D01*
X377294Y273701D01*
X376271Y272985D01*
X339252Y310003D01*
X338260Y310667D01*
X337090Y310899D01*
X337089Y310899D01*
X289791D01*
X288729Y311609D01*
X287169Y311919D01*
X285608Y311609D01*
X284285Y310724D01*
X283401Y309401D01*
X283090Y307841D01*
X283401Y306280D01*
X284285Y304957D01*
X285608Y304073D01*
X287169Y303762D01*
X288729Y304073D01*
X289791Y304782D01*
X335822D01*
X378698Y261906D01*
X378698Y261906D01*
X379356Y261466D01*
X379562Y260341D01*
X379511Y259984D01*
X378756Y259405D01*
X377294Y257499D01*
X376656Y255959D01*
X374058D01*
X374058Y255959D01*
X372887Y255726D01*
X371895Y255063D01*
X371895Y255063D01*
X329949Y213117D01*
X298955D01*
X289044Y223028D01*
X289570Y224298D01*
X289993D01*
Y236798D01*
X284288D01*
X283993Y236857D01*
X283992Y236857D01*
X283510D01*
X280681Y239686D01*
Y280222D01*
X286616Y286157D01*
X288027D01*
X288137Y286031D01*
X288590Y284887D01*
X288052Y284082D01*
X287780Y282716D01*
X288052Y281350D01*
X288825Y280193D01*
X288962Y280101D01*
Y278831D01*
X288825Y278739D01*
X288052Y277582D01*
X287780Y276216D01*
X288052Y274850D01*
X288825Y273693D01*
X288962Y273601D01*
Y272331D01*
X288825Y272239D01*
X288052Y271082D01*
X287780Y269716D01*
X288052Y268350D01*
X288825Y267193D01*
X288962Y267101D01*
Y265831D01*
X288825Y265739D01*
X288052Y264582D01*
X287780Y263216D01*
X288052Y261850D01*
X288825Y260693D01*
X288962Y260601D01*
Y259331D01*
X288825Y259239D01*
X288052Y258082D01*
X287780Y256716D01*
X288052Y255350D01*
X288825Y254193D01*
X288962Y254101D01*
Y252831D01*
X288825Y252739D01*
X288052Y251582D01*
X287929Y250966D01*
X295349D01*
X302768D01*
X302645Y251582D01*
X301872Y252739D01*
X301735Y252831D01*
Y254101D01*
X301872Y254193D01*
X302516Y255157D01*
X358758D01*
X358783Y255140D01*
X360344Y254830D01*
X361905Y255140D01*
X363228Y256024D01*
X364112Y257347D01*
X364422Y258908D01*
X364112Y260469D01*
X363228Y261792D01*
X361905Y262676D01*
X360344Y262986D01*
X358783Y262676D01*
X357608Y261891D01*
X357247Y261829D01*
X356950Y261881D01*
X356116Y263217D01*
X356285Y264069D01*
X355975Y265630D01*
X355091Y266953D01*
X353768Y267837D01*
X352207Y268147D01*
X350646Y267837D01*
X349323Y266953D01*
X348870Y266275D01*
X347063D01*
X346678Y267545D01*
X346800Y267626D01*
X347684Y268949D01*
X347994Y270510D01*
X347684Y272071D01*
X346800Y273394D01*
X345477Y274278D01*
X343916Y274588D01*
X342355Y274278D01*
X341032Y273394D01*
X340619Y272775D01*
X329169D01*
X328491Y274045D01*
X328899Y274655D01*
X329209Y276216D01*
X328899Y277777D01*
X328014Y279100D01*
X326691Y279984D01*
X325131Y280294D01*
X323570Y279984D01*
X322957Y279575D01*
X322503Y279773D01*
X322052Y281302D01*
X322284Y281649D01*
X322594Y283210D01*
X322284Y284771D01*
X321400Y286094D01*
X320077Y286978D01*
X318516Y287288D01*
X316955Y286978D01*
X315632Y286094D01*
X315419Y285775D01*
X302670D01*
X302560Y285901D01*
X302107Y287045D01*
X302645Y287850D01*
X302917Y289216D01*
X302645Y290582D01*
X302107Y291387D01*
X302560Y292531D01*
X302670Y292657D01*
X332128D01*
X333189Y291948D01*
X334750Y291638D01*
X336311Y291948D01*
X337634Y292832D01*
X338518Y294155D01*
X338828Y295716D01*
X338518Y297277D01*
X337634Y298600D01*
X336311Y299484D01*
X334750Y299794D01*
X333189Y299484D01*
X332128Y298775D01*
X301071D01*
X300714Y299013D01*
X299349Y299285D01*
X291348D01*
X289983Y299013D01*
X288825Y298239D01*
X288052Y297082D01*
X287780Y295716D01*
X288052Y294350D01*
X288590Y293545D01*
X288137Y292401D01*
X288027Y292275D01*
X286616D01*
X277887Y301004D01*
Y319450D01*
X278596Y320511D01*
X278906Y322072D01*
X278596Y323633D01*
X277712Y324956D01*
X276389Y325840D01*
X274828Y326150D01*
X273267Y325840D01*
X271944Y324956D01*
X271060Y323633D01*
X270750Y322072D01*
X271060Y320511D01*
X271769Y319450D01*
Y299737D01*
X271769Y299737D01*
X272002Y298566D01*
X272665Y297574D01*
X281023Y289216D01*
X275459Y283652D01*
X274796Y282660D01*
X274563Y281490D01*
X274563Y281489D01*
Y238419D01*
X274563Y238419D01*
X274796Y237248D01*
X275459Y236256D01*
X280080Y231635D01*
X280080Y231635D01*
X280993Y231025D01*
Y224298D01*
X282434D01*
Y222254D01*
X282434Y222253D01*
X282667Y221083D01*
X283330Y220091D01*
X295525Y207895D01*
X295525Y207895D01*
X296518Y207232D01*
X297688Y206999D01*
X331216D01*
X331216Y206999D01*
X332387Y207232D01*
X333379Y207895D01*
X375325Y249841D01*
X376656D01*
X377294Y248301D01*
X378756Y246396D01*
X380661Y244934D01*
X381506Y244584D01*
X381753Y243338D01*
X368087Y229672D01*
X367424Y228680D01*
X367191Y227509D01*
X367191Y227509D01*
Y214267D01*
X321733Y168809D01*
X298000D01*
X298000Y168809D01*
X296829Y168576D01*
X295837Y167913D01*
X295837Y167913D01*
X294019Y166095D01*
X293356Y165103D01*
X293123Y163932D01*
X292001Y163500D01*
X286750D01*
Y157796D01*
X286691Y157500D01*
X286691Y157500D01*
Y157017D01*
X274220Y144546D01*
X274009Y144231D01*
X273116Y143634D01*
X272232Y142311D01*
X271922Y140750D01*
X272232Y139189D01*
X273116Y137866D01*
X274439Y136982D01*
X276000Y136672D01*
X277561Y136982D01*
X278884Y137866D01*
X279768Y139189D01*
X280078Y140750D01*
X279912Y141586D01*
X291913Y153587D01*
X292523Y154500D01*
X299250D01*
Y162674D01*
X299267Y162691D01*
X305250D01*
Y154250D01*
X317750D01*
Y155941D01*
X360228D01*
X361289Y155232D01*
X362850Y154922D01*
X364411Y155232D01*
X365734Y156116D01*
X366618Y157439D01*
X366928Y159000D01*
X366618Y160561D01*
X365734Y161884D01*
X364411Y162768D01*
X362850Y163078D01*
X361289Y162768D01*
X360228Y162059D01*
X325162D01*
X324776Y163329D01*
X325163Y163587D01*
X372413Y210837D01*
X372413Y210837D01*
X373076Y211829D01*
X373309Y213000D01*
Y226242D01*
X374949Y227882D01*
X376096Y227234D01*
X376375Y225119D01*
X377294Y222901D01*
X378756Y220996D01*
X380661Y219534D01*
X382879Y218615D01*
X385260Y218301D01*
X400500D01*
X402881Y218615D01*
X405099Y219534D01*
X407005Y220996D01*
X408466Y222901D01*
X409104Y224441D01*
X525250D01*
X525250Y224441D01*
X526421Y224674D01*
X527413Y225337D01*
X539767Y237691D01*
X550709D01*
X550792Y236421D01*
X550519Y236385D01*
X548301Y235466D01*
X546396Y234004D01*
X544934Y232099D01*
X544015Y229881D01*
X543701Y227500D01*
X544015Y225119D01*
X544934Y222901D01*
X546396Y220996D01*
X548301Y219534D01*
X550519Y218615D01*
X552900Y218301D01*
X568140D01*
X570521Y218615D01*
X572739Y219534D01*
X574645Y220996D01*
X576106Y222901D01*
X577025Y225119D01*
X577339Y227500D01*
X577025Y229881D01*
X576106Y232099D01*
X574645Y234004D01*
X572739Y235466D01*
X570521Y236385D01*
X570248Y236421D01*
X570331Y237691D01*
X577250D01*
X577250Y237691D01*
X578420Y237924D01*
X579413Y238587D01*
X616067Y275241D01*
X664300D01*
X664300Y275241D01*
X665471Y275474D01*
X666463Y276137D01*
X695622Y305296D01*
X696250Y305172D01*
X697811Y305482D01*
X699134Y306366D01*
X699786Y307342D01*
X701218Y307707D01*
X735191Y273733D01*
Y201750D01*
X732250D01*
Y192750D01*
X744750D01*
Y194191D01*
X749000D01*
Y193278D01*
X761500D01*
Y198983D01*
X761559Y199278D01*
Y199761D01*
X761877Y200079D01*
X761877Y200079D01*
X762540Y201071D01*
X762773Y202242D01*
Y224031D01*
X766061Y227319D01*
X814327D01*
X823441Y218205D01*
Y214629D01*
X822718Y214329D01*
X821151Y213127D01*
X819949Y211560D01*
X819193Y209736D01*
X818935Y207778D01*
X819193Y205820D01*
X819949Y203996D01*
X821151Y202429D01*
X822718Y201227D01*
X824542Y200471D01*
X826500Y200213D01*
X828458Y200471D01*
X830282Y201227D01*
X831849Y202429D01*
X833051Y203996D01*
X833807Y205820D01*
X834065Y207778D01*
X833807Y209736D01*
X833051Y211560D01*
X831849Y213127D01*
X830282Y214329D01*
X829559Y214629D01*
Y219472D01*
X829559Y219472D01*
X829326Y220643D01*
X828663Y221635D01*
X817757Y232541D01*
X816765Y233204D01*
X815594Y233437D01*
X815594Y233437D01*
X764794D01*
X764794Y233437D01*
X763624Y233204D01*
X762631Y232541D01*
X762631Y232541D01*
X757551Y227461D01*
X756888Y226469D01*
X756655Y225298D01*
X756655Y225298D01*
Y203509D01*
X756337Y203191D01*
X755727Y202278D01*
X749000D01*
Y200309D01*
X744750D01*
Y201750D01*
X741309D01*
Y275000D01*
X741076Y276171D01*
X740413Y277163D01*
X740413Y277163D01*
X722333Y295243D01*
X722751Y296621D01*
X723311Y296732D01*
X724634Y297616D01*
X724818Y297891D01*
X727234D01*
Y296450D01*
X733961D01*
X734571Y295537D01*
X744271Y285837D01*
X745264Y285174D01*
X746434Y284941D01*
X746434Y284941D01*
X781319D01*
X781319Y284941D01*
X782489Y285174D01*
X783482Y285837D01*
X791321Y293676D01*
X791984Y294669D01*
X792217Y295839D01*
Y299839D01*
X805908D01*
Y303280D01*
X845142D01*
X846349Y302839D01*
X846349Y302839D01*
Y300845D01*
X844337Y298832D01*
X843674Y297840D01*
X843441Y296670D01*
X843441Y296670D01*
Y214629D01*
X842718Y214329D01*
X841151Y213127D01*
X839949Y211560D01*
X839193Y209736D01*
X838935Y207778D01*
X839193Y205820D01*
X839949Y203996D01*
X841151Y202429D01*
X842718Y201227D01*
X844542Y200471D01*
X846500Y200213D01*
X848458Y200471D01*
X850282Y201227D01*
X851849Y202429D01*
X853051Y203996D01*
X853807Y205820D01*
X854065Y207778D01*
X853807Y209736D01*
X853051Y211560D01*
X851849Y213127D01*
X850282Y214329D01*
X849559Y214629D01*
Y295403D01*
X851571Y297415D01*
X852234Y298407D01*
X852467Y299578D01*
Y299839D01*
X864908D01*
Y312839D01*
X864908D01*
X864498Y313830D01*
X878755Y328087D01*
X878755Y328087D01*
X879418Y329080D01*
X879651Y330250D01*
Y389626D01*
X879651Y389626D01*
X879418Y390797D01*
X878755Y391789D01*
X878755Y391789D01*
X870984Y399560D01*
X878913Y407489D01*
X878913Y407489D01*
X879576Y408481D01*
X879809Y409652D01*
X879809Y409652D01*
Y478000D01*
X879809Y478000D01*
X879576Y479170D01*
X878913Y480163D01*
X864656Y494420D01*
X863663Y495083D01*
X862493Y495316D01*
X862493Y495316D01*
X861250D01*
Y500250D01*
D02*
G37*
G36*
X285046Y400302D02*
X275796D01*
Y392052D01*
X285046D01*
Y400302D01*
D02*
G37*
G36*
X274296D02*
X265046D01*
Y392052D01*
X274296D01*
Y400302D01*
D02*
G37*
G36*
X285046Y390552D02*
X275796D01*
Y382302D01*
X285046D01*
Y390552D01*
D02*
G37*
G36*
X274296D02*
X265046D01*
Y382302D01*
X274296D01*
Y390552D01*
D02*
G37*
G36*
X148296D02*
X139546D01*
Y382302D01*
X148296D01*
Y390552D01*
D02*
G37*
G36*
X151546Y407052D02*
X133546D01*
Y399802D01*
X139546D01*
Y392052D01*
X149046D01*
Y391302D01*
X149796D01*
Y382302D01*
X157483D01*
X158546Y381802D01*
X159609Y381802D01*
X170306Y381802D01*
X170985Y380532D01*
X170670Y380061D01*
X170360Y378500D01*
X170670Y376939D01*
X171554Y375616D01*
X172877Y374732D01*
X174438Y374422D01*
X175999Y374732D01*
X177322Y375616D01*
X178206Y376939D01*
X178516Y378500D01*
X178206Y380061D01*
X178057Y380283D01*
X178105Y380522D01*
X178105Y380522D01*
Y380904D01*
X179003Y381802D01*
X180546Y381802D01*
X181816Y381802D01*
X185296D01*
Y390302D01*
Y398802D01*
X181816D01*
X180546Y398802D01*
X179276Y398802D01*
X170816D01*
X169546Y398802D01*
X168276Y398802D01*
X158546Y398802D01*
X158546Y400302D01*
X151546D01*
Y407052D01*
D02*
G37*
G36*
X568140Y389099D02*
X552900D01*
X550519Y388785D01*
X548301Y387866D01*
X546396Y386404D01*
X544934Y384499D01*
X544015Y382281D01*
X543701Y379900D01*
X544015Y377519D01*
X544934Y375301D01*
X546396Y373396D01*
X548301Y371934D01*
X550519Y371015D01*
X552900Y370701D01*
X568140D01*
X570521Y371015D01*
X572739Y371934D01*
X574645Y373396D01*
X576106Y375301D01*
X577025Y377519D01*
X577339Y379900D01*
X577025Y382281D01*
X576106Y384499D01*
X574645Y386404D01*
X572739Y387866D01*
X570521Y388785D01*
X568140Y389099D01*
D02*
G37*
G36*
X400500D02*
X385260D01*
X382879Y388785D01*
X380661Y387866D01*
X378756Y386404D01*
X377294Y384499D01*
X376375Y382281D01*
X376061Y379900D01*
X376375Y377519D01*
X377294Y375301D01*
X378756Y373396D01*
X380661Y371934D01*
X382879Y371015D01*
X385260Y370701D01*
X400500D01*
X402881Y371015D01*
X405099Y371934D01*
X407005Y373396D01*
X408466Y375301D01*
X409385Y377519D01*
X409699Y379900D01*
X409385Y382281D01*
X408466Y384499D01*
X407005Y386404D01*
X405099Y387866D01*
X402881Y388785D01*
X400500Y389099D01*
D02*
G37*
G36*
X198009Y369500D02*
X194259D01*
Y364000D01*
X198009D01*
Y369500D01*
D02*
G37*
G36*
X192759D02*
X189009D01*
Y364000D01*
X192759D01*
Y369500D01*
D02*
G37*
G36*
X198009Y362500D02*
X194259D01*
Y357000D01*
X198009D01*
Y362500D01*
D02*
G37*
G36*
X192759D02*
X189009D01*
Y357000D01*
X192759D01*
Y362500D01*
D02*
G37*
G36*
X743750Y402597D02*
X738807Y402208D01*
X733986Y401051D01*
X729405Y399154D01*
X725178Y396563D01*
X721407Y393343D01*
X718187Y389572D01*
X715596Y385345D01*
X713699Y380764D01*
X712542Y375943D01*
X712153Y371000D01*
X712542Y366057D01*
X713699Y361236D01*
X715596Y356655D01*
X718187Y352427D01*
X721407Y348657D01*
X725178Y345437D01*
X729405Y342846D01*
X733986Y340949D01*
X738807Y339792D01*
X743750Y339403D01*
X748693Y339792D01*
X753514Y340949D01*
X758095Y342846D01*
X762322Y345437D01*
X766093Y348657D01*
X769313Y352427D01*
X771904Y356655D01*
X773801Y361236D01*
X774958Y366057D01*
X775347Y371000D01*
X774958Y375943D01*
X773801Y380764D01*
X771904Y385345D01*
X769313Y389572D01*
X766093Y393343D01*
X762322Y396563D01*
X758095Y399154D01*
X753514Y401051D01*
X748693Y402208D01*
X743750Y402597D01*
D02*
G37*
G36*
X757484Y305950D02*
X751984D01*
Y302200D01*
X757484D01*
Y305950D01*
D02*
G37*
G36*
X750484D02*
X744984D01*
Y302200D01*
X750484D01*
Y305950D01*
D02*
G37*
G36*
X757484Y300700D02*
X751984D01*
Y296950D01*
X757484D01*
Y300700D01*
D02*
G37*
G36*
X750484D02*
X744984D01*
Y296950D01*
X750484D01*
Y300700D01*
D02*
G37*
G36*
X302768Y249466D02*
X296098D01*
Y246647D01*
X299349D01*
X300714Y246919D01*
X301872Y247693D01*
X302645Y248850D01*
X302768Y249466D01*
D02*
G37*
G36*
X294599D02*
X287929D01*
X288052Y248850D01*
X288825Y247693D01*
X289983Y246919D01*
X291348Y246647D01*
X294599D01*
Y249466D01*
D02*
G37*
G36*
X46402Y252660D02*
X36402D01*
X33922Y252334D01*
X31611Y251376D01*
X29627Y249853D01*
X28104Y247869D01*
X27146Y245558D01*
X26820Y243078D01*
X27146Y240598D01*
X28104Y238287D01*
X29627Y236303D01*
X31611Y234780D01*
X33922Y233822D01*
X36402Y233496D01*
X46402D01*
X48882Y233822D01*
X51193Y234780D01*
X53177Y236303D01*
X54700Y238287D01*
X55658Y240598D01*
X55984Y243078D01*
X55658Y245558D01*
X54700Y247869D01*
X53177Y249853D01*
X51193Y251376D01*
X48882Y252334D01*
X46402Y252660D01*
D02*
G37*
G36*
X256742Y237306D02*
X252993D01*
Y231806D01*
X256742D01*
Y237306D01*
D02*
G37*
G36*
X251493D02*
X247743D01*
Y231806D01*
X251493D01*
Y237306D01*
D02*
G37*
G36*
X305993Y236798D02*
X302243D01*
Y231298D01*
X305993D01*
Y236798D01*
D02*
G37*
G36*
X300743D02*
X296992D01*
Y231298D01*
X300743D01*
Y236798D01*
D02*
G37*
G36*
X179960Y227740D02*
X170560D01*
Y226799D01*
X161304D01*
X161303Y226799D01*
X160133Y226566D01*
X160122Y226559D01*
X157046D01*
X157046Y226559D01*
X156750Y226500D01*
X149546D01*
Y218500D01*
X162546D01*
Y220681D01*
X169665D01*
X169751Y220595D01*
X169751Y220595D01*
X170560Y220055D01*
Y219740D01*
X171709D01*
X171914Y219699D01*
X188979D01*
X197841Y210837D01*
X197841Y210837D01*
X198833Y210174D01*
X200004Y209941D01*
X216424D01*
X217485Y209232D01*
X219046Y208922D01*
X220607Y209232D01*
X221930Y210116D01*
X222814Y211439D01*
X223124Y213000D01*
X222814Y214561D01*
X221930Y215884D01*
X220607Y216768D01*
X219046Y217078D01*
X217485Y216768D01*
X216424Y216059D01*
X201271D01*
X192409Y224921D01*
X191416Y225584D01*
X190246Y225817D01*
X190246Y225817D01*
X179960D01*
Y227740D01*
D02*
G37*
G36*
X256742Y230306D02*
X252993D01*
Y224806D01*
X256742D01*
Y230306D01*
D02*
G37*
G36*
X251493D02*
X247743D01*
Y224806D01*
X251493D01*
Y230306D01*
D02*
G37*
G36*
X305993Y229798D02*
X302243D01*
Y224298D01*
X305993D01*
Y229798D01*
D02*
G37*
G36*
X300743D02*
X296992D01*
Y224298D01*
X300743D01*
Y229798D01*
D02*
G37*
G36*
X135546Y226500D02*
X122546D01*
Y218500D01*
X135546D01*
Y226500D01*
D02*
G37*
G36*
X179960Y217140D02*
X176010D01*
Y213890D01*
X179960D01*
Y217140D01*
D02*
G37*
G36*
X174510D02*
X170560D01*
Y213890D01*
X174510D01*
Y217140D01*
D02*
G37*
G36*
X162546Y217000D02*
X156796D01*
Y213750D01*
X162546D01*
Y217000D01*
D02*
G37*
G36*
X155296D02*
X149546D01*
Y213750D01*
X155296D01*
Y217000D01*
D02*
G37*
G36*
X179960Y212390D02*
X176010D01*
Y209140D01*
X179960D01*
Y212390D01*
D02*
G37*
G36*
X174510D02*
X170560D01*
Y209140D01*
X174510D01*
Y212390D01*
D02*
G37*
G36*
X162546Y212250D02*
X156796D01*
Y209000D01*
X162546D01*
Y212250D01*
D02*
G37*
G36*
X155296D02*
X149546D01*
Y209000D01*
X155296D01*
Y212250D01*
D02*
G37*
G36*
X135546Y217000D02*
X122546D01*
Y209000D01*
X135546D01*
Y217000D01*
D02*
G37*
G36*
X807250Y215244D02*
Y208528D01*
X813966D01*
X813807Y209736D01*
X813051Y211560D01*
X811849Y213127D01*
X810282Y214329D01*
X808458Y215085D01*
X807250Y215244D01*
D02*
G37*
G36*
X805750D02*
X804542Y215085D01*
X802718Y214329D01*
X801151Y213127D01*
X799949Y211560D01*
X799193Y209736D01*
X799034Y208528D01*
X805750D01*
Y215244D01*
D02*
G37*
G36*
X568140Y211299D02*
X552900D01*
X550519Y210985D01*
X548301Y210066D01*
X546396Y208605D01*
X544934Y206699D01*
X544296Y205159D01*
X512394D01*
X512394Y205159D01*
X511223Y204926D01*
X510231Y204263D01*
X510231Y204263D01*
X484438Y178470D01*
X483097Y178925D01*
X483033Y179417D01*
X482378Y180998D01*
X481336Y182356D01*
X479978Y183398D01*
X478397Y184053D01*
X476700Y184276D01*
X475003Y184053D01*
X473422Y183398D01*
X472064Y182356D01*
X471022Y180998D01*
X470367Y179417D01*
X470144Y177720D01*
X470367Y176023D01*
X471022Y174442D01*
X472064Y173084D01*
X473422Y172042D01*
X475003Y171387D01*
X475494Y171323D01*
X475950Y169982D01*
X459038Y153070D01*
X457697Y153525D01*
X457633Y154017D01*
X456978Y155598D01*
X455936Y156956D01*
X454578Y157998D01*
X452997Y158653D01*
X451300Y158876D01*
X449603Y158653D01*
X448022Y157998D01*
X446664Y156956D01*
X445622Y155598D01*
X444967Y154017D01*
X444744Y152320D01*
X444967Y150623D01*
X445622Y149042D01*
X446664Y147684D01*
X448022Y146642D01*
X449603Y145987D01*
X449778Y145964D01*
X450186Y144762D01*
X435233Y129809D01*
X102750D01*
X101579Y129576D01*
X100587Y128913D01*
X100587Y128913D01*
X38189Y66515D01*
X37526Y65523D01*
X37293Y64352D01*
X37293Y64352D01*
Y46016D01*
X35561Y45298D01*
X33577Y43776D01*
X32054Y41791D01*
X31097Y39480D01*
X30770Y37000D01*
Y27000D01*
X31097Y24520D01*
X32054Y22209D01*
X33577Y20224D01*
X35561Y18702D01*
X37872Y17744D01*
X40352Y17418D01*
X42832Y17744D01*
X45143Y18702D01*
X47127Y20224D01*
X48650Y22209D01*
X49608Y24520D01*
X49934Y27000D01*
Y37000D01*
X49608Y39480D01*
X48650Y41791D01*
X47127Y43776D01*
X45143Y45298D01*
X43411Y46016D01*
Y63085D01*
X104017Y123691D01*
X109911D01*
X110036Y122421D01*
X109557Y122326D01*
X108565Y121663D01*
X63558Y76656D01*
X62895Y75663D01*
X62662Y74493D01*
X62662Y74493D01*
Y72007D01*
X62662Y72007D01*
X62693Y71849D01*
Y46016D01*
X60961Y45298D01*
X58977Y43776D01*
X57454Y41791D01*
X56497Y39480D01*
X56170Y37000D01*
Y27000D01*
X56497Y24520D01*
X57454Y22209D01*
X58977Y20224D01*
X60961Y18702D01*
X63272Y17744D01*
X65752Y17418D01*
X68232Y17744D01*
X70543Y18702D01*
X72527Y20224D01*
X74050Y22209D01*
X75008Y24520D01*
X75334Y27000D01*
Y37000D01*
X75008Y39480D01*
X74050Y41791D01*
X72527Y43776D01*
X70543Y45298D01*
X68811Y46016D01*
Y71976D01*
X68811Y71976D01*
X68779Y72134D01*
Y73226D01*
X111995Y116441D01*
X457250D01*
X457250Y116441D01*
X458420Y116674D01*
X459413Y117337D01*
X494305Y152229D01*
X495619Y151748D01*
X495767Y150623D01*
X496422Y149042D01*
X497464Y147684D01*
X498822Y146642D01*
X500403Y145987D01*
X502100Y145764D01*
X503797Y145987D01*
X505378Y146642D01*
X506736Y147684D01*
X507778Y149042D01*
X508433Y150623D01*
X508656Y152320D01*
X508433Y154017D01*
X507778Y155598D01*
X506736Y156956D01*
X505378Y157998D01*
X503797Y158653D01*
X502673Y158801D01*
X502191Y160115D01*
X515717Y173641D01*
X544296D01*
X544934Y172101D01*
X546396Y170196D01*
X548301Y168734D01*
X550519Y167815D01*
X552900Y167501D01*
X568140D01*
X570521Y167815D01*
X572739Y168734D01*
X574645Y170196D01*
X576106Y172101D01*
X577025Y174319D01*
X577339Y176700D01*
X577025Y179081D01*
X576106Y181299D01*
X574645Y183204D01*
X572739Y184666D01*
X570521Y185585D01*
X568140Y185899D01*
X552900D01*
X550519Y185585D01*
X548301Y184666D01*
X546396Y183204D01*
X544934Y181299D01*
X544296Y179759D01*
X514450D01*
X514450Y179759D01*
X513279Y179526D01*
X512287Y178863D01*
X512287Y178863D01*
X509754Y176330D01*
X508551Y176923D01*
X508656Y177720D01*
X508433Y179417D01*
X507778Y180998D01*
X506736Y182356D01*
X505378Y183398D01*
X503797Y184053D01*
X502100Y184276D01*
X500478Y184062D01*
X500379Y184147D01*
X499920Y185301D01*
X513661Y199041D01*
X544296D01*
X544934Y197501D01*
X546396Y195596D01*
X548301Y194134D01*
X550519Y193215D01*
X552900Y192901D01*
X568140D01*
X570521Y193215D01*
X572739Y194134D01*
X574645Y195596D01*
X576106Y197501D01*
X577025Y199719D01*
X577339Y202100D01*
X577025Y204481D01*
X576106Y206699D01*
X574645Y208605D01*
X572739Y210066D01*
X570521Y210985D01*
X568140Y211299D01*
D02*
G37*
G36*
X400500D02*
X393630D01*
Y202850D01*
X409600D01*
X409385Y204481D01*
X408466Y206699D01*
X407005Y208605D01*
X405099Y210066D01*
X402881Y210985D01*
X400500Y211299D01*
D02*
G37*
G36*
X392130D02*
X385260D01*
X382879Y210985D01*
X380661Y210066D01*
X378756Y208605D01*
X377294Y206699D01*
X376375Y204481D01*
X376160Y202850D01*
X392130D01*
Y211299D01*
D02*
G37*
G36*
X813966Y207028D02*
X807250D01*
Y200312D01*
X808458Y200471D01*
X810282Y201227D01*
X811849Y202429D01*
X813051Y203996D01*
X813807Y205820D01*
X813966Y207028D01*
D02*
G37*
G36*
X805750D02*
X799034D01*
X799193Y205820D01*
X799949Y203996D01*
X801151Y202429D01*
X802718Y201227D01*
X804542Y200471D01*
X805750Y200312D01*
Y207028D01*
D02*
G37*
G36*
X46402Y278060D02*
X36402D01*
X33922Y277733D01*
X31611Y276776D01*
X29627Y275254D01*
X28104Y273269D01*
X27146Y270958D01*
X26820Y268478D01*
X27146Y265998D01*
X28104Y263687D01*
X29627Y261702D01*
X31611Y260180D01*
X33922Y259223D01*
X36402Y258896D01*
X46402D01*
X48882Y259223D01*
X51193Y260180D01*
X53177Y261702D01*
X53789Y262500D01*
X55443Y262600D01*
X116705Y201337D01*
X116705Y201337D01*
X117697Y200674D01*
X118868Y200441D01*
X118868Y200441D01*
X122546D01*
Y199500D01*
X135546D01*
Y207500D01*
X122546D01*
Y206559D01*
X120135D01*
X58148Y268546D01*
X57155Y269209D01*
X55985Y269442D01*
X55697Y270661D01*
X55658Y270958D01*
X54700Y273269D01*
X53177Y275254D01*
X51193Y276776D01*
X48882Y277733D01*
X46402Y278060D01*
D02*
G37*
G36*
X409600Y201350D02*
X393630D01*
Y192901D01*
X400500D01*
X402881Y193215D01*
X405099Y194134D01*
X407005Y195596D01*
X408466Y197501D01*
X409385Y199719D01*
X409600Y201350D01*
D02*
G37*
G36*
X392130D02*
X376160D01*
X376375Y199719D01*
X377294Y197501D01*
X378756Y195596D01*
X380661Y194134D01*
X382879Y193215D01*
X385260Y192901D01*
X392130D01*
Y201350D01*
D02*
G37*
G36*
X874500Y209377D02*
X871498Y208982D01*
X868700Y207823D01*
X866298Y205980D01*
X864455Y203578D01*
X863296Y200780D01*
X862901Y197778D01*
X863296Y194776D01*
X864455Y191978D01*
X866298Y189576D01*
X868700Y187733D01*
X871498Y186574D01*
X874500Y186179D01*
X877502Y186574D01*
X880300Y187733D01*
X882702Y189576D01*
X884545Y191978D01*
X885704Y194776D01*
X886099Y197778D01*
X885704Y200780D01*
X884545Y203578D01*
X882702Y205980D01*
X880300Y207823D01*
X877502Y208982D01*
X874500Y209377D01*
D02*
G37*
G36*
X778500D02*
X775498Y208982D01*
X772700Y207823D01*
X770298Y205980D01*
X768455Y203578D01*
X767296Y200780D01*
X766901Y197778D01*
X767296Y194776D01*
X768455Y191978D01*
X770298Y189576D01*
X772700Y187733D01*
X775498Y186574D01*
X778500Y186179D01*
X781502Y186574D01*
X784300Y187733D01*
X786702Y189576D01*
X788545Y191978D01*
X789704Y194776D01*
X790099Y197778D01*
X789704Y200780D01*
X788545Y203578D01*
X786702Y205980D01*
X784300Y207823D01*
X781502Y208982D01*
X778500Y209377D01*
D02*
G37*
G36*
X761500Y186278D02*
X756000D01*
Y182528D01*
X761500D01*
Y186278D01*
D02*
G37*
G36*
X754500D02*
X749000D01*
Y182528D01*
X754500D01*
Y186278D01*
D02*
G37*
G36*
X744750Y185750D02*
X739250D01*
Y182000D01*
X744750D01*
Y185750D01*
D02*
G37*
G36*
X737750D02*
X732250D01*
Y182000D01*
X737750D01*
Y185750D01*
D02*
G37*
G36*
X846500Y195343D02*
X844542Y195085D01*
X842718Y194329D01*
X841151Y193127D01*
X839949Y191560D01*
X839193Y189736D01*
X838935Y187778D01*
X839193Y185820D01*
X839949Y183996D01*
X841151Y182429D01*
X842718Y181227D01*
X844542Y180471D01*
X846500Y180213D01*
X848458Y180471D01*
X850282Y181227D01*
X851849Y182429D01*
X853051Y183996D01*
X853807Y185820D01*
X854065Y187778D01*
X853807Y189736D01*
X853051Y191560D01*
X851849Y193127D01*
X850282Y194329D01*
X848458Y195085D01*
X846500Y195343D01*
D02*
G37*
G36*
X826500D02*
X824542Y195085D01*
X822718Y194329D01*
X821151Y193127D01*
X819949Y191560D01*
X819193Y189736D01*
X818935Y187778D01*
X819193Y185820D01*
X819949Y183996D01*
X821151Y182429D01*
X822718Y181227D01*
X824542Y180471D01*
X826500Y180213D01*
X828458Y180471D01*
X830282Y181227D01*
X831849Y182429D01*
X833051Y183996D01*
X833807Y185820D01*
X834065Y187778D01*
X833807Y189736D01*
X833051Y191560D01*
X831849Y193127D01*
X830282Y194329D01*
X828458Y195085D01*
X826500Y195343D01*
D02*
G37*
G36*
X806500D02*
X804542Y195085D01*
X802718Y194329D01*
X801151Y193127D01*
X799949Y191560D01*
X799193Y189736D01*
X798935Y187778D01*
X799193Y185820D01*
X799949Y183996D01*
X801151Y182429D01*
X802718Y181227D01*
X804542Y180471D01*
X806500Y180213D01*
X808458Y180471D01*
X810282Y181227D01*
X811849Y182429D01*
X813051Y183996D01*
X813807Y185820D01*
X814065Y187778D01*
X813807Y189736D01*
X813051Y191560D01*
X811849Y193127D01*
X810282Y194329D01*
X808458Y195085D01*
X806500Y195343D01*
D02*
G37*
G36*
X761500Y181028D02*
X756000D01*
Y177278D01*
X761500D01*
Y181028D01*
D02*
G37*
G36*
X754500D02*
X749000D01*
Y177278D01*
X754500D01*
Y181028D01*
D02*
G37*
G36*
X744750Y180500D02*
X739250D01*
Y176750D01*
X744750D01*
Y180500D01*
D02*
G37*
G36*
X737750D02*
X732250D01*
Y176750D01*
X737750D01*
Y180500D01*
D02*
G37*
G36*
X451300Y184276D02*
X449603Y184053D01*
X448022Y183398D01*
X446664Y182356D01*
X445622Y180998D01*
X444967Y179417D01*
X444744Y177720D01*
X444967Y176023D01*
X445622Y174442D01*
X446664Y173084D01*
X448022Y172042D01*
X449603Y171387D01*
X451300Y171164D01*
X452997Y171387D01*
X454578Y172042D01*
X455936Y173084D01*
X456978Y174442D01*
X457633Y176023D01*
X457856Y177720D01*
X457633Y179417D01*
X456978Y180998D01*
X455936Y182356D01*
X454578Y183398D01*
X452997Y184053D01*
X451300Y184276D01*
D02*
G37*
G36*
X400500Y185899D02*
X385260D01*
X382879Y185585D01*
X380661Y184666D01*
X378756Y183204D01*
X377294Y181299D01*
X376375Y179081D01*
X376061Y176700D01*
X376375Y174319D01*
X377294Y172101D01*
X378756Y170196D01*
X380661Y168734D01*
X382879Y167815D01*
X385260Y167501D01*
X400500D01*
X402881Y167815D01*
X405099Y168734D01*
X407005Y170196D01*
X408466Y172101D01*
X409385Y174319D01*
X409699Y176700D01*
X409385Y179081D01*
X408466Y181299D01*
X407005Y183204D01*
X405099Y184666D01*
X402881Y185585D01*
X400500Y185899D01*
D02*
G37*
G36*
X671402Y199860D02*
X667244Y199533D01*
X663188Y198559D01*
X659334Y196963D01*
X655778Y194783D01*
X652606Y192074D01*
X649897Y188902D01*
X647717Y185346D01*
X646121Y181492D01*
X645147Y177436D01*
X644820Y173278D01*
X645147Y169120D01*
X646121Y165064D01*
X647717Y161210D01*
X649897Y157654D01*
X652606Y154482D01*
X655778Y151773D01*
X659334Y149593D01*
X663188Y147997D01*
X667244Y147023D01*
X671402Y146696D01*
X675560Y147023D01*
X679616Y147997D01*
X683470Y149593D01*
X687027Y151773D01*
X690198Y154482D01*
X692907Y157654D01*
X695087Y161210D01*
X696683Y165064D01*
X697657Y169120D01*
X697984Y173278D01*
X697657Y177436D01*
X696683Y181492D01*
X695087Y185346D01*
X692907Y188902D01*
X690198Y192074D01*
X687027Y194783D01*
X683470Y196963D01*
X679616Y198559D01*
X675560Y199533D01*
X671402Y199860D01*
D02*
G37*
G36*
X56902Y199760D02*
X52744Y199433D01*
X48688Y198459D01*
X44834Y196863D01*
X41277Y194683D01*
X38106Y191974D01*
X35397Y188803D01*
X33217Y185246D01*
X31621Y181392D01*
X30647Y177336D01*
X30320Y173178D01*
X30647Y169020D01*
X31621Y164964D01*
X33217Y161110D01*
X35397Y157554D01*
X38106Y154382D01*
X41277Y151673D01*
X44834Y149493D01*
X48688Y147897D01*
X52744Y146923D01*
X56902Y146596D01*
X61060Y146923D01*
X65116Y147897D01*
X68970Y149493D01*
X72526Y151673D01*
X75698Y154382D01*
X78407Y157554D01*
X80587Y161110D01*
X82183Y164964D01*
X83157Y169020D01*
X83484Y173178D01*
X83157Y177336D01*
X82183Y181392D01*
X80587Y185246D01*
X78407Y188803D01*
X75698Y191974D01*
X72526Y194683D01*
X68970Y196863D01*
X65116Y198459D01*
X61060Y199433D01*
X56902Y199760D01*
D02*
G37*
G36*
X552900Y161139D02*
X550354Y160804D01*
X547980Y159821D01*
X545943Y158257D01*
X544379Y156220D01*
X543396Y153847D01*
X543061Y151300D01*
X543396Y148753D01*
X544379Y146380D01*
X545943Y144343D01*
X547980Y142779D01*
X550354Y141796D01*
X552900Y141461D01*
X555447Y141796D01*
X557820Y142779D01*
X559857Y144343D01*
X561421Y146380D01*
X562404Y148753D01*
X562739Y151300D01*
X562404Y153847D01*
X561421Y156220D01*
X559857Y158257D01*
X557820Y159821D01*
X555447Y160804D01*
X552900Y161139D01*
D02*
G37*
G36*
X400500D02*
X397953Y160804D01*
X395580Y159821D01*
X393543Y158257D01*
X391979Y156220D01*
X390996Y153847D01*
X390661Y151300D01*
X390996Y148753D01*
X391979Y146380D01*
X393543Y144343D01*
X395580Y142779D01*
X397953Y141796D01*
X400500Y141461D01*
X403047Y141796D01*
X405420Y142779D01*
X407457Y144343D01*
X409021Y146380D01*
X410004Y148753D01*
X410339Y151300D01*
X410004Y153847D01*
X409021Y156220D01*
X407457Y158257D01*
X405420Y159821D01*
X403047Y160804D01*
X400500Y161139D01*
D02*
G37*
G36*
X648870Y86078D02*
X648870Y86078D01*
X334750D01*
X334750Y86078D01*
X333189Y85768D01*
X331866Y84884D01*
X331866Y84884D01*
X298590Y51608D01*
X297706Y50285D01*
X297395Y48724D01*
X297395Y48724D01*
Y46382D01*
X295986Y45798D01*
X294002Y44275D01*
X292479Y42291D01*
X291522Y39980D01*
X291195Y37500D01*
Y27500D01*
X291522Y25020D01*
X292479Y22709D01*
X294002Y20724D01*
X295986Y19202D01*
X298297Y18245D01*
X300777Y17918D01*
X303257Y18245D01*
X305568Y19202D01*
X307553Y20724D01*
X309075Y22709D01*
X310033Y25020D01*
X310359Y27500D01*
Y37500D01*
X310033Y39980D01*
X309075Y42291D01*
X307553Y44275D01*
X305568Y45798D01*
X305552Y45805D01*
Y47034D01*
X336439Y77922D01*
X409172D01*
Y45843D01*
X408459Y45548D01*
X406474Y44026D01*
X404952Y42041D01*
X403994Y39730D01*
X403668Y37250D01*
Y27250D01*
X403994Y24770D01*
X404952Y22459D01*
X406474Y20475D01*
X408459Y18952D01*
X410770Y17995D01*
X413250Y17668D01*
X415730Y17995D01*
X418041Y18952D01*
X420025Y20475D01*
X421548Y22459D01*
X422505Y24770D01*
X422832Y27250D01*
Y37250D01*
X422505Y39730D01*
X421548Y42041D01*
X420025Y44026D01*
X418041Y45548D01*
X417328Y45843D01*
Y77922D01*
X647181D01*
X656822Y68281D01*
Y45343D01*
X656109Y45048D01*
X654125Y43526D01*
X652602Y41541D01*
X651645Y39230D01*
X651318Y36750D01*
Y26750D01*
X651645Y24270D01*
X652602Y21959D01*
X654125Y19974D01*
X656109Y18452D01*
X658420Y17494D01*
X660900Y17168D01*
X663380Y17494D01*
X665691Y18452D01*
X667675Y19974D01*
X669198Y21959D01*
X670155Y24270D01*
X670482Y26750D01*
Y36750D01*
X670155Y39230D01*
X669198Y41541D01*
X667675Y43526D01*
X665691Y45048D01*
X664978Y45343D01*
Y69970D01*
X664668Y71531D01*
X663784Y72854D01*
X663784Y72854D01*
X651754Y84884D01*
X650431Y85768D01*
X650172Y85819D01*
X648870Y86078D01*
D02*
G37*
G36*
X251127Y46983D02*
Y33250D01*
X259959D01*
Y37500D01*
X259633Y39980D01*
X258675Y42291D01*
X257153Y44275D01*
X255168Y45798D01*
X252857Y46755D01*
X251127Y46983D01*
D02*
G37*
G36*
X249627D02*
X247897Y46755D01*
X245586Y45798D01*
X243602Y44275D01*
X242079Y42291D01*
X241122Y39980D01*
X240795Y37500D01*
Y33250D01*
X249627D01*
Y46983D01*
D02*
G37*
G36*
X363600Y46733D02*
Y33000D01*
X372432D01*
Y37250D01*
X372105Y39730D01*
X371148Y42041D01*
X369625Y44026D01*
X367641Y45548D01*
X365330Y46505D01*
X363600Y46733D01*
D02*
G37*
G36*
X362100D02*
X360370Y46505D01*
X358059Y45548D01*
X356074Y44026D01*
X354552Y42041D01*
X353595Y39730D01*
X353268Y37250D01*
Y33000D01*
X362100D01*
Y46733D01*
D02*
G37*
G36*
X845400D02*
Y33000D01*
X854232D01*
Y37250D01*
X853905Y39730D01*
X852948Y42041D01*
X851425Y44026D01*
X849441Y45548D01*
X847130Y46505D01*
X845400Y46733D01*
D02*
G37*
G36*
X843900Y46733D02*
X842170Y46505D01*
X839859Y45548D01*
X837875Y44026D01*
X836352Y42041D01*
X835395Y39730D01*
X835068Y37250D01*
Y33000D01*
X843900D01*
Y46733D01*
D02*
G37*
G36*
X91902Y46483D02*
Y32750D01*
X100734D01*
Y37000D01*
X100407Y39480D01*
X99450Y41791D01*
X97928Y43776D01*
X95943Y45298D01*
X93632Y46255D01*
X91902Y46483D01*
D02*
G37*
G36*
X90402D02*
X88672Y46255D01*
X86361Y45298D01*
X84377Y43776D01*
X82854Y41791D01*
X81897Y39480D01*
X81570Y37000D01*
Y32750D01*
X90402D01*
Y46483D01*
D02*
G37*
G36*
X611250Y46233D02*
Y32500D01*
X620082D01*
Y36750D01*
X619755Y39230D01*
X618798Y41541D01*
X617275Y43526D01*
X615291Y45048D01*
X612980Y46006D01*
X611250Y46233D01*
D02*
G37*
G36*
X609750D02*
X608020Y46006D01*
X605709Y45048D01*
X603725Y43526D01*
X602202Y41541D01*
X601245Y39230D01*
X600918Y36750D01*
Y32500D01*
X609750D01*
Y46233D01*
D02*
G37*
G36*
X549500Y45983D02*
Y32250D01*
X558332D01*
Y36500D01*
X558005Y38980D01*
X557048Y41291D01*
X555525Y43275D01*
X553541Y44798D01*
X551230Y45756D01*
X549500Y45983D01*
D02*
G37*
G36*
X548000D02*
X546270Y45756D01*
X543959Y44798D01*
X541974Y43275D01*
X540452Y41291D01*
X539495Y38980D01*
X539168Y36500D01*
Y32250D01*
X548000D01*
Y45983D01*
D02*
G37*
G36*
X187500Y94581D02*
X182557Y94192D01*
X177736Y93035D01*
X173155Y91138D01*
X168927Y88547D01*
X165157Y85327D01*
X161937Y81557D01*
X159347Y77329D01*
X157449Y72748D01*
X156292Y67927D01*
X155903Y62984D01*
X156292Y58041D01*
X157449Y53220D01*
X159347Y48639D01*
X161937Y44412D01*
X165157Y40641D01*
X168927Y37421D01*
X173155Y34831D01*
X177736Y32933D01*
X182557Y31776D01*
X187500Y31387D01*
X192443Y31776D01*
X197264Y32933D01*
X201845Y34831D01*
X206073Y37421D01*
X209843Y40641D01*
X213063Y44412D01*
X215653Y48639D01*
X217551Y53220D01*
X218708Y58041D01*
X219097Y62984D01*
X218708Y67927D01*
X217551Y72748D01*
X215653Y77329D01*
X213063Y81557D01*
X209843Y85327D01*
X206073Y88547D01*
X201845Y91138D01*
X197264Y93035D01*
X192443Y94192D01*
X187500Y94581D01*
D02*
G37*
G36*
X729250Y92331D02*
X724307Y91942D01*
X719486Y90785D01*
X714905Y88888D01*
X710677Y86297D01*
X706907Y83077D01*
X703687Y79307D01*
X701096Y75079D01*
X699199Y70498D01*
X698042Y65677D01*
X697653Y60734D01*
X698042Y55791D01*
X699199Y50970D01*
X701096Y46389D01*
X703687Y42161D01*
X706907Y38391D01*
X710677Y35171D01*
X714905Y32580D01*
X719486Y30683D01*
X724307Y29526D01*
X729250Y29137D01*
X734193Y29526D01*
X739014Y30683D01*
X743595Y32580D01*
X747822Y35171D01*
X751593Y38391D01*
X754813Y42161D01*
X757403Y46389D01*
X759301Y50970D01*
X760458Y55791D01*
X760847Y60734D01*
X760458Y65677D01*
X759301Y70498D01*
X757403Y75079D01*
X754813Y79307D01*
X751593Y83077D01*
X747822Y86297D01*
X743595Y88888D01*
X739014Y90785D01*
X734193Y91942D01*
X729250Y92331D01*
D02*
G37*
G36*
X869650Y46832D02*
X867170Y46505D01*
X864859Y45548D01*
X862875Y44026D01*
X861352Y42041D01*
X860395Y39730D01*
X860068Y37250D01*
Y28301D01*
X859661Y28029D01*
X859661Y28029D01*
X854487Y22854D01*
X853410Y23574D01*
X853905Y24770D01*
X854232Y27250D01*
Y31500D01*
X845400D01*
Y17767D01*
X847130Y17995D01*
X848326Y18490D01*
X849046Y17413D01*
X846711Y15078D01*
X138841D01*
X126141Y27779D01*
X125734Y28051D01*
Y37000D01*
X125407Y39480D01*
X124450Y41791D01*
X122928Y43776D01*
X120943Y45298D01*
X118632Y46255D01*
X116152Y46582D01*
X113672Y46255D01*
X111361Y45298D01*
X109377Y43776D01*
X107854Y41791D01*
X106897Y39480D01*
X106570Y37000D01*
Y27000D01*
X106897Y24520D01*
X107854Y22209D01*
X109377Y20224D01*
X111361Y18702D01*
X113672Y17744D01*
X116152Y17418D01*
X118632Y17744D01*
X120943Y18702D01*
X122493Y19891D01*
X134268Y8116D01*
X134268Y8116D01*
X135591Y7232D01*
X137152Y6922D01*
X137152Y6922D01*
X848400D01*
X848400Y6922D01*
X849961Y7232D01*
X851284Y8116D01*
X863309Y20141D01*
X864859Y18952D01*
X867170Y17995D01*
X869650Y17668D01*
X872130Y17995D01*
X874441Y18952D01*
X876425Y20475D01*
X877948Y22459D01*
X878905Y24770D01*
X879232Y27250D01*
Y37250D01*
X878905Y39730D01*
X877948Y42041D01*
X876425Y44026D01*
X874441Y45548D01*
X872130Y46505D01*
X869650Y46832D01*
D02*
G37*
G36*
X259959Y31750D02*
X251127D01*
Y18017D01*
X252857Y18245D01*
X255168Y19202D01*
X257153Y20724D01*
X258675Y22709D01*
X259633Y25020D01*
X259959Y27500D01*
Y31750D01*
D02*
G37*
G36*
X249627D02*
X240795D01*
Y27500D01*
X241122Y25020D01*
X242079Y22709D01*
X243602Y20724D01*
X245586Y19202D01*
X247897Y18245D01*
X249627Y18017D01*
Y31750D01*
D02*
G37*
G36*
X275777Y47082D02*
X273297Y46755D01*
X270986Y45798D01*
X269002Y44275D01*
X267479Y42291D01*
X266522Y39980D01*
X266195Y37500D01*
Y27500D01*
X266522Y25020D01*
X267479Y22709D01*
X269002Y20724D01*
X270986Y19202D01*
X273297Y18245D01*
X275777Y17918D01*
X278257Y18245D01*
X280568Y19202D01*
X282553Y20724D01*
X284075Y22709D01*
X285033Y25020D01*
X285359Y27500D01*
Y37500D01*
X285033Y39980D01*
X284075Y42291D01*
X282553Y44275D01*
X280568Y45798D01*
X278257Y46755D01*
X275777Y47082D01*
D02*
G37*
G36*
X843900Y31500D02*
X835068D01*
Y27250D01*
X835395Y24770D01*
X836352Y22459D01*
X837875Y20475D01*
X839859Y18952D01*
X842170Y17995D01*
X843900Y17767D01*
Y31500D01*
D02*
G37*
G36*
X362100Y31500D02*
X353268D01*
Y27250D01*
X353595Y24770D01*
X354552Y22459D01*
X356074Y20475D01*
X358059Y18952D01*
X360370Y17995D01*
X362100Y17767D01*
Y31500D01*
D02*
G37*
G36*
X372432D02*
X363600D01*
Y17767D01*
X365330Y17995D01*
X367641Y18952D01*
X369625Y20475D01*
X371148Y22459D01*
X372105Y24770D01*
X372432Y27250D01*
Y31500D01*
D02*
G37*
G36*
X819250Y46832D02*
X816770Y46505D01*
X814459Y45548D01*
X812475Y44026D01*
X810952Y42041D01*
X809995Y39730D01*
X809668Y37250D01*
Y27250D01*
X809995Y24770D01*
X810952Y22459D01*
X812475Y20475D01*
X814459Y18952D01*
X816770Y17995D01*
X819250Y17668D01*
X821730Y17995D01*
X824041Y18952D01*
X826025Y20475D01*
X827548Y22459D01*
X828505Y24770D01*
X828832Y27250D01*
Y37250D01*
X828505Y39730D01*
X827548Y42041D01*
X826025Y44026D01*
X824041Y45548D01*
X821730Y46505D01*
X819250Y46832D01*
D02*
G37*
G36*
X793850D02*
X791370Y46505D01*
X789059Y45548D01*
X787075Y44026D01*
X785552Y42041D01*
X784594Y39730D01*
X784268Y37250D01*
Y27250D01*
X784594Y24770D01*
X785552Y22459D01*
X787075Y20475D01*
X789059Y18952D01*
X791370Y17995D01*
X793850Y17668D01*
X796330Y17995D01*
X798641Y18952D01*
X800625Y20475D01*
X802148Y22459D01*
X803105Y24770D01*
X803432Y27250D01*
Y37250D01*
X803105Y39730D01*
X802148Y42041D01*
X800625Y44026D01*
X798641Y45548D01*
X796330Y46505D01*
X793850Y46832D01*
D02*
G37*
G36*
X388250D02*
X385770Y46505D01*
X383459Y45548D01*
X381474Y44026D01*
X379952Y42041D01*
X378994Y39730D01*
X378668Y37250D01*
Y27250D01*
X378994Y24770D01*
X379952Y22459D01*
X381474Y20475D01*
X383459Y18952D01*
X385770Y17995D01*
X388250Y17668D01*
X390730Y17995D01*
X393041Y18952D01*
X395025Y20475D01*
X396548Y22459D01*
X397505Y24770D01*
X397832Y27250D01*
Y37250D01*
X397505Y39730D01*
X396548Y42041D01*
X395025Y44026D01*
X393041Y45548D01*
X390730Y46505D01*
X388250Y46832D01*
D02*
G37*
G36*
X100734Y31250D02*
X91902D01*
Y17517D01*
X93632Y17744D01*
X95943Y18702D01*
X97928Y20224D01*
X99450Y22209D01*
X100407Y24520D01*
X100734Y27000D01*
Y31250D01*
D02*
G37*
G36*
X90402D02*
X81570D01*
Y27000D01*
X81897Y24520D01*
X82854Y22209D01*
X84377Y20224D01*
X86361Y18702D01*
X88672Y17744D01*
X90402Y17517D01*
Y31250D01*
D02*
G37*
G36*
X620082Y31000D02*
X611250D01*
Y17267D01*
X612980Y17494D01*
X615291Y18452D01*
X617275Y19974D01*
X618798Y21959D01*
X619755Y24270D01*
X620082Y26750D01*
Y31000D01*
D02*
G37*
G36*
X609750D02*
X600918D01*
Y26750D01*
X601245Y24270D01*
X602202Y21959D01*
X603725Y19974D01*
X605709Y18452D01*
X608020Y17494D01*
X609750Y17267D01*
Y31000D01*
D02*
G37*
G36*
X635900Y46332D02*
X633420Y46006D01*
X631109Y45048D01*
X629124Y43526D01*
X627602Y41541D01*
X626645Y39230D01*
X626318Y36750D01*
Y26750D01*
X626645Y24270D01*
X627602Y21959D01*
X629124Y19974D01*
X631109Y18452D01*
X633420Y17494D01*
X635900Y17168D01*
X638380Y17494D01*
X640691Y18452D01*
X642675Y19974D01*
X644198Y21959D01*
X645155Y24270D01*
X645482Y26750D01*
Y36750D01*
X645155Y39230D01*
X644198Y41541D01*
X642675Y43526D01*
X640691Y45048D01*
X638380Y46006D01*
X635900Y46332D01*
D02*
G37*
G36*
X558332Y30750D02*
X549500D01*
Y17017D01*
X551230Y17244D01*
X553541Y18202D01*
X555525Y19725D01*
X557048Y21709D01*
X558005Y24020D01*
X558332Y26500D01*
Y30750D01*
D02*
G37*
G36*
X548000D02*
X539168D01*
Y26500D01*
X539495Y24020D01*
X540452Y21709D01*
X541974Y19725D01*
X543959Y18202D01*
X546270Y17244D01*
X548000Y17017D01*
Y30750D01*
D02*
G37*
G36*
X523750Y46082D02*
X521270Y45756D01*
X518959Y44798D01*
X516974Y43275D01*
X515452Y41291D01*
X514495Y38980D01*
X514168Y36500D01*
Y26500D01*
X514495Y24020D01*
X515452Y21709D01*
X516974Y19725D01*
X518959Y18202D01*
X521270Y17244D01*
X523750Y16918D01*
X526230Y17244D01*
X528541Y18202D01*
X530525Y19725D01*
X532048Y21709D01*
X533005Y24020D01*
X533332Y26500D01*
Y36500D01*
X533005Y38980D01*
X532048Y41291D01*
X530525Y43275D01*
X528541Y44798D01*
X526230Y45756D01*
X523750Y46082D01*
D02*
G37*
G36*
X498350D02*
X495870Y45756D01*
X493559Y44798D01*
X491575Y43275D01*
X490052Y41291D01*
X489095Y38980D01*
X488768Y36500D01*
Y26500D01*
X489095Y24020D01*
X490052Y21709D01*
X491575Y19725D01*
X493559Y18202D01*
X495870Y17244D01*
X498350Y16918D01*
X500830Y17244D01*
X503141Y18202D01*
X505125Y19725D01*
X506648Y21709D01*
X507605Y24020D01*
X507932Y26500D01*
Y36500D01*
X507605Y38980D01*
X506648Y41291D01*
X505125Y43275D01*
X503141Y44798D01*
X500830Y45756D01*
X498350Y46082D01*
D02*
G37*
G36*
X472950D02*
X470470Y45756D01*
X468159Y44798D01*
X466175Y43275D01*
X464652Y41291D01*
X463694Y38980D01*
X463368Y36500D01*
Y26500D01*
X463694Y24020D01*
X464652Y21709D01*
X466175Y19725D01*
X468159Y18202D01*
X470470Y17244D01*
X472950Y16918D01*
X475430Y17244D01*
X477741Y18202D01*
X479725Y19725D01*
X481248Y21709D01*
X482205Y24020D01*
X482532Y26500D01*
Y36500D01*
X482205Y38980D01*
X481248Y41291D01*
X479725Y43275D01*
X477741Y44798D01*
X475430Y45756D01*
X472950Y46082D01*
D02*
G37*
%LPD*%
G36*
X544934Y476901D02*
X546396Y474996D01*
X548301Y473534D01*
X549399Y473079D01*
X549146Y471809D01*
X443250D01*
X443250Y471809D01*
X442080Y471576D01*
X441087Y470913D01*
X441087Y470913D01*
X429333Y459159D01*
X409104D01*
X408466Y460699D01*
X407005Y462604D01*
X405099Y464066D01*
X404243Y464421D01*
X404495Y465691D01*
X420369D01*
X420369Y465691D01*
X421539Y465924D01*
X422532Y466587D01*
X434386Y478441D01*
X544296D01*
X544934Y476901D01*
D02*
G37*
G36*
X549157Y464421D02*
X548301Y464066D01*
X546396Y462604D01*
X544934Y460699D01*
X544015Y458481D01*
X543701Y456100D01*
X544015Y453719D01*
X544653Y452179D01*
X539779Y447305D01*
X406105D01*
X405674Y448575D01*
X407005Y449596D01*
X408466Y451501D01*
X409104Y453041D01*
X430600D01*
X430600Y453041D01*
X431771Y453274D01*
X432763Y453937D01*
X444517Y465691D01*
X548905D01*
X549157Y464421D01*
D02*
G37*
G36*
X88039Y267553D02*
X88039Y267553D01*
X88052Y267545D01*
X87666Y266275D01*
X73731D01*
X53136Y286870D01*
X53177Y287503D01*
X54700Y289487D01*
X55658Y291798D01*
X55984Y294278D01*
X55658Y296758D01*
X54700Y299069D01*
X54611Y299185D01*
X55568Y300024D01*
X88039Y267553D01*
D02*
G37*
G36*
X254856Y286157D02*
X255290Y285801D01*
Y257983D01*
X250581Y253275D01*
X245670D01*
X245560Y253401D01*
X245107Y254545D01*
X245646Y255350D01*
X245917Y256716D01*
X245646Y258082D01*
X244872Y259239D01*
X244735Y259331D01*
Y260601D01*
X244872Y260693D01*
X245646Y261850D01*
X245917Y263216D01*
X245646Y264582D01*
X244872Y265739D01*
X244735Y265831D01*
Y267101D01*
X244872Y267193D01*
X245646Y268350D01*
X245917Y269716D01*
X245646Y271082D01*
X244872Y272239D01*
X244735Y272331D01*
Y273601D01*
X244872Y273693D01*
X245646Y274850D01*
X245917Y276216D01*
X245646Y277582D01*
X244872Y278739D01*
X244735Y278831D01*
Y280101D01*
X244872Y280193D01*
X245646Y281350D01*
X245917Y282716D01*
X245646Y284082D01*
X245107Y284887D01*
X245560Y286031D01*
X245670Y286157D01*
X254856D01*
X254856Y286157D01*
D02*
G37*
G36*
X377294Y426101D02*
X378756Y424196D01*
X380661Y422734D01*
X382879Y421815D01*
X382618Y420611D01*
X370938D01*
X369767Y420378D01*
X368775Y419715D01*
X368775Y419715D01*
X358773Y409713D01*
X325665D01*
X325139Y410983D01*
X341797Y427641D01*
X376656D01*
X377294Y426101D01*
D02*
G37*
G36*
X596350Y314421D02*
X596337Y314413D01*
X575983Y294059D01*
X572014D01*
X571762Y295329D01*
X572739Y295734D01*
X574645Y297196D01*
X576106Y299101D01*
X577025Y301319D01*
X577339Y303700D01*
X577025Y306081D01*
X576106Y308299D01*
X574645Y310205D01*
X572739Y311666D01*
X570521Y312585D01*
X568140Y312899D01*
X552900D01*
X550519Y312585D01*
X548301Y311666D01*
X546396Y310205D01*
X544934Y308299D01*
X544296Y306759D01*
X423915D01*
X422744Y306526D01*
X421752Y305863D01*
X421752Y305863D01*
X409451Y293562D01*
X403058D01*
X402881Y294815D01*
X405099Y295734D01*
X407005Y297196D01*
X408466Y299101D01*
X409385Y301319D01*
X409699Y303700D01*
X409385Y306081D01*
X408747Y307621D01*
X416547Y315421D01*
X572539D01*
X572539Y315421D01*
X573709Y315654D01*
X573765Y315691D01*
X595964D01*
X596350Y314421D01*
D02*
G37*
G36*
X544934Y299101D02*
X546396Y297196D01*
X548301Y295734D01*
X549278Y295329D01*
X549026Y294059D01*
X539250D01*
X538079Y293826D01*
X537087Y293163D01*
X537087Y293163D01*
X525283Y281359D01*
X409104D01*
X408466Y282899D01*
X407005Y284804D01*
X405219Y286175D01*
X405224Y286576D01*
X405574Y287445D01*
X410718D01*
X410718Y287445D01*
X411889Y287677D01*
X412881Y288340D01*
X425182Y300641D01*
X544296D01*
X544934Y299101D01*
D02*
G37*
G36*
X687939Y308482D02*
X688290Y308412D01*
X688708Y307034D01*
X665174Y283500D01*
X664004Y284126D01*
X664078Y284500D01*
X663768Y286061D01*
X662884Y287384D01*
X661561Y288268D01*
X660000Y288578D01*
X658439Y288268D01*
X657378Y287559D01*
X592360D01*
X592360Y287559D01*
X591189Y287326D01*
X590197Y286663D01*
X577655Y274121D01*
X576578Y274840D01*
X577025Y275919D01*
X577339Y278300D01*
X577025Y280681D01*
X576106Y282899D01*
X574645Y284804D01*
X572739Y286266D01*
X571762Y286671D01*
X572015Y287941D01*
X577250D01*
X577250Y287941D01*
X578420Y288174D01*
X579413Y288837D01*
X599767Y309191D01*
X686878D01*
X687939Y308482D01*
D02*
G37*
G36*
X611972Y281322D02*
X612346Y280171D01*
X575983Y243809D01*
X573274D01*
X573011Y244363D01*
X572928Y245079D01*
X574645Y246396D01*
X576106Y248301D01*
X577025Y250519D01*
X577240Y252150D01*
X543800D01*
X544015Y250519D01*
X544934Y248301D01*
X546396Y246396D01*
X548112Y245079D01*
X548029Y244363D01*
X547766Y243809D01*
X538500D01*
X537329Y243576D01*
X536337Y242913D01*
X536337Y242913D01*
X523983Y230559D01*
X409104D01*
X408466Y232099D01*
X407005Y234004D01*
X405099Y235466D01*
X402881Y236385D01*
X400500Y236699D01*
X385562D01*
X384877Y237810D01*
X386288Y239221D01*
X404899D01*
X404899Y239221D01*
X406069Y239454D01*
X407062Y240117D01*
X421636Y254691D01*
X528128D01*
X529189Y253982D01*
X530750Y253672D01*
X532311Y253982D01*
X533634Y254866D01*
X534518Y256189D01*
X534828Y257750D01*
X534518Y259311D01*
X533634Y260634D01*
X532311Y261518D01*
X530750Y261828D01*
X529189Y261518D01*
X528128Y260809D01*
X420369D01*
X419198Y260576D01*
X418206Y259913D01*
X418206Y259913D01*
X410811Y252518D01*
X409664Y253167D01*
X409385Y255281D01*
X408747Y256821D01*
X415617Y263691D01*
X574610D01*
X574610Y263691D01*
X575780Y263924D01*
X576773Y264587D01*
X593627Y281441D01*
X611880D01*
X611972Y281322D01*
D02*
G37*
%LPC*%
G36*
X568140Y262099D02*
X561270D01*
Y253650D01*
X577240D01*
X577025Y255281D01*
X576106Y257499D01*
X574645Y259405D01*
X572739Y260866D01*
X570521Y261785D01*
X568140Y262099D01*
D02*
G37*
G36*
X559770D02*
X552900D01*
X550519Y261785D01*
X548301Y260866D01*
X546396Y259405D01*
X544934Y257499D01*
X544015Y255281D01*
X543800Y253650D01*
X559770D01*
Y262099D01*
D02*
G37*
%LPD*%
G36*
X495672Y179441D02*
X495757Y179342D01*
X495544Y177720D01*
X495767Y176023D01*
X496422Y174442D01*
X497464Y173084D01*
X498822Y172042D01*
X500403Y171387D01*
X502100Y171164D01*
X502897Y171269D01*
X503490Y170066D01*
X484354Y150930D01*
X483151Y151523D01*
X483256Y152320D01*
X483033Y154017D01*
X482378Y155598D01*
X481336Y156956D01*
X479978Y157998D01*
X478397Y158653D01*
X476700Y158876D01*
X475078Y158663D01*
X474980Y158748D01*
X474520Y159901D01*
X494519Y179900D01*
X495672Y179441D01*
D02*
G37*
G36*
X470272Y154040D02*
X470358Y153942D01*
X470144Y152320D01*
X470367Y150623D01*
X471022Y149042D01*
X472064Y147684D01*
X473422Y146642D01*
X475003Y145987D01*
X476700Y145764D01*
X477497Y145869D01*
X478090Y144666D01*
X455983Y122559D01*
X437317D01*
X437192Y123829D01*
X437671Y123924D01*
X438663Y124587D01*
X455517Y141441D01*
X455784Y141494D01*
X456777Y142157D01*
X469119Y154500D01*
X470272Y154040D01*
D02*
G37*
D16*
X855658Y306339D02*
D03*
X796658D02*
D03*
Y336339D02*
D03*
X855658D02*
D03*
Y399560D02*
D03*
X796658D02*
D03*
Y429560D02*
D03*
X855658D02*
D03*
D17*
X129046Y203500D02*
D03*
Y213000D02*
D03*
Y222500D02*
D03*
X156046D02*
D03*
Y213000D02*
D03*
Y203500D02*
D03*
D18*
X175260Y223740D02*
D03*
Y213140D02*
D03*
D19*
X330962Y485520D02*
D03*
Y469520D02*
D03*
X313157Y484918D02*
D03*
Y468918D02*
D03*
Y441066D02*
D03*
Y425066D02*
D03*
X733484Y300950D02*
D03*
Y316950D02*
D03*
X751234Y317450D02*
D03*
Y301450D02*
D03*
X751490Y414017D02*
D03*
Y430017D02*
D03*
X734894Y430200D02*
D03*
Y414200D02*
D03*
X755250Y181778D02*
D03*
Y197778D02*
D03*
X738500Y181250D02*
D03*
Y197250D02*
D03*
X311500Y174750D02*
D03*
Y158750D02*
D03*
X293000Y175000D02*
D03*
Y159000D02*
D03*
D20*
X301493Y230548D02*
D03*
X285492D02*
D03*
X252243Y231056D02*
D03*
X236243D02*
D03*
X209510Y363250D02*
D03*
X193510D02*
D03*
X732750Y463250D02*
D03*
X748750D02*
D03*
D21*
X142546Y407802D02*
D03*
D22*
X277546Y539802D02*
D03*
X142546D02*
D03*
D23*
Y481802D02*
D03*
D24*
X275046Y391302D02*
D03*
D25*
X149046D02*
D03*
D26*
X241046Y390302D02*
D03*
X230046D02*
D03*
X219046D02*
D03*
X208046D02*
D03*
X197046D02*
D03*
X186046D02*
D03*
X175046D02*
D03*
X164046D02*
D03*
D27*
X747894Y531500D02*
D03*
Y491500D02*
D03*
X731894D02*
D03*
Y531500D02*
D03*
D28*
X852250Y525750D02*
D03*
Y493750D02*
D03*
X802250D02*
D03*
Y525750D02*
D03*
D29*
X238349Y295716D02*
D03*
Y289216D02*
D03*
Y282716D02*
D03*
Y276216D02*
D03*
Y269716D02*
D03*
Y263216D02*
D03*
Y256716D02*
D03*
Y250216D02*
D03*
X295348Y295716D02*
D03*
Y289216D02*
D03*
Y282716D02*
D03*
Y276216D02*
D03*
Y269716D02*
D03*
Y263216D02*
D03*
Y256716D02*
D03*
Y250216D02*
D03*
D51*
X743750Y371000D02*
D03*
X729250Y60734D02*
D03*
X187500Y62984D02*
D03*
D52*
X277622Y175000D02*
X293000D01*
X250849D02*
X277622D01*
X236243Y189606D02*
Y231056D01*
X200004Y213000D02*
X219046D01*
X190246Y222758D02*
X200004Y213000D01*
X156046Y203500D02*
X158546D01*
X159546Y202500D01*
Y200000D02*
Y202500D01*
Y200000D02*
X169940Y189606D01*
X236243D01*
X250849Y175000D01*
X284226Y475742D02*
X329205D01*
X329684Y470798D02*
X330962Y469520D01*
X329684Y470798D02*
Y475263D01*
X329205Y475742D02*
X329684Y475263D01*
X274828Y466344D02*
X284226Y475742D01*
X274828Y299737D02*
X285349Y289216D01*
X274828Y299737D02*
Y322072D01*
X285349Y289216D02*
X295348D01*
X277622Y238419D02*
Y281490D01*
X285349Y289216D01*
X285492Y230548D02*
Y232298D01*
X283993Y233798D02*
X285492Y232298D01*
X282243Y233798D02*
X283993D01*
X277622Y238419D02*
X282243Y233798D01*
X285492Y222253D02*
Y230548D01*
Y222253D02*
X297688Y210058D01*
X331216D01*
X374058Y252900D02*
X400500D01*
X331216Y210058D02*
X374058Y252900D01*
X41402Y268478D02*
X43497Y266383D01*
X55985D01*
X118868Y203500D01*
X129046D01*
X171914Y222758D02*
X190246D01*
X156046Y222500D02*
X157046Y223500D01*
X161063D01*
X161303Y223740D01*
X170932D01*
X171914Y222758D01*
X315730Y412154D02*
X321984D01*
X314802Y411226D02*
X315730Y412154D01*
X256540Y411226D02*
X314802D01*
X340530Y430700D02*
X400500D01*
X321984Y412154D02*
X340530Y430700D01*
X318008Y406654D02*
X360040D01*
X370938Y417552D02*
X539752D01*
X360040Y406654D02*
X370938Y417552D01*
X168761Y508017D02*
X315959D01*
X337090Y307841D02*
X380861Y264069D01*
X287169Y307841D02*
X337090D01*
X380861Y264069D02*
X401900D01*
X409081Y271250D01*
X552345Y278300D02*
X552900D01*
X545295Y271250D02*
X552345Y278300D01*
X409081Y271250D02*
X545295D01*
X301119Y425066D02*
X313157D01*
X346492Y318480D02*
X374469Y290503D01*
X299619Y318480D02*
X346492D01*
X374469Y290503D02*
X410718D01*
X423915Y303700D02*
X552900D01*
X410718Y290503D02*
X423915Y303700D01*
X295348Y282716D02*
X317481D01*
X317975Y283210D01*
X318516D01*
X539752Y417552D02*
X552900Y430700D01*
X295348Y276216D02*
X325131D01*
X295348Y269716D02*
X342581D01*
X326390Y432816D02*
X337820Y444246D01*
X541046D02*
X552900Y456100D01*
X337820Y444246D02*
X541046D01*
X295348Y295716D02*
X334750D01*
X356144Y454914D02*
X369980Y468750D01*
X334264Y454914D02*
X356144D01*
X369980Y468750D02*
X420369D01*
X433119Y481500D02*
X552900D01*
X420369Y468750D02*
X433119Y481500D01*
X41402Y446278D02*
X42884D01*
X48889Y440273D01*
Y438791D02*
Y440273D01*
Y438791D02*
X179839Y307841D01*
X257246D01*
X236243Y231056D02*
Y249754D01*
X236705Y250216D01*
X238349D01*
X257246Y291606D02*
X258349Y290503D01*
Y256716D02*
Y290503D01*
X251849Y250216D02*
X258349Y256716D01*
X238349Y250216D02*
X251849D01*
X254856Y289216D02*
X257246Y291606D01*
X238349Y289216D02*
X254856D01*
X209510Y355577D02*
X257246Y307841D01*
Y291606D02*
Y307841D01*
X209510Y355577D02*
Y363250D01*
X342581Y269716D02*
X343375Y270510D01*
X343916D01*
X346376Y495728D02*
X348210D01*
X344932Y494284D02*
X346376Y495728D01*
X330962Y485520D02*
Y493014D01*
X315959Y508017D02*
X330962Y493014D01*
X360460Y532300D02*
X400500D01*
X353269Y525109D02*
X360460Y532300D01*
X295348Y263216D02*
X351354D01*
X352207Y264069D01*
X299619Y256716D02*
X301119Y258216D01*
X359652D01*
X360344Y258908D01*
X364744Y519938D02*
X540538D01*
X348304Y495634D02*
X430600D01*
X348210Y495728D02*
X348304Y495634D01*
X441866Y506900D02*
X552900D01*
X430600Y495634D02*
X441866Y506900D01*
X295348Y256716D02*
X299619D01*
X540538Y519938D02*
X552900Y532300D01*
X230046Y384302D02*
Y421278D01*
X249834Y441066D01*
X313157D01*
Y468918D01*
X217990Y269716D02*
X238349D01*
X90202D02*
X217990D01*
X219046Y377230D02*
Y384302D01*
X217990Y376174D02*
X219046Y377230D01*
X208046Y364714D02*
Y384302D01*
Y364714D02*
X209510Y363250D01*
X196850Y263216D02*
X238349D01*
X72464D02*
X196850D01*
Y384106D02*
X197046Y384302D01*
X196850Y379222D02*
Y384106D01*
X175046Y380522D02*
Y384302D01*
X174821Y380297D02*
X175046Y380522D01*
X174821Y378883D02*
Y380297D01*
X174438Y378500D02*
X174821Y378883D01*
X180580Y256716D02*
X238349D01*
X176764Y252900D02*
X180580Y256716D01*
X876592Y330250D02*
Y389626D01*
X866658Y399560D02*
X876592Y389626D01*
X866658Y399560D02*
X876750Y409652D01*
X863158Y399560D02*
X866658D01*
X789158D02*
X863158D01*
X751490Y414017D02*
X774701D01*
X789158Y399560D01*
Y429560D02*
X863158D01*
X735534D02*
X789158D01*
X734894Y430200D02*
X735534Y429560D01*
X826500Y207778D02*
Y219472D01*
X815594Y230378D02*
X826500Y219472D01*
X759714Y225298D02*
X764794Y230378D01*
X815594D01*
X759714Y202242D02*
Y225298D01*
X755250Y197778D02*
X757000D01*
X758500Y199278D01*
Y201028D01*
X759714Y202242D01*
X859658Y309828D02*
Y313316D01*
X789158Y306339D02*
X852908D01*
X856396Y309828D01*
X849408Y302839D02*
X852908Y306339D01*
X846500Y207778D02*
Y296670D01*
X849408Y299578D01*
Y302839D01*
X856396Y309828D02*
X859658D01*
X789158Y295839D02*
Y306339D01*
X781319Y288000D02*
X789158Y295839D01*
X796658Y338836D02*
X860096D01*
X795161Y337339D02*
X796658Y338836D01*
X786658Y337339D02*
X795161D01*
X48889Y286791D02*
X72464Y263216D01*
X48889Y286791D02*
Y288273D01*
X42884Y294278D02*
X48889Y288273D01*
X41402Y294278D02*
X42884D01*
X41402Y319278D02*
X42884D01*
X48889Y313273D01*
Y311029D02*
Y313273D01*
Y311029D02*
X90202Y269716D01*
X41402Y344678D02*
X42884D01*
X48889Y338673D01*
Y337191D02*
Y338673D01*
Y337191D02*
X109864Y276216D01*
X238349D01*
X41402Y370078D02*
X79248D01*
X166610Y282716D02*
X238349D01*
X79248Y370078D02*
X166610Y282716D01*
X174438Y295716D02*
X238349D01*
X74676Y395478D02*
X174438Y295716D01*
X41402Y395478D02*
X74676D01*
X142546Y481802D02*
Y482802D01*
X147046Y487302D01*
X148046D01*
X168761Y508017D01*
X538500Y240750D02*
X577250D01*
X664300Y278300D02*
X694250Y308250D01*
X577250Y240750D02*
X614800Y278300D01*
X664300D01*
X695709Y309250D02*
X696250D01*
X694709Y308250D02*
X695709Y309250D01*
X694250Y308250D02*
X694709D01*
X414350Y266750D02*
X574610D01*
X592360Y284500D02*
X660000D01*
X574610Y266750D02*
X592360Y284500D01*
X539250Y291000D02*
X577250D01*
X598500Y312250D02*
X689500D01*
X577250Y291000D02*
X598500Y312250D01*
X722741Y300950D02*
X733484D01*
X722291Y300500D02*
X722741Y300950D01*
X721750Y300500D02*
X722291D01*
X572809Y318750D02*
X694500D01*
X738250Y197500D02*
Y275000D01*
X694500Y318750D02*
X698500Y314750D01*
X701750Y311500D02*
X738250Y275000D01*
X698528Y314750D02*
X701750Y311528D01*
Y311500D02*
Y311528D01*
X698500Y314750D02*
X698528D01*
X400500Y252900D02*
X414350Y266750D01*
X323000Y165750D02*
X370250Y213000D01*
Y227509D02*
X385021Y242280D01*
X370250Y213000D02*
Y227509D01*
X293000Y159000D02*
X294682D01*
X291250D02*
X293000D01*
X294682D02*
X296182Y160500D01*
Y163932D01*
X298000Y165750D01*
X323000D01*
X404899Y242280D02*
X420369Y257750D01*
X530750D01*
X385021Y242280D02*
X404899D01*
X548501Y339720D02*
X678088D01*
X754722Y197250D02*
X755250Y197778D01*
X738500Y197250D02*
X754722D01*
X400500Y303700D02*
X415280Y318480D01*
X572539D01*
X572809Y318750D01*
X400500Y456100D02*
X430600D01*
X443250Y468750D02*
X617500D01*
X430600Y456100D02*
X443250Y468750D01*
X531310Y405300D02*
X552900D01*
X491130Y365120D02*
X531310Y405300D01*
X370750Y363250D02*
X378991D01*
X380861Y365120D01*
X491130D01*
X690200Y430200D02*
X734894D01*
X683250Y423250D02*
X690200Y430200D01*
X679603Y339619D02*
X679986Y339236D01*
X678189Y339619D02*
X679603D01*
X678088Y339720D02*
X678189Y339619D01*
X537881Y329100D02*
X548501Y339720D01*
X400500Y329100D02*
X537881D01*
X709550Y317450D02*
X732984D01*
X733484Y316950D01*
X731894Y491500D02*
Y531500D01*
X730394Y491500D02*
X731144Y492250D01*
X709500Y491500D02*
X730394D01*
X689500Y463250D02*
X732750D01*
X661880Y365120D02*
X709550Y317450D01*
X548501Y365120D02*
X661880D01*
X537881Y354500D02*
X548501Y365120D01*
X400500Y354500D02*
X537881D01*
X731144Y492250D02*
X731894Y491500D01*
X400500Y227500D02*
X525250D01*
X538500Y240750D01*
X400500Y278300D02*
X526550D01*
X539250Y291000D01*
X311500Y158750D02*
X311750Y159000D01*
X362850D01*
X311500Y158750D02*
X311750Y158500D01*
X738250Y197500D02*
X738500Y197250D01*
X731750Y464250D02*
X732750Y463250D01*
X748750D02*
X776750D01*
X799507Y486007D01*
Y490250D01*
X803007Y493750D01*
X807250D01*
X847250D02*
X848743Y492257D01*
X862493D01*
X876750Y478000D01*
Y409652D02*
Y478000D01*
X859658Y313316D02*
X876592Y330250D01*
X746434Y288000D02*
X781319D01*
X733484Y300950D02*
X735234D01*
X736734Y299450D01*
Y297700D02*
Y299450D01*
Y297700D02*
X746434Y288000D01*
X751234Y317450D02*
X766769D01*
X786658Y337339D01*
X733984Y317450D02*
X751234D01*
X552900Y354500D02*
X651709D01*
X652709Y353500D01*
X653250D01*
X552900Y329100D02*
X554500Y327500D01*
X646500D01*
X436500Y126750D02*
X454070Y144320D01*
X454614D01*
X512394Y202100D01*
X552900D01*
X40352Y64352D02*
X102750Y126750D01*
X436500D01*
X40352Y32000D02*
Y64352D01*
X514450Y176700D02*
X552900D01*
X457250Y119500D02*
X514450Y176700D01*
X65721Y72007D02*
X65752Y71976D01*
X65721Y72007D02*
Y74493D01*
X110728Y119500D01*
X457250D01*
X65752Y32000D02*
Y71976D01*
X400300Y532500D02*
X400500Y532300D01*
X289750Y157500D02*
X291250Y159000D01*
X289750Y155750D02*
Y157500D01*
X276383Y142383D02*
X289750Y155750D01*
X276383Y141133D02*
Y142383D01*
X276000Y140750D02*
X276383Y141133D01*
X293000Y175000D02*
X311250D01*
X311500Y174750D01*
D53*
X277622Y173178D02*
Y175000D01*
X413250Y82000D02*
X648870D01*
X334750D02*
X413250D01*
Y32250D02*
Y82000D01*
X660900Y31750D02*
Y69970D01*
X648870Y82000D02*
X660900Y69970D01*
X300777Y32500D02*
X301474Y33196D01*
Y48724D01*
X334750Y82000D01*
X428490Y11000D02*
X848400D01*
X137152D02*
X428490D01*
X869650Y30227D02*
Y32250D01*
X864569Y25145D02*
X869650Y30227D01*
X862545Y25145D02*
X864569D01*
X848400Y11000D02*
X862545Y25145D01*
X116152Y29977D02*
Y32000D01*
Y29977D02*
X121233Y24895D01*
X123257D01*
X137152Y11000D01*
D54*
X874500Y197778D02*
D03*
X778500D02*
D03*
D55*
X846500Y207778D02*
D03*
X826500D02*
D03*
X806500D02*
D03*
X846500Y187778D02*
D03*
X826500D02*
D03*
X806500D02*
D03*
D56*
X476700Y177720D02*
D03*
X502100Y152320D02*
D03*
Y177720D02*
D03*
X476700Y152320D02*
D03*
X451300D02*
D03*
Y177720D02*
D03*
X505910Y552620D02*
D03*
X531310D02*
D03*
D57*
X552900Y151300D02*
D03*
X400500D02*
D03*
Y557700D02*
D03*
X552900D02*
D03*
D58*
X392880Y176700D02*
D03*
Y202100D02*
D03*
Y227500D02*
D03*
Y252900D02*
D03*
Y278300D02*
D03*
Y303700D02*
D03*
Y329100D02*
D03*
Y354500D02*
D03*
Y379900D02*
D03*
Y405300D02*
D03*
Y430700D02*
D03*
Y456100D02*
D03*
Y481500D02*
D03*
Y506900D02*
D03*
Y532300D02*
D03*
X560520Y176700D02*
D03*
D03*
Y202100D02*
D03*
Y227500D02*
D03*
Y252900D02*
D03*
Y278300D02*
D03*
Y303700D02*
D03*
Y329100D02*
D03*
Y354500D02*
D03*
Y379900D02*
D03*
Y405300D02*
D03*
Y430700D02*
D03*
Y456100D02*
D03*
Y481500D02*
D03*
Y506900D02*
D03*
Y532300D02*
D03*
D59*
X41402Y344678D02*
D03*
Y370078D02*
D03*
Y446278D02*
D03*
Y421278D02*
D03*
Y395478D02*
D03*
Y268478D02*
D03*
Y294278D02*
D03*
Y319278D02*
D03*
Y243078D02*
D03*
D60*
X844650Y32250D02*
D03*
X869650D02*
D03*
X819250D02*
D03*
X793850D02*
D03*
X40352Y32000D02*
D03*
X65752D02*
D03*
X116152D02*
D03*
X91152D02*
D03*
X300777Y32500D02*
D03*
X275777D02*
D03*
X250377D02*
D03*
X413250Y32250D02*
D03*
X388250D02*
D03*
X362850D02*
D03*
X523750Y31500D02*
D03*
X548750D02*
D03*
X498350D02*
D03*
X472950D02*
D03*
X610500Y31750D02*
D03*
X635900D02*
D03*
X660900D02*
D03*
D61*
X277622Y173178D02*
D03*
X219046Y213000D02*
D03*
X274828Y466344D02*
D03*
Y322072D02*
D03*
X256540Y411226D02*
D03*
X287528Y507492D02*
D03*
X287169Y307841D02*
D03*
X301119Y425066D02*
D03*
X299619Y318480D02*
D03*
X318516Y283210D02*
D03*
X318008Y406654D02*
D03*
X325131Y276216D02*
D03*
X326390Y432816D02*
D03*
X334750Y295716D02*
D03*
X334264Y454914D02*
D03*
X343916Y270510D02*
D03*
X344932Y494284D02*
D03*
X353269Y525109D02*
D03*
X352207Y264069D02*
D03*
X360344Y258908D02*
D03*
X364744Y519938D02*
D03*
X217990Y269716D02*
D03*
Y376174D02*
D03*
X196850Y263216D02*
D03*
Y379222D02*
D03*
X174438Y378500D02*
D03*
X176764Y252900D02*
D03*
X721750Y300500D02*
D03*
X660000Y284500D02*
D03*
X428490Y11000D02*
D03*
X530750Y257750D02*
D03*
X617500Y468750D02*
D03*
X370750Y363250D02*
D03*
X683250Y423250D02*
D03*
X679986Y339236D02*
D03*
X709500Y491500D02*
D03*
X696250Y309250D02*
D03*
X689500Y463250D02*
D03*
Y312250D02*
D03*
X362850Y159000D02*
D03*
X653250Y353500D02*
D03*
X646500Y327500D02*
D03*
X276000Y140750D02*
D03*
D62*
X56902Y517878D02*
D03*
Y173178D02*
D03*
X671402Y173278D02*
D03*
X670902Y516278D02*
D03*
M02*
