G04*
G04 #@! TF.GenerationSoftware,Altium Limited,Altium Designer,21.0.9 (235)*
G04*
G04 Layer_Color=65535*
%FSLAX44Y44*%
%MOMM*%
G71*
G04*
G04 #@! TF.SameCoordinates,2588B0E2-F362-4AB3-B6B3-F61507E4C0EF*
G04*
G04*
G04 #@! TF.FilePolarity,Positive*
G04*
G01*
G75*
%ADD10C,0.2500*%
%ADD11C,0.6000*%
%ADD12C,0.2000*%
%ADD13C,0.1000*%
%ADD14C,0.2540*%
%ADD15C,0.1270*%
D10*
X157296Y194750D02*
G03*
X157296Y194750I-1250J0D01*
G01*
X797500Y535750D02*
G03*
X797500Y535750I-1250J0D01*
G01*
X239599Y303216D02*
G03*
X239599Y303216I-1250J0D01*
G01*
D11*
X261349Y288466D02*
G03*
X261349Y288466I-3000J0D01*
G01*
D12*
X138046Y198000D02*
Y228000D01*
X147046Y198000D02*
Y228000D01*
X138046D02*
X147046D01*
X138046Y198000D02*
X147046D01*
X248349Y247466D02*
Y298466D01*
X285349Y247466D02*
Y298466D01*
X248349D02*
X285349D01*
X248349Y247466D02*
X285349D01*
D13*
X783180Y218778D02*
X870180D01*
X783180Y175778D02*
X870180D01*
X704969Y112498D02*
Y104500D01*
Y112498D02*
X708397D01*
X709540Y112117D01*
X709921Y111737D01*
X710301Y110975D01*
Y110213D01*
X709921Y109451D01*
X709540Y109070D01*
X708397Y108690D01*
X704969D02*
X708397D01*
X709540Y108309D01*
X709921Y107928D01*
X710301Y107166D01*
Y106024D01*
X709921Y105262D01*
X709540Y104881D01*
X708397Y104500D01*
X704969D01*
X717043Y112498D02*
X712092D01*
Y104500D01*
X717043D01*
X712092Y108690D02*
X715138D01*
X723327Y112498D02*
X718376D01*
Y104500D01*
X723327D01*
X718376Y108690D02*
X721423D01*
X727326Y112498D02*
Y104500D01*
X724660Y112498D02*
X729992D01*
X735896D02*
X730945D01*
Y104500D01*
X735896D01*
X730945Y108690D02*
X733992D01*
X742942Y110594D02*
X742561Y111356D01*
X741799Y112117D01*
X741038Y112498D01*
X739514D01*
X738753Y112117D01*
X737991Y111356D01*
X737610Y110594D01*
X737229Y109451D01*
Y107547D01*
X737610Y106404D01*
X737991Y105643D01*
X738753Y104881D01*
X739514Y104500D01*
X741038D01*
X741799Y104881D01*
X742561Y105643D01*
X742942Y106404D01*
X745189Y112498D02*
Y104500D01*
X750521Y112498D02*
Y104500D01*
X745189Y108690D02*
X750521D01*
X770535Y144248D02*
X769773Y143867D01*
X769012Y143106D01*
X768631Y142344D01*
X768250Y141201D01*
Y139297D01*
X768631Y138154D01*
X769012Y137393D01*
X769773Y136631D01*
X770535Y136250D01*
X772059D01*
X772821Y136631D01*
X773582Y137393D01*
X773963Y138154D01*
X774344Y139297D01*
Y141201D01*
X773963Y142344D01*
X773582Y143106D01*
X772821Y143867D01*
X772059Y144248D01*
X770535D01*
X776210D02*
Y136250D01*
Y144248D02*
X781161D01*
X776210Y140440D02*
X779257D01*
X782076Y144248D02*
Y136250D01*
Y144248D02*
X787027D01*
X782076Y140440D02*
X785123D01*
X773285Y243998D02*
X772523Y243617D01*
X771762Y242856D01*
X771381Y242094D01*
X771000Y240951D01*
Y239047D01*
X771381Y237904D01*
X771762Y237143D01*
X772523Y236381D01*
X773285Y236000D01*
X774809D01*
X775571Y236381D01*
X776332Y237143D01*
X776713Y237904D01*
X777094Y239047D01*
Y240951D01*
X776713Y242094D01*
X776332Y242856D01*
X775571Y243617D01*
X774809Y243998D01*
X773285D01*
X778960D02*
Y236000D01*
Y243998D02*
X784292Y236000D01*
Y243998D02*
Y236000D01*
X741582Y258606D02*
X740820Y259367D01*
X739678Y259748D01*
X738154D01*
X737012Y259367D01*
X736250Y258606D01*
Y257844D01*
X736631Y257082D01*
X737012Y256701D01*
X737774Y256320D01*
X740059Y255559D01*
X740820Y255178D01*
X741201Y254797D01*
X741582Y254035D01*
Y252893D01*
X740820Y252131D01*
X739678Y251750D01*
X738154D01*
X737012Y252131D01*
X736250Y252893D01*
X748324Y259748D02*
X743372D01*
Y251750D01*
X748324D01*
X743372Y255940D02*
X746419D01*
X749657Y259748D02*
Y251750D01*
Y259748D02*
X754989Y251750D01*
Y259748D02*
Y251750D01*
X762530Y258606D02*
X761768Y259367D01*
X760626Y259748D01*
X759102D01*
X757960Y259367D01*
X757198Y258606D01*
Y257844D01*
X757579Y257082D01*
X757960Y256701D01*
X758721Y256320D01*
X761007Y255559D01*
X761768Y255178D01*
X762149Y254797D01*
X762530Y254035D01*
Y252893D01*
X761768Y252131D01*
X760626Y251750D01*
X759102D01*
X757960Y252131D01*
X757198Y252893D01*
X766605Y259748D02*
X765844Y259367D01*
X765082Y258606D01*
X764701Y257844D01*
X764320Y256701D01*
Y254797D01*
X764701Y253654D01*
X765082Y252893D01*
X765844Y252131D01*
X766605Y251750D01*
X768129D01*
X768891Y252131D01*
X769652Y252893D01*
X770033Y253654D01*
X770414Y254797D01*
Y256701D01*
X770033Y257844D01*
X769652Y258606D01*
X768891Y259367D01*
X768129Y259748D01*
X766605D01*
X772280D02*
Y251750D01*
Y259748D02*
X775708D01*
X776851Y259367D01*
X777232Y258987D01*
X777613Y258225D01*
Y257463D01*
X777232Y256701D01*
X776851Y256320D01*
X775708Y255940D01*
X772280D01*
X774947D02*
X777613Y251750D01*
X784735Y258606D02*
X783973Y259367D01*
X782831Y259748D01*
X781307D01*
X780164Y259367D01*
X779403Y258606D01*
Y257844D01*
X779784Y257082D01*
X780164Y256701D01*
X780926Y256320D01*
X783211Y255559D01*
X783973Y255178D01*
X784354Y254797D01*
X784735Y254035D01*
Y252893D01*
X783973Y252131D01*
X782831Y251750D01*
X781307D01*
X780164Y252131D01*
X779403Y252893D01*
X3302Y348136D02*
Y342138D01*
X6301D01*
X7301Y343138D01*
Y347136D01*
X6301Y348136D01*
X3302D01*
X13299Y347136D02*
X12299Y348136D01*
X10300D01*
X9300Y347136D01*
Y343138D01*
X10300Y342138D01*
X12299D01*
X13299Y343138D01*
X3302Y367538D02*
Y373536D01*
X6301D01*
X7301Y372536D01*
Y370537D01*
X6301Y369537D01*
X3302D01*
X5301D02*
X7301Y367538D01*
X13299Y372536D02*
X12299Y373536D01*
X10300D01*
X9300Y372536D01*
Y371537D01*
X10300Y370537D01*
X12299D01*
X13299Y369537D01*
Y368538D01*
X12299Y367538D01*
X10300D01*
X9300Y368538D01*
X15298Y373536D02*
X19297D01*
X17298D01*
Y367538D01*
X3302Y449736D02*
Y445737D01*
X5301Y443738D01*
X7301Y445737D01*
Y449736D01*
X13299Y448736D02*
X12299Y449736D01*
X10300D01*
X9300Y448736D01*
Y444738D01*
X10300Y443738D01*
X12299D01*
X13299Y444738D01*
X19297Y448736D02*
X18297Y449736D01*
X16298D01*
X15298Y448736D01*
Y444738D01*
X16298Y443738D01*
X18297D01*
X19297Y444738D01*
X7301Y423336D02*
X6301Y424336D01*
X4302D01*
X3302Y423336D01*
Y419338D01*
X4302Y418338D01*
X6301D01*
X7301Y419338D01*
Y421337D01*
X5301D01*
X9300Y418338D02*
Y424336D01*
X13299Y418338D01*
Y424336D01*
X15298D02*
Y418338D01*
X18297D01*
X19297Y419338D01*
Y423336D01*
X18297Y424336D01*
X15298D01*
X7301Y397936D02*
X6301Y398936D01*
X4302D01*
X3302Y397936D01*
Y393938D01*
X4302Y392938D01*
X6301D01*
X7301Y393938D01*
X13299Y397936D02*
X12299Y398936D01*
X10300D01*
X9300Y397936D01*
Y396937D01*
X10300Y395937D01*
X12299D01*
X13299Y394937D01*
Y393938D01*
X12299Y392938D01*
X10300D01*
X9300Y393938D01*
X3302Y271936D02*
Y265938D01*
X7301D01*
X13299Y271936D02*
X9300D01*
Y265938D01*
X13299D01*
X9300Y268937D02*
X11299D01*
X15298Y271936D02*
Y265938D01*
X18297D01*
X19297Y266938D01*
Y270936D01*
X18297Y271936D01*
X15298D01*
X7301Y296336D02*
X6301Y297336D01*
X4302D01*
X3302Y296336D01*
Y295337D01*
X4302Y294337D01*
X6301D01*
X7301Y293337D01*
Y292338D01*
X6301Y291338D01*
X4302D01*
X3302Y292338D01*
X13299Y296336D02*
X12299Y297336D01*
X10300D01*
X9300Y296336D01*
Y292338D01*
X10300Y291338D01*
X12299D01*
X13299Y292338D01*
X15298Y297336D02*
Y291338D01*
Y293337D01*
X19297Y297336D01*
X16298Y294337D01*
X19297Y291338D01*
X3302Y316738D02*
Y322736D01*
X5301Y320737D01*
X7301Y322736D01*
Y316738D01*
X12299Y322736D02*
X10300D01*
X9300Y321736D01*
Y317738D01*
X10300Y316738D01*
X12299D01*
X13299Y317738D01*
Y321736D01*
X12299Y322736D01*
X19297Y321736D02*
X18297Y322736D01*
X16298D01*
X15298Y321736D01*
Y320737D01*
X16298Y319737D01*
X18297D01*
X19297Y318737D01*
Y317738D01*
X18297Y316738D01*
X16298D01*
X15298Y317738D01*
X21296Y322736D02*
X23296D01*
X22296D01*
Y316738D01*
X21296D01*
X23296D01*
X3302Y240538D02*
Y246536D01*
X5301Y244537D01*
X7301Y246536D01*
Y240538D01*
X9300Y246536D02*
X11299D01*
X10300D01*
Y240538D01*
X9300D01*
X11299D01*
X18297Y245536D02*
X17298Y246536D01*
X15298D01*
X14298Y245536D01*
Y244537D01*
X15298Y243537D01*
X17298D01*
X18297Y242537D01*
Y241538D01*
X17298Y240538D01*
X15298D01*
X14298Y241538D01*
X23296Y246536D02*
X21296D01*
X20296Y245536D01*
Y241538D01*
X21296Y240538D01*
X23296D01*
X24295Y241538D01*
Y245536D01*
X23296Y246536D01*
X796750Y370498D02*
Y362500D01*
Y370498D02*
X800178D01*
X801320Y370117D01*
X801701Y369737D01*
X802082Y368975D01*
Y368213D01*
X801701Y367451D01*
X801320Y367070D01*
X800178Y366690D01*
X796750D02*
X800178D01*
X801320Y366309D01*
X801701Y365928D01*
X802082Y365166D01*
Y364024D01*
X801701Y363262D01*
X801320Y362881D01*
X800178Y362500D01*
X796750D01*
X803872Y370498D02*
Y364785D01*
X804253Y363643D01*
X805015Y362881D01*
X806158Y362500D01*
X806919D01*
X808062Y362881D01*
X808824Y363643D01*
X809204Y364785D01*
Y370498D01*
X814080D02*
Y362500D01*
X811413Y370498D02*
X816746D01*
X820364D02*
Y362500D01*
X817698Y370498D02*
X823030D01*
X826267D02*
X825506Y370117D01*
X824744Y369356D01*
X824363Y368594D01*
X823982Y367451D01*
Y365547D01*
X824363Y364404D01*
X824744Y363643D01*
X825506Y362881D01*
X826267Y362500D01*
X827791D01*
X828553Y362881D01*
X829314Y363643D01*
X829695Y364404D01*
X830076Y365547D01*
Y367451D01*
X829695Y368594D01*
X829314Y369356D01*
X828553Y370117D01*
X827791Y370498D01*
X826267D01*
X831943D02*
Y362500D01*
Y370498D02*
X837275Y362500D01*
Y370498D02*
Y362500D01*
X846149Y368594D02*
Y368975D01*
X846530Y369737D01*
X846911Y370117D01*
X847673Y370498D01*
X849196D01*
X849958Y370117D01*
X850339Y369737D01*
X850719Y368975D01*
Y368213D01*
X850339Y367451D01*
X849577Y366309D01*
X845768Y362500D01*
X851100D01*
X797250Y462248D02*
Y454250D01*
Y462248D02*
X800678D01*
X801820Y461867D01*
X802201Y461487D01*
X802582Y460725D01*
Y459963D01*
X802201Y459201D01*
X801820Y458820D01*
X800678Y458440D01*
X797250D02*
X800678D01*
X801820Y458059D01*
X802201Y457678D01*
X802582Y456916D01*
Y455774D01*
X802201Y455012D01*
X801820Y454631D01*
X800678Y454250D01*
X797250D01*
X804372Y462248D02*
Y456535D01*
X804753Y455393D01*
X805515Y454631D01*
X806657Y454250D01*
X807419D01*
X808562Y454631D01*
X809324Y455393D01*
X809705Y456535D01*
Y462248D01*
X814580D02*
Y454250D01*
X811914Y462248D02*
X817246D01*
X820864D02*
Y454250D01*
X818198Y462248D02*
X823530D01*
X826768D02*
X826006Y461867D01*
X825244Y461106D01*
X824863Y460344D01*
X824482Y459201D01*
Y457297D01*
X824863Y456154D01*
X825244Y455393D01*
X826006Y454631D01*
X826768Y454250D01*
X828291D01*
X829053Y454631D01*
X829815Y455393D01*
X830195Y456154D01*
X830576Y457297D01*
Y459201D01*
X830195Y460344D01*
X829815Y461106D01*
X829053Y461867D01*
X828291Y462248D01*
X826768D01*
X832442D02*
Y454250D01*
Y462248D02*
X837775Y454250D01*
Y462248D02*
Y454250D01*
X846268Y460725D02*
X847030Y461106D01*
X848173Y462248D01*
Y454250D01*
X786852Y70470D02*
X794850D01*
X786852D02*
Y73898D01*
X787233Y75040D01*
X787613Y75421D01*
X788375Y75802D01*
X789137D01*
X789899Y75421D01*
X790279Y75040D01*
X790660Y73898D01*
Y70470D01*
Y73136D02*
X794850Y75802D01*
X786852Y77592D02*
X794850Y82924D01*
X786852D02*
X794850Y77592D01*
X788756Y85096D02*
X788375D01*
X787613Y85476D01*
X787233Y85857D01*
X786852Y86619D01*
Y88142D01*
X787233Y88904D01*
X787613Y89285D01*
X788375Y89666D01*
X789137D01*
X789899Y89285D01*
X791041Y88523D01*
X794850Y84715D01*
Y90047D01*
X817502Y73136D02*
X825500D01*
X817502Y70470D02*
Y75802D01*
Y76754D02*
X825500Y82087D01*
X817502D02*
X825500Y76754D01*
X819406Y84257D02*
X819025D01*
X818263Y84638D01*
X817883Y85019D01*
X817502Y85781D01*
Y87304D01*
X817883Y88066D01*
X818263Y88447D01*
X819025Y88828D01*
X819787D01*
X820549Y88447D01*
X821691Y87685D01*
X825500Y83877D01*
Y89209D01*
X868252Y70470D02*
X876250Y73517D01*
X868252Y76564D02*
X876250Y73517D01*
X868252Y77592D02*
X876250D01*
X868252Y79268D02*
X876250D01*
X868252D02*
X876250Y84600D01*
X868252D02*
X876250D01*
X847406Y76183D02*
X846644Y75802D01*
X845882Y75040D01*
X845502Y74279D01*
Y72755D01*
X845882Y71993D01*
X846644Y71232D01*
X847406Y70851D01*
X848549Y70470D01*
X850453D01*
X851596Y70851D01*
X852357Y71232D01*
X853119Y71993D01*
X853500Y72755D01*
Y74279D01*
X853119Y75040D01*
X852357Y75802D01*
X851596Y76183D01*
X850453D01*
Y74279D02*
Y76183D01*
X845502Y78011D02*
X853500D01*
X845502D02*
X853500Y83343D01*
X845502D02*
X853500D01*
X845502Y85553D02*
X853500D01*
X845502D02*
Y88219D01*
X845882Y89361D01*
X846644Y90123D01*
X847406Y90504D01*
X848549Y90885D01*
X850453D01*
X851596Y90504D01*
X852357Y90123D01*
X853119Y89361D01*
X853500Y88219D01*
Y85553D01*
X519752Y69720D02*
X527750D01*
X519752D02*
Y72386D01*
X520132Y73529D01*
X520894Y74290D01*
X521656Y74671D01*
X522799Y75052D01*
X524703D01*
X525846Y74671D01*
X526607Y74290D01*
X527369Y73529D01*
X527750Y72386D01*
Y69720D01*
Y82936D02*
X519752Y79889D01*
X527750Y76842D01*
X525084Y77985D02*
Y81794D01*
X519752Y87469D02*
X527750D01*
X519752Y84803D02*
Y90135D01*
X527750Y97181D02*
X519752Y94134D01*
X527750Y91087D01*
X525084Y92229D02*
Y96038D01*
X496644Y75052D02*
X495882Y74290D01*
X495502Y73148D01*
Y71624D01*
X495882Y70482D01*
X496644Y69720D01*
X497406D01*
X498168Y70101D01*
X498549Y70482D01*
X498929Y71244D01*
X499691Y73529D01*
X500072Y74290D01*
X500453Y74671D01*
X501215Y75052D01*
X502357D01*
X503119Y74290D01*
X503500Y73148D01*
Y71624D01*
X503119Y70482D01*
X502357Y69720D01*
X497406Y82555D02*
X496644Y82175D01*
X495882Y81413D01*
X495502Y80651D01*
Y79128D01*
X495882Y78366D01*
X496644Y77604D01*
X497406Y77223D01*
X498549Y76842D01*
X500453D01*
X501596Y77223D01*
X502357Y77604D01*
X503119Y78366D01*
X503500Y79128D01*
Y80651D01*
X503119Y81413D01*
X502357Y82175D01*
X501596Y82555D01*
X495502Y84803D02*
X503500D01*
X495502Y90135D02*
X500834Y84803D01*
X498929Y86707D02*
X503500Y90135D01*
X633502Y69970D02*
X641500D01*
X633502D02*
Y72636D01*
X633883Y73779D01*
X634644Y74541D01*
X635406Y74921D01*
X636549Y75302D01*
X638453D01*
X639596Y74921D01*
X640357Y74541D01*
X641119Y73779D01*
X641500Y72636D01*
Y69970D01*
Y83186D02*
X633502Y80139D01*
X641500Y77092D01*
X638834Y78235D02*
Y82044D01*
X633502Y87719D02*
X641500D01*
X633502Y85052D02*
Y90385D01*
X641500Y97431D02*
X633502Y94384D01*
X641500Y91337D01*
X638834Y92479D02*
Y96288D01*
X384300Y70470D02*
X392298D01*
X384300D02*
Y73136D01*
X384680Y74279D01*
X385442Y75040D01*
X386204Y75421D01*
X387347Y75802D01*
X389251D01*
X390394Y75421D01*
X391155Y75040D01*
X391917Y74279D01*
X392298Y73136D01*
Y70470D01*
Y83686D02*
X384300Y80639D01*
X392298Y77592D01*
X389632Y78735D02*
Y82544D01*
X384300Y88219D02*
X392298D01*
X384300Y85553D02*
Y90885D01*
X392298Y97931D02*
X384300Y94884D01*
X392298Y91837D01*
X389632Y92979D02*
Y96788D01*
X362656Y76183D02*
X361894Y75802D01*
X361133Y75040D01*
X360752Y74279D01*
Y72755D01*
X361133Y71993D01*
X361894Y71232D01*
X362656Y70851D01*
X363799Y70470D01*
X365703D01*
X366846Y70851D01*
X367607Y71232D01*
X368369Y71993D01*
X368750Y72755D01*
Y74279D01*
X368369Y75040D01*
X367607Y75802D01*
X366846Y76183D01*
X365703D01*
Y74279D02*
Y76183D01*
X360752Y78011D02*
X368750D01*
X360752D02*
X368750Y83343D01*
X360752D02*
X368750D01*
X360752Y85553D02*
X368750D01*
X360752D02*
Y88219D01*
X361133Y89361D01*
X361894Y90123D01*
X362656Y90504D01*
X363799Y90885D01*
X365703D01*
X366846Y90504D01*
X367607Y90123D01*
X368369Y89361D01*
X368750Y88219D01*
Y85553D01*
X610656Y75683D02*
X609894Y75302D01*
X609132Y74540D01*
X608752Y73779D01*
Y72255D01*
X609132Y71494D01*
X609894Y70732D01*
X610656Y70351D01*
X611799Y69970D01*
X613703D01*
X614846Y70351D01*
X615607Y70732D01*
X616369Y71494D01*
X616750Y72255D01*
Y73779D01*
X616369Y74540D01*
X615607Y75302D01*
X614846Y75683D01*
X613703D01*
Y73779D02*
Y75683D01*
X608752Y77511D02*
X616750D01*
X608752D02*
X616750Y82843D01*
X608752D02*
X616750D01*
X608752Y85052D02*
X616750D01*
X608752D02*
Y87719D01*
X609132Y88861D01*
X609894Y89623D01*
X610656Y90004D01*
X611799Y90385D01*
X613703D01*
X614846Y90004D01*
X615607Y89623D01*
X616369Y88861D01*
X616750Y87719D01*
Y85052D01*
X548906Y75433D02*
X548144Y75052D01*
X547383Y74290D01*
X547002Y73529D01*
Y72005D01*
X547383Y71244D01*
X548144Y70482D01*
X548906Y70101D01*
X550049Y69720D01*
X551953D01*
X553096Y70101D01*
X553857Y70482D01*
X554619Y71244D01*
X555000Y72005D01*
Y73529D01*
X554619Y74290D01*
X553857Y75052D01*
X553096Y75433D01*
X551953D01*
Y73529D02*
Y75433D01*
X547002Y77261D02*
X555000D01*
X547002D02*
X555000Y82593D01*
X547002D02*
X555000D01*
X547002Y84803D02*
X555000D01*
X547002D02*
Y87469D01*
X547383Y88611D01*
X548144Y89373D01*
X548906Y89754D01*
X550049Y90135D01*
X551953D01*
X553096Y89754D01*
X553857Y89373D01*
X554619Y88611D01*
X555000Y87469D01*
Y84803D01*
X469752Y69720D02*
X477750Y72767D01*
X469752Y75814D02*
X477750Y72767D01*
X471656Y82555D02*
X470894Y82175D01*
X470133Y81413D01*
X469752Y80651D01*
Y79127D01*
X470133Y78366D01*
X470894Y77604D01*
X471656Y77223D01*
X472799Y76842D01*
X474703D01*
X475846Y77223D01*
X476607Y77604D01*
X477369Y78366D01*
X477750Y79127D01*
Y80651D01*
X477369Y81413D01*
X476607Y82175D01*
X475846Y82555D01*
X471656Y90515D02*
X470894Y90135D01*
X470133Y89373D01*
X469752Y88611D01*
Y87088D01*
X470133Y86326D01*
X470894Y85564D01*
X471656Y85183D01*
X472799Y84803D01*
X474703D01*
X475846Y85183D01*
X476607Y85564D01*
X477369Y86326D01*
X477750Y87088D01*
Y88611D01*
X477369Y89373D01*
X476607Y90135D01*
X475846Y90515D01*
X659002Y69970D02*
X667000Y73017D01*
X659002Y76064D02*
X667000Y73017D01*
X660906Y82805D02*
X660144Y82424D01*
X659382Y81663D01*
X659002Y80901D01*
Y79377D01*
X659382Y78616D01*
X660144Y77854D01*
X660906Y77473D01*
X662049Y77092D01*
X663953D01*
X665096Y77473D01*
X665857Y77854D01*
X666619Y78616D01*
X667000Y79377D01*
Y80901D01*
X666619Y81663D01*
X665857Y82424D01*
X665096Y82805D01*
X660906Y90766D02*
X660144Y90385D01*
X659382Y89623D01*
X659002Y88861D01*
Y87338D01*
X659382Y86576D01*
X660144Y85814D01*
X660906Y85433D01*
X662049Y85052D01*
X663953D01*
X665096Y85433D01*
X665857Y85814D01*
X666619Y86576D01*
X667000Y87338D01*
Y88861D01*
X666619Y89623D01*
X665857Y90385D01*
X665096Y90766D01*
X410252Y70470D02*
X418250Y73517D01*
X410252Y76564D02*
X418250Y73517D01*
X412156Y83305D02*
X411394Y82924D01*
X410633Y82163D01*
X410252Y81401D01*
Y79878D01*
X410633Y79116D01*
X411394Y78354D01*
X412156Y77973D01*
X413299Y77592D01*
X415203D01*
X416346Y77973D01*
X417107Y78354D01*
X417869Y79116D01*
X418250Y79878D01*
Y81401D01*
X417869Y82163D01*
X417107Y82924D01*
X416346Y83305D01*
X412156Y91266D02*
X411394Y90885D01*
X410633Y90123D01*
X410252Y89361D01*
Y87838D01*
X410633Y87076D01*
X411394Y86314D01*
X412156Y85933D01*
X413299Y85553D01*
X415203D01*
X416346Y85933D01*
X417107Y86314D01*
X417869Y87076D01*
X418250Y87838D01*
Y89361D01*
X417869Y90123D01*
X417107Y90885D01*
X416346Y91266D01*
X298752Y71220D02*
X306750Y74267D01*
X298752Y77314D02*
X306750Y74267D01*
X300656Y84055D02*
X299894Y83674D01*
X299132Y82913D01*
X298752Y82151D01*
Y80627D01*
X299132Y79866D01*
X299894Y79104D01*
X300656Y78723D01*
X301799Y78342D01*
X303703D01*
X304846Y78723D01*
X305607Y79104D01*
X306369Y79866D01*
X306750Y80627D01*
Y82151D01*
X306369Y82913D01*
X305607Y83674D01*
X304846Y84055D01*
X300656Y92015D02*
X299894Y91635D01*
X299132Y90873D01*
X298752Y90111D01*
Y88588D01*
X299132Y87826D01*
X299894Y87064D01*
X300656Y86683D01*
X301799Y86302D01*
X303703D01*
X304846Y86683D01*
X305607Y87064D01*
X306369Y87826D01*
X306750Y88588D01*
Y90111D01*
X306369Y90873D01*
X305607Y91635D01*
X304846Y92015D01*
X272502Y71220D02*
X280500D01*
X272502D02*
Y73886D01*
X272883Y75029D01*
X273644Y75791D01*
X274406Y76171D01*
X275549Y76552D01*
X277453D01*
X278596Y76171D01*
X279357Y75791D01*
X280119Y75029D01*
X280500Y73886D01*
Y71220D01*
Y84436D02*
X272502Y81389D01*
X280500Y78342D01*
X277834Y79485D02*
Y83294D01*
X272502Y88969D02*
X280500D01*
X272502Y86302D02*
Y91635D01*
X280500Y98681D02*
X272502Y95634D01*
X280500Y92587D01*
X277834Y93729D02*
Y97538D01*
X250152Y76933D02*
X249390Y76552D01*
X248629Y75791D01*
X248248Y75029D01*
Y73505D01*
X248629Y72744D01*
X249390Y71982D01*
X250152Y71601D01*
X251295Y71220D01*
X253199D01*
X254342Y71601D01*
X255103Y71982D01*
X255865Y72744D01*
X256246Y73505D01*
Y75029D01*
X255865Y75791D01*
X255103Y76552D01*
X254342Y76933D01*
X253199D01*
Y75029D02*
Y76933D01*
X248248Y78761D02*
X256246D01*
X248248D02*
X256246Y84094D01*
X248248D02*
X256246D01*
X248248Y86302D02*
X256246D01*
X248248D02*
Y88969D01*
X248629Y90111D01*
X249390Y90873D01*
X250152Y91254D01*
X251295Y91635D01*
X253199D01*
X254342Y91254D01*
X255103Y90873D01*
X255865Y90111D01*
X256246Y88969D01*
Y86302D01*
X784923Y109594D02*
X784542Y110356D01*
X783780Y111117D01*
X783019Y111498D01*
X781495D01*
X780733Y111117D01*
X779972Y110356D01*
X779591Y109594D01*
X779210Y108451D01*
Y106547D01*
X779591Y105404D01*
X779972Y104643D01*
X780733Y103881D01*
X781495Y103500D01*
X783019D01*
X783780Y103881D01*
X784542Y104643D01*
X784923Y105404D01*
X789455Y111498D02*
X788694Y111117D01*
X787932Y110356D01*
X787551Y109594D01*
X787170Y108451D01*
Y106547D01*
X787551Y105404D01*
X787932Y104643D01*
X788694Y103881D01*
X789455Y103500D01*
X790979D01*
X791741Y103881D01*
X792502Y104643D01*
X792883Y105404D01*
X793264Y106547D01*
Y108451D01*
X792883Y109594D01*
X792502Y110356D01*
X791741Y111117D01*
X790979Y111498D01*
X789455D01*
X795130D02*
Y103500D01*
Y111498D02*
X800463Y103500D01*
Y111498D02*
Y103500D01*
X802672Y111498D02*
Y103500D01*
Y111498D02*
X808004Y103500D01*
Y111498D02*
Y103500D01*
X815164Y111498D02*
X810213D01*
Y103500D01*
X815164D01*
X810213Y107690D02*
X813260D01*
X822210Y109594D02*
X821830Y110356D01*
X821068Y111117D01*
X820306Y111498D01*
X818783D01*
X818021Y111117D01*
X817259Y110356D01*
X816878Y109594D01*
X816497Y108451D01*
Y106547D01*
X816878Y105404D01*
X817259Y104643D01*
X818021Y103881D01*
X818783Y103500D01*
X820306D01*
X821068Y103881D01*
X821830Y104643D01*
X822210Y105404D01*
X827124Y111498D02*
Y103500D01*
X824457Y111498D02*
X829790D01*
X833027D02*
X832265Y111117D01*
X831504Y110356D01*
X831123Y109594D01*
X830742Y108451D01*
Y106547D01*
X831123Y105404D01*
X831504Y104643D01*
X832265Y103881D01*
X833027Y103500D01*
X834551D01*
X835312Y103881D01*
X836074Y104643D01*
X836455Y105404D01*
X836836Y106547D01*
Y108451D01*
X836455Y109594D01*
X836074Y110356D01*
X835312Y111117D01*
X834551Y111498D01*
X833027D01*
X838702D02*
Y103500D01*
Y111498D02*
X842130D01*
X843272Y111117D01*
X843653Y110737D01*
X844034Y109975D01*
Y109213D01*
X843653Y108451D01*
X843272Y108070D01*
X842130Y107690D01*
X838702D01*
X841368D02*
X844034Y103500D01*
X854394Y111498D02*
X853632Y111117D01*
X852870Y110356D01*
X852490Y109594D01*
X852109Y108451D01*
Y106547D01*
X852490Y105404D01*
X852870Y104643D01*
X853632Y103881D01*
X854394Y103500D01*
X855917D01*
X856679Y103881D01*
X857441Y104643D01*
X857822Y105404D01*
X858203Y106547D01*
Y108451D01*
X857822Y109594D01*
X857441Y110356D01*
X856679Y111117D01*
X855917Y111498D01*
X854394D01*
X860069D02*
Y105785D01*
X860450Y104643D01*
X861212Y103881D01*
X862354Y103500D01*
X863116D01*
X864258Y103881D01*
X865020Y104643D01*
X865401Y105785D01*
Y111498D01*
X870276D02*
Y103500D01*
X867610Y111498D02*
X872942D01*
X601192Y109856D02*
X600430Y110617D01*
X599288Y110998D01*
X597764D01*
X596622Y110617D01*
X595860Y109856D01*
Y109094D01*
X596241Y108332D01*
X596622Y107951D01*
X597383Y107570D01*
X599669Y106809D01*
X600430Y106428D01*
X600811Y106047D01*
X601192Y105285D01*
Y104143D01*
X600430Y103381D01*
X599288Y103000D01*
X597764D01*
X596622Y103381D01*
X595860Y104143D01*
X605267Y110998D02*
X604506Y110617D01*
X603744Y109856D01*
X603363Y109094D01*
X602982Y107951D01*
Y106047D01*
X603363Y104904D01*
X603744Y104143D01*
X604506Y103381D01*
X605267Y103000D01*
X606791D01*
X607553Y103381D01*
X608314Y104143D01*
X608695Y104904D01*
X609076Y106047D01*
Y107951D01*
X608695Y109094D01*
X608314Y109856D01*
X607553Y110617D01*
X606791Y110998D01*
X605267D01*
X610942D02*
Y105285D01*
X611323Y104143D01*
X612085Y103381D01*
X613228Y103000D01*
X613989D01*
X615132Y103381D01*
X615894Y104143D01*
X616275Y105285D01*
Y110998D01*
X618484D02*
Y103000D01*
Y110998D02*
X623816Y103000D01*
Y110998D02*
Y103000D01*
X626025Y110998D02*
Y103000D01*
Y110998D02*
X628691D01*
X629834Y110617D01*
X630595Y109856D01*
X630976Y109094D01*
X631357Y107951D01*
Y106047D01*
X630976Y104904D01*
X630595Y104143D01*
X629834Y103381D01*
X628691Y103000D01*
X626025D01*
X644764Y109856D02*
X644002Y110617D01*
X642859Y110998D01*
X641336D01*
X640193Y110617D01*
X639432Y109856D01*
Y109094D01*
X639813Y108332D01*
X640193Y107951D01*
X640955Y107570D01*
X643240Y106809D01*
X644002Y106428D01*
X644383Y106047D01*
X644764Y105285D01*
Y104143D01*
X644002Y103381D01*
X642859Y103000D01*
X641336D01*
X640193Y103381D01*
X639432Y104143D01*
X651505Y110998D02*
X646554D01*
Y103000D01*
X651505D01*
X646554Y107190D02*
X649601D01*
X652838Y110998D02*
Y103000D01*
Y110998D02*
X658170Y103000D01*
Y110998D02*
Y103000D01*
X665712Y109856D02*
X664950Y110617D01*
X663807Y110998D01*
X662284D01*
X661141Y110617D01*
X660379Y109856D01*
Y109094D01*
X660760Y108332D01*
X661141Y107951D01*
X661903Y107570D01*
X664188Y106809D01*
X664950Y106428D01*
X665331Y106047D01*
X665712Y105285D01*
Y104143D01*
X664950Y103381D01*
X663807Y103000D01*
X662284D01*
X661141Y103381D01*
X660379Y104143D01*
X669787Y110998D02*
X669025Y110617D01*
X668264Y109856D01*
X667883Y109094D01*
X667502Y107951D01*
Y106047D01*
X667883Y104904D01*
X668264Y104143D01*
X669025Y103381D01*
X669787Y103000D01*
X671311D01*
X672072Y103381D01*
X672834Y104143D01*
X673215Y104904D01*
X673596Y106047D01*
Y107951D01*
X673215Y109094D01*
X672834Y109856D01*
X672072Y110617D01*
X671311Y110998D01*
X669787D01*
X675462D02*
Y103000D01*
Y110998D02*
X678890D01*
X680033Y110617D01*
X680413Y110237D01*
X680794Y109475D01*
Y108713D01*
X680413Y107951D01*
X680033Y107570D01*
X678890Y107190D01*
X675462D01*
X678128D02*
X680794Y103000D01*
X463642Y109606D02*
X462880Y110367D01*
X461738Y110748D01*
X460214D01*
X459072Y110367D01*
X458310Y109606D01*
Y108844D01*
X458691Y108082D01*
X459072Y107701D01*
X459833Y107320D01*
X462119Y106559D01*
X462880Y106178D01*
X463261Y105797D01*
X463642Y105035D01*
Y103893D01*
X462880Y103131D01*
X461738Y102750D01*
X460214D01*
X459072Y103131D01*
X458310Y103893D01*
X471145Y108844D02*
X470765Y109606D01*
X470003Y110367D01*
X469241Y110748D01*
X467718D01*
X466956Y110367D01*
X466194Y109606D01*
X465813Y108844D01*
X465432Y107701D01*
Y105797D01*
X465813Y104654D01*
X466194Y103893D01*
X466956Y103131D01*
X467718Y102750D01*
X469241D01*
X470003Y103131D01*
X470765Y103893D01*
X471145Y104654D01*
X479486Y102750D02*
X476439Y110748D01*
X473392Y102750D01*
X474535Y105416D02*
X478344D01*
X481353Y110748D02*
Y102750D01*
X485923D01*
X491750Y110748D02*
X486799D01*
Y102750D01*
X491750D01*
X486799Y106940D02*
X489846D01*
X504700Y109606D02*
X503938Y110367D01*
X502796Y110748D01*
X501272D01*
X500130Y110367D01*
X499368Y109606D01*
Y108844D01*
X499749Y108082D01*
X500130Y107701D01*
X500891Y107320D01*
X503177Y106559D01*
X503938Y106178D01*
X504319Y105797D01*
X504700Y105035D01*
Y103893D01*
X503938Y103131D01*
X502796Y102750D01*
X501272D01*
X500130Y103131D01*
X499368Y103893D01*
X511441Y110748D02*
X506490D01*
Y102750D01*
X511441D01*
X506490Y106940D02*
X509537D01*
X512775Y110748D02*
Y102750D01*
Y110748D02*
X518107Y102750D01*
Y110748D02*
Y102750D01*
X525648Y109606D02*
X524886Y110367D01*
X523744Y110748D01*
X522220D01*
X521077Y110367D01*
X520316Y109606D01*
Y108844D01*
X520697Y108082D01*
X521077Y107701D01*
X521839Y107320D01*
X524124Y106559D01*
X524886Y106178D01*
X525267Y105797D01*
X525648Y105035D01*
Y103893D01*
X524886Y103131D01*
X523744Y102750D01*
X522220D01*
X521077Y103131D01*
X520316Y103893D01*
X529723Y110748D02*
X528962Y110367D01*
X528200Y109606D01*
X527819Y108844D01*
X527438Y107701D01*
Y105797D01*
X527819Y104654D01*
X528200Y103893D01*
X528962Y103131D01*
X529723Y102750D01*
X531247D01*
X532009Y103131D01*
X532770Y103893D01*
X533151Y104654D01*
X533532Y105797D01*
Y107701D01*
X533151Y108844D01*
X532770Y109606D01*
X532009Y110367D01*
X531247Y110748D01*
X529723D01*
X535398D02*
Y102750D01*
Y110748D02*
X538826D01*
X539969Y110367D01*
X540350Y109986D01*
X540731Y109225D01*
Y108463D01*
X540350Y107701D01*
X539969Y107320D01*
X538826Y106940D01*
X535398D01*
X538064D02*
X540731Y102750D01*
X350876Y111498D02*
Y103500D01*
X348210Y111498D02*
X353542D01*
X359446D02*
X354494D01*
Y103500D01*
X359446D01*
X354494Y107690D02*
X357541D01*
X360779Y111498D02*
Y103500D01*
Y111498D02*
X363826Y103500D01*
X366873Y111498D02*
X363826Y103500D01*
X366873Y111498D02*
Y103500D01*
X369158Y107309D02*
X372586D01*
X373728Y107690D01*
X374109Y108070D01*
X374490Y108832D01*
Y109975D01*
X374109Y110737D01*
X373728Y111117D01*
X372586Y111498D01*
X369158D01*
Y103500D01*
X387897Y110356D02*
X387135Y111117D01*
X385992Y111498D01*
X384469D01*
X383326Y111117D01*
X382565Y110356D01*
Y109594D01*
X382945Y108832D01*
X383326Y108451D01*
X384088Y108070D01*
X386373Y107309D01*
X387135Y106928D01*
X387516Y106547D01*
X387897Y105785D01*
Y104643D01*
X387135Y103881D01*
X385992Y103500D01*
X384469D01*
X383326Y103881D01*
X382565Y104643D01*
X395400Y109594D02*
X395019Y110356D01*
X394257Y111117D01*
X393495Y111498D01*
X391972D01*
X391210Y111117D01*
X390448Y110356D01*
X390068Y109594D01*
X389687Y108451D01*
Y106547D01*
X390068Y105404D01*
X390448Y104643D01*
X391210Y103881D01*
X391972Y103500D01*
X393495D01*
X394257Y103881D01*
X395019Y104643D01*
X395400Y105404D01*
X403741Y103500D02*
X400694Y111498D01*
X397647Y103500D01*
X398790Y106166D02*
X402598D01*
X405607Y111498D02*
Y103500D01*
X410178D01*
X416005Y111498D02*
X411054D01*
Y103500D01*
X416005D01*
X411054Y107690D02*
X414101D01*
X238403Y112248D02*
Y104250D01*
X235737Y112248D02*
X241069D01*
X246973D02*
X242022D01*
Y104250D01*
X246973D01*
X242022Y108440D02*
X245068D01*
X248306Y112248D02*
Y104250D01*
Y112248D02*
X251353Y104250D01*
X254400Y112248D02*
X251353Y104250D01*
X254400Y112248D02*
Y104250D01*
X256685Y108059D02*
X260113D01*
X261255Y108440D01*
X261636Y108820D01*
X262017Y109582D01*
Y110725D01*
X261636Y111487D01*
X261255Y111867D01*
X260113Y112248D01*
X256685D01*
Y104250D01*
X270092Y112248D02*
Y104250D01*
Y112248D02*
X273520D01*
X274662Y111867D01*
X275043Y111487D01*
X275424Y110725D01*
Y109963D01*
X275043Y109201D01*
X274662Y108820D01*
X273520Y108440D01*
X270092D02*
X273520D01*
X274662Y108059D01*
X275043Y107678D01*
X275424Y106916D01*
Y105773D01*
X275043Y105012D01*
X274662Y104631D01*
X273520Y104250D01*
X270092D01*
X282165Y112248D02*
X277214D01*
Y104250D01*
X282165D01*
X277214Y108440D02*
X280261D01*
X288450Y112248D02*
X283498D01*
Y104250D01*
X288450D01*
X283498Y108440D02*
X286545D01*
X289783Y112248D02*
Y104250D01*
X295115Y112248D02*
Y104250D01*
X289783Y108440D02*
X295115D01*
X297324Y112248D02*
Y104250D01*
X299000Y112248D02*
X302047Y104250D01*
X305094Y112248D02*
X302047Y104250D01*
X311073Y112248D02*
X306122D01*
Y104250D01*
X311073D01*
X306122Y108440D02*
X309169D01*
X31425Y109844D02*
X31044Y110606D01*
X30282Y111367D01*
X29521Y111748D01*
X27997D01*
X27236Y111367D01*
X26474Y110606D01*
X26093Y109844D01*
X25712Y108701D01*
Y106797D01*
X26093Y105654D01*
X26474Y104893D01*
X27236Y104131D01*
X27997Y103750D01*
X29521D01*
X30282Y104131D01*
X31044Y104893D01*
X31425Y105654D01*
X35958Y111748D02*
X35196Y111367D01*
X34434Y110606D01*
X34053Y109844D01*
X33672Y108701D01*
Y106797D01*
X34053Y105654D01*
X34434Y104893D01*
X35196Y104131D01*
X35958Y103750D01*
X37481D01*
X38243Y104131D01*
X39004Y104893D01*
X39385Y105654D01*
X39766Y106797D01*
Y108701D01*
X39385Y109844D01*
X39004Y110606D01*
X38243Y111367D01*
X37481Y111748D01*
X35958D01*
X41632D02*
Y103750D01*
Y111748D02*
X46965Y103750D01*
Y111748D02*
Y103750D01*
X49174Y111748D02*
Y103750D01*
Y111748D02*
X54506Y103750D01*
Y111748D02*
Y103750D01*
X61666Y111748D02*
X56715D01*
Y103750D01*
X61666D01*
X56715Y107940D02*
X59762D01*
X68712Y109844D02*
X68331Y110606D01*
X67570Y111367D01*
X66808Y111748D01*
X65285D01*
X64523Y111367D01*
X63761Y110606D01*
X63380Y109844D01*
X62999Y108701D01*
Y106797D01*
X63380Y105654D01*
X63761Y104893D01*
X64523Y104131D01*
X65285Y103750D01*
X66808D01*
X67570Y104131D01*
X68331Y104893D01*
X68712Y105654D01*
X73626Y111748D02*
Y103750D01*
X70960Y111748D02*
X76292D01*
X79529D02*
X78767Y111367D01*
X78006Y110606D01*
X77625Y109844D01*
X77244Y108701D01*
Y106797D01*
X77625Y105654D01*
X78006Y104893D01*
X78767Y104131D01*
X79529Y103750D01*
X81053D01*
X81814Y104131D01*
X82576Y104893D01*
X82957Y105654D01*
X83338Y106797D01*
Y108701D01*
X82957Y109844D01*
X82576Y110606D01*
X81814Y111367D01*
X81053Y111748D01*
X79529D01*
X85204D02*
Y103750D01*
Y111748D02*
X88632D01*
X89775Y111367D01*
X90155Y110987D01*
X90536Y110225D01*
Y109463D01*
X90155Y108701D01*
X89775Y108321D01*
X88632Y107940D01*
X85204D01*
X87870D02*
X90536Y103750D01*
X104895Y111748D02*
Y103750D01*
X106571Y111748D02*
Y103750D01*
Y111748D02*
X111903Y103750D01*
Y111748D02*
Y103750D01*
X113404Y70220D02*
X121402Y73267D01*
X113404Y76314D02*
X121402Y73267D01*
X113404Y77342D02*
X121402D01*
X113404Y79018D02*
X121402D01*
X113404D02*
X121402Y84350D01*
X113404D02*
X121402D01*
X91308Y75933D02*
X90546Y75552D01*
X89785Y74791D01*
X89404Y74029D01*
Y72505D01*
X89785Y71743D01*
X90546Y70982D01*
X91308Y70601D01*
X92451Y70220D01*
X94355D01*
X95498Y70601D01*
X96259Y70982D01*
X97021Y71743D01*
X97402Y72505D01*
Y74029D01*
X97021Y74791D01*
X96259Y75552D01*
X95498Y75933D01*
X94355D01*
Y74029D02*
Y75933D01*
X89404Y77761D02*
X97402D01*
X89404D02*
X97402Y83094D01*
X89404D02*
X97402D01*
X89404Y85302D02*
X97402D01*
X89404D02*
Y87969D01*
X89785Y89111D01*
X90546Y89873D01*
X91308Y90254D01*
X92451Y90635D01*
X94355D01*
X95498Y90254D01*
X96259Y89873D01*
X97021Y89111D01*
X97402Y87969D01*
Y85302D01*
X63154Y72886D02*
X71152D01*
X63154Y70220D02*
Y75552D01*
Y76504D02*
X71152Y81837D01*
X63154D02*
X71152Y76504D01*
X64677Y83627D02*
X64296Y84388D01*
X63154Y85531D01*
X71152D01*
X37654Y70220D02*
X45652D01*
X37654D02*
Y73648D01*
X38035Y74791D01*
X38416Y75171D01*
X39177Y75552D01*
X39939D01*
X40701Y75171D01*
X41082Y74791D01*
X41462Y73648D01*
Y70220D01*
Y72886D02*
X45652Y75552D01*
X37654Y77342D02*
X45652Y82675D01*
X37654D02*
X45652Y77342D01*
X39177Y84465D02*
X38796Y85226D01*
X37654Y86369D01*
X45652D01*
X122412Y243877D02*
Y238046D01*
X123579Y236879D01*
X125911D01*
X127078Y238046D01*
Y243877D01*
X134075D02*
X129410D01*
Y240378D01*
X131743Y241544D01*
X132909D01*
X134075Y240378D01*
Y238046D01*
X132909Y236879D01*
X130576D01*
X129410Y238046D01*
X170932Y234293D02*
Y241291D01*
X174431D01*
X175597Y240125D01*
Y237792D01*
X174431Y236626D01*
X170932D01*
X173265D02*
X175597Y234293D01*
X177930Y235459D02*
X179096Y234293D01*
X181429D01*
X182595Y235459D01*
Y240125D01*
X181429Y241291D01*
X179096D01*
X177930Y240125D01*
Y238958D01*
X179096Y237792D01*
X182595D01*
X113445Y560267D02*
X118110Y553269D01*
Y560267D02*
X113445Y553269D01*
X120443D02*
X122775D01*
X121609D01*
Y560267D01*
X120443Y559101D01*
X297509Y492737D02*
Y499735D01*
X301008D01*
X302174Y498569D01*
Y496236D01*
X301008Y495070D01*
X297509D01*
X299841D02*
X302174Y492737D01*
X304506D02*
X306839D01*
X305673D01*
Y499735D01*
X304506Y498569D01*
X315003Y499735D02*
X310338D01*
Y496236D01*
X312670Y497402D01*
X313837D01*
X315003Y496236D01*
Y493903D01*
X313837Y492737D01*
X311504D01*
X310338Y493903D01*
X306256Y448193D02*
Y455191D01*
X309755D01*
X310921Y454025D01*
Y451692D01*
X309755Y450526D01*
X306256D01*
X308589D02*
X310921Y448193D01*
X313254D02*
X315586D01*
X314420D01*
Y455191D01*
X313254Y454025D01*
X319085D02*
X320251Y455191D01*
X322584D01*
X323750Y454025D01*
Y452858D01*
X322584Y451692D01*
X321418D01*
X322584D01*
X323750Y450526D01*
Y449359D01*
X322584Y448193D01*
X320251D01*
X319085Y449359D01*
X325131Y492737D02*
Y499735D01*
X328629D01*
X329796Y498569D01*
Y496236D01*
X328629Y495070D01*
X325131D01*
X327463D02*
X329796Y492737D01*
X332128Y498569D02*
X333295Y499735D01*
X335627D01*
X336794Y498569D01*
Y497402D01*
X335627Y496236D01*
X336794Y495070D01*
Y493903D01*
X335627Y492737D01*
X333295D01*
X332128Y493903D01*
Y495070D01*
X333295Y496236D01*
X332128Y497402D01*
Y498569D01*
X333295Y496236D02*
X335627D01*
X222656Y365583D02*
X221489Y366749D01*
X219157D01*
X217990Y365583D01*
Y360917D01*
X219157Y359751D01*
X221489D01*
X222656Y360917D01*
X229653Y366749D02*
X227321Y365583D01*
X224988Y363250D01*
Y360917D01*
X226155Y359751D01*
X228487D01*
X229653Y360917D01*
Y362084D01*
X228487Y363250D01*
X224988D01*
X706668Y460251D02*
Y467249D01*
X710167D01*
X711334Y466083D01*
Y463750D01*
X710167Y462584D01*
X706668D01*
X709001D02*
X711334Y460251D01*
X713666Y467249D02*
X718332D01*
Y466083D01*
X713666Y461417D01*
Y460251D01*
X773564Y390227D02*
X774730Y389061D01*
X777063D01*
X778229Y390227D01*
Y391394D01*
X777063Y392560D01*
X774730D01*
X773564Y393726D01*
Y394893D01*
X774730Y396059D01*
X777063D01*
X778229Y394893D01*
X767732Y396059D02*
Y389061D01*
X771231Y392560D01*
X766566D01*
X773615Y295240D02*
X774781Y294074D01*
X777114D01*
X778280Y295240D01*
Y296407D01*
X777114Y297573D01*
X774781D01*
X773615Y298739D01*
Y299906D01*
X774781Y301072D01*
X777114D01*
X778280Y299906D01*
X771283Y295240D02*
X770116Y294074D01*
X767784D01*
X766617Y295240D01*
Y296407D01*
X767784Y297573D01*
X768950D01*
X767784D01*
X766617Y298739D01*
Y299906D01*
X767784Y301072D01*
X770116D01*
X771283Y299906D01*
X729312Y439001D02*
Y445999D01*
X732811D01*
X733978Y444833D01*
Y442500D01*
X732811Y441334D01*
X729312D01*
X731645D02*
X733978Y439001D01*
X740975Y445999D02*
X738643Y444833D01*
X736310Y442500D01*
Y440167D01*
X737476Y439001D01*
X739809D01*
X740975Y440167D01*
Y441334D01*
X739809Y442500D01*
X736310D01*
X745659Y326751D02*
Y333749D01*
X749158D01*
X750324Y332583D01*
Y330250D01*
X749158Y329084D01*
X745659D01*
X747992D02*
X750324Y326751D01*
X757322Y333749D02*
X752657D01*
Y330250D01*
X754989Y331416D01*
X756156D01*
X757322Y330250D01*
Y327917D01*
X756156Y326751D01*
X753823D01*
X752657Y327917D01*
X749734Y444833D02*
X748568Y445999D01*
X746235D01*
X745069Y444833D01*
Y440167D01*
X746235Y439001D01*
X748568D01*
X749734Y440167D01*
X756732Y445999D02*
X752066D01*
Y442500D01*
X754399Y443666D01*
X755565D01*
X756732Y442500D01*
Y440167D01*
X755565Y439001D01*
X753233D01*
X752066Y440167D01*
X732750Y332057D02*
X731584Y333223D01*
X729251D01*
X728085Y332057D01*
Y327391D01*
X729251Y326225D01*
X731584D01*
X732750Y327391D01*
X738581Y326225D02*
Y333223D01*
X735082Y329724D01*
X739748D01*
X871834Y261611D02*
X870667Y262777D01*
X868335D01*
X867169Y261611D01*
Y260444D01*
X868335Y259278D01*
X870667D01*
X871834Y258112D01*
Y256945D01*
X870667Y255779D01*
X868335D01*
X867169Y256945D01*
X878831Y255779D02*
X874166D01*
X878831Y260444D01*
Y261611D01*
X877665Y262777D01*
X875333D01*
X874166Y261611D01*
X749418Y207666D02*
Y214664D01*
X752917D01*
X754084Y213498D01*
Y211165D01*
X752917Y209999D01*
X749418D01*
X751751D02*
X754084Y207666D01*
X759915D02*
Y214664D01*
X756416Y211165D01*
X761081D01*
X735957Y213498D02*
X734791Y214664D01*
X732458D01*
X731292Y213498D01*
Y208833D01*
X732458Y207666D01*
X734791D01*
X735957Y208833D01*
X738290Y213498D02*
X739456Y214664D01*
X741789D01*
X742955Y213498D01*
Y212332D01*
X741789Y211165D01*
X740622D01*
X741789D01*
X742955Y209999D01*
Y208833D01*
X741789Y207666D01*
X739456D01*
X738290Y208833D01*
X870760Y530249D02*
Y524417D01*
X871927Y523251D01*
X874259D01*
X875426Y524417D01*
Y530249D01*
X881257Y523251D02*
Y530249D01*
X877758Y526750D01*
X882423D01*
X712000Y535833D02*
X710834Y536999D01*
X708501D01*
X707335Y535833D01*
Y534666D01*
X708501Y533500D01*
X710834D01*
X712000Y532334D01*
Y531167D01*
X710834Y530001D01*
X708501D01*
X707335Y531167D01*
X714333Y530001D02*
X716665D01*
X715499D01*
Y536999D01*
X714333Y535833D01*
X587749Y4419D02*
X580751D01*
Y7917D01*
X581917Y9084D01*
X584250D01*
X585416Y7917D01*
Y4419D01*
X580751Y16082D02*
X581917Y13749D01*
X584250Y11416D01*
X586582D01*
X587749Y12583D01*
Y14915D01*
X586582Y16082D01*
X585416D01*
X584250Y14915D01*
Y11416D01*
X451999Y2919D02*
X445001D01*
Y6417D01*
X446167Y7584D01*
X448500D01*
X449666Y6417D01*
Y2919D01*
X445001Y14582D02*
Y9916D01*
X448500D01*
X447334Y12249D01*
Y13415D01*
X448500Y14582D01*
X450833D01*
X451999Y13415D01*
Y11083D01*
X450833Y9916D01*
X770999Y5418D02*
X764001D01*
Y8917D01*
X765167Y10084D01*
X767500D01*
X768666Y8917D01*
Y5418D01*
X770999Y15915D02*
X764001D01*
X767500Y12416D01*
Y17081D01*
X18401Y4919D02*
X11403D01*
Y8417D01*
X12569Y9584D01*
X14902D01*
X16068Y8417D01*
Y4919D01*
X12569Y11916D02*
X11403Y13083D01*
Y15415D01*
X12569Y16581D01*
X13736D01*
X14902Y15415D01*
Y14249D01*
Y15415D01*
X16068Y16581D01*
X17234D01*
X18401Y15415D01*
Y13083D01*
X17234Y11916D01*
X287169Y184501D02*
Y191499D01*
X290667D01*
X291834Y190333D01*
Y188000D01*
X290667Y186834D01*
X287169D01*
X289501D02*
X291834Y184501D01*
X294166Y190333D02*
X295333Y191499D01*
X297665D01*
X298832Y190333D01*
Y189166D01*
X297665Y188000D01*
X296499D01*
X297665D01*
X298832Y186834D01*
Y185667D01*
X297665Y184501D01*
X295333D01*
X294166Y185667D01*
X305919Y184001D02*
Y190999D01*
X309417D01*
X310584Y189833D01*
Y187500D01*
X309417Y186334D01*
X305919D01*
X308251D02*
X310584Y184001D01*
X317582D02*
X312916D01*
X317582Y188666D01*
Y189833D01*
X316415Y190999D01*
X314083D01*
X312916Y189833D01*
X230249Y5168D02*
X223251D01*
Y8667D01*
X224417Y9834D01*
X226750D01*
X227916Y8667D01*
Y5168D01*
X230249Y16832D02*
Y12166D01*
X225584Y16832D01*
X224417D01*
X223251Y15665D01*
Y13333D01*
X224417Y12166D01*
X342249Y4835D02*
X335251D01*
Y8334D01*
X336417Y9500D01*
X338750D01*
X339916Y8334D01*
Y4835D01*
X342249Y11833D02*
Y14165D01*
Y12999D01*
X335251D01*
X336417Y11833D01*
X232088Y318913D02*
Y313081D01*
X233255Y311915D01*
X235587D01*
X236754Y313081D01*
Y318913D01*
X239086Y317747D02*
X240252Y318913D01*
X242585D01*
X243751Y317747D01*
Y316580D01*
X242585Y315414D01*
X241419D01*
X242585D01*
X243751Y314248D01*
Y313081D01*
X242585Y311915D01*
X240252D01*
X239086Y313081D01*
X3234Y557673D02*
Y551842D01*
X4401Y550675D01*
X6733D01*
X7900Y551842D01*
Y557673D01*
X14897Y550675D02*
X10232D01*
X14897Y555340D01*
Y556507D01*
X13731Y557673D01*
X11398D01*
X10232Y556507D01*
X357835Y559499D02*
Y553667D01*
X359001Y552501D01*
X361334D01*
X362500Y553667D01*
Y559499D01*
X364833Y552501D02*
X367165D01*
X365999D01*
Y559499D01*
X364833Y558333D01*
X221232Y232881D02*
X220066Y234047D01*
X217733D01*
X216567Y232881D01*
Y228215D01*
X217733Y227049D01*
X220066D01*
X221232Y228215D01*
X228230Y227049D02*
X223565D01*
X228230Y231714D01*
Y232881D01*
X227064Y234047D01*
X224731D01*
X223565Y232881D01*
X312717D02*
X311551Y234047D01*
X309218D01*
X308052Y232881D01*
Y228215D01*
X309218Y227049D01*
X311551D01*
X312717Y228215D01*
X315050Y227049D02*
X317382D01*
X316216D01*
Y234047D01*
X315050Y232881D01*
D14*
X165796Y458052D02*
Y474552D01*
X158296Y456052D02*
X165796Y437302D01*
Y417552D02*
Y437302D01*
X387800Y545000D02*
Y570400D01*
X565600D01*
Y545000D02*
Y570400D01*
X387800Y138600D02*
Y164000D01*
Y138600D02*
X565600D01*
Y164000D01*
X514800Y570400D02*
Y583100D01*
X438600D02*
X514800D01*
X438600Y570400D02*
Y583100D01*
X778210Y62984D02*
X884890D01*
X778210Y1262D02*
X884890D01*
Y62984D01*
X778210Y1262D02*
Y62984D01*
X24712Y1012D02*
Y62734D01*
X131392Y1012D02*
Y62734D01*
X24712Y1012D02*
X131392D01*
X24712Y62734D02*
X131392D01*
X234737Y1512D02*
Y63234D01*
X316017Y1512D02*
Y63234D01*
X234737Y1512D02*
X316017D01*
X234737Y63234D02*
X316017D01*
X347210Y1262D02*
Y62984D01*
X428490Y1262D02*
Y62984D01*
X347210Y1262D02*
X428490D01*
X347210Y62984D02*
X428490D01*
X457310Y62234D02*
X563990D01*
X457310Y512D02*
X563990D01*
Y62234D01*
X457310Y512D02*
Y62234D01*
X594860Y62484D02*
X676140D01*
X594860Y762D02*
X676140D01*
Y62484D01*
X594860Y762D02*
Y62484D01*
D15*
X802250Y484750D02*
X852250D01*
X802250Y534750D02*
X852250D01*
Y502750D02*
Y516750D01*
X802250Y502750D02*
Y516750D01*
M02*
