G04*
G04 #@! TF.GenerationSoftware,Altium Limited,Altium Designer,21.0.9 (235)*
G04*
G04 Layer_Color=16711935*
%FSLAX44Y44*%
%MOMM*%
G71*
G04*
G04 #@! TF.SameCoordinates,2588B0E2-F362-4AB3-B6B3-F61507E4C0EF*
G04*
G04*
G04 #@! TF.FilePolarity,Negative*
G04*
G01*
G75*
%ADD44C,2.2032*%
%ADD45C,1.4032*%
%ADD46C,1.2032*%
%ADD47C,1.8542*%
%ADD48O,3.2512X1.7272*%
%ADD49O,2.8032X1.8032*%
%ADD50O,1.8032X2.8032*%
%ADD51C,6.0000*%
D44*
X874500Y197778D02*
D03*
X778500D02*
D03*
D45*
X846500Y207778D02*
D03*
X826500D02*
D03*
X806500D02*
D03*
X846500Y187778D02*
D03*
X826500D02*
D03*
X806500D02*
D03*
D46*
X476700Y177720D02*
D03*
X502100Y152320D02*
D03*
Y177720D02*
D03*
X476700Y152320D02*
D03*
X451300D02*
D03*
Y177720D02*
D03*
X505910Y552620D02*
D03*
X531310D02*
D03*
D47*
X552900Y151300D02*
D03*
X400500D02*
D03*
Y557700D02*
D03*
X552900D02*
D03*
D48*
X392880Y176700D02*
D03*
Y202100D02*
D03*
Y227500D02*
D03*
Y252900D02*
D03*
Y278300D02*
D03*
Y303700D02*
D03*
Y329100D02*
D03*
Y354500D02*
D03*
Y379900D02*
D03*
Y405300D02*
D03*
Y430700D02*
D03*
Y456100D02*
D03*
Y481500D02*
D03*
Y506900D02*
D03*
Y532300D02*
D03*
X560520Y176700D02*
D03*
D03*
Y202100D02*
D03*
Y227500D02*
D03*
Y252900D02*
D03*
Y278300D02*
D03*
Y303700D02*
D03*
Y329100D02*
D03*
Y354500D02*
D03*
Y379900D02*
D03*
Y405300D02*
D03*
Y430700D02*
D03*
Y456100D02*
D03*
Y481500D02*
D03*
Y506900D02*
D03*
Y532300D02*
D03*
D49*
X41402Y344678D02*
D03*
Y370078D02*
D03*
Y446278D02*
D03*
Y421278D02*
D03*
Y395478D02*
D03*
Y268478D02*
D03*
Y294278D02*
D03*
Y319278D02*
D03*
Y243078D02*
D03*
D50*
X844650Y32250D02*
D03*
X869650D02*
D03*
X819250D02*
D03*
X793850D02*
D03*
X40352Y32000D02*
D03*
X65752D02*
D03*
X116152D02*
D03*
X91152D02*
D03*
X300777Y32500D02*
D03*
X275777D02*
D03*
X250377D02*
D03*
X413250Y32250D02*
D03*
X388250D02*
D03*
X362850D02*
D03*
X523750Y31500D02*
D03*
X548750D02*
D03*
X498350D02*
D03*
X472950D02*
D03*
X610500Y31750D02*
D03*
X635900D02*
D03*
X660900D02*
D03*
D51*
X743750Y371000D02*
D03*
X729250Y60734D02*
D03*
X187500Y62984D02*
D03*
M02*
