G04*
G04 #@! TF.GenerationSoftware,Altium Limited,Altium Designer,20.1.14 (287)*
G04*
G04 Layer_Physical_Order=2*
G04 Layer_Color=16711680*
%FSLAX44Y44*%
%MOMM*%
G71*
G04*
G04 #@! TF.SameCoordinates,A1741A08-9612-4A6D-A7CB-39B1CF954D6D*
G04*
G04*
G04 #@! TF.FilePolarity,Positive*
G04*
G01*
G75*
%ADD22C,0.3000*%
%ADD23O,2.6000X1.6000*%
%ADD24O,1.6000X2.6000*%
%ADD25O,1.0000X0.8000*%
%ADD26C,0.5000*%
G36*
X418461Y448461D02*
X418461Y1539D01*
X1539Y1539D01*
X1539Y448461D01*
X418461Y448461D01*
D02*
G37*
%LPC*%
G36*
X207618Y420644D02*
X207368D01*
Y415786D01*
X213076D01*
X212799Y417182D01*
X211583Y419001D01*
X209764Y420217D01*
X207618Y420644D01*
D02*
G37*
G36*
X205868D02*
X205618D01*
X203472Y420217D01*
X201653Y419001D01*
X200437Y417182D01*
X200159Y415786D01*
X205868D01*
Y420644D01*
D02*
G37*
G36*
X213076Y414286D02*
X207368D01*
Y409428D01*
X207618D01*
X209764Y409855D01*
X211583Y411071D01*
X212799Y412890D01*
X213076Y414286D01*
D02*
G37*
G36*
X205868D02*
X200159D01*
X200437Y412890D01*
X201653Y411071D01*
X203472Y409855D01*
X205618Y409428D01*
X205868D01*
Y414286D01*
D02*
G37*
G36*
X81550Y423482D02*
X79070Y423156D01*
X76759Y422198D01*
X74774Y420676D01*
X73252Y418691D01*
X72295Y416380D01*
X71968Y413900D01*
Y403900D01*
X72295Y401420D01*
X73252Y399109D01*
X74774Y397124D01*
X76759Y395602D01*
X79070Y394645D01*
X81550Y394318D01*
X84030Y394645D01*
X86341Y395602D01*
X88325Y397124D01*
X89848Y399109D01*
X90805Y401420D01*
X91132Y403900D01*
Y413900D01*
X90805Y416380D01*
X89848Y418691D01*
X88325Y420676D01*
X86341Y422198D01*
X84030Y423156D01*
X81550Y423482D01*
D02*
G37*
G36*
X30750D02*
X28270Y423156D01*
X25959Y422198D01*
X23974Y420676D01*
X22452Y418691D01*
X21495Y416380D01*
X21168Y413900D01*
Y403900D01*
X21495Y401420D01*
X22452Y399109D01*
X23974Y397124D01*
X25959Y395602D01*
X28270Y394645D01*
X30750Y394318D01*
X33230Y394645D01*
X35541Y395602D01*
X37525Y397124D01*
X39048Y399109D01*
X40005Y401420D01*
X40332Y403900D01*
Y413900D01*
X40005Y416380D01*
X39048Y418691D01*
X37525Y420676D01*
X35541Y422198D01*
X33230Y423156D01*
X30750Y423482D01*
D02*
G37*
G36*
X337600Y422582D02*
X335120Y422256D01*
X332809Y421298D01*
X330825Y419776D01*
X329302Y417791D01*
X328345Y415480D01*
X328018Y413000D01*
Y403000D01*
X328345Y400520D01*
X329302Y398209D01*
X330825Y396225D01*
X332809Y394702D01*
X335120Y393745D01*
X337600Y393418D01*
X340080Y393745D01*
X342391Y394702D01*
X344375Y396225D01*
X345898Y398209D01*
X346856Y400520D01*
X347182Y403000D01*
Y413000D01*
X346856Y415480D01*
X345898Y417791D01*
X344375Y419776D01*
X342391Y421298D01*
X340080Y422256D01*
X337600Y422582D01*
D02*
G37*
G36*
X207618Y395244D02*
X205618D01*
X203472Y394817D01*
X201653Y393601D01*
X200437Y391782D01*
X200010Y389636D01*
X200437Y387490D01*
X201653Y385671D01*
X203472Y384455D01*
X205618Y384028D01*
X207618D01*
X209764Y384455D01*
X211583Y385671D01*
X212799Y387490D01*
X213225Y389636D01*
X212799Y391782D01*
X211583Y393601D01*
X209764Y394817D01*
X207618Y395244D01*
D02*
G37*
G36*
X105000Y324582D02*
X95000D01*
X92520Y324255D01*
X90209Y323298D01*
X88224Y321776D01*
X86702Y319791D01*
X85744Y317480D01*
X85418Y315000D01*
X85744Y312520D01*
X86702Y310209D01*
X88224Y308225D01*
X90209Y306702D01*
X92520Y305744D01*
X95000Y305418D01*
X105000D01*
X107480Y305744D01*
X109791Y306702D01*
X111776Y308225D01*
X113298Y310209D01*
X114256Y312520D01*
X114582Y315000D01*
X114256Y317480D01*
X113298Y319791D01*
X111776Y321776D01*
X109791Y323298D01*
X107480Y324255D01*
X105000Y324582D01*
D02*
G37*
G36*
Y299582D02*
X95000D01*
X92520Y299256D01*
X90209Y298298D01*
X88224Y296775D01*
X86702Y294791D01*
X85744Y292480D01*
X85418Y290000D01*
X85744Y287520D01*
X86702Y285209D01*
X88224Y283225D01*
X90209Y281702D01*
X92520Y280744D01*
X95000Y280418D01*
X105000D01*
X107480Y280744D01*
X109791Y281702D01*
X111776Y283225D01*
X113298Y285209D01*
X114256Y287520D01*
X114582Y290000D01*
X114256Y292480D01*
X113298Y294791D01*
X111776Y296775D01*
X109791Y298298D01*
X107480Y299256D01*
X105000Y299582D01*
D02*
G37*
G36*
X359000Y299182D02*
X349000D01*
X346520Y298855D01*
X344209Y297898D01*
X342225Y296376D01*
X340702Y294391D01*
X339744Y292080D01*
X339418Y289600D01*
X339744Y287120D01*
X340702Y284809D01*
X342225Y282825D01*
X344209Y281302D01*
X346520Y280345D01*
X349000Y280018D01*
X359000D01*
X361480Y280345D01*
X363791Y281302D01*
X365775Y282825D01*
X367298Y284809D01*
X368256Y287120D01*
X368582Y289600D01*
X368256Y292080D01*
X367298Y294391D01*
X365775Y296376D01*
X363791Y297898D01*
X361480Y298855D01*
X359000Y299182D01*
D02*
G37*
G36*
X388400Y422582D02*
X385920Y422256D01*
X383609Y421298D01*
X381625Y419776D01*
X380102Y417791D01*
X379145Y415480D01*
X378818Y413000D01*
Y403000D01*
X379145Y400520D01*
X380102Y398209D01*
X381625Y396225D01*
X383609Y394702D01*
X385920Y393745D01*
X388400Y393418D01*
X390477Y393691D01*
X391425Y393006D01*
X391657Y392692D01*
Y276180D01*
X390948Y275119D01*
X390638Y273558D01*
X390948Y271997D01*
X391832Y270674D01*
X393155Y269790D01*
X394716Y269480D01*
X396277Y269790D01*
X397600Y270674D01*
X398484Y271997D01*
X398794Y273558D01*
X398484Y275119D01*
X397775Y276180D01*
Y394743D01*
X397775Y394743D01*
X397542Y395913D01*
X396879Y396906D01*
X396651Y398147D01*
X396698Y398209D01*
X397655Y400520D01*
X397982Y403000D01*
Y413000D01*
X397655Y415480D01*
X396698Y417791D01*
X395176Y419776D01*
X393191Y421298D01*
X390880Y422256D01*
X388400Y422582D01*
D02*
G37*
G36*
X359000Y273782D02*
X349000D01*
X346520Y273456D01*
X344209Y272498D01*
X342225Y270975D01*
X340702Y268991D01*
X339744Y266680D01*
X339418Y264200D01*
X339744Y261720D01*
X340702Y259409D01*
X342225Y257425D01*
X344209Y255902D01*
X346520Y254944D01*
X349000Y254618D01*
X359000D01*
X361480Y254944D01*
X363791Y255902D01*
X365775Y257425D01*
X367298Y259409D01*
X368256Y261720D01*
X368582Y264200D01*
X368256Y266680D01*
X367298Y268991D01*
X365775Y270975D01*
X363791Y272498D01*
X361480Y273456D01*
X359000Y273782D01*
D02*
G37*
G36*
X105000D02*
X95000D01*
X92520Y273456D01*
X90209Y272498D01*
X88224Y270975D01*
X86702Y268991D01*
X85744Y266680D01*
X85418Y264200D01*
X85744Y261720D01*
X86702Y259409D01*
X88224Y257425D01*
X90209Y255902D01*
X92520Y254944D01*
X95000Y254618D01*
X105000D01*
X107480Y254944D01*
X109791Y255902D01*
X111776Y257425D01*
X113298Y259409D01*
X114256Y261720D01*
X114582Y264200D01*
X114256Y266680D01*
X113298Y268991D01*
X111776Y270975D01*
X109791Y272498D01*
X107480Y273456D01*
X105000Y273782D01*
D02*
G37*
G36*
Y248382D02*
X100750D01*
Y239550D01*
X114483D01*
X114256Y241280D01*
X113298Y243591D01*
X111776Y245576D01*
X109791Y247098D01*
X107480Y248055D01*
X105000Y248382D01*
D02*
G37*
G36*
X99250D02*
X95000D01*
X92520Y248055D01*
X90209Y247098D01*
X88224Y245576D01*
X86702Y243591D01*
X85744Y241280D01*
X85517Y239550D01*
X99250D01*
Y248382D01*
D02*
G37*
G36*
X295402Y434100D02*
X293841Y433790D01*
X292518Y432906D01*
X291634Y431583D01*
X291324Y430022D01*
X291634Y428461D01*
X292343Y427400D01*
Y240620D01*
X291634Y239559D01*
X291324Y237998D01*
X291634Y236437D01*
X292518Y235114D01*
X293841Y234230D01*
X295402Y233920D01*
X296963Y234230D01*
X298286Y235114D01*
X299170Y236437D01*
X299480Y237998D01*
X299170Y239559D01*
X298461Y240620D01*
Y427400D01*
X299170Y428461D01*
X299480Y430022D01*
X299170Y431583D01*
X298286Y432906D01*
X296963Y433790D01*
X295402Y434100D01*
D02*
G37*
G36*
X359000Y248382D02*
X349000D01*
X346520Y248055D01*
X344209Y247098D01*
X342225Y245576D01*
X340702Y243591D01*
X339744Y241280D01*
X339418Y238800D01*
X339744Y236320D01*
X340702Y234009D01*
X342225Y232025D01*
X344209Y230502D01*
X346520Y229545D01*
X349000Y229218D01*
X359000D01*
X361480Y229545D01*
X363791Y230502D01*
X365775Y232025D01*
X367298Y234009D01*
X368256Y236320D01*
X368582Y238800D01*
X368256Y241280D01*
X367298Y243591D01*
X365775Y245576D01*
X363791Y247098D01*
X361480Y248055D01*
X359000Y248382D01*
D02*
G37*
G36*
X114483Y238050D02*
X100750D01*
Y229218D01*
X105000D01*
X107480Y229545D01*
X109791Y230502D01*
X111776Y232025D01*
X113298Y234009D01*
X114256Y236320D01*
X114483Y238050D01*
D02*
G37*
G36*
X99250D02*
X85517D01*
X85744Y236320D01*
X86702Y234009D01*
X88224Y232025D01*
X90209Y230502D01*
X92520Y229545D01*
X95000Y229218D01*
X99250D01*
Y238050D01*
D02*
G37*
G36*
X359000Y222982D02*
X349000D01*
X346520Y222656D01*
X344209Y221698D01*
X342225Y220175D01*
X340702Y218191D01*
X339744Y215880D01*
X339418Y213400D01*
X339744Y210920D01*
X340702Y208609D01*
X342225Y206625D01*
X342266Y205992D01*
X335437Y199163D01*
X334774Y198171D01*
X334541Y197000D01*
X334541Y197000D01*
Y55016D01*
X332809Y54298D01*
X330825Y52776D01*
X329302Y50791D01*
X328345Y48480D01*
X328018Y46000D01*
Y36000D01*
X328345Y33520D01*
X329302Y31209D01*
X330825Y29225D01*
X332809Y27702D01*
X335120Y26744D01*
X337600Y26418D01*
X340080Y26744D01*
X342391Y27702D01*
X344375Y29225D01*
X345898Y31209D01*
X346856Y33520D01*
X347182Y36000D01*
Y46000D01*
X346856Y48480D01*
X345898Y50791D01*
X344375Y52776D01*
X342391Y54298D01*
X340659Y55016D01*
Y195733D01*
X348675Y203750D01*
X348744Y203852D01*
X349000Y203818D01*
X359000D01*
X361480Y204144D01*
X363791Y205102D01*
X365775Y206625D01*
X367298Y208609D01*
X368256Y210920D01*
X368582Y213400D01*
X368256Y215880D01*
X367298Y218191D01*
X365775Y220175D01*
X363791Y221698D01*
X361480Y222656D01*
X359000Y222982D01*
D02*
G37*
G36*
X105000Y221582D02*
X95000D01*
X92520Y221255D01*
X90209Y220298D01*
X88224Y218776D01*
X86702Y216791D01*
X85744Y214480D01*
X85418Y212000D01*
X85744Y209520D01*
X86702Y207209D01*
X88224Y205225D01*
X90209Y203702D01*
X92520Y202745D01*
X95000Y202418D01*
X105000D01*
X107480Y202745D01*
X109791Y203702D01*
X111776Y205225D01*
X113298Y207209D01*
X114256Y209520D01*
X114582Y212000D01*
X114256Y214480D01*
X113298Y216791D01*
X111776Y218776D01*
X109791Y220298D01*
X107480Y221255D01*
X105000Y221582D01*
D02*
G37*
G36*
Y197582D02*
X95000D01*
X92520Y197255D01*
X90209Y196298D01*
X88224Y194776D01*
X86702Y192791D01*
X85744Y190480D01*
X85418Y188000D01*
X85744Y185520D01*
X86702Y183209D01*
X88224Y181225D01*
X90209Y179702D01*
X92520Y178745D01*
X95000Y178418D01*
X105000D01*
X107480Y178745D01*
X109791Y179702D01*
X111776Y181225D01*
X113298Y183209D01*
X114256Y185520D01*
X114582Y188000D01*
X114256Y190480D01*
X113298Y192791D01*
X111776Y194776D01*
X109791Y196298D01*
X107480Y197255D01*
X105000Y197582D01*
D02*
G37*
G36*
X262350Y56483D02*
Y42750D01*
X271182D01*
Y47000D01*
X270856Y49480D01*
X269898Y51791D01*
X268375Y53776D01*
X266391Y55298D01*
X264080Y56255D01*
X262350Y56483D01*
D02*
G37*
G36*
X260850D02*
X259120Y56255D01*
X256809Y55298D01*
X254825Y53776D01*
X253302Y51791D01*
X252345Y49480D01*
X252018Y47000D01*
Y42750D01*
X260850D01*
Y56483D01*
D02*
G37*
G36*
X271182Y41250D02*
X262350D01*
Y27517D01*
X264080Y27745D01*
X266391Y28702D01*
X268375Y30224D01*
X269898Y32209D01*
X270856Y34520D01*
X271182Y37000D01*
Y41250D01*
D02*
G37*
G36*
X260850D02*
X252018D01*
Y37000D01*
X252345Y34520D01*
X253302Y32209D01*
X254825Y30224D01*
X256809Y28702D01*
X259120Y27745D01*
X260850Y27517D01*
Y41250D01*
D02*
G37*
G36*
X207618Y407944D02*
X205618D01*
X203472Y407517D01*
X201653Y406301D01*
X200437Y404482D01*
X200010Y402336D01*
X200437Y400190D01*
X201653Y398371D01*
X203472Y397155D01*
X205618Y396728D01*
X207618D01*
X209764Y397155D01*
X211583Y398371D01*
X212189Y399277D01*
X220337D01*
X233141Y386473D01*
Y56016D01*
X231409Y55298D01*
X229425Y53776D01*
X227902Y51791D01*
X226945Y49480D01*
X226618Y47000D01*
Y37000D01*
X226945Y34520D01*
X227902Y32209D01*
X229425Y30224D01*
X231409Y28702D01*
X233720Y27745D01*
X236200Y27418D01*
X238680Y27745D01*
X240991Y28702D01*
X242976Y30224D01*
X244498Y32209D01*
X245455Y34520D01*
X245782Y37000D01*
Y47000D01*
X245455Y49480D01*
X244498Y51791D01*
X242976Y53776D01*
X240991Y55298D01*
X239259Y56016D01*
Y387740D01*
X239259Y387740D01*
X239026Y388910D01*
X238363Y389903D01*
X238363Y389903D01*
X223767Y404499D01*
X222774Y405162D01*
X221604Y405395D01*
X221604Y405395D01*
X212189D01*
X211583Y406301D01*
X209764Y407517D01*
X207618Y407944D01*
D02*
G37*
G36*
X209804Y270524D02*
X208243Y270214D01*
X206920Y269330D01*
X206036Y268007D01*
X205726Y266446D01*
X206036Y264885D01*
X206920Y263562D01*
X207741Y263013D01*
Y56016D01*
X206009Y55298D01*
X204025Y53776D01*
X202502Y51791D01*
X201545Y49480D01*
X201218Y47000D01*
Y37000D01*
X201545Y34520D01*
X202502Y32209D01*
X204025Y30224D01*
X206009Y28702D01*
X208320Y27745D01*
X210800Y27418D01*
X213280Y27745D01*
X215591Y28702D01*
X217575Y30224D01*
X219098Y32209D01*
X220056Y34520D01*
X220382Y37000D01*
Y47000D01*
X220056Y49480D01*
X219098Y51791D01*
X217575Y53776D01*
X215591Y55298D01*
X213859Y56016D01*
Y265450D01*
X213859Y265450D01*
X213771Y265889D01*
X213882Y266446D01*
X213572Y268007D01*
X212688Y269330D01*
X211365Y270214D01*
X209804Y270524D01*
D02*
G37*
G36*
X183388Y296940D02*
X181827Y296630D01*
X180504Y295746D01*
X179620Y294423D01*
X179310Y292862D01*
X179620Y291301D01*
X180504Y289978D01*
X181827Y289094D01*
X181941Y289071D01*
Y56016D01*
X180209Y55298D01*
X178225Y53776D01*
X176702Y51791D01*
X175745Y49480D01*
X175418Y47000D01*
Y37000D01*
X175745Y34520D01*
X176702Y32209D01*
X178225Y30224D01*
X180209Y28702D01*
X182520Y27745D01*
X185000Y27418D01*
X187480Y27745D01*
X189791Y28702D01*
X191775Y30224D01*
X193298Y32209D01*
X194256Y34520D01*
X194582Y37000D01*
Y47000D01*
X194256Y49480D01*
X193298Y51791D01*
X191775Y53776D01*
X189791Y55298D01*
X188059Y56016D01*
Y291250D01*
X187826Y292421D01*
X187439Y293000D01*
X187156Y294423D01*
X186272Y295746D01*
X184949Y296630D01*
X183388Y296940D01*
D02*
G37*
G36*
X159482Y319078D02*
X157922Y318768D01*
X156599Y317884D01*
X155715Y316561D01*
X155404Y315000D01*
X155715Y313439D01*
X156599Y312116D01*
X156941Y311887D01*
Y56016D01*
X155209Y55298D01*
X153225Y53776D01*
X151702Y51791D01*
X150745Y49480D01*
X150418Y47000D01*
Y37000D01*
X150745Y34520D01*
X151702Y32209D01*
X153225Y30224D01*
X155209Y28702D01*
X157520Y27745D01*
X160000Y27418D01*
X162480Y27745D01*
X164791Y28702D01*
X166775Y30224D01*
X168298Y32209D01*
X169256Y34520D01*
X169582Y37000D01*
Y47000D01*
X169256Y49480D01*
X168298Y51791D01*
X166775Y53776D01*
X164791Y55298D01*
X163059Y56016D01*
Y313153D01*
X163250Y313439D01*
X163561Y315000D01*
X163250Y316561D01*
X162366Y317884D01*
X161043Y318768D01*
X159482Y319078D01*
D02*
G37*
G36*
X82790Y56582D02*
X80310Y56255D01*
X77999Y55298D01*
X76015Y53776D01*
X74492Y51791D01*
X73535Y49480D01*
X73208Y47000D01*
Y37000D01*
X73535Y34520D01*
X74492Y32209D01*
X76015Y30224D01*
X77999Y28702D01*
X80310Y27745D01*
X82790Y27418D01*
X85270Y27745D01*
X87581Y28702D01*
X89566Y30224D01*
X91088Y32209D01*
X92046Y34520D01*
X92372Y37000D01*
Y47000D01*
X92046Y49480D01*
X91088Y51791D01*
X89566Y53776D01*
X87581Y55298D01*
X85270Y56255D01*
X82790Y56582D01*
D02*
G37*
G36*
X56150Y423482D02*
X53670Y423156D01*
X51359Y422198D01*
X49374Y420676D01*
X47852Y418691D01*
X46894Y416380D01*
X46568Y413900D01*
Y403900D01*
X46894Y401420D01*
X47852Y399109D01*
X49374Y397124D01*
X51359Y395602D01*
X53670Y394645D01*
X54331Y394557D01*
Y56016D01*
X52599Y55298D01*
X50615Y53776D01*
X49092Y51791D01*
X48135Y49480D01*
X47808Y47000D01*
Y37000D01*
X48135Y34520D01*
X49092Y32209D01*
X50615Y30224D01*
X52599Y28702D01*
X54910Y27745D01*
X57390Y27418D01*
X59870Y27745D01*
X62181Y28702D01*
X64166Y30224D01*
X65689Y32209D01*
X66646Y34520D01*
X66972Y37000D01*
Y47000D01*
X66646Y49480D01*
X65689Y51791D01*
X64166Y53776D01*
X62181Y55298D01*
X60449Y56016D01*
Y395398D01*
X60941Y395602D01*
X62925Y397124D01*
X64448Y399109D01*
X65405Y401420D01*
X65732Y403900D01*
Y413900D01*
X65405Y416380D01*
X64448Y418691D01*
X62925Y420676D01*
X60941Y422198D01*
X58630Y423156D01*
X56150Y423482D01*
D02*
G37*
G36*
X43942Y279414D02*
X42381Y279104D01*
X41058Y278220D01*
X40174Y276897D01*
X39879Y275411D01*
X39592Y274982D01*
X39359Y273812D01*
X39359Y273812D01*
Y168399D01*
X29827Y158867D01*
X29164Y157875D01*
X28932Y156704D01*
X28932Y156704D01*
Y56016D01*
X27199Y55298D01*
X25215Y53776D01*
X23692Y51791D01*
X22735Y49480D01*
X22408Y47000D01*
Y37000D01*
X22735Y34520D01*
X23692Y32209D01*
X25215Y30224D01*
X27199Y28702D01*
X29510Y27745D01*
X31990Y27418D01*
X34470Y27745D01*
X36781Y28702D01*
X38766Y30224D01*
X40289Y32209D01*
X41246Y34520D01*
X41572Y37000D01*
Y47000D01*
X41246Y49480D01*
X40289Y51791D01*
X38766Y53776D01*
X36781Y55298D01*
X35049Y56016D01*
Y155437D01*
X44581Y164969D01*
X44581Y164969D01*
X45244Y165961D01*
X45477Y167132D01*
Y271563D01*
X45503Y271568D01*
X46826Y272452D01*
X47710Y273775D01*
X48020Y275336D01*
X47710Y276897D01*
X46826Y278220D01*
X45503Y279104D01*
X43942Y279414D01*
D02*
G37*
G36*
X388400Y55582D02*
X385920Y55255D01*
X383609Y54298D01*
X381625Y52776D01*
X380102Y50791D01*
X379145Y48480D01*
X378818Y46000D01*
Y36000D01*
X379145Y33520D01*
X380102Y31209D01*
X381625Y29225D01*
X383609Y27702D01*
X385920Y26744D01*
X388400Y26418D01*
X390880Y26744D01*
X393191Y27702D01*
X395176Y29225D01*
X396698Y31209D01*
X397655Y33520D01*
X397982Y36000D01*
Y46000D01*
X397655Y48480D01*
X396698Y50791D01*
X395176Y52776D01*
X393191Y54298D01*
X390880Y55255D01*
X388400Y55582D01*
D02*
G37*
G36*
X363000Y422582D02*
X360520Y422256D01*
X358209Y421298D01*
X356225Y419776D01*
X354702Y417791D01*
X353745Y415480D01*
X353418Y413000D01*
Y403000D01*
X353745Y400520D01*
X354702Y398209D01*
X356225Y396225D01*
X358209Y394702D01*
X359941Y393984D01*
Y353534D01*
X359941Y353534D01*
X360174Y352364D01*
X360837Y351371D01*
X376671Y335537D01*
Y151127D01*
X360837Y135293D01*
X360174Y134300D01*
X359941Y133130D01*
X359941Y133130D01*
Y55016D01*
X358209Y54298D01*
X356225Y52776D01*
X354702Y50791D01*
X353745Y48480D01*
X353418Y46000D01*
Y36000D01*
X353745Y33520D01*
X354702Y31209D01*
X356225Y29225D01*
X358209Y27702D01*
X360520Y26744D01*
X363000Y26418D01*
X365480Y26744D01*
X367791Y27702D01*
X369776Y29225D01*
X371298Y31209D01*
X372256Y33520D01*
X372582Y36000D01*
Y46000D01*
X372256Y48480D01*
X371298Y50791D01*
X369776Y52776D01*
X367791Y54298D01*
X366059Y55016D01*
Y131863D01*
X381893Y147697D01*
X381893Y147697D01*
X382556Y148689D01*
X382789Y149860D01*
Y336804D01*
X382556Y337975D01*
X381893Y338967D01*
X381893Y338967D01*
X366059Y354801D01*
Y393984D01*
X367791Y394702D01*
X369776Y396225D01*
X371298Y398209D01*
X372256Y400520D01*
X372582Y403000D01*
Y413000D01*
X372256Y415480D01*
X371298Y417791D01*
X369776Y419776D01*
X367791Y421298D01*
X365480Y422256D01*
X363000Y422582D01*
D02*
G37*
%LPD*%
D22*
X160000Y42000D02*
Y314482D01*
X159482Y315000D02*
X160000Y314482D01*
X206618Y402336D02*
X221604D01*
X236200Y387740D01*
Y42000D02*
Y387740D01*
X388400Y401059D02*
Y408000D01*
Y401059D02*
X394716Y394743D01*
Y273558D02*
Y394743D01*
X337600Y41000D02*
Y197000D01*
X346513Y205913D01*
Y207395D01*
X352518Y213400D01*
X354000D01*
X363000Y353534D02*
Y408000D01*
X379730Y149860D02*
Y336804D01*
X363000Y353534D02*
X379730Y336804D01*
X363000Y133130D02*
X379730Y149860D01*
X363000Y41000D02*
Y133130D01*
X42418Y167132D02*
Y273812D01*
X43942Y275336D01*
X31990Y42000D02*
Y156704D01*
X42418Y167132D01*
X57390Y42000D02*
Y407660D01*
X56150Y408900D02*
X57390Y407660D01*
X295402Y237998D02*
Y430022D01*
X210800Y42000D02*
Y265450D01*
X209804Y266446D02*
X210800Y265450D01*
X185000Y42000D02*
Y291250D01*
X183388Y292862D02*
X185000Y291250D01*
D23*
X354000Y213400D02*
D03*
Y238800D02*
D03*
Y264200D02*
D03*
Y289600D02*
D03*
X100000Y188000D02*
D03*
Y212000D02*
D03*
Y238800D02*
D03*
Y315000D02*
D03*
Y290000D02*
D03*
Y264200D02*
D03*
D24*
X261600Y42000D02*
D03*
X210800D02*
D03*
X185000D02*
D03*
X160000D02*
D03*
X236200D02*
D03*
X337600Y408000D02*
D03*
X363000D02*
D03*
X388400D02*
D03*
X30750Y408900D02*
D03*
X56150D02*
D03*
X81550D02*
D03*
X82790Y42000D02*
D03*
X57390D02*
D03*
X31990D02*
D03*
X388400Y41000D02*
D03*
X363000D02*
D03*
X337600D02*
D03*
D25*
X206618Y415036D02*
D03*
Y402336D02*
D03*
Y389636D02*
D03*
D26*
X159482Y315000D02*
D03*
X295402Y430022D02*
D03*
X394716Y273558D02*
D03*
X43942Y275336D02*
D03*
X295402Y237998D02*
D03*
X209804Y266446D02*
D03*
X183388Y292862D02*
D03*
M02*
