M48
;Layer_Color=9474304
;FILE_FORMAT=4:4
METRIC,LZ
;TYPE=PLATED
T1F00S00C0.3000
T2F00S00C0.8000
T3F00S00C1.0000
T4F00S00C1.0160
T5F00S00C1.2000
T6F00S00C3.1000
%
T01
X00479298Y0020828
X00510032Y00322326
X0052197Y003175
X0049784Y00397764
X0061595Y00408686
X00628396Y00119126
X00386334Y00157226
X00351282Y00228854
X00274574Y00208788
X00289316Y0018719
X00277114Y00142748
X00176022Y0012065
X00150876Y00239081
X0021971Y00288798
X00245872Y00371348
X00270002Y00348996
X00297942Y0034417
X00325882Y00430276
X00340868Y00559816
X00314171Y00571019
X00379476Y0074295
X0020955Y00751586
X00188722Y00728726
X00152146Y00446278
X00433832Y00460502
X00531818Y00712978
X00542539Y00726104
X0061341Y00741934
X00613918Y0069977
X00535432Y00863854
X00525258Y0085575
T02
X008155Y0017725
X008355
Y0019725
Y0021725
X008155
Y0019725
T03
X0084465Y0003225
X0086965
X006609Y0003175
X006359
X006105
X0054875Y000315
X0052375
X0049835
X0047295
X0041325Y0003225
X0038825
X0036285
X00300777Y000325
X00275777
X00250377
X00116152Y00032
X00091152
X00065752
X00040352
X00041402Y00243078
Y00268478
Y00294278
Y00319278
Y00344678
Y00370078
Y00395478
Y00421278
Y00446278
T04
X001486Y0062715
X00174
X001994
X002248
X002502
X002756
X00301
X003264
X003518
X003772
X004026
X00428
X004534
X004788
Y0083065
X004534
X00428
X004026
X003772
X003518
X003264
X00301
X002756
X002502
X002248
X001994
X00174
X001486
T05
X008255Y0014925
Y0024525
T06
X0072925Y00060734
X00671402Y00173278
X001875Y00062984
X00056902Y00173178
Y00517878
X00670902Y00516278
X0085Y0083
M30
