G04*
G04 #@! TF.GenerationSoftware,Altium Limited,Altium Designer,21.0.9 (235)*
G04*
G04 Layer_Color=2752767*
%FSLAX44Y44*%
%MOMM*%
G71*
G04*
G04 #@! TF.SameCoordinates,736B1018-3895-43CE-9238-027F92C9441B*
G04*
G04*
G04 #@! TF.FilePolarity,Positive*
G04*
G01*
G75*
%ADD54C,0.1270*%
%ADD55C,0.1693*%
D54*
X143520Y825570D02*
Y835730D01*
X153680D01*
Y825570D01*
X143520D01*
X168920D02*
Y835730D01*
X179080D01*
Y825570D01*
X168920D01*
X194320D02*
Y835730D01*
X204480D01*
Y825570D01*
X194320D01*
X219720D02*
Y835730D01*
X229880D01*
Y825570D01*
X219720D01*
X245120D02*
Y835730D01*
X255280D01*
Y825570D01*
X245120D01*
X270520D02*
Y835730D01*
X280680D01*
Y825570D01*
X270520D01*
X295920D02*
Y835730D01*
X306080D01*
Y825570D01*
X295920D01*
X321320D02*
Y835730D01*
X331480D01*
Y825570D01*
X321320D01*
X346720D02*
Y835730D01*
X356880D01*
Y825570D01*
X346720D01*
X372120D02*
Y835730D01*
X382280D01*
Y825570D01*
X372120D01*
X397520D02*
Y835730D01*
X407680D01*
Y825570D01*
X397520D01*
X422920D02*
Y835730D01*
X433080D01*
Y825570D01*
X422920D01*
X448320D02*
Y835730D01*
X458480D01*
Y825570D01*
X448320D01*
Y835730D01*
X458480D01*
Y825570D01*
X448320D01*
X143520Y622070D02*
Y632230D01*
X153680D01*
Y622070D01*
X143520D01*
X168920D02*
Y632230D01*
X179080D01*
Y622070D01*
X168920D01*
X194320D02*
Y632230D01*
X204480D01*
Y622070D01*
X194320D01*
X219720D02*
Y632230D01*
X229880D01*
Y622070D01*
X219720D01*
X245120D02*
Y632230D01*
X255280D01*
Y622070D01*
X245120D01*
X270520D02*
Y632230D01*
X280680D01*
Y622070D01*
X270520D01*
X295920D02*
Y632230D01*
X306080D01*
Y622070D01*
X295920D01*
X321320D02*
Y632230D01*
X331480D01*
Y622070D01*
X321320D01*
X346720D02*
Y632230D01*
X356880D01*
Y622070D01*
X346720D01*
X372120D02*
Y632230D01*
X382280D01*
Y622070D01*
X372120D01*
X397520D02*
Y632230D01*
X407680D01*
Y622070D01*
X397520D01*
X422920D02*
Y632230D01*
X433080D01*
Y622070D01*
X422920D01*
X448320D02*
Y632230D01*
X458480D01*
Y622070D01*
X448320D01*
X473720D02*
Y632230D01*
X483880D01*
Y622070D01*
X473720D01*
Y825570D02*
Y835730D01*
X483880D01*
Y825570D01*
X473720D01*
X835500Y172170D02*
X830420Y182330D01*
X840580D01*
X835500Y172170D01*
Y192170D02*
X830420Y202330D01*
X840580D01*
X835500Y192170D01*
Y212170D02*
X830420Y222330D01*
X840580D01*
X835500Y212170D01*
X815500Y172170D02*
X810420Y182330D01*
X820580D01*
X815500Y172170D01*
Y192170D02*
X810420Y202330D01*
X820580D01*
X815500Y192170D01*
Y212170D02*
X810420Y222330D01*
X820580D01*
X815500Y212170D01*
X825500Y144170D02*
X828040Y146710D01*
X830580D01*
X828040Y149250D01*
X830580Y151790D01*
X828040D01*
X825500Y154330D01*
X822960Y151790D01*
X820420D01*
X822960Y149250D01*
X820420Y146710D01*
X822960D01*
X825500Y144170D01*
Y240170D02*
X828040Y242710D01*
X830580D01*
X828040Y245250D01*
X830580Y247790D01*
X828040D01*
X825500Y250330D01*
X822960Y247790D01*
X820420D01*
X822960Y245250D01*
X820420Y242710D01*
X822960D01*
X825500Y240170D01*
X309091Y565939D02*
X311631Y571019D01*
X309091Y576099D01*
X314171Y573559D01*
X319251Y576099D01*
X316711Y571019D01*
X319251Y565939D01*
X314171Y568479D01*
X309091Y565939D01*
X335788Y554736D02*
X338328Y559816D01*
X335788Y564896D01*
X340868Y562356D01*
X345948Y564896D01*
X343408Y559816D01*
X345948Y554736D01*
X340868Y557276D01*
X335788Y554736D01*
X145796Y234001D02*
X148336Y239081D01*
X145796Y244161D01*
X150876Y241621D01*
X155956Y244161D01*
X153416Y239081D01*
X155956Y234001D01*
X150876Y236541D01*
X145796Y234001D01*
X147066Y441198D02*
X149606Y446278D01*
X147066Y451358D01*
X152146Y448818D01*
X157226Y451358D01*
X154686Y446278D01*
X157226Y441198D01*
X152146Y443738D01*
X147066Y441198D01*
X284236Y182110D02*
X286776Y187190D01*
X284236Y192270D01*
X289316Y189730D01*
X294396Y192270D01*
X291856Y187190D01*
X294396Y182110D01*
X289316Y184650D01*
X284236Y182110D01*
X346202Y223774D02*
X348742Y228854D01*
X346202Y233934D01*
X351282Y231394D01*
X356362Y233934D01*
X353822Y228854D01*
X356362Y223774D01*
X351282Y226314D01*
X346202Y223774D01*
X320802Y425196D02*
X323342Y430276D01*
X320802Y435356D01*
X325882Y432816D01*
X330962Y435356D01*
X328422Y430276D01*
X330962Y425196D01*
X325882Y427736D01*
X320802Y425196D01*
X610870Y403606D02*
X613410Y408686D01*
X610870Y413766D01*
X615950Y411226D01*
X621030Y413766D01*
X618490Y408686D01*
X621030Y403606D01*
X615950Y406146D01*
X610870Y403606D01*
X183642Y723646D02*
X186182Y728726D01*
X183642Y733806D01*
X188722Y731266D01*
X193802Y733806D01*
X191262Y728726D01*
X193802Y723646D01*
X188722Y726186D01*
X183642Y723646D01*
X608330Y736854D02*
X610870Y741934D01*
X608330Y747014D01*
X613410Y744474D01*
X618490Y747014D01*
X615950Y741934D01*
X618490Y736854D01*
X613410Y739394D01*
X608330Y736854D01*
X608838Y694690D02*
X611378Y699770D01*
X608838Y704850D01*
X613918Y702310D01*
X618998Y704850D01*
X616458Y699770D01*
X618998Y694690D01*
X613918Y697230D01*
X608838Y694690D01*
X623316Y114046D02*
X625856Y119126D01*
X623316Y124206D01*
X628396Y121666D01*
X633476Y124206D01*
X630936Y119126D01*
X633476Y114046D01*
X628396Y116586D01*
X623316Y114046D01*
X170942Y115570D02*
X173482Y120650D01*
X170942Y125730D01*
X176022Y123190D01*
X181102Y125730D01*
X178562Y120650D01*
X181102Y115570D01*
X176022Y118110D01*
X170942Y115570D01*
X292862Y339090D02*
X295402Y344170D01*
X292862Y349250D01*
X297942Y346710D01*
X303022Y349250D01*
X300482Y344170D01*
X303022Y339090D01*
X297942Y341630D01*
X292862Y339090D01*
X428752Y455422D02*
X431292Y460502D01*
X428752Y465582D01*
X433832Y463042D01*
X438912Y465582D01*
X436372Y460502D01*
X438912Y455422D01*
X433832Y457962D01*
X428752Y455422D01*
X269494Y203708D02*
X272034Y208788D01*
X269494Y213868D01*
X274574Y211328D01*
X279654Y213868D01*
X277114Y208788D01*
X279654Y203708D01*
X274574Y206248D01*
X269494Y203708D01*
X474218Y203200D02*
X476758Y208280D01*
X474218Y213360D01*
X479298Y210820D01*
X484378Y213360D01*
X481838Y208280D01*
X484378Y203200D01*
X479298Y205740D01*
X474218Y203200D01*
X381254Y152146D02*
X383794Y157226D01*
X381254Y162306D01*
X386334Y159766D01*
X391414Y162306D01*
X388874Y157226D01*
X391414Y152146D01*
X386334Y154686D01*
X381254Y152146D01*
X272034Y137668D02*
X274574Y142748D01*
X272034Y147828D01*
X277114Y145288D01*
X282194Y147828D01*
X279654Y142748D01*
X282194Y137668D01*
X277114Y140208D01*
X272034Y137668D01*
X264922Y343916D02*
X267462Y348996D01*
X264922Y354076D01*
X270002Y351536D01*
X275082Y354076D01*
X272542Y348996D01*
X275082Y343916D01*
X270002Y346456D01*
X264922Y343916D01*
X240792Y366268D02*
X243332Y371348D01*
X240792Y376428D01*
X245872Y373888D01*
X250952Y376428D01*
X248412Y371348D01*
X250952Y366268D01*
X245872Y368808D01*
X240792Y366268D01*
X492760Y392684D02*
X495300Y397764D01*
X492760Y402844D01*
X497840Y400304D01*
X502920Y402844D01*
X500380Y397764D01*
X502920Y392684D01*
X497840Y395224D01*
X492760Y392684D01*
X214630Y283718D02*
X217170Y288798D01*
X214630Y293878D01*
X219710Y291338D01*
X224790Y293878D01*
X222250Y288798D01*
X224790Y283718D01*
X219710Y286258D01*
X214630Y283718D01*
X204470Y746506D02*
X207010Y751586D01*
X204470Y756666D01*
X209550Y754126D01*
X214630Y756666D01*
X212090Y751586D01*
X214630Y746506D01*
X209550Y749046D01*
X204470Y746506D01*
X516890Y312420D02*
X519430Y317500D01*
X516890Y322580D01*
X521970Y320040D01*
X527050Y322580D01*
X524510Y317500D01*
X527050Y312420D01*
X521970Y314960D01*
X516890Y312420D01*
X530352Y858774D02*
X532892Y863854D01*
X530352Y868934D01*
X535432Y866394D01*
X540512Y868934D01*
X537972Y863854D01*
X540512Y858774D01*
X535432Y861314D01*
X530352Y858774D01*
X537459Y721024D02*
X539999Y726104D01*
X537459Y731184D01*
X542539Y728644D01*
X547619Y731184D01*
X545079Y726104D01*
X547619Y721024D01*
X542539Y723564D01*
X537459Y721024D01*
X374396Y737870D02*
X376936Y742950D01*
X374396Y748030D01*
X379476Y745490D01*
X384556Y748030D01*
X382016Y742950D01*
X384556Y737870D01*
X379476Y740410D01*
X374396Y737870D01*
X520178Y850670D02*
X522719Y855750D01*
X520178Y860830D01*
X525258Y858290D01*
X530339Y860830D01*
X527799Y855750D01*
X530339Y850670D01*
X525258Y853210D01*
X520178Y850670D01*
X526738Y707898D02*
X529278Y712978D01*
X526738Y718058D01*
X531818Y715518D01*
X536898Y718058D01*
X534358Y712978D01*
X536898Y707898D01*
X531818Y710438D01*
X526738Y707898D01*
X504952Y317246D02*
X507492Y322326D01*
X504952Y327406D01*
X510032Y324866D01*
X515112Y327406D01*
X512572Y322326D01*
X515112Y317246D01*
X510032Y319786D01*
X504952Y317246D01*
X668362Y513738D02*
Y511198D01*
X673442D01*
Y513738D01*
X675982D01*
Y518818D01*
X673442D01*
Y521358D01*
X668362D01*
Y518818D01*
X665822D01*
Y513738D01*
X668362D01*
X668862Y170738D02*
Y168198D01*
X673942D01*
Y170738D01*
X676482D01*
Y175818D01*
X673942D01*
Y178358D01*
X668862D01*
Y175818D01*
X666322D01*
Y170738D01*
X668862D01*
X54362Y170638D02*
Y168098D01*
X59442D01*
Y170638D01*
X61982D01*
Y175718D01*
X59442D01*
Y178258D01*
X54362D01*
Y175718D01*
X51822D01*
Y170638D01*
X54362D01*
Y515338D02*
Y512798D01*
X59442D01*
Y515338D01*
X61982D01*
Y520418D01*
X59442D01*
Y522958D01*
X54362D01*
Y520418D01*
X51822D01*
Y515338D01*
X54362D01*
X847460Y827460D02*
Y824920D01*
X852540D01*
Y827460D01*
X855080D01*
Y832540D01*
X852540D01*
Y835080D01*
X847460D01*
Y832540D01*
X844920D01*
Y827460D01*
X847460D01*
X726710Y58194D02*
Y55654D01*
X731790D01*
Y58194D01*
X734330D01*
Y63274D01*
X731790D01*
Y65814D01*
X726710D01*
Y63274D01*
X724170D01*
Y58194D01*
X726710D01*
X184960Y60444D02*
Y57904D01*
X190040D01*
Y60444D01*
X192580D01*
Y65524D01*
X190040D01*
Y68064D01*
X184960D01*
Y65524D01*
X182420D01*
Y60444D01*
X184960D01*
D55*
X46482Y243078D02*
G03*
X46482Y243078I-5080J0D01*
G01*
Y319278D02*
G03*
X46482Y319278I-5080J0D01*
G01*
Y294278D02*
G03*
X46482Y294278I-5080J0D01*
G01*
Y268478D02*
G03*
X46482Y268478I-5080J0D01*
G01*
Y395478D02*
G03*
X46482Y395478I-5080J0D01*
G01*
Y421278D02*
G03*
X46482Y421278I-5080J0D01*
G01*
Y446278D02*
G03*
X46482Y446278I-5080J0D01*
G01*
Y370078D02*
G03*
X46482Y370078I-5080J0D01*
G01*
Y344678D02*
G03*
X46482Y344678I-5080J0D01*
G01*
X849730Y32250D02*
G03*
X849730Y32250I-5080J0D01*
G01*
X874730D02*
G03*
X874730Y32250I-5080J0D01*
G01*
X45432Y32000D02*
G03*
X45432Y32000I-5080J0D01*
G01*
X70832D02*
G03*
X70832Y32000I-5080J0D01*
G01*
X121232D02*
G03*
X121232Y32000I-5080J0D01*
G01*
X96232D02*
G03*
X96232Y32000I-5080J0D01*
G01*
X305857Y32500D02*
G03*
X305857Y32500I-5080J0D01*
G01*
X280857D02*
G03*
X280857Y32500I-5080J0D01*
G01*
X255457D02*
G03*
X255457Y32500I-5080J0D01*
G01*
X418330Y32250D02*
G03*
X418330Y32250I-5080J0D01*
G01*
X393330D02*
G03*
X393330Y32250I-5080J0D01*
G01*
X367930D02*
G03*
X367930Y32250I-5080J0D01*
G01*
X528830Y31500D02*
G03*
X528830Y31500I-5080J0D01*
G01*
X553830D02*
G03*
X553830Y31500I-5080J0D01*
G01*
X503430D02*
G03*
X503430Y31500I-5080J0D01*
G01*
X478030D02*
G03*
X478030Y31500I-5080J0D01*
G01*
X615580Y31750D02*
G03*
X615580Y31750I-5080J0D01*
G01*
X640980D02*
G03*
X640980Y31750I-5080J0D01*
G01*
X665980D02*
G03*
X665980Y31750I-5080J0D01*
G01*
M02*
