G04*
G04 #@! TF.GenerationSoftware,Altium Limited,Altium Designer,21.0.9 (235)*
G04*
G04 Layer_Color=8388736*
%FSLAX44Y44*%
%MOMM*%
G71*
G04*
G04 #@! TF.SameCoordinates,736B1018-3895-43CE-9238-027F92C9441B*
G04*
G04*
G04 #@! TF.FilePolarity,Negative*
G04*
G01*
G75*
%ADD28R,1.1532X0.8032*%
%ADD29R,0.8032X1.1532*%
%ADD30R,1.5032X0.8032*%
%ADD31R,1.7532X1.2032*%
%ADD32O,2.3032X0.8532*%
%ADD33R,1.2032X0.7032*%
%ADD34R,1.5032X1.7032*%
%ADD35R,1.9032X1.7032*%
%ADD36R,1.6032X1.4032*%
%ADD37R,1.7032X1.9032*%
%ADD38R,1.7032X1.8032*%
%ADD39R,1.6032X1.0032*%
%ADD40O,1.7032X2.2032*%
%ADD41O,2.8032X1.8032*%
%ADD42C,1.4032*%
%ADD43C,2.2032*%
%ADD44O,1.8032X2.8032*%
%ADD45C,6.0000*%
D28*
X172974Y271908D02*
D03*
Y287908D02*
D03*
X755250Y197778D02*
D03*
Y181778D02*
D03*
X738500Y197250D02*
D03*
Y181250D02*
D03*
X751234Y301450D02*
D03*
Y317450D02*
D03*
X733484Y316950D02*
D03*
Y300950D02*
D03*
X734894Y414200D02*
D03*
Y430200D02*
D03*
X751490Y430017D02*
D03*
Y414017D02*
D03*
X651106Y699250D02*
D03*
Y715250D02*
D03*
X311500Y174750D02*
D03*
Y158750D02*
D03*
X293000Y175000D02*
D03*
Y159000D02*
D03*
D29*
X772032Y493240D02*
D03*
X756032D02*
D03*
X772032Y509750D02*
D03*
X756032D02*
D03*
X772032Y525780D02*
D03*
X756032D02*
D03*
X801750Y592000D02*
D03*
X785750D02*
D03*
X525258Y690036D02*
D03*
X509258D02*
D03*
X476008Y690544D02*
D03*
X460009D02*
D03*
D30*
X814250Y519750D02*
D03*
Y509750D02*
D03*
X840250Y519250D02*
D03*
Y509750D02*
D03*
Y500250D02*
D03*
X814250D02*
D03*
D31*
X855658Y429560D02*
D03*
X796658D02*
D03*
Y399560D02*
D03*
X855658D02*
D03*
Y336339D02*
D03*
X796658D02*
D03*
Y306339D02*
D03*
X855658D02*
D03*
D32*
X466365Y751504D02*
D03*
Y738804D02*
D03*
Y726104D02*
D03*
Y713404D02*
D03*
X514865Y751504D02*
D03*
Y738804D02*
D03*
Y726104D02*
D03*
Y713404D02*
D03*
D33*
X124296Y267000D02*
D03*
Y276500D02*
D03*
Y286000D02*
D03*
X151296D02*
D03*
Y276500D02*
D03*
Y267000D02*
D03*
D34*
X716500Y761750D02*
D03*
D35*
X848500Y626750D02*
D03*
Y761750D02*
D03*
D36*
X790500D02*
D03*
D37*
X700000Y629250D02*
D03*
D38*
Y755250D02*
D03*
D39*
X699000Y663250D02*
D03*
Y674250D02*
D03*
Y685250D02*
D03*
Y696250D02*
D03*
Y707250D02*
D03*
Y718250D02*
D03*
Y729250D02*
D03*
Y740250D02*
D03*
D40*
X148600Y830650D02*
D03*
X174000D02*
D03*
X199400D02*
D03*
X224800D02*
D03*
X250200D02*
D03*
X275600D02*
D03*
X301000D02*
D03*
X326400D02*
D03*
X351800D02*
D03*
X377200D02*
D03*
X402600D02*
D03*
X428000D02*
D03*
X453400D02*
D03*
D03*
X148600Y627150D02*
D03*
X174000D02*
D03*
X199400D02*
D03*
X224800D02*
D03*
X250200D02*
D03*
X275600D02*
D03*
X301000D02*
D03*
X326400D02*
D03*
X351800D02*
D03*
X377200D02*
D03*
X402600D02*
D03*
X428000D02*
D03*
X453400D02*
D03*
X478800D02*
D03*
Y830650D02*
D03*
D41*
X41402Y243078D02*
D03*
Y319278D02*
D03*
Y294278D02*
D03*
Y268478D02*
D03*
Y395478D02*
D03*
Y421278D02*
D03*
Y446278D02*
D03*
Y370078D02*
D03*
Y344678D02*
D03*
D42*
X835500Y177250D02*
D03*
Y197250D02*
D03*
Y217250D02*
D03*
X815500Y177250D02*
D03*
Y197250D02*
D03*
Y217250D02*
D03*
D43*
X825500Y149250D02*
D03*
Y245250D02*
D03*
D44*
X844650Y32250D02*
D03*
X869650D02*
D03*
X40352Y32000D02*
D03*
X65752D02*
D03*
X116152D02*
D03*
X91152D02*
D03*
X300777Y32500D02*
D03*
X275777D02*
D03*
X250377D02*
D03*
X413250Y32250D02*
D03*
X388250D02*
D03*
X362850D02*
D03*
X523750Y31500D02*
D03*
X548750D02*
D03*
X498350D02*
D03*
X472950D02*
D03*
X610500Y31750D02*
D03*
X635900D02*
D03*
X660900D02*
D03*
D45*
X850000Y830000D02*
D03*
X729250Y60734D02*
D03*
X187500Y62984D02*
D03*
M02*
