G04*
G04 #@! TF.GenerationSoftware,Altium Limited,Altium Designer,21.0.9 (235)*
G04*
G04 Layer_Physical_Order=1*
G04 Layer_Color=255*
%FSLAX44Y44*%
%MOMM*%
G71*
G04*
G04 #@! TF.SameCoordinates,736B1018-3895-43CE-9238-027F92C9441B*
G04*
G04*
G04 #@! TF.FilePolarity,Positive*
G04*
G01*
G75*
%ADD10C,0.3000*%
%ADD16R,0.9500X0.6000*%
%ADD17R,0.6000X0.9500*%
%ADD18R,1.3000X0.6000*%
%ADD19R,1.5500X1.0000*%
%ADD20O,2.1000X0.6500*%
%ADD21R,1.0000X0.5000*%
%ADD22R,1.3000X1.5000*%
%ADD23R,1.7000X1.5000*%
%ADD24R,1.4000X1.2000*%
%ADD25R,1.5000X1.7000*%
%ADD26R,1.5000X1.6000*%
%ADD27R,1.4000X0.8000*%
%ADD45C,6.0000*%
%ADD46C,0.5000*%
%ADD47O,1.5000X2.0000*%
%ADD48O,2.6000X1.6000*%
%ADD49C,1.2000*%
%ADD50C,2.0000*%
%ADD51O,1.6000X2.6000*%
%ADD52C,0.5000*%
%ADD53C,5.0000*%
G36*
X898441Y878441D02*
X898441Y1558D01*
X1558Y1558D01*
X1558Y878441D01*
X898441Y878441D01*
D02*
G37*
%LPC*%
G36*
X535432Y867932D02*
X533871Y867622D01*
X532810Y866913D01*
X410704D01*
X410704Y866913D01*
X409534Y866680D01*
X408541Y866017D01*
X400437Y857913D01*
X399774Y856920D01*
X399541Y855750D01*
X399541Y855750D01*
Y841625D01*
X398061Y841012D01*
X396181Y839569D01*
X394739Y837689D01*
X393832Y835499D01*
X393522Y833150D01*
Y828150D01*
X393832Y825800D01*
X394739Y823611D01*
X396181Y821731D01*
X398061Y820288D01*
X400251Y819382D01*
X402600Y819072D01*
X404949Y819382D01*
X407139Y820288D01*
X409019Y821731D01*
X410462Y823611D01*
X411368Y825800D01*
X411678Y828150D01*
Y833150D01*
X411368Y835499D01*
X410462Y837689D01*
X409019Y839569D01*
X407139Y841012D01*
X405659Y841625D01*
Y854483D01*
X411971Y860795D01*
X523610D01*
X523735Y859525D01*
X523698Y859518D01*
X522636Y858809D01*
X433856D01*
X433856Y858809D01*
X432686Y858576D01*
X431693Y857913D01*
X427097Y853317D01*
X426434Y852325D01*
X426201Y851154D01*
X426201Y851154D01*
Y841991D01*
X425650Y841918D01*
X423461Y841012D01*
X421581Y839569D01*
X420139Y837689D01*
X419232Y835499D01*
X418922Y833150D01*
Y828150D01*
X419232Y825800D01*
X420139Y823611D01*
X421581Y821731D01*
X423461Y820288D01*
X425650Y819382D01*
X428000Y819072D01*
X430350Y819382D01*
X432539Y820288D01*
X434419Y821731D01*
X435862Y823611D01*
X436768Y825800D01*
X437078Y828150D01*
Y833150D01*
X436768Y835499D01*
X435862Y837689D01*
X434419Y839569D01*
X432539Y841012D01*
X432319Y841103D01*
Y849887D01*
X435123Y852691D01*
X522636D01*
X523698Y851982D01*
X525258Y851672D01*
X526819Y851982D01*
X528142Y852866D01*
X529026Y854189D01*
X529337Y855750D01*
X529026Y857311D01*
X528142Y858634D01*
X526819Y859518D01*
X526782Y859525D01*
X526908Y860795D01*
X532810D01*
X533871Y860086D01*
X535432Y859776D01*
X536993Y860086D01*
X538316Y860970D01*
X539200Y862293D01*
X539510Y863854D01*
X539200Y865415D01*
X538316Y866738D01*
X536993Y867622D01*
X535432Y867932D01*
D02*
G37*
G36*
X225550Y842129D02*
Y831400D01*
X233878D01*
Y833150D01*
X233568Y835499D01*
X232661Y837689D01*
X231219Y839569D01*
X229339Y841012D01*
X227150Y841918D01*
X225550Y842129D01*
D02*
G37*
G36*
X224050Y842129D02*
X222451Y841918D01*
X220261Y841012D01*
X218381Y839569D01*
X216939Y837689D01*
X216032Y835499D01*
X215722Y833150D01*
Y831400D01*
X224050D01*
Y842129D01*
D02*
G37*
G36*
X233878Y829900D02*
X225550D01*
Y819171D01*
X227150Y819382D01*
X229339Y820288D01*
X231219Y821731D01*
X232661Y823611D01*
X233568Y825800D01*
X233878Y828150D01*
Y829900D01*
D02*
G37*
G36*
X224050D02*
X215722D01*
Y828150D01*
X216032Y825800D01*
X216939Y823611D01*
X218381Y821731D01*
X220261Y820288D01*
X222451Y819382D01*
X224050Y819171D01*
Y829900D01*
D02*
G37*
G36*
X453400Y842228D02*
X451050Y841918D01*
X448861Y841012D01*
X446981Y839569D01*
X445539Y837689D01*
X444632Y835499D01*
X444322Y833150D01*
Y828150D01*
X444632Y825800D01*
X445539Y823611D01*
X446981Y821731D01*
X448861Y820288D01*
X451050Y819382D01*
X453400Y819072D01*
X455750Y819382D01*
X457939Y820288D01*
X459819Y821731D01*
X461261Y823611D01*
X462168Y825800D01*
X462478Y828150D01*
Y833150D01*
X462168Y835499D01*
X461261Y837689D01*
X459819Y839569D01*
X457939Y841012D01*
X455750Y841918D01*
X453400Y842228D01*
D02*
G37*
G36*
X377200D02*
X374851Y841918D01*
X372661Y841012D01*
X370781Y839569D01*
X369339Y837689D01*
X368432Y835499D01*
X368122Y833150D01*
Y828150D01*
X368432Y825800D01*
X369339Y823611D01*
X370781Y821731D01*
X372661Y820288D01*
X374851Y819382D01*
X377200Y819072D01*
X379549Y819382D01*
X381739Y820288D01*
X383619Y821731D01*
X385061Y823611D01*
X385968Y825800D01*
X386278Y828150D01*
Y833150D01*
X385968Y835499D01*
X385061Y837689D01*
X383619Y839569D01*
X381739Y841012D01*
X379549Y841918D01*
X377200Y842228D01*
D02*
G37*
G36*
X351800D02*
X349450Y841918D01*
X347261Y841012D01*
X345381Y839569D01*
X343939Y837689D01*
X343032Y835499D01*
X342722Y833150D01*
Y828150D01*
X343032Y825800D01*
X343939Y823611D01*
X345381Y821731D01*
X347261Y820288D01*
X349450Y819382D01*
X351800Y819072D01*
X354150Y819382D01*
X356339Y820288D01*
X358219Y821731D01*
X359661Y823611D01*
X360568Y825800D01*
X360878Y828150D01*
Y833150D01*
X360568Y835499D01*
X359661Y837689D01*
X358219Y839569D01*
X356339Y841012D01*
X354150Y841918D01*
X351800Y842228D01*
D02*
G37*
G36*
X326400D02*
X324050Y841918D01*
X321861Y841012D01*
X319981Y839569D01*
X318539Y837689D01*
X317632Y835499D01*
X317322Y833150D01*
Y828150D01*
X317632Y825800D01*
X318539Y823611D01*
X319981Y821731D01*
X321861Y820288D01*
X324050Y819382D01*
X326400Y819072D01*
X328750Y819382D01*
X330939Y820288D01*
X332819Y821731D01*
X334262Y823611D01*
X335168Y825800D01*
X335478Y828150D01*
Y833150D01*
X335168Y835499D01*
X334262Y837689D01*
X332819Y839569D01*
X330939Y841012D01*
X328750Y841918D01*
X326400Y842228D01*
D02*
G37*
G36*
X301000D02*
X298650Y841918D01*
X296461Y841012D01*
X294581Y839569D01*
X293139Y837689D01*
X292232Y835499D01*
X291922Y833150D01*
Y828150D01*
X292232Y825800D01*
X293139Y823611D01*
X294581Y821731D01*
X296461Y820288D01*
X298650Y819382D01*
X301000Y819072D01*
X303349Y819382D01*
X305539Y820288D01*
X307419Y821731D01*
X308862Y823611D01*
X309768Y825800D01*
X310078Y828150D01*
Y833150D01*
X309768Y835499D01*
X308862Y837689D01*
X307419Y839569D01*
X305539Y841012D01*
X303349Y841918D01*
X301000Y842228D01*
D02*
G37*
G36*
X275600D02*
X273251Y841918D01*
X271061Y841012D01*
X269181Y839569D01*
X267739Y837689D01*
X266832Y835499D01*
X266522Y833150D01*
Y828150D01*
X266832Y825800D01*
X267739Y823611D01*
X269181Y821731D01*
X271061Y820288D01*
X273251Y819382D01*
X275600Y819072D01*
X277950Y819382D01*
X280139Y820288D01*
X282019Y821731D01*
X283461Y823611D01*
X284368Y825800D01*
X284678Y828150D01*
Y833150D01*
X284368Y835499D01*
X283461Y837689D01*
X282019Y839569D01*
X280139Y841012D01*
X277950Y841918D01*
X275600Y842228D01*
D02*
G37*
G36*
X250200D02*
X247850Y841918D01*
X245661Y841012D01*
X243781Y839569D01*
X242339Y837689D01*
X241432Y835499D01*
X241122Y833150D01*
Y828150D01*
X241432Y825800D01*
X242339Y823611D01*
X243781Y821731D01*
X245661Y820288D01*
X247850Y819382D01*
X250200Y819072D01*
X252549Y819382D01*
X254739Y820288D01*
X256619Y821731D01*
X258062Y823611D01*
X258968Y825800D01*
X259278Y828150D01*
Y833150D01*
X258968Y835499D01*
X258062Y837689D01*
X256619Y839569D01*
X254739Y841012D01*
X252549Y841918D01*
X250200Y842228D01*
D02*
G37*
G36*
X199400D02*
X197050Y841918D01*
X194861Y841012D01*
X192981Y839569D01*
X191539Y837689D01*
X190632Y835499D01*
X190322Y833150D01*
Y828150D01*
X190632Y825800D01*
X191539Y823611D01*
X192981Y821731D01*
X194861Y820288D01*
X197050Y819382D01*
X199400Y819072D01*
X201749Y819382D01*
X203939Y820288D01*
X205819Y821731D01*
X207262Y823611D01*
X208168Y825800D01*
X208478Y828150D01*
Y833150D01*
X208168Y835499D01*
X207262Y837689D01*
X205819Y839569D01*
X203939Y841012D01*
X201749Y841918D01*
X199400Y842228D01*
D02*
G37*
G36*
X174000D02*
X171651Y841918D01*
X169461Y841012D01*
X167581Y839569D01*
X166139Y837689D01*
X165232Y835499D01*
X164922Y833150D01*
Y828150D01*
X165232Y825800D01*
X166139Y823611D01*
X167581Y821731D01*
X169461Y820288D01*
X171651Y819382D01*
X174000Y819072D01*
X176350Y819382D01*
X178539Y820288D01*
X180419Y821731D01*
X181861Y823611D01*
X182768Y825800D01*
X183078Y828150D01*
Y833150D01*
X182768Y835499D01*
X181861Y837689D01*
X180419Y839569D01*
X178539Y841012D01*
X176350Y841918D01*
X174000Y842228D01*
D02*
G37*
G36*
X148600D02*
X146250Y841918D01*
X144061Y841012D01*
X142181Y839569D01*
X140739Y837689D01*
X139832Y835499D01*
X139522Y833150D01*
Y828150D01*
X139832Y825800D01*
X140739Y823611D01*
X142181Y821731D01*
X144061Y820288D01*
X146250Y819382D01*
X148600Y819072D01*
X150949Y819382D01*
X153139Y820288D01*
X155019Y821731D01*
X156461Y823611D01*
X157368Y825800D01*
X157678Y828150D01*
Y833150D01*
X157368Y835499D01*
X156461Y837689D01*
X155019Y839569D01*
X153139Y841012D01*
X150949Y841918D01*
X148600Y842228D01*
D02*
G37*
G36*
X850000Y861597D02*
X845057Y861208D01*
X840236Y860051D01*
X835655Y858154D01*
X831428Y855563D01*
X827657Y852343D01*
X824437Y848572D01*
X821846Y844345D01*
X819949Y839764D01*
X818792Y834943D01*
X818403Y830000D01*
X818792Y825057D01*
X819949Y820236D01*
X821846Y815655D01*
X824437Y811428D01*
X827657Y807657D01*
X831428Y804437D01*
X835655Y801846D01*
X840236Y799949D01*
X845057Y798792D01*
X850000Y798403D01*
X854943Y798792D01*
X859764Y799949D01*
X864345Y801846D01*
X868572Y804437D01*
X872343Y807657D01*
X875563Y811428D01*
X878154Y815655D01*
X880051Y820236D01*
X881208Y825057D01*
X881597Y830000D01*
X881208Y834943D01*
X880051Y839764D01*
X878154Y844345D01*
X875563Y848572D01*
X872343Y852343D01*
X868572Y855563D01*
X864345Y858154D01*
X859764Y860051D01*
X854943Y861208D01*
X850000Y861597D01*
D02*
G37*
G36*
X651106Y774203D02*
X651106Y774203D01*
X497078D01*
X497078Y774203D01*
X495908Y773970D01*
X494915Y773307D01*
X494915Y773307D01*
X484501Y762893D01*
X483838Y761900D01*
X483605Y760730D01*
X483605Y760730D01*
Y746757D01*
X478711Y741863D01*
X477284D01*
X477039Y742229D01*
X475468Y743278D01*
X473615Y743647D01*
X459115D01*
X457261Y743278D01*
X455690Y742229D01*
X455446Y741863D01*
X384889D01*
X383493Y743259D01*
X383244Y744511D01*
X382360Y745834D01*
X381037Y746718D01*
X379476Y747028D01*
X377915Y746718D01*
X376592Y745834D01*
X375708Y744511D01*
X375398Y742950D01*
X375708Y741389D01*
X376592Y740066D01*
X377915Y739182D01*
X379167Y738933D01*
X381459Y736641D01*
X382451Y735978D01*
X383622Y735745D01*
X383622Y735745D01*
X455446D01*
X455690Y735379D01*
X457261Y734330D01*
X459115Y733961D01*
X473615D01*
X475468Y734330D01*
X477039Y735379D01*
X477284Y735745D01*
X479978D01*
X479978Y735745D01*
X481149Y735978D01*
X482141Y736641D01*
X488827Y743327D01*
X488827Y743327D01*
X489490Y744320D01*
X489723Y745490D01*
Y759463D01*
X498345Y768085D01*
X649839D01*
X690500Y727424D01*
X690500Y723750D01*
X690500Y722480D01*
Y719000D01*
X699000D01*
X707500D01*
Y722480D01*
X707500Y723750D01*
X707500Y725020D01*
Y733480D01*
X707500Y734750D01*
X707500D01*
Y734750D01*
X707500D01*
X707500Y745750D01*
X709000Y745750D01*
Y752750D01*
X715750D01*
Y761750D01*
Y770750D01*
X708500D01*
Y764750D01*
X700750D01*
Y755250D01*
X700000D01*
Y754500D01*
X691000D01*
Y746813D01*
X690500Y745750D01*
X690500Y744687D01*
Y737735D01*
X689327Y737249D01*
X653269Y773307D01*
X652277Y773970D01*
X651106Y774203D01*
D02*
G37*
G36*
X724500Y770750D02*
X717250D01*
Y762500D01*
X724500D01*
Y770750D01*
D02*
G37*
G36*
X858500D02*
X849250D01*
Y762500D01*
X858500D01*
Y770750D01*
D02*
G37*
G36*
X847750D02*
X838500D01*
Y762500D01*
X847750D01*
Y770750D01*
D02*
G37*
G36*
X699250Y764750D02*
X691000D01*
Y756000D01*
X699250D01*
Y764750D01*
D02*
G37*
G36*
X473615Y756347D02*
X459115D01*
X457261Y755978D01*
X455690Y754929D01*
X455446Y754563D01*
X212295D01*
X211111Y755354D01*
X209550Y755664D01*
X207989Y755354D01*
X206666Y754470D01*
X205782Y753147D01*
X205472Y751586D01*
X205782Y750025D01*
X206666Y748702D01*
X207989Y747818D01*
X209550Y747508D01*
X211111Y747818D01*
X212049Y748445D01*
X455446D01*
X455690Y748080D01*
X457261Y747030D01*
X459115Y746661D01*
X473615D01*
X475468Y747030D01*
X477039Y748080D01*
X478089Y749651D01*
X478458Y751504D01*
X478089Y753357D01*
X477039Y754929D01*
X475468Y755978D01*
X473615Y756347D01*
D02*
G37*
G36*
X858500Y761000D02*
X849250D01*
Y752750D01*
X858500D01*
Y761000D01*
D02*
G37*
G36*
X847750D02*
X838500D01*
Y752750D01*
X847750D01*
Y761000D01*
D02*
G37*
G36*
X724500Y761000D02*
X717250D01*
Y752750D01*
X724500D01*
Y761000D01*
D02*
G37*
G36*
X522115Y756347D02*
X507615D01*
X505761Y755978D01*
X504190Y754929D01*
X503140Y753357D01*
X502771Y751504D01*
X503140Y749651D01*
X504190Y748080D01*
X505761Y747030D01*
X507615Y746661D01*
X511806D01*
Y743647D01*
X507615D01*
X505761Y743278D01*
X504190Y742229D01*
X503946Y741863D01*
X502584D01*
X502584Y741863D01*
X501413Y741630D01*
X500421Y740967D01*
X500421Y740967D01*
X488617Y729163D01*
X477284D01*
X477039Y729529D01*
X475468Y730578D01*
X473615Y730947D01*
X459115D01*
X457261Y730578D01*
X456266Y729913D01*
X455796Y730007D01*
X455796Y730007D01*
X441706D01*
X441706Y730007D01*
X440536Y729774D01*
X439543Y729111D01*
X435987Y725555D01*
X435324Y724563D01*
X435091Y723392D01*
X435091Y723392D01*
Y714888D01*
X206886D01*
X192739Y729035D01*
X192490Y730287D01*
X191606Y731610D01*
X190283Y732494D01*
X188722Y732804D01*
X187161Y732494D01*
X185838Y731610D01*
X184954Y730287D01*
X184644Y728726D01*
X184954Y727165D01*
X185838Y725842D01*
X187161Y724958D01*
X188413Y724709D01*
X203456Y709666D01*
X203456Y709666D01*
X204449Y709003D01*
X205619Y708770D01*
X205619Y708770D01*
X435091D01*
Y700266D01*
X435091Y700266D01*
X435324Y699096D01*
X435987Y698103D01*
X445709Y688381D01*
X445709Y688381D01*
X446701Y687718D01*
X447872Y687485D01*
X455508D01*
Y684294D01*
X457144D01*
Y683052D01*
X457144Y683051D01*
X457377Y681881D01*
X458040Y680889D01*
X466841Y672087D01*
X467834Y671424D01*
X469004Y671191D01*
X469004Y671191D01*
X493472D01*
X493473Y671191D01*
X494643Y671424D01*
X495635Y672087D01*
X507276Y683727D01*
X507758D01*
X507758Y683727D01*
X508054Y683786D01*
X513759D01*
Y696286D01*
X504758D01*
Y689559D01*
X503846Y688949D01*
X503846Y688949D01*
X492206Y677309D01*
X470271D01*
X464150Y683429D01*
X464509Y684294D01*
X464509D01*
Y696794D01*
X455508D01*
Y693603D01*
X449139D01*
X441209Y701533D01*
Y711829D01*
Y722125D01*
X442973Y723889D01*
X454882D01*
X455690Y722680D01*
X457261Y721630D01*
X459115Y721261D01*
X473615D01*
X475468Y721630D01*
X477039Y722680D01*
X477284Y723045D01*
X489884D01*
X489884Y723045D01*
X491055Y723278D01*
X492047Y723941D01*
X502992Y734886D01*
X504190Y735379D01*
X505761Y734330D01*
X507615Y733961D01*
X522115D01*
X523968Y734330D01*
X525539Y735379D01*
X526589Y736951D01*
X526958Y738804D01*
X527016Y738875D01*
X610788D01*
X611849Y738166D01*
X613410Y737856D01*
X614971Y738166D01*
X616294Y739050D01*
X617178Y740373D01*
X617488Y741934D01*
X617178Y743495D01*
X616294Y744818D01*
X614971Y745702D01*
X613410Y746012D01*
X611849Y745702D01*
X610788Y744993D01*
X525622D01*
X524451Y744760D01*
X523459Y744097D01*
X523459Y744097D01*
X522861Y743499D01*
X522115Y743647D01*
X517923D01*
Y746661D01*
X522115D01*
X523968Y747030D01*
X525539Y748080D01*
X526589Y749651D01*
X526958Y751504D01*
X526589Y753357D01*
X525539Y754929D01*
X523968Y755978D01*
X522115Y756347D01*
D02*
G37*
G36*
X657356Y719750D02*
X651856D01*
Y716000D01*
X657356D01*
Y719750D01*
D02*
G37*
G36*
X650356D02*
X644856D01*
Y716000D01*
X650356D01*
Y719750D01*
D02*
G37*
G36*
X473615Y718247D02*
X467114D01*
Y714154D01*
X478308D01*
X478089Y715257D01*
X477039Y716829D01*
X475468Y717878D01*
X473615Y718247D01*
D02*
G37*
G36*
X465615D02*
X459115D01*
X457261Y717878D01*
X455690Y716829D01*
X454640Y715257D01*
X454421Y714154D01*
X465615D01*
Y718247D01*
D02*
G37*
G36*
X478308Y712654D02*
X467114D01*
Y708561D01*
X473615D01*
X475468Y708930D01*
X477039Y709979D01*
X478089Y711551D01*
X478308Y712654D01*
D02*
G37*
G36*
X465615D02*
X454421D01*
X454640Y711551D01*
X455690Y709979D01*
X457261Y708930D01*
X459115Y708561D01*
X465615D01*
Y712654D01*
D02*
G37*
G36*
X480508Y696794D02*
X476759D01*
Y691294D01*
X480508D01*
Y696794D01*
D02*
G37*
G36*
X475259D02*
X471509D01*
Y691294D01*
X475259D01*
Y696794D01*
D02*
G37*
G36*
X529758Y696286D02*
X526008D01*
Y690786D01*
X529758D01*
Y696286D01*
D02*
G37*
G36*
X524509D02*
X520759D01*
Y690786D01*
X524509D01*
Y696286D01*
D02*
G37*
G36*
X480508Y689794D02*
X476759D01*
Y684294D01*
X480508D01*
Y689794D01*
D02*
G37*
G36*
X475259D02*
X471509D01*
Y684294D01*
X475259D01*
Y689794D01*
D02*
G37*
G36*
X529758Y689286D02*
X526008D01*
Y683786D01*
X529758D01*
Y689286D01*
D02*
G37*
G36*
X524509D02*
X520759D01*
Y683786D01*
X524509D01*
Y689286D01*
D02*
G37*
G36*
X478800Y842228D02*
X476451Y841918D01*
X474261Y841012D01*
X472381Y839569D01*
X470939Y837689D01*
X470032Y835499D01*
X469722Y833150D01*
Y828150D01*
X470032Y825800D01*
X470939Y823611D01*
X472381Y821731D01*
X474261Y820288D01*
X476451Y819382D01*
X478800Y819072D01*
X481149Y819382D01*
X483339Y820288D01*
X485219Y821731D01*
X486661Y823611D01*
X487568Y825800D01*
X487804Y827591D01*
X733033D01*
Y689099D01*
X721243Y677309D01*
X708398D01*
X707500Y678207D01*
X707500Y679750D01*
X707500Y681020D01*
Y689480D01*
X707500Y690750D01*
X707500Y692020D01*
Y700480D01*
X707500Y701750D01*
X707500Y703020D01*
Y712750D01*
Y717500D01*
X699000D01*
X690500D01*
Y710309D01*
X658443D01*
X657356Y710750D01*
X657356Y711579D01*
Y714500D01*
X644856D01*
X644856Y710750D01*
X643769Y710309D01*
X590335D01*
X572377Y728267D01*
X571385Y728930D01*
X570214Y729163D01*
X570214Y729163D01*
X545161D01*
X544100Y729872D01*
X542539Y730182D01*
X540979Y729872D01*
X539917Y729163D01*
X525784D01*
X525539Y729529D01*
X523968Y730578D01*
X522115Y730947D01*
X507615D01*
X505761Y730578D01*
X504190Y729529D01*
X503140Y727957D01*
X502771Y726104D01*
X503140Y724251D01*
X504190Y722680D01*
X505761Y721630D01*
X507615Y721261D01*
X522115D01*
X523968Y721630D01*
X525539Y722680D01*
X525784Y723045D01*
X539917D01*
X540979Y722336D01*
X542539Y722026D01*
X544100Y722336D01*
X545161Y723045D01*
X568947D01*
X586905Y705087D01*
X587897Y704424D01*
X589068Y704191D01*
X611049D01*
X611434Y702921D01*
X611034Y702654D01*
X610150Y701331D01*
X609840Y699770D01*
X610150Y698209D01*
X611034Y696886D01*
X612357Y696002D01*
X613918Y695692D01*
X615479Y696002D01*
X615762Y696191D01*
X644856D01*
Y694750D01*
X653030D01*
X653693Y694087D01*
X653693Y694087D01*
X654686Y693424D01*
X655856Y693191D01*
X655856Y693191D01*
X689602D01*
X690500Y692293D01*
X690500Y690750D01*
X690500Y689207D01*
X689602Y688309D01*
X590335D01*
X563503Y715141D01*
X562510Y715804D01*
X561340Y716037D01*
X561340Y716037D01*
X534440D01*
X533379Y716746D01*
X531818Y717056D01*
X530257Y716746D01*
X529196Y716037D01*
X526068D01*
X525539Y716829D01*
X523968Y717878D01*
X522115Y718247D01*
X507615D01*
X505761Y717878D01*
X504190Y716829D01*
X503140Y715257D01*
X502771Y713404D01*
X503140Y711551D01*
X504190Y709979D01*
X505761Y708930D01*
X507615Y708561D01*
X522115D01*
X523968Y708930D01*
X525449Y709919D01*
X529196D01*
X530257Y709210D01*
X531818Y708900D01*
X533379Y709210D01*
X534440Y709919D01*
X560073D01*
X586905Y683087D01*
X586905Y683087D01*
X587897Y682424D01*
X589068Y682191D01*
X689602D01*
X690500Y681293D01*
X690500Y679750D01*
X690500Y678480D01*
Y675908D01*
X690174Y675421D01*
X689941Y674250D01*
X690174Y673080D01*
X690500Y672592D01*
X690500Y668750D01*
X690500Y667480D01*
Y657750D01*
X707500D01*
Y667480D01*
X707500Y668750D01*
X707500Y670293D01*
X708398Y671191D01*
X722510D01*
X722510Y671191D01*
X723680Y671424D01*
X724673Y672087D01*
X738255Y685669D01*
X738918Y686662D01*
X739151Y687832D01*
X739151Y687832D01*
Y828893D01*
X739151Y828893D01*
X738918Y830063D01*
X738255Y831056D01*
X738255Y831056D01*
X736497Y832813D01*
X735505Y833476D01*
X734335Y833709D01*
X734334Y833709D01*
X487804D01*
X487568Y835499D01*
X486661Y837689D01*
X485219Y839569D01*
X483339Y841012D01*
X481149Y841918D01*
X478800Y842228D01*
D02*
G37*
G36*
X709000Y639250D02*
X700750D01*
Y630000D01*
X709000D01*
Y639250D01*
D02*
G37*
G36*
X699250D02*
X691000D01*
Y630000D01*
X699250D01*
Y639250D01*
D02*
G37*
G36*
X858500Y635750D02*
X849250D01*
Y627500D01*
X858500D01*
Y635750D01*
D02*
G37*
G36*
X847750D02*
X838500D01*
Y627500D01*
X847750D01*
Y635750D01*
D02*
G37*
G36*
X709000Y628500D02*
X700750D01*
Y619250D01*
X709000D01*
Y628500D01*
D02*
G37*
G36*
X699250D02*
X691000D01*
Y619250D01*
X699250D01*
Y628500D01*
D02*
G37*
G36*
X858500Y626000D02*
X849250D01*
Y617750D01*
X858500D01*
Y626000D01*
D02*
G37*
G36*
X847750D02*
X838500D01*
Y617750D01*
X847750D01*
Y626000D01*
D02*
G37*
G36*
X478800Y638728D02*
X476451Y638418D01*
X474261Y637511D01*
X472381Y636069D01*
X470939Y634189D01*
X470032Y632000D01*
X469722Y629650D01*
Y624650D01*
X470032Y622300D01*
X470939Y620111D01*
X472381Y618231D01*
X474261Y616788D01*
X476451Y615882D01*
X478800Y615572D01*
X481149Y615882D01*
X483339Y616788D01*
X485219Y618231D01*
X486661Y620111D01*
X487568Y622300D01*
X487878Y624650D01*
Y629650D01*
X487568Y632000D01*
X486661Y634189D01*
X485219Y636069D01*
X483339Y637511D01*
X481149Y638418D01*
X478800Y638728D01*
D02*
G37*
G36*
X453400D02*
X451050Y638418D01*
X448861Y637511D01*
X446981Y636069D01*
X445539Y634189D01*
X444632Y632000D01*
X444322Y629650D01*
Y624650D01*
X444632Y622300D01*
X445539Y620111D01*
X446981Y618231D01*
X448861Y616788D01*
X451050Y615882D01*
X453400Y615572D01*
X455750Y615882D01*
X457939Y616788D01*
X459819Y618231D01*
X461261Y620111D01*
X462168Y622300D01*
X462478Y624650D01*
Y629650D01*
X462168Y632000D01*
X461261Y634189D01*
X459819Y636069D01*
X457939Y637511D01*
X455750Y638418D01*
X453400Y638728D01*
D02*
G37*
G36*
X428000D02*
X425650Y638418D01*
X423461Y637511D01*
X421581Y636069D01*
X420139Y634189D01*
X419232Y632000D01*
X418922Y629650D01*
Y624650D01*
X419232Y622300D01*
X420139Y620111D01*
X421581Y618231D01*
X423461Y616788D01*
X425650Y615882D01*
X428000Y615572D01*
X430350Y615882D01*
X432539Y616788D01*
X434419Y618231D01*
X435862Y620111D01*
X436768Y622300D01*
X437078Y624650D01*
Y629650D01*
X436768Y632000D01*
X435862Y634189D01*
X434419Y636069D01*
X432539Y637511D01*
X430350Y638418D01*
X428000Y638728D01*
D02*
G37*
G36*
X402600D02*
X400251Y638418D01*
X398061Y637511D01*
X396181Y636069D01*
X394739Y634189D01*
X393832Y632000D01*
X393522Y629650D01*
Y624650D01*
X393832Y622300D01*
X394739Y620111D01*
X396181Y618231D01*
X398061Y616788D01*
X400251Y615882D01*
X402600Y615572D01*
X404949Y615882D01*
X407139Y616788D01*
X409019Y618231D01*
X410462Y620111D01*
X411368Y622300D01*
X411678Y624650D01*
Y629650D01*
X411368Y632000D01*
X410462Y634189D01*
X409019Y636069D01*
X407139Y637511D01*
X404949Y638418D01*
X402600Y638728D01*
D02*
G37*
G36*
X377200D02*
X374851Y638418D01*
X372661Y637511D01*
X370781Y636069D01*
X369339Y634189D01*
X368432Y632000D01*
X368122Y629650D01*
Y624650D01*
X368432Y622300D01*
X369339Y620111D01*
X370781Y618231D01*
X372661Y616788D01*
X374851Y615882D01*
X377200Y615572D01*
X379549Y615882D01*
X381739Y616788D01*
X383619Y618231D01*
X385061Y620111D01*
X385968Y622300D01*
X386278Y624650D01*
Y629650D01*
X385968Y632000D01*
X385061Y634189D01*
X383619Y636069D01*
X381739Y637511D01*
X379549Y638418D01*
X377200Y638728D01*
D02*
G37*
G36*
X351800D02*
X349450Y638418D01*
X347261Y637511D01*
X345381Y636069D01*
X343939Y634189D01*
X343032Y632000D01*
X342722Y629650D01*
Y624650D01*
X343032Y622300D01*
X343939Y620111D01*
X345381Y618231D01*
X347261Y616788D01*
X349450Y615882D01*
X351800Y615572D01*
X354150Y615882D01*
X356339Y616788D01*
X358219Y618231D01*
X359661Y620111D01*
X360568Y622300D01*
X360878Y624650D01*
Y629650D01*
X360568Y632000D01*
X359661Y634189D01*
X358219Y636069D01*
X356339Y637511D01*
X354150Y638418D01*
X351800Y638728D01*
D02*
G37*
G36*
X326400D02*
X324050Y638418D01*
X321861Y637511D01*
X319981Y636069D01*
X318539Y634189D01*
X317632Y632000D01*
X317322Y629650D01*
Y624650D01*
X317632Y622300D01*
X318539Y620111D01*
X319981Y618231D01*
X321861Y616788D01*
X324050Y615882D01*
X326400Y615572D01*
X328750Y615882D01*
X330939Y616788D01*
X332819Y618231D01*
X334262Y620111D01*
X335168Y622300D01*
X335478Y624650D01*
Y629650D01*
X335168Y632000D01*
X334262Y634189D01*
X332819Y636069D01*
X330939Y637511D01*
X328750Y638418D01*
X326400Y638728D01*
D02*
G37*
G36*
X301000D02*
X298650Y638418D01*
X296461Y637511D01*
X294581Y636069D01*
X293139Y634189D01*
X292232Y632000D01*
X291922Y629650D01*
Y624650D01*
X292232Y622300D01*
X293139Y620111D01*
X294581Y618231D01*
X296461Y616788D01*
X298650Y615882D01*
X301000Y615572D01*
X303349Y615882D01*
X305539Y616788D01*
X307419Y618231D01*
X308862Y620111D01*
X309768Y622300D01*
X310078Y624650D01*
Y629650D01*
X309768Y632000D01*
X308862Y634189D01*
X307419Y636069D01*
X305539Y637511D01*
X303349Y638418D01*
X301000Y638728D01*
D02*
G37*
G36*
X275600D02*
X273251Y638418D01*
X271061Y637511D01*
X269181Y636069D01*
X267739Y634189D01*
X266832Y632000D01*
X266522Y629650D01*
Y624650D01*
X266832Y622300D01*
X267739Y620111D01*
X269181Y618231D01*
X271061Y616788D01*
X273251Y615882D01*
X275600Y615572D01*
X277950Y615882D01*
X280139Y616788D01*
X282019Y618231D01*
X283461Y620111D01*
X284368Y622300D01*
X284678Y624650D01*
Y629650D01*
X284368Y632000D01*
X283461Y634189D01*
X282019Y636069D01*
X280139Y637511D01*
X277950Y638418D01*
X275600Y638728D01*
D02*
G37*
G36*
X250200D02*
X247850Y638418D01*
X245661Y637511D01*
X243781Y636069D01*
X242339Y634189D01*
X241432Y632000D01*
X241122Y629650D01*
Y624650D01*
X241432Y622300D01*
X242339Y620111D01*
X243781Y618231D01*
X245661Y616788D01*
X247850Y615882D01*
X250200Y615572D01*
X252549Y615882D01*
X254739Y616788D01*
X256619Y618231D01*
X258062Y620111D01*
X258968Y622300D01*
X259278Y624650D01*
Y629650D01*
X258968Y632000D01*
X258062Y634189D01*
X256619Y636069D01*
X254739Y637511D01*
X252549Y638418D01*
X250200Y638728D01*
D02*
G37*
G36*
X224800D02*
X222451Y638418D01*
X220261Y637511D01*
X218381Y636069D01*
X216939Y634189D01*
X216032Y632000D01*
X215722Y629650D01*
Y624650D01*
X216032Y622300D01*
X216939Y620111D01*
X218381Y618231D01*
X220261Y616788D01*
X222451Y615882D01*
X224800Y615572D01*
X227150Y615882D01*
X229339Y616788D01*
X231219Y618231D01*
X232661Y620111D01*
X233568Y622300D01*
X233878Y624650D01*
Y629650D01*
X233568Y632000D01*
X232661Y634189D01*
X231219Y636069D01*
X229339Y637511D01*
X227150Y638418D01*
X224800Y638728D01*
D02*
G37*
G36*
X199400D02*
X197050Y638418D01*
X194861Y637511D01*
X192981Y636069D01*
X191539Y634189D01*
X190632Y632000D01*
X190322Y629650D01*
Y624650D01*
X190632Y622300D01*
X191539Y620111D01*
X192981Y618231D01*
X194861Y616788D01*
X197050Y615882D01*
X199400Y615572D01*
X201749Y615882D01*
X203939Y616788D01*
X205819Y618231D01*
X207262Y620111D01*
X208168Y622300D01*
X208478Y624650D01*
Y629650D01*
X208168Y632000D01*
X207262Y634189D01*
X205819Y636069D01*
X203939Y637511D01*
X201749Y638418D01*
X199400Y638728D01*
D02*
G37*
G36*
X174000D02*
X171651Y638418D01*
X169461Y637511D01*
X167581Y636069D01*
X166139Y634189D01*
X165232Y632000D01*
X164922Y629650D01*
Y624650D01*
X165232Y622300D01*
X166139Y620111D01*
X167581Y618231D01*
X169461Y616788D01*
X171651Y615882D01*
X174000Y615572D01*
X176350Y615882D01*
X178539Y616788D01*
X180419Y618231D01*
X181861Y620111D01*
X182768Y622300D01*
X183078Y624650D01*
Y629650D01*
X182768Y632000D01*
X181861Y634189D01*
X180419Y636069D01*
X178539Y637511D01*
X176350Y638418D01*
X174000Y638728D01*
D02*
G37*
G36*
X799000Y769250D02*
X782000D01*
Y754250D01*
X787441D01*
Y603250D01*
X787441Y603250D01*
X787674Y602080D01*
X788337Y601087D01*
X789904Y599520D01*
X789378Y598250D01*
X781250D01*
Y585750D01*
X790250D01*
Y597378D01*
X791520Y597904D01*
X796337Y593087D01*
X796337Y593087D01*
X797250Y592477D01*
Y585750D01*
X798691D01*
Y577847D01*
X796419Y575575D01*
X773427D01*
X753495Y595507D01*
X752503Y596170D01*
X751332Y596403D01*
X751332Y596403D01*
X154683D01*
X151659Y599427D01*
Y616175D01*
X153139Y616788D01*
X155019Y618231D01*
X156461Y620111D01*
X157368Y622300D01*
X157678Y624650D01*
Y629650D01*
X157368Y632000D01*
X156461Y634189D01*
X155019Y636069D01*
X153139Y637511D01*
X150949Y638418D01*
X148600Y638728D01*
X146250Y638418D01*
X144061Y637511D01*
X142181Y636069D01*
X140739Y634189D01*
X139832Y632000D01*
X139522Y629650D01*
Y624650D01*
X139832Y622300D01*
X140739Y620111D01*
X142181Y618231D01*
X144061Y616788D01*
X145541Y616175D01*
Y598160D01*
X145541Y598160D01*
X145774Y596990D01*
X146437Y595997D01*
X151253Y591181D01*
X151253Y591181D01*
X152245Y590518D01*
X153416Y590285D01*
X750065D01*
X769997Y570353D01*
X770990Y569690D01*
X772160Y569457D01*
X797686D01*
X797686Y569457D01*
X798857Y569690D01*
X799849Y570353D01*
X803913Y574417D01*
X804576Y575410D01*
X804809Y576580D01*
Y585750D01*
X806250D01*
Y598250D01*
X800546D01*
X800250Y598309D01*
X800250Y598309D01*
X799767D01*
X793559Y604517D01*
Y754250D01*
X799000D01*
Y769250D01*
D02*
G37*
G36*
X848250Y523750D02*
X841000D01*
Y520000D01*
X848250D01*
Y523750D01*
D02*
G37*
G36*
X839500D02*
X832250D01*
Y520000D01*
X839500D01*
Y523750D01*
D02*
G37*
G36*
X314171Y575098D02*
X312610Y574787D01*
X311287Y573903D01*
X310403Y572580D01*
X310092Y571019D01*
X310403Y569459D01*
X311287Y568135D01*
X312610Y567252D01*
X314171Y566941D01*
X314681Y567043D01*
X315190Y566941D01*
X315190Y566941D01*
X715233D01*
X751473Y530701D01*
Y527280D01*
X751473Y527280D01*
X751532Y526984D01*
Y520372D01*
X750262Y519846D01*
X708637Y561471D01*
X707645Y562134D01*
X706474Y562367D01*
X706474Y562367D01*
X343974D01*
X343752Y562700D01*
X342429Y563584D01*
X340868Y563894D01*
X339307Y563584D01*
X337984Y562700D01*
X337100Y561377D01*
X336790Y559816D01*
X337100Y558255D01*
X337984Y556932D01*
X339307Y556048D01*
X340868Y555738D01*
X342429Y556048D01*
X342730Y556249D01*
X705207D01*
X750619Y510837D01*
X751532Y510227D01*
Y503500D01*
X760532D01*
Y516000D01*
X754828D01*
X754532Y516059D01*
X754532Y516059D01*
X754049D01*
X751848Y518260D01*
X752374Y519530D01*
X760532D01*
Y532030D01*
X757578D01*
X757358Y533138D01*
X756695Y534131D01*
X718663Y572163D01*
X717671Y572826D01*
X716500Y573059D01*
X716500Y573059D01*
X317619D01*
X317055Y573903D01*
X315731Y574787D01*
X314171Y575098D01*
D02*
G37*
G36*
X776532Y532030D02*
X767532D01*
Y519530D01*
X776532D01*
Y522721D01*
X798983D01*
X803170Y518534D01*
X804163Y517871D01*
X805333Y517638D01*
X806250Y516840D01*
Y515520D01*
X806250Y515250D01*
Y514250D01*
X806250Y514079D01*
X806012Y512809D01*
X776532D01*
Y516000D01*
X767532D01*
Y503500D01*
X776532D01*
Y506691D01*
X805352D01*
X806250Y505793D01*
Y505250D01*
X806250Y503980D01*
Y496576D01*
X805973Y496299D01*
X776532D01*
Y499490D01*
X767532D01*
Y486990D01*
X776532D01*
Y490181D01*
X807240D01*
X807240Y490181D01*
X808410Y490414D01*
X809403Y491077D01*
X811481Y493155D01*
X811481Y493155D01*
X812144Y494147D01*
X812377Y495318D01*
X813499Y495750D01*
X822250D01*
Y503980D01*
X822250Y504750D01*
X822250Y506020D01*
Y513980D01*
X822250Y514250D01*
Y515250D01*
X822250Y515520D01*
Y524250D01*
X806250D01*
X806250Y524250D01*
Y524250D01*
X805342Y525014D01*
X802413Y527943D01*
X801421Y528606D01*
X800250Y528839D01*
X800250Y528839D01*
X776532D01*
Y532030D01*
D02*
G37*
G36*
X848250Y518500D02*
X840250D01*
X832250D01*
Y515520D01*
X832250Y514750D01*
X832250Y513480D01*
Y510500D01*
X840250D01*
X848250D01*
Y513480D01*
X848250Y514250D01*
X848250Y515520D01*
Y518500D01*
D02*
G37*
G36*
Y509000D02*
X840250D01*
X832250D01*
Y506020D01*
X832250Y505250D01*
X832250Y503980D01*
Y501000D01*
X840250D01*
X848250D01*
Y503980D01*
X848250Y504750D01*
X848250Y506020D01*
Y509000D01*
D02*
G37*
G36*
Y499500D02*
X841000D01*
Y495750D01*
X848250D01*
Y499500D01*
D02*
G37*
G36*
X839500D02*
X832250D01*
Y495750D01*
X839500D01*
Y499500D01*
D02*
G37*
G36*
X56902Y544460D02*
X52744Y544133D01*
X48688Y543159D01*
X44834Y541563D01*
X41277Y539383D01*
X38106Y536674D01*
X35397Y533503D01*
X33217Y529946D01*
X31621Y526092D01*
X30647Y522036D01*
X30320Y517878D01*
X30647Y513720D01*
X31621Y509664D01*
X33217Y505810D01*
X35397Y502253D01*
X38106Y499082D01*
X41277Y496373D01*
X44834Y494193D01*
X48688Y492597D01*
X52744Y491623D01*
X56902Y491296D01*
X61060Y491623D01*
X65116Y492597D01*
X68970Y494193D01*
X72526Y496373D01*
X75698Y499082D01*
X78407Y502253D01*
X80587Y505810D01*
X82183Y509664D01*
X83157Y513720D01*
X83484Y517878D01*
X83157Y522036D01*
X82183Y526092D01*
X80587Y529946D01*
X78407Y533503D01*
X75698Y536674D01*
X72526Y539383D01*
X68970Y541563D01*
X65116Y543159D01*
X61060Y544133D01*
X56902Y544460D01*
D02*
G37*
G36*
X670902Y542860D02*
X666744Y542533D01*
X662688Y541559D01*
X658834Y539963D01*
X655277Y537783D01*
X652106Y535074D01*
X649397Y531903D01*
X647217Y528346D01*
X645621Y524492D01*
X644647Y520436D01*
X644320Y516278D01*
X644647Y512120D01*
X645621Y508064D01*
X647217Y504210D01*
X649397Y500653D01*
X652106Y497482D01*
X655277Y494773D01*
X658834Y492593D01*
X662688Y490997D01*
X666744Y490023D01*
X670902Y489696D01*
X675060Y490023D01*
X679116Y490997D01*
X682970Y492593D01*
X686526Y494773D01*
X689698Y497482D01*
X692407Y500653D01*
X694587Y504210D01*
X696183Y508064D01*
X697157Y512120D01*
X697484Y516278D01*
X697157Y520436D01*
X696183Y524492D01*
X694587Y528346D01*
X692407Y531903D01*
X689698Y535074D01*
X686526Y537783D01*
X682970Y539963D01*
X679116Y541559D01*
X675060Y542533D01*
X670902Y542860D01*
D02*
G37*
G36*
X760532Y499490D02*
X751532D01*
Y486990D01*
X751532Y486990D01*
X751532D01*
X751071Y485896D01*
X731483Y466309D01*
X436580D01*
X435409Y466076D01*
X434417Y465413D01*
X434417Y465413D01*
X433523Y464519D01*
X432271Y464270D01*
X430948Y463386D01*
X430064Y462063D01*
X429754Y460502D01*
X430064Y458941D01*
X430948Y457618D01*
X432271Y456734D01*
X433832Y456424D01*
X435393Y456734D01*
X436716Y457618D01*
X437600Y458941D01*
X437849Y460191D01*
X732750D01*
X732750Y460191D01*
X733921Y460424D01*
X734913Y461087D01*
X757492Y483666D01*
X758155Y484659D01*
X758388Y485829D01*
Y486990D01*
X760532D01*
Y499490D01*
D02*
G37*
G36*
X46402Y455860D02*
X36402D01*
X33922Y455533D01*
X31611Y454576D01*
X29627Y453053D01*
X28104Y451069D01*
X27146Y448758D01*
X26820Y446278D01*
X27146Y443798D01*
X28104Y441487D01*
X29627Y439502D01*
X31611Y437980D01*
X33922Y437023D01*
X36402Y436696D01*
X46402D01*
X48882Y437023D01*
X51193Y437980D01*
X53177Y439502D01*
X54700Y441487D01*
X55418Y443219D01*
X149524D01*
X150585Y442510D01*
X152146Y442200D01*
X153707Y442510D01*
X155030Y443394D01*
X155914Y444717D01*
X156224Y446278D01*
X155914Y447839D01*
X155030Y449162D01*
X153707Y450046D01*
X152146Y450356D01*
X150585Y450046D01*
X149524Y449337D01*
X55418D01*
X54700Y451069D01*
X53177Y453053D01*
X51193Y454576D01*
X48882Y455533D01*
X46402Y455860D01*
D02*
G37*
G36*
X864908Y436060D02*
X846408D01*
Y432619D01*
X805908D01*
Y436060D01*
X787408D01*
Y432619D01*
X757740D01*
Y434517D01*
X745240D01*
Y432619D01*
X741144D01*
Y434700D01*
X728644D01*
Y433259D01*
X328618D01*
X327443Y434044D01*
X325882Y434354D01*
X324321Y434044D01*
X322998Y433160D01*
X322114Y431837D01*
X321804Y430276D01*
X322114Y428715D01*
X322998Y427392D01*
X324321Y426508D01*
X325882Y426198D01*
X327443Y426508D01*
X328390Y427141D01*
X728644D01*
Y425700D01*
X741144D01*
Y426501D01*
X745240D01*
Y425517D01*
X757740D01*
Y426501D01*
X787408D01*
Y423060D01*
X805908D01*
Y426501D01*
X846408D01*
Y423060D01*
X864908D01*
Y427121D01*
X865321Y427397D01*
X865984Y428390D01*
X866217Y429560D01*
X865984Y430731D01*
X865321Y431723D01*
X864908Y431999D01*
Y436060D01*
D02*
G37*
G36*
X46402Y430860D02*
X42152D01*
Y422028D01*
X55885D01*
X55658Y423758D01*
X54700Y426069D01*
X53177Y428053D01*
X51193Y429576D01*
X48882Y430533D01*
X46402Y430860D01*
D02*
G37*
G36*
X40652D02*
X36402D01*
X33922Y430533D01*
X31611Y429576D01*
X29627Y428053D01*
X28104Y426069D01*
X27146Y423758D01*
X26919Y422028D01*
X40652D01*
Y430860D01*
D02*
G37*
G36*
X741144Y418700D02*
X735644D01*
Y414950D01*
X741144D01*
Y418700D01*
D02*
G37*
G36*
X734144D02*
X728644D01*
Y414950D01*
X734144D01*
Y418700D01*
D02*
G37*
G36*
X55885Y420528D02*
X42152D01*
Y411696D01*
X46402D01*
X48882Y412023D01*
X51193Y412980D01*
X53177Y414502D01*
X54700Y416487D01*
X55658Y418798D01*
X55885Y420528D01*
D02*
G37*
G36*
X40652D02*
X26919D01*
X27146Y418798D01*
X28104Y416487D01*
X29627Y414502D01*
X31611Y412980D01*
X33922Y412023D01*
X36402Y411696D01*
X40652D01*
Y420528D01*
D02*
G37*
G36*
X734144Y413450D02*
X728644D01*
Y409700D01*
X734144D01*
Y413450D01*
D02*
G37*
G36*
X757740Y418517D02*
X745240D01*
Y412812D01*
X745182Y412517D01*
X745182Y412517D01*
Y412034D01*
X742107Y408959D01*
X741144Y409792D01*
X741144Y410967D01*
Y413450D01*
X735644D01*
Y409700D01*
X739877D01*
X741052Y409700D01*
X741885Y408737D01*
X733209Y400061D01*
X628901D01*
X619967Y408995D01*
X619718Y410247D01*
X618834Y411570D01*
X617511Y412454D01*
X615950Y412764D01*
X614389Y412454D01*
X613066Y411570D01*
X612182Y410247D01*
X611872Y408686D01*
X612182Y407125D01*
X613066Y405802D01*
X614389Y404918D01*
X615641Y404669D01*
X625471Y394839D01*
X625471Y394839D01*
X626464Y394176D01*
X627634Y393943D01*
X734475D01*
X734476Y393943D01*
X735646Y394176D01*
X736638Y394839D01*
X749906Y408107D01*
X750479Y408574D01*
X751612Y408127D01*
X763063Y396676D01*
X763064Y396676D01*
X764387Y395792D01*
X765947Y395482D01*
X765947Y395482D01*
X787408D01*
Y393060D01*
X805908D01*
Y395482D01*
X846408D01*
Y393060D01*
X864908D01*
Y395482D01*
X869005D01*
X880350Y384137D01*
Y328587D01*
X864601Y312839D01*
X846408D01*
Y310417D01*
X805908D01*
Y312839D01*
X787408D01*
Y310417D01*
X784139D01*
X784139Y310417D01*
X782578Y310107D01*
X781255Y309223D01*
X781255Y309223D01*
X761353Y289320D01*
X745401D01*
X739542Y295180D01*
X739734Y296450D01*
X739734D01*
Y305450D01*
X727234D01*
Y296450D01*
X730844D01*
Y294032D01*
X730844Y294032D01*
X731154Y292471D01*
X732038Y291148D01*
X740828Y282358D01*
X740828Y282358D01*
X742151Y281474D01*
X743712Y281164D01*
X759983D01*
Y244830D01*
X759983Y244830D01*
X760216Y243659D01*
X760879Y242667D01*
X788459Y215087D01*
X789452Y214424D01*
X790622Y214191D01*
X790622Y214191D01*
X808649D01*
X808949Y213468D01*
X810151Y211901D01*
X811718Y210699D01*
X813542Y209943D01*
X815500Y209685D01*
X817458Y209943D01*
X819282Y210699D01*
X820849Y211901D01*
X822051Y213468D01*
X822807Y215292D01*
X823065Y217250D01*
X822807Y219208D01*
X822051Y221032D01*
X820849Y222599D01*
X819282Y223801D01*
X817458Y224557D01*
X815500Y224815D01*
X813542Y224557D01*
X811718Y223801D01*
X810151Y222599D01*
X808949Y221032D01*
X808649Y220309D01*
X791889D01*
X766101Y246097D01*
Y282533D01*
X785828Y302261D01*
X787408D01*
Y299839D01*
X805908D01*
Y302261D01*
X846408D01*
Y299839D01*
X864908D01*
Y302467D01*
X865430Y302571D01*
X866753Y303455D01*
X887312Y324014D01*
X887312Y324014D01*
X888196Y325337D01*
X888506Y326898D01*
X888506Y326898D01*
Y385826D01*
X888506Y385826D01*
X888196Y387387D01*
X887312Y388710D01*
X873578Y402444D01*
X872255Y403328D01*
X870694Y403638D01*
X870694Y403638D01*
X864908D01*
Y406060D01*
X846408D01*
Y403638D01*
X805908D01*
Y406060D01*
X787408D01*
Y403638D01*
X767637D01*
X757819Y413456D01*
Y413517D01*
X757819Y413517D01*
X757740Y413911D01*
Y418517D01*
D02*
G37*
G36*
X46402Y405060D02*
X36402D01*
X33922Y404734D01*
X31611Y403776D01*
X29627Y402253D01*
X28104Y400269D01*
X27146Y397958D01*
X26820Y395478D01*
X27146Y392998D01*
X28104Y390687D01*
X29627Y388703D01*
X31611Y387180D01*
X33922Y386222D01*
X36402Y385896D01*
X46402D01*
X48882Y386222D01*
X51193Y387180D01*
X53177Y388703D01*
X54700Y390687D01*
X55418Y392419D01*
X495554D01*
X495554Y392419D01*
X496725Y392652D01*
X497717Y393315D01*
X498149Y393747D01*
X499401Y393996D01*
X500724Y394880D01*
X501608Y396203D01*
X501918Y397764D01*
X501608Y399325D01*
X500724Y400648D01*
X499401Y401532D01*
X497840Y401842D01*
X496279Y401532D01*
X494956Y400648D01*
X494072Y399325D01*
X493915Y398537D01*
X55418D01*
X54700Y400269D01*
X53177Y402253D01*
X51193Y403776D01*
X48882Y404734D01*
X46402Y405060D01*
D02*
G37*
G36*
Y379660D02*
X36402D01*
X33922Y379333D01*
X31611Y378376D01*
X29627Y376853D01*
X28104Y374869D01*
X27146Y372558D01*
X26820Y370078D01*
X27146Y367598D01*
X28104Y365287D01*
X29627Y363303D01*
X31611Y361780D01*
X33922Y360822D01*
X36402Y360496D01*
X46402D01*
X48882Y360822D01*
X51193Y361780D01*
X53177Y363303D01*
X54700Y365287D01*
X55418Y367019D01*
X244602D01*
X244602Y367019D01*
X245772Y367252D01*
X245816Y367281D01*
X245872Y367270D01*
X247433Y367580D01*
X248756Y368464D01*
X249640Y369787D01*
X249950Y371348D01*
X249640Y372909D01*
X248756Y374232D01*
X247433Y375116D01*
X245872Y375426D01*
X244311Y375116D01*
X242988Y374232D01*
X242257Y373137D01*
X55418D01*
X54700Y374869D01*
X53177Y376853D01*
X51193Y378376D01*
X48882Y379333D01*
X46402Y379660D01*
D02*
G37*
G36*
Y354260D02*
X36402D01*
X33922Y353933D01*
X31611Y352976D01*
X29627Y351453D01*
X28104Y349469D01*
X27146Y347158D01*
X26820Y344678D01*
X27146Y342198D01*
X28104Y339887D01*
X29627Y337903D01*
X31611Y336380D01*
X33922Y335423D01*
X36402Y335096D01*
X46402D01*
X48882Y335423D01*
X51193Y336380D01*
X53177Y337903D01*
X54700Y339887D01*
X55418Y341619D01*
X265684D01*
X265684Y341619D01*
X266854Y341852D01*
X267847Y342515D01*
X270311Y344979D01*
X271563Y345228D01*
X272886Y346112D01*
X273770Y347435D01*
X274080Y348996D01*
X273770Y350557D01*
X272886Y351880D01*
X271563Y352764D01*
X270002Y353074D01*
X268441Y352764D01*
X267118Y351880D01*
X266234Y350557D01*
X265985Y349305D01*
X264417Y347737D01*
X55418D01*
X54700Y349469D01*
X53177Y351453D01*
X51193Y352976D01*
X48882Y353933D01*
X46402Y354260D01*
D02*
G37*
G36*
X297942Y348248D02*
X296381Y347938D01*
X295058Y347054D01*
X294174Y345731D01*
X293864Y344170D01*
X294174Y342609D01*
X295058Y341286D01*
X296381Y340402D01*
X297633Y340153D01*
X305939Y331847D01*
X305939Y331847D01*
X306931Y331184D01*
X308102Y330951D01*
X715157D01*
X727175Y318933D01*
Y318450D01*
X727175Y318450D01*
X727234Y318155D01*
Y312450D01*
X739734D01*
Y314391D01*
X744984D01*
Y312950D01*
X757484D01*
Y318655D01*
X757543Y318950D01*
Y319433D01*
X771390Y333280D01*
X787408D01*
Y329839D01*
X805908D01*
Y333280D01*
X846408D01*
Y329839D01*
X864908D01*
Y333900D01*
X865321Y334176D01*
X865984Y335169D01*
X866217Y336339D01*
X865984Y337510D01*
X865321Y338502D01*
X864908Y338778D01*
Y342839D01*
X846408D01*
Y339398D01*
X805908D01*
Y342839D01*
X787408D01*
Y339398D01*
X770123D01*
X770123Y339398D01*
X768952Y339165D01*
X767960Y338502D01*
X752321Y322863D01*
X751711Y321950D01*
X744984D01*
Y320509D01*
X739734D01*
Y321450D01*
X733007D01*
X732397Y322363D01*
X732397Y322363D01*
X718587Y336173D01*
X717595Y336836D01*
X716424Y337069D01*
X716424Y337069D01*
X309369D01*
X301959Y344479D01*
X301710Y345731D01*
X300826Y347054D01*
X299503Y347938D01*
X297942Y348248D01*
D02*
G37*
G36*
X46402Y328860D02*
X36402D01*
X33922Y328534D01*
X31611Y327576D01*
X29627Y326053D01*
X28104Y324069D01*
X27146Y321758D01*
X26820Y319278D01*
X27146Y316798D01*
X28104Y314487D01*
X29627Y312502D01*
X31611Y310980D01*
X33922Y310023D01*
X36402Y309696D01*
X46402D01*
X48882Y310023D01*
X51193Y310980D01*
X53177Y312502D01*
X54700Y314487D01*
X55418Y316219D01*
X506984D01*
X506984Y316219D01*
X508154Y316452D01*
X509147Y317115D01*
X510341Y318309D01*
X511593Y318558D01*
X512916Y319442D01*
X513800Y320765D01*
X514110Y322326D01*
X513800Y323887D01*
X512916Y325210D01*
X511593Y326094D01*
X510032Y326404D01*
X508471Y326094D01*
X507148Y325210D01*
X506264Y323887D01*
X506015Y322635D01*
X505717Y322337D01*
X55418D01*
X54700Y324069D01*
X53177Y326053D01*
X51193Y327576D01*
X48882Y328534D01*
X46402Y328860D01*
D02*
G37*
G36*
X521970Y321578D02*
X520409Y321268D01*
X519086Y320384D01*
X518202Y319061D01*
X517892Y317500D01*
X517942Y317248D01*
X512617Y311923D01*
X77724D01*
X77724Y311923D01*
X76554Y311690D01*
X75561Y311027D01*
X61871Y297337D01*
X55418D01*
X54700Y299069D01*
X53177Y301053D01*
X51193Y302576D01*
X48882Y303533D01*
X46402Y303860D01*
X36402D01*
X33922Y303533D01*
X31611Y302576D01*
X29627Y301053D01*
X28104Y299069D01*
X27146Y296758D01*
X26820Y294278D01*
X27146Y291798D01*
X28104Y289487D01*
X29627Y287502D01*
X31611Y285980D01*
X33922Y285023D01*
X36402Y284696D01*
X46402D01*
X48882Y285023D01*
X51193Y285980D01*
X53177Y287502D01*
X54700Y289487D01*
X55418Y291219D01*
X63138D01*
X63138Y291219D01*
X64309Y291452D01*
X65301Y292115D01*
X78991Y305805D01*
X513884D01*
X513884Y305805D01*
X515055Y306038D01*
X516047Y306701D01*
X522965Y313620D01*
X523531Y313732D01*
X524854Y314616D01*
X525738Y315939D01*
X526048Y317500D01*
X525738Y319061D01*
X524854Y320384D01*
X523531Y321268D01*
X521970Y321578D01*
D02*
G37*
G36*
X757484Y305950D02*
X751984D01*
Y302200D01*
X757484D01*
Y305950D01*
D02*
G37*
G36*
X750484D02*
X744984D01*
Y302200D01*
X750484D01*
Y305950D01*
D02*
G37*
G36*
X757484Y300700D02*
X751984D01*
Y296950D01*
X757484D01*
Y300700D01*
D02*
G37*
G36*
X750484D02*
X744984D01*
Y296950D01*
X750484D01*
Y300700D01*
D02*
G37*
G36*
X219710Y292876D02*
X218149Y292566D01*
X216826Y291682D01*
X215942Y290359D01*
X215810Y289695D01*
X215686Y289571D01*
X179224D01*
Y292408D01*
X166724D01*
Y289059D01*
X157796D01*
Y290000D01*
X144796D01*
Y282000D01*
X157796D01*
Y282941D01*
X168570D01*
X168570Y282941D01*
X169741Y283174D01*
X170091Y283408D01*
X179224D01*
Y283453D01*
X216952D01*
X216953Y283453D01*
X218123Y283686D01*
X219116Y284349D01*
X219523Y284757D01*
X219710Y284720D01*
X221271Y285030D01*
X222594Y285914D01*
X223478Y287237D01*
X223788Y288798D01*
X223478Y290359D01*
X222594Y291682D01*
X221271Y292566D01*
X219710Y292876D01*
D02*
G37*
G36*
X130796Y290000D02*
X117796D01*
Y282000D01*
X130796D01*
Y290000D01*
D02*
G37*
G36*
X157796Y280500D02*
X152046D01*
Y277250D01*
X157796D01*
Y280500D01*
D02*
G37*
G36*
X150546D02*
X144796D01*
Y277250D01*
X150546D01*
Y280500D01*
D02*
G37*
G36*
X179224Y276408D02*
X173724D01*
Y272658D01*
X179224D01*
Y276408D01*
D02*
G37*
G36*
X172224D02*
X166724D01*
Y272658D01*
X172224D01*
Y276408D01*
D02*
G37*
G36*
X157796Y275750D02*
X152046D01*
Y272500D01*
X157796D01*
Y275750D01*
D02*
G37*
G36*
X150546D02*
X144796D01*
Y272500D01*
X150546D01*
Y275750D01*
D02*
G37*
G36*
X130796Y280500D02*
X117796D01*
Y272500D01*
X130796D01*
Y280500D01*
D02*
G37*
G36*
X179224Y271158D02*
X173724D01*
Y267408D01*
X179224D01*
Y271158D01*
D02*
G37*
G36*
X172224D02*
X166724D01*
Y267408D01*
X172224D01*
Y271158D01*
D02*
G37*
G36*
X46402Y278060D02*
X36402D01*
X33922Y277733D01*
X31611Y276776D01*
X29627Y275254D01*
X28104Y273269D01*
X27146Y270958D01*
X26820Y268478D01*
X27146Y265998D01*
X28104Y263687D01*
X29627Y261702D01*
X31611Y260180D01*
X33922Y259223D01*
X36402Y258896D01*
X46402D01*
X48882Y259223D01*
X51193Y260180D01*
X53177Y261702D01*
X54700Y263687D01*
X54805Y263941D01*
X117796D01*
Y263000D01*
X130796D01*
Y271000D01*
X117796D01*
Y270059D01*
X55776D01*
X55658Y270958D01*
X54700Y273269D01*
X53177Y275254D01*
X51193Y276776D01*
X48882Y277733D01*
X46402Y278060D01*
D02*
G37*
G36*
X825500Y256849D02*
X822498Y256454D01*
X819700Y255295D01*
X817298Y253452D01*
X815455Y251050D01*
X814296Y248252D01*
X813901Y245250D01*
X814296Y242248D01*
X815455Y239450D01*
X817298Y237048D01*
X819700Y235205D01*
X822498Y234046D01*
X825500Y233651D01*
X828502Y234046D01*
X831300Y235205D01*
X833702Y237048D01*
X835545Y239450D01*
X836704Y242248D01*
X837099Y245250D01*
X836704Y248252D01*
X835545Y251050D01*
X833702Y253452D01*
X831300Y255295D01*
X828502Y256454D01*
X825500Y256849D01*
D02*
G37*
G36*
X46402Y252660D02*
X36402D01*
X33922Y252334D01*
X31611Y251376D01*
X29627Y249853D01*
X28104Y247869D01*
X27146Y245558D01*
X26820Y243078D01*
X27146Y240598D01*
X28104Y238287D01*
X29627Y236303D01*
X31611Y234780D01*
X33922Y233822D01*
X36402Y233496D01*
X46402D01*
X48882Y233822D01*
X51193Y234780D01*
X53177Y236303D01*
X54700Y238287D01*
X55658Y240598D01*
X55984Y243078D01*
X55658Y245558D01*
X54700Y247869D01*
X53177Y249853D01*
X51193Y251376D01*
X48882Y252334D01*
X46402Y252660D01*
D02*
G37*
G36*
X835500Y224815D02*
X833542Y224557D01*
X831718Y223801D01*
X830151Y222599D01*
X828949Y221032D01*
X828193Y219208D01*
X827935Y217250D01*
X828193Y215292D01*
X828949Y213468D01*
X830151Y211901D01*
X831718Y210699D01*
X833542Y209943D01*
X835500Y209685D01*
X837458Y209943D01*
X839282Y210699D01*
X840849Y211901D01*
X842051Y213468D01*
X842807Y215292D01*
X843065Y217250D01*
X842807Y219208D01*
X842051Y221032D01*
X840849Y222599D01*
X839282Y223801D01*
X837458Y224557D01*
X835500Y224815D01*
D02*
G37*
G36*
X274574Y212866D02*
X273013Y212556D01*
X271690Y211672D01*
X270806Y210349D01*
X270496Y208788D01*
X270806Y207227D01*
X271690Y205904D01*
X273013Y205020D01*
X274574Y204710D01*
X276135Y205020D01*
X276436Y205221D01*
X476676D01*
X477737Y204512D01*
X479298Y204202D01*
X480859Y204512D01*
X482182Y205396D01*
X483066Y206719D01*
X483376Y208280D01*
X483066Y209841D01*
X482182Y211164D01*
X480859Y212048D01*
X479298Y212358D01*
X477737Y212048D01*
X476676Y211339D01*
X277680D01*
X277458Y211672D01*
X276135Y212556D01*
X274574Y212866D01*
D02*
G37*
G36*
X835500Y204815D02*
X833542Y204557D01*
X831718Y203801D01*
X830151Y202599D01*
X828949Y201032D01*
X828193Y199208D01*
X827935Y197250D01*
X828193Y195292D01*
X828949Y193468D01*
X830151Y191901D01*
X831718Y190699D01*
X833542Y189943D01*
X835500Y189685D01*
X837458Y189943D01*
X839282Y190699D01*
X840849Y191901D01*
X842051Y193468D01*
X842807Y195292D01*
X843065Y197250D01*
X842807Y199208D01*
X842051Y201032D01*
X840849Y202599D01*
X839282Y203801D01*
X837458Y204557D01*
X835500Y204815D01*
D02*
G37*
G36*
X351282Y232932D02*
X349721Y232622D01*
X348398Y231738D01*
X347514Y230415D01*
X347204Y228854D01*
X347514Y227293D01*
X348398Y225970D01*
X349721Y225086D01*
X351282Y224776D01*
X352843Y225086D01*
X353904Y225795D01*
X705629D01*
X732191Y199233D01*
Y198750D01*
X732191Y198750D01*
X732250Y198454D01*
Y192750D01*
X744750D01*
Y194191D01*
X749000D01*
Y193278D01*
X761500D01*
Y194191D01*
X808649D01*
X808949Y193468D01*
X810151Y191901D01*
X811718Y190699D01*
X813542Y189943D01*
X815500Y189685D01*
X817458Y189943D01*
X819282Y190699D01*
X820849Y191901D01*
X822051Y193468D01*
X822807Y195292D01*
X823065Y197250D01*
X822807Y199208D01*
X822051Y201032D01*
X820849Y202599D01*
X819282Y203801D01*
X817458Y204557D01*
X815500Y204815D01*
X813542Y204557D01*
X811718Y203801D01*
X810151Y202599D01*
X808949Y201032D01*
X808649Y200309D01*
X761500D01*
Y202278D01*
X749000D01*
Y200309D01*
X744750D01*
Y201750D01*
X738023D01*
X737413Y202663D01*
X737413Y202663D01*
X709059Y231017D01*
X708066Y231680D01*
X706896Y231913D01*
X706896Y231913D01*
X353904D01*
X352843Y232622D01*
X351282Y232932D01*
D02*
G37*
G36*
X761500Y186278D02*
X756000D01*
Y182528D01*
X761500D01*
Y186278D01*
D02*
G37*
G36*
X754500D02*
X749000D01*
Y182528D01*
X754500D01*
Y186278D01*
D02*
G37*
G36*
X744750Y185750D02*
X739250D01*
Y182000D01*
X744750D01*
Y185750D01*
D02*
G37*
G36*
X737750D02*
X732250D01*
Y182000D01*
X737750D01*
Y185750D01*
D02*
G37*
G36*
X816250Y184716D02*
Y178000D01*
X822966D01*
X822807Y179208D01*
X822051Y181032D01*
X820849Y182599D01*
X819282Y183801D01*
X817458Y184557D01*
X816250Y184716D01*
D02*
G37*
G36*
X814750Y184716D02*
X813542Y184557D01*
X811718Y183801D01*
X810151Y182599D01*
X808949Y181032D01*
X808193Y179208D01*
X808034Y178000D01*
X814750D01*
Y184716D01*
D02*
G37*
G36*
X761500Y181028D02*
X756000D01*
Y177278D01*
X761500D01*
Y181028D01*
D02*
G37*
G36*
X754500D02*
X749000D01*
Y177278D01*
X754500D01*
Y181028D01*
D02*
G37*
G36*
X744750Y180500D02*
X739250D01*
Y176750D01*
X744750D01*
Y180500D01*
D02*
G37*
G36*
X737750D02*
X732250D01*
Y176750D01*
X737750D01*
Y180500D01*
D02*
G37*
G36*
X157796Y271000D02*
X144796D01*
Y263000D01*
X147817D01*
Y241703D01*
X147108Y240642D01*
X146798Y239081D01*
X147108Y237520D01*
X147817Y236459D01*
Y211582D01*
X147817Y211582D01*
X148050Y210411D01*
X148713Y209419D01*
X173105Y185027D01*
X174097Y184364D01*
X175268Y184131D01*
X175268Y184131D01*
X286694D01*
X287756Y183422D01*
X289008Y183173D01*
X289941Y182239D01*
Y180065D01*
X289941Y180065D01*
X288908Y179500D01*
X286750D01*
Y170500D01*
X299250D01*
Y175249D01*
X305226D01*
X305250Y175225D01*
Y170250D01*
X317750D01*
Y179250D01*
X309876D01*
X308655Y180471D01*
X307663Y181134D01*
X306493Y181367D01*
X306493Y181367D01*
X296059D01*
Y183507D01*
X295826Y184677D01*
X295163Y185669D01*
X293333Y187499D01*
X293084Y188751D01*
X292200Y190074D01*
X290877Y190958D01*
X289316Y191269D01*
X287756Y190958D01*
X286694Y190249D01*
X176535D01*
X153935Y212849D01*
Y236459D01*
X154644Y237520D01*
X154954Y239081D01*
X154644Y240642D01*
X153935Y241703D01*
Y263000D01*
X157796D01*
Y271000D01*
D02*
G37*
G36*
X814750Y176500D02*
X808034D01*
X808193Y175292D01*
X808949Y173468D01*
X810151Y171901D01*
X811718Y170699D01*
X813542Y169943D01*
X814750Y169784D01*
Y176500D01*
D02*
G37*
G36*
X822966D02*
X816250D01*
Y169784D01*
X817458Y169943D01*
X819282Y170699D01*
X820849Y171901D01*
X822051Y173468D01*
X822807Y175292D01*
X822966Y176500D01*
D02*
G37*
G36*
X835500Y184815D02*
X833542Y184557D01*
X831718Y183801D01*
X830151Y182599D01*
X828949Y181032D01*
X828193Y179208D01*
X827935Y177250D01*
X828193Y175292D01*
X828949Y173468D01*
X830151Y171901D01*
X831718Y170699D01*
X833542Y169943D01*
X835500Y169685D01*
X837458Y169943D01*
X839282Y170699D01*
X840849Y171901D01*
X842051Y173468D01*
X842807Y175292D01*
X843065Y177250D01*
X842807Y179208D01*
X842051Y181032D01*
X840849Y182599D01*
X839282Y183801D01*
X837458Y184557D01*
X835500Y184815D01*
D02*
G37*
G36*
X317750Y163250D02*
X305250D01*
Y154250D01*
X312705D01*
X313000Y154191D01*
X316387D01*
X316507Y154167D01*
X383712D01*
X384773Y153458D01*
X386334Y153148D01*
X387895Y153458D01*
X389218Y154342D01*
X390102Y155665D01*
X390412Y157226D01*
X390102Y158787D01*
X389218Y160110D01*
X387895Y160994D01*
X386334Y161304D01*
X384773Y160994D01*
X383712Y160285D01*
X317750D01*
Y163250D01*
D02*
G37*
G36*
X671402Y199860D02*
X667244Y199533D01*
X663188Y198559D01*
X659334Y196963D01*
X655778Y194783D01*
X652606Y192074D01*
X649897Y188902D01*
X647717Y185346D01*
X646121Y181492D01*
X645147Y177436D01*
X644820Y173278D01*
X645147Y169120D01*
X646121Y165064D01*
X647717Y161210D01*
X649897Y157654D01*
X652606Y154482D01*
X655778Y151773D01*
X659334Y149593D01*
X663188Y147997D01*
X667244Y147023D01*
X671402Y146696D01*
X675560Y147023D01*
X679616Y147997D01*
X683470Y149593D01*
X687027Y151773D01*
X690198Y154482D01*
X692907Y157654D01*
X695087Y161210D01*
X696683Y165064D01*
X697657Y169120D01*
X697984Y173278D01*
X697657Y177436D01*
X696683Y181492D01*
X695087Y185346D01*
X692907Y188902D01*
X690198Y192074D01*
X687027Y194783D01*
X683470Y196963D01*
X679616Y198559D01*
X675560Y199533D01*
X671402Y199860D01*
D02*
G37*
G36*
X56902Y199760D02*
X52744Y199433D01*
X48688Y198459D01*
X44834Y196863D01*
X41277Y194683D01*
X38106Y191974D01*
X35397Y188803D01*
X33217Y185246D01*
X31621Y181392D01*
X30647Y177336D01*
X30320Y173178D01*
X30647Y169020D01*
X31621Y164964D01*
X33217Y161110D01*
X35397Y157554D01*
X38106Y154382D01*
X41277Y151673D01*
X44834Y149493D01*
X48688Y147897D01*
X52744Y146923D01*
X56902Y146596D01*
X61060Y146923D01*
X65116Y147897D01*
X68970Y149493D01*
X72526Y151673D01*
X75698Y154382D01*
X78407Y157554D01*
X80587Y161110D01*
X82183Y164964D01*
X83157Y169020D01*
X83484Y173178D01*
X83157Y177336D01*
X82183Y181392D01*
X80587Y185246D01*
X78407Y188803D01*
X75698Y191974D01*
X72526Y194683D01*
X68970Y196863D01*
X65116Y198459D01*
X61060Y199433D01*
X56902Y199760D01*
D02*
G37*
G36*
X299250Y163500D02*
X286750D01*
Y157796D01*
X286691Y157500D01*
X286691Y157500D01*
Y156651D01*
X276805Y146765D01*
X275553Y146516D01*
X274230Y145632D01*
X273346Y144309D01*
X273036Y142748D01*
X273346Y141187D01*
X274230Y139864D01*
X275553Y138980D01*
X277114Y138670D01*
X278675Y138980D01*
X279998Y139864D01*
X280882Y141187D01*
X281131Y142439D01*
X291913Y153221D01*
X292576Y154213D01*
X292633Y154500D01*
X299250D01*
Y163500D01*
D02*
G37*
G36*
X825500Y160849D02*
X822498Y160454D01*
X819700Y159295D01*
X817298Y157452D01*
X815455Y155050D01*
X814296Y152252D01*
X813901Y149250D01*
X814296Y146248D01*
X815455Y143450D01*
X817298Y141048D01*
X819700Y139205D01*
X822498Y138046D01*
X825500Y137651D01*
X828502Y138046D01*
X831300Y139205D01*
X833702Y141048D01*
X835545Y143450D01*
X836704Y146248D01*
X837099Y149250D01*
X836704Y152252D01*
X835545Y155050D01*
X833702Y157452D01*
X831300Y159295D01*
X828502Y160454D01*
X825500Y160849D01*
D02*
G37*
G36*
X176022Y124728D02*
X174461Y124418D01*
X173138Y123534D01*
X172254Y122211D01*
X171944Y120650D01*
X172254Y119089D01*
X173138Y117766D01*
X174461Y116882D01*
X176022Y116572D01*
X177583Y116882D01*
X178644Y117591D01*
X624623D01*
X624628Y117565D01*
X625512Y116242D01*
X626835Y115358D01*
X628396Y115048D01*
X629957Y115358D01*
X631280Y116242D01*
X632164Y117565D01*
X632474Y119126D01*
X632164Y120687D01*
X631280Y122010D01*
X629957Y122894D01*
X628471Y123189D01*
X628042Y123476D01*
X626872Y123709D01*
X626872Y123709D01*
X178644D01*
X177583Y124418D01*
X176022Y124728D01*
D02*
G37*
G36*
X652526Y66051D02*
X652526Y66051D01*
X484378D01*
X484378Y66051D01*
X483208Y65818D01*
X482215Y65155D01*
X482215Y65155D01*
X470787Y53727D01*
X470124Y52734D01*
X469891Y51564D01*
X469891Y51564D01*
Y45516D01*
X468159Y44798D01*
X466175Y43275D01*
X464652Y41291D01*
X463694Y38980D01*
X463368Y36500D01*
Y35309D01*
X422832D01*
Y37250D01*
X422505Y39730D01*
X421548Y42041D01*
X420025Y44026D01*
X418041Y45548D01*
X415730Y46505D01*
X415622Y46520D01*
X414836Y47455D01*
X414603Y48625D01*
X413940Y49618D01*
X413940Y49618D01*
X398911Y64647D01*
X397919Y65310D01*
X396748Y65543D01*
X396748Y65543D01*
X314750D01*
X313580Y65310D01*
X312587Y64647D01*
X312587Y64647D01*
X298614Y50674D01*
X297951Y49682D01*
X297718Y48511D01*
X297718Y48511D01*
Y46516D01*
X295986Y45798D01*
X294002Y44275D01*
X292479Y42291D01*
X291522Y39980D01*
X291195Y37500D01*
Y27500D01*
X291522Y25020D01*
X292479Y22709D01*
X294002Y20724D01*
X295986Y19202D01*
X298297Y18245D01*
X300777Y17918D01*
X303257Y18245D01*
X305568Y19202D01*
X307553Y20724D01*
X309075Y22709D01*
X310033Y25020D01*
X310359Y27500D01*
Y37500D01*
X310033Y39980D01*
X309075Y42291D01*
X307553Y44275D01*
X305568Y45798D01*
X304490Y46245D01*
X304281Y47689D01*
X316017Y59425D01*
X395481D01*
X408123Y46784D01*
X408190Y46538D01*
X408016Y45209D01*
X406474Y44026D01*
X404952Y42041D01*
X403994Y39730D01*
X403668Y37250D01*
Y27250D01*
X403994Y24770D01*
X404952Y22459D01*
X406474Y20475D01*
X408459Y18952D01*
X410770Y17995D01*
X413250Y17668D01*
X415730Y17995D01*
X418041Y18952D01*
X420025Y20475D01*
X421548Y22459D01*
X422505Y24770D01*
X422832Y27250D01*
Y29191D01*
X463368D01*
Y26500D01*
X463694Y24020D01*
X464652Y21709D01*
X466175Y19725D01*
X468159Y18202D01*
X470470Y17244D01*
X472950Y16918D01*
X475430Y17244D01*
X477741Y18202D01*
X479725Y19725D01*
X481248Y21709D01*
X482205Y24020D01*
X482532Y26500D01*
Y36500D01*
X482205Y38980D01*
X481248Y41291D01*
X479725Y43275D01*
X477741Y44798D01*
X476009Y45516D01*
Y50297D01*
X485645Y59933D01*
X651259D01*
X656833Y54359D01*
Y45348D01*
X656109Y45048D01*
X654125Y43526D01*
X652602Y41541D01*
X651645Y39230D01*
X651318Y36750D01*
Y26750D01*
X651645Y24270D01*
X652602Y21959D01*
X654125Y19974D01*
X656109Y18452D01*
X658420Y17494D01*
X660900Y17168D01*
X663380Y17494D01*
X665691Y18452D01*
X667675Y19974D01*
X669198Y21959D01*
X670155Y24270D01*
X670482Y26750D01*
Y36750D01*
X670155Y39230D01*
X669198Y41541D01*
X667675Y43526D01*
X665691Y45048D01*
X663380Y46006D01*
X662951Y46062D01*
Y55626D01*
X662951Y55626D01*
X662718Y56796D01*
X662055Y57789D01*
X654689Y65155D01*
X653697Y65818D01*
X652526Y66051D01*
D02*
G37*
G36*
X251127Y46983D02*
Y33250D01*
X259959D01*
Y37500D01*
X259633Y39980D01*
X258675Y42291D01*
X257153Y44275D01*
X255168Y45798D01*
X252857Y46755D01*
X251127Y46983D01*
D02*
G37*
G36*
X249627D02*
X247897Y46755D01*
X245586Y45798D01*
X243602Y44275D01*
X242079Y42291D01*
X241122Y39980D01*
X240795Y37500D01*
Y33250D01*
X249627D01*
Y46983D01*
D02*
G37*
G36*
X363600Y46733D02*
Y33000D01*
X372432D01*
Y37250D01*
X372105Y39730D01*
X371148Y42041D01*
X369625Y44026D01*
X367641Y45548D01*
X365330Y46505D01*
X363600Y46733D01*
D02*
G37*
G36*
X362100D02*
X360370Y46505D01*
X358059Y45548D01*
X356074Y44026D01*
X354552Y42041D01*
X353595Y39730D01*
X353268Y37250D01*
Y33000D01*
X362100D01*
Y46733D01*
D02*
G37*
G36*
X845400D02*
Y33000D01*
X854232D01*
Y37250D01*
X853905Y39730D01*
X852948Y42041D01*
X851425Y44026D01*
X849441Y45548D01*
X847130Y46505D01*
X845400Y46733D01*
D02*
G37*
G36*
X843900Y46733D02*
X842170Y46505D01*
X839859Y45548D01*
X837875Y44026D01*
X836352Y42041D01*
X835395Y39730D01*
X835068Y37250D01*
Y33000D01*
X843900D01*
Y46733D01*
D02*
G37*
G36*
X91902Y46483D02*
Y32750D01*
X100734D01*
Y37000D01*
X100407Y39480D01*
X99450Y41791D01*
X97928Y43776D01*
X95943Y45298D01*
X93632Y46255D01*
X91902Y46483D01*
D02*
G37*
G36*
X90402D02*
X88672Y46255D01*
X86361Y45298D01*
X84377Y43776D01*
X82854Y41791D01*
X81897Y39480D01*
X81570Y37000D01*
Y32750D01*
X90402D01*
Y46483D01*
D02*
G37*
G36*
X611250Y46233D02*
Y32500D01*
X620082D01*
Y36750D01*
X619755Y39230D01*
X618798Y41541D01*
X617275Y43526D01*
X615291Y45048D01*
X612980Y46006D01*
X611250Y46233D01*
D02*
G37*
G36*
X609750D02*
X608020Y46006D01*
X605709Y45048D01*
X603725Y43526D01*
X602202Y41541D01*
X601245Y39230D01*
X600918Y36750D01*
Y32500D01*
X609750D01*
Y46233D01*
D02*
G37*
G36*
X549500Y45983D02*
Y32250D01*
X558332D01*
Y36500D01*
X558005Y38980D01*
X557048Y41291D01*
X555525Y43275D01*
X553541Y44798D01*
X551230Y45756D01*
X549500Y45983D01*
D02*
G37*
G36*
X548000D02*
X546270Y45756D01*
X543959Y44798D01*
X541974Y43275D01*
X540452Y41291D01*
X539495Y38980D01*
X539168Y36500D01*
Y32250D01*
X548000D01*
Y45983D01*
D02*
G37*
G36*
X187500Y94581D02*
X182557Y94192D01*
X177736Y93035D01*
X173155Y91138D01*
X168927Y88547D01*
X165157Y85327D01*
X161937Y81557D01*
X159347Y77329D01*
X157449Y72748D01*
X156292Y67927D01*
X155903Y62984D01*
X156292Y58041D01*
X157449Y53220D01*
X159347Y48639D01*
X161937Y44412D01*
X165157Y40641D01*
X168927Y37421D01*
X173155Y34831D01*
X177736Y32933D01*
X182557Y31776D01*
X187500Y31387D01*
X192443Y31776D01*
X197264Y32933D01*
X201845Y34831D01*
X206073Y37421D01*
X209843Y40641D01*
X213063Y44412D01*
X215653Y48639D01*
X217551Y53220D01*
X218708Y58041D01*
X219097Y62984D01*
X218708Y67927D01*
X217551Y72748D01*
X215653Y77329D01*
X213063Y81557D01*
X209843Y85327D01*
X206073Y88547D01*
X201845Y91138D01*
X197264Y93035D01*
X192443Y94192D01*
X187500Y94581D01*
D02*
G37*
G36*
X729250Y92331D02*
X724307Y91942D01*
X719486Y90785D01*
X714905Y88888D01*
X710677Y86297D01*
X706907Y83077D01*
X703687Y79307D01*
X701096Y75079D01*
X699199Y70498D01*
X698042Y65677D01*
X697653Y60734D01*
X698042Y55791D01*
X699199Y50970D01*
X701096Y46389D01*
X703687Y42161D01*
X706907Y38391D01*
X710677Y35171D01*
X714905Y32580D01*
X719486Y30683D01*
X724307Y29526D01*
X729250Y29137D01*
X734193Y29526D01*
X739014Y30683D01*
X743595Y32580D01*
X747822Y35171D01*
X751593Y38391D01*
X754813Y42161D01*
X757403Y46389D01*
X759301Y50970D01*
X760458Y55791D01*
X760847Y60734D01*
X760458Y65677D01*
X759301Y70498D01*
X757403Y75079D01*
X754813Y79307D01*
X751593Y83077D01*
X747822Y86297D01*
X743595Y88888D01*
X739014Y90785D01*
X734193Y91942D01*
X729250Y92331D01*
D02*
G37*
G36*
X259959Y31750D02*
X251127D01*
Y18017D01*
X252857Y18245D01*
X255168Y19202D01*
X257153Y20724D01*
X258675Y22709D01*
X259633Y25020D01*
X259959Y27500D01*
Y31750D01*
D02*
G37*
G36*
X249627D02*
X240795D01*
Y27500D01*
X241122Y25020D01*
X242079Y22709D01*
X243602Y20724D01*
X245586Y19202D01*
X247897Y18245D01*
X249627Y18017D01*
Y31750D01*
D02*
G37*
G36*
X275777Y47082D02*
X273297Y46755D01*
X270986Y45798D01*
X269002Y44275D01*
X267479Y42291D01*
X266522Y39980D01*
X266195Y37500D01*
Y27500D01*
X266522Y25020D01*
X267479Y22709D01*
X269002Y20724D01*
X270986Y19202D01*
X273297Y18245D01*
X275777Y17918D01*
X278257Y18245D01*
X280568Y19202D01*
X282553Y20724D01*
X284075Y22709D01*
X285033Y25020D01*
X285359Y27500D01*
Y37500D01*
X285033Y39980D01*
X284075Y42291D01*
X282553Y44275D01*
X280568Y45798D01*
X278257Y46755D01*
X275777Y47082D01*
D02*
G37*
G36*
X843900Y31500D02*
X835068D01*
Y27250D01*
X835395Y24770D01*
X836352Y22459D01*
X837875Y20475D01*
X839859Y18952D01*
X842170Y17995D01*
X843900Y17767D01*
Y31500D01*
D02*
G37*
G36*
X362100Y31500D02*
X353268D01*
Y27250D01*
X353595Y24770D01*
X354552Y22459D01*
X356074Y20475D01*
X358059Y18952D01*
X360370Y17995D01*
X362100Y17767D01*
Y31500D01*
D02*
G37*
G36*
X372432D02*
X363600D01*
Y17767D01*
X365330Y17995D01*
X367641Y18952D01*
X369625Y20475D01*
X371148Y22459D01*
X372105Y24770D01*
X372432Y27250D01*
Y31500D01*
D02*
G37*
G36*
X854232Y31500D02*
X845400D01*
Y17767D01*
X847130Y17995D01*
X849441Y18952D01*
X851425Y20475D01*
X852948Y22459D01*
X853905Y24770D01*
X854232Y27250D01*
Y31500D01*
D02*
G37*
G36*
X388250Y46832D02*
X385770Y46505D01*
X383459Y45548D01*
X381474Y44026D01*
X379952Y42041D01*
X378994Y39730D01*
X378668Y37250D01*
Y27250D01*
X378994Y24770D01*
X379952Y22459D01*
X381474Y20475D01*
X383459Y18952D01*
X385770Y17995D01*
X388250Y17668D01*
X390730Y17995D01*
X393041Y18952D01*
X395025Y20475D01*
X396548Y22459D01*
X397505Y24770D01*
X397832Y27250D01*
Y37250D01*
X397505Y39730D01*
X396548Y42041D01*
X395025Y44026D01*
X393041Y45548D01*
X390730Y46505D01*
X388250Y46832D01*
D02*
G37*
G36*
X100734Y31250D02*
X91902D01*
Y17517D01*
X93632Y17744D01*
X95943Y18702D01*
X97928Y20224D01*
X99450Y22209D01*
X100407Y24520D01*
X100734Y27000D01*
Y31250D01*
D02*
G37*
G36*
X90402D02*
X81570D01*
Y27000D01*
X81897Y24520D01*
X82854Y22209D01*
X84377Y20224D01*
X86361Y18702D01*
X88672Y17744D01*
X90402Y17517D01*
Y31250D01*
D02*
G37*
G36*
X65752Y46582D02*
X63272Y46255D01*
X60961Y45298D01*
X58977Y43776D01*
X57454Y41791D01*
X56497Y39480D01*
X56170Y37000D01*
Y27000D01*
X56497Y24520D01*
X57454Y22209D01*
X58977Y20224D01*
X60961Y18702D01*
X63272Y17744D01*
X65752Y17418D01*
X68232Y17744D01*
X70543Y18702D01*
X72527Y20224D01*
X74050Y22209D01*
X75008Y24520D01*
X75334Y27000D01*
Y37000D01*
X75008Y39480D01*
X74050Y41791D01*
X72527Y43776D01*
X70543Y45298D01*
X68232Y46255D01*
X65752Y46582D01*
D02*
G37*
G36*
X40352D02*
X37872Y46255D01*
X35561Y45298D01*
X33577Y43776D01*
X32054Y41791D01*
X31097Y39480D01*
X30770Y37000D01*
Y27000D01*
X31097Y24520D01*
X32054Y22209D01*
X33577Y20224D01*
X35561Y18702D01*
X37872Y17744D01*
X40352Y17418D01*
X42832Y17744D01*
X45143Y18702D01*
X47127Y20224D01*
X48650Y22209D01*
X49608Y24520D01*
X49934Y27000D01*
Y37000D01*
X49608Y39480D01*
X48650Y41791D01*
X47127Y43776D01*
X45143Y45298D01*
X42832Y46255D01*
X40352Y46582D01*
D02*
G37*
G36*
X620082Y31000D02*
X611250D01*
Y17267D01*
X612980Y17494D01*
X615291Y18452D01*
X617275Y19974D01*
X618798Y21959D01*
X619755Y24270D01*
X620082Y26750D01*
Y31000D01*
D02*
G37*
G36*
X609750D02*
X600918D01*
Y26750D01*
X601245Y24270D01*
X602202Y21959D01*
X603725Y19974D01*
X605709Y18452D01*
X608020Y17494D01*
X609750Y17267D01*
Y31000D01*
D02*
G37*
G36*
X635900Y46332D02*
X633420Y46006D01*
X631109Y45048D01*
X629124Y43526D01*
X627602Y41541D01*
X626645Y39230D01*
X626318Y36750D01*
Y26750D01*
X626645Y24270D01*
X627602Y21959D01*
X629124Y19974D01*
X631109Y18452D01*
X633420Y17494D01*
X635900Y17168D01*
X638380Y17494D01*
X640691Y18452D01*
X642675Y19974D01*
X644198Y21959D01*
X645155Y24270D01*
X645482Y26750D01*
Y36750D01*
X645155Y39230D01*
X644198Y41541D01*
X642675Y43526D01*
X640691Y45048D01*
X638380Y46006D01*
X635900Y46332D01*
D02*
G37*
G36*
X558332Y30750D02*
X549500D01*
Y17017D01*
X551230Y17244D01*
X553541Y18202D01*
X555525Y19725D01*
X557048Y21709D01*
X558005Y24020D01*
X558332Y26500D01*
Y30750D01*
D02*
G37*
G36*
X548000D02*
X539168D01*
Y26500D01*
X539495Y24020D01*
X540452Y21709D01*
X541974Y19725D01*
X543959Y18202D01*
X546270Y17244D01*
X548000Y17017D01*
Y30750D01*
D02*
G37*
G36*
X523750Y46082D02*
X521270Y45756D01*
X518959Y44798D01*
X516974Y43275D01*
X515452Y41291D01*
X514495Y38980D01*
X514168Y36500D01*
Y26500D01*
X514495Y24020D01*
X515452Y21709D01*
X516974Y19725D01*
X518959Y18202D01*
X521270Y17244D01*
X523750Y16918D01*
X526230Y17244D01*
X528541Y18202D01*
X530525Y19725D01*
X532048Y21709D01*
X533005Y24020D01*
X533332Y26500D01*
Y36500D01*
X533005Y38980D01*
X532048Y41291D01*
X530525Y43275D01*
X528541Y44798D01*
X526230Y45756D01*
X523750Y46082D01*
D02*
G37*
G36*
X498350D02*
X495870Y45756D01*
X493559Y44798D01*
X491575Y43275D01*
X490052Y41291D01*
X489095Y38980D01*
X488768Y36500D01*
Y26500D01*
X489095Y24020D01*
X490052Y21709D01*
X491575Y19725D01*
X493559Y18202D01*
X495870Y17244D01*
X498350Y16918D01*
X500830Y17244D01*
X503141Y18202D01*
X505125Y19725D01*
X506648Y21709D01*
X507605Y24020D01*
X507932Y26500D01*
Y36500D01*
X507605Y38980D01*
X506648Y41291D01*
X505125Y43275D01*
X503141Y44798D01*
X500830Y45756D01*
X498350Y46082D01*
D02*
G37*
G36*
X869650Y46832D02*
X867170Y46505D01*
X864859Y45548D01*
X862875Y44026D01*
X861352Y42041D01*
X860395Y39730D01*
X860068Y37250D01*
Y27250D01*
X860395Y24770D01*
X861352Y22459D01*
X862875Y20475D01*
X862837Y18974D01*
X856831Y12968D01*
X140951D01*
X126141Y27779D01*
X125734Y28051D01*
Y37000D01*
X125407Y39480D01*
X124450Y41791D01*
X122928Y43776D01*
X120943Y45298D01*
X118632Y46255D01*
X116152Y46582D01*
X113672Y46255D01*
X111361Y45298D01*
X109377Y43776D01*
X107854Y41791D01*
X106897Y39480D01*
X106570Y37000D01*
Y27000D01*
X106897Y24520D01*
X107854Y22209D01*
X109377Y20224D01*
X111361Y18702D01*
X113672Y17744D01*
X116152Y17418D01*
X118632Y17744D01*
X120943Y18702D01*
X122493Y19891D01*
X136378Y6006D01*
X137701Y5122D01*
X139262Y4812D01*
X139262Y4812D01*
X858520D01*
X858520Y4812D01*
X860081Y5122D01*
X861404Y6006D01*
X870429Y15031D01*
X870429Y15031D01*
X871313Y16355D01*
X871624Y17915D01*
Y17928D01*
X872130Y17995D01*
X874441Y18952D01*
X876425Y20475D01*
X877948Y22459D01*
X878905Y24770D01*
X879232Y27250D01*
Y37250D01*
X878905Y39730D01*
X877948Y42041D01*
X876425Y44026D01*
X874441Y45548D01*
X872130Y46505D01*
X869650Y46832D01*
D02*
G37*
%LPD*%
D10*
X340868Y559816D02*
X341376Y559308D01*
X756032Y509750D02*
Y511500D01*
X754532Y513000D02*
X756032Y511500D01*
X752782Y513000D02*
X754532D01*
X706474Y559308D02*
X752782Y513000D01*
X341376Y559308D02*
X706474D01*
X314171Y571019D02*
X315190Y570000D01*
X716500D01*
X754532Y531968D01*
Y527280D02*
X756032Y525780D01*
X754532Y527280D02*
Y531968D01*
X772032Y525780D02*
X800250D01*
X813303Y520697D02*
X814250Y519750D01*
X805333Y520697D02*
X813303D01*
X800250Y525780D02*
X805333Y520697D01*
X772032Y509750D02*
X814250D01*
X772032Y493240D02*
X807240D01*
X809318Y495318D01*
Y498750D01*
X810818Y500250D01*
X814250D01*
X755329Y492537D02*
X756032Y493240D01*
X755329Y485829D02*
Y492537D01*
X732750Y463250D02*
X755329Y485829D01*
X659892Y32758D02*
X660900Y31750D01*
X659892Y32758D02*
Y55626D01*
X652526Y62992D02*
X659892Y55626D01*
X484378Y62992D02*
X652526D01*
X472950Y31500D02*
Y51564D01*
X484378Y62992D01*
X413250Y32250D02*
X472200D01*
X472950Y31500D01*
X411777Y33723D02*
X413250Y32250D01*
X411777Y33723D02*
Y47455D01*
X396748Y62484D02*
X411777Y47455D01*
X300777Y48511D02*
X314750Y62484D01*
X396748D01*
X300777Y32500D02*
Y48511D01*
X763042Y244830D02*
Y285242D01*
X790622Y217250D02*
X815500D01*
X763042Y244830D02*
X790622Y217250D01*
X460009Y690544D02*
X460203Y690350D01*
Y683051D02*
Y690350D01*
X469004Y674250D02*
X493473D01*
X460203Y683051D02*
X469004Y674250D01*
X509258Y688286D02*
Y690036D01*
X507758Y686786D02*
X509258Y688286D01*
X506008Y686786D02*
X507758D01*
X493473Y674250D02*
X506008Y686786D01*
X150876Y239081D02*
Y266580D01*
Y211582D02*
Y239081D01*
X41402Y446278D02*
X152146D01*
X150876Y266580D02*
X151296Y267000D01*
X175268Y187190D02*
X289316D01*
X150876Y211582D02*
X175268Y187190D01*
X293000Y175000D02*
Y180065D01*
Y183507D01*
X309750Y174750D02*
X311500D01*
X308250Y176250D02*
X309750Y174750D01*
X308250Y176250D02*
Y176551D01*
X306493Y178308D02*
X308250Y176551D01*
X294757Y178308D02*
X306493D01*
X293000Y180065D02*
X294757Y178308D01*
X289316Y187190D02*
X293000Y183507D01*
X801750Y576580D02*
Y592000D01*
X772160Y572516D02*
X797686D01*
X801750Y576580D01*
X751332Y593344D02*
X772160Y572516D01*
X153416Y593344D02*
X751332D01*
X148600Y598160D02*
X153416Y593344D01*
X148600Y598160D02*
Y627150D01*
X738500Y197250D02*
X815500D01*
X736750D02*
X738500D01*
X735250Y198750D02*
X736750Y197250D01*
X735250Y198750D02*
Y200500D01*
X706896Y228854D02*
X735250Y200500D01*
X351282Y228854D02*
X706896D01*
X735534Y429560D02*
X789158D01*
X325958Y430200D02*
X734894D01*
X325882Y430276D02*
X325958Y430200D01*
X749741Y414017D02*
X751490D01*
X748241Y412517D02*
X749741Y414017D01*
X748241Y410767D02*
Y412517D01*
X734476Y397002D02*
X748241Y410767D01*
X615950Y408686D02*
X627634Y397002D01*
X734476D01*
X438150Y711829D02*
Y723392D01*
Y700266D02*
Y711829D01*
X205619D02*
X438150D01*
X188722Y728726D02*
X205619Y711829D01*
X465695Y726774D02*
X466365Y726104D01*
X455970Y726774D02*
X465695D01*
X455796Y726948D02*
X455970Y726774D01*
X441706Y726948D02*
X455796D01*
X438150Y723392D02*
X441706Y726948D01*
X438150Y700266D02*
X447872Y690544D01*
X460009D01*
X466365Y726104D02*
X489884D01*
X502584Y738804D02*
X514865D01*
X489884Y726104D02*
X502584Y738804D01*
X514865D02*
Y751504D01*
Y738804D02*
X522492D01*
X525622Y741934D01*
X613410D01*
X614438Y699250D02*
X651106D01*
X613918Y699770D02*
X614438Y699250D01*
X655856Y696250D02*
X693000D01*
X652856Y699250D02*
X655856Y696250D01*
X651106Y699250D02*
X652856D01*
X733984Y317450D02*
X751234D01*
X733484Y316950D02*
X733984Y317450D01*
X770123Y336339D02*
X789158D01*
X754484Y320700D02*
X770123Y336339D01*
X754484Y318950D02*
Y320700D01*
X752984Y317450D02*
X754484Y318950D01*
X751234Y317450D02*
X752984D01*
X789158Y336339D02*
X863158D01*
X176022Y120650D02*
X626872D01*
X628396Y119126D01*
X297942Y344170D02*
X308102Y334010D01*
X731734Y316950D02*
X733484D01*
X730234Y318450D02*
X731734Y316950D01*
X730234Y318450D02*
Y320200D01*
X716424Y334010D02*
X730234Y320200D01*
X308102Y334010D02*
X716424D01*
X436580Y463250D02*
X732750D01*
X433832Y460502D02*
X436580Y463250D01*
X275082Y208280D02*
X479298D01*
X274574Y208788D02*
X275082Y208280D01*
X311500Y158750D02*
X313000Y157250D01*
X316483D01*
X316507Y157226D01*
X386334D01*
X291250Y159000D02*
X293000D01*
X289750Y157500D02*
X291250Y159000D01*
X289750Y155384D02*
Y157500D01*
X277114Y142748D02*
X289750Y155384D01*
X41402Y344678D02*
X265684D01*
X270002Y348996D01*
X41402Y370078D02*
X244602D01*
X245872Y371348D01*
X41402Y395478D02*
X495554D01*
X497840Y397764D01*
X789158Y429560D02*
X863158D01*
X734894Y430200D02*
X735534Y429560D01*
X790500Y603250D02*
Y761750D01*
Y603250D02*
X798500Y595250D01*
X800250D01*
X801750Y593750D01*
Y592000D02*
Y593750D01*
X722510Y674250D02*
X736092Y687832D01*
X693000Y674250D02*
X722510D01*
X478800Y830650D02*
X734335D01*
X736092Y828893D01*
Y687832D02*
Y828893D01*
X219239Y288798D02*
X219710D01*
X216953Y286512D02*
X219239Y288798D01*
X171238Y286512D02*
X216953D01*
X170510Y287240D02*
X171238Y286512D01*
X151296Y286000D02*
X168570D01*
X169810Y287240D01*
X170510D01*
X42880Y267000D02*
X124296D01*
X41402Y268478D02*
X42880Y267000D01*
X209632Y751504D02*
X362286D01*
X209550Y751586D02*
X209632Y751504D01*
X521970Y316950D02*
Y317500D01*
X77724Y308864D02*
X513884D01*
X521970Y316950D01*
X41402Y294278D02*
X63138D01*
X77724Y308864D01*
X542539Y726104D02*
X570214D01*
X514865D02*
X542539D01*
X402600Y830650D02*
Y855750D01*
X410704Y863854D02*
X535432D01*
X402600Y855750D02*
X410704Y863854D01*
X589068Y707250D02*
X693000D01*
X570214Y726104D02*
X589068Y707250D01*
X362286Y751504D02*
X466365D01*
Y738804D02*
X479978D01*
X486664Y745490D01*
Y760730D01*
X497078Y771144D02*
X651106D01*
X486664Y760730D02*
X497078Y771144D01*
X651106D02*
X693000Y729250D01*
X383622Y738804D02*
X466365D01*
X379476Y742950D02*
X383622Y738804D01*
X428000Y830650D02*
X429260Y831910D01*
Y851154D01*
X433856Y855750D02*
X525258D01*
X429260Y851154D02*
X433856Y855750D01*
X531818Y712978D02*
X561340D01*
X515291D02*
X531818D01*
X41402Y319278D02*
X506984D01*
X510032Y322326D01*
X514865Y713404D02*
X515291Y712978D01*
X589068Y685250D02*
X693000D01*
X561340Y712978D02*
X589068Y685250D01*
D16*
X172974Y271908D02*
D03*
Y287908D02*
D03*
X755250Y197778D02*
D03*
Y181778D02*
D03*
X738500Y197250D02*
D03*
Y181250D02*
D03*
X751234Y301450D02*
D03*
Y317450D02*
D03*
X733484Y316950D02*
D03*
Y300950D02*
D03*
X734894Y414200D02*
D03*
Y430200D02*
D03*
X751490Y430017D02*
D03*
Y414017D02*
D03*
X651106Y699250D02*
D03*
Y715250D02*
D03*
X311500Y174750D02*
D03*
Y158750D02*
D03*
X293000Y175000D02*
D03*
Y159000D02*
D03*
D17*
X772032Y493240D02*
D03*
X756032D02*
D03*
X772032Y509750D02*
D03*
X756032D02*
D03*
X772032Y525780D02*
D03*
X756032D02*
D03*
X801750Y592000D02*
D03*
X785750D02*
D03*
X525258Y690036D02*
D03*
X509258D02*
D03*
X476008Y690544D02*
D03*
X460009D02*
D03*
D18*
X814250Y519750D02*
D03*
Y509750D02*
D03*
X840250Y519250D02*
D03*
Y509750D02*
D03*
Y500250D02*
D03*
X814250D02*
D03*
D19*
X855658Y429560D02*
D03*
X796658D02*
D03*
Y399560D02*
D03*
X855658D02*
D03*
Y336339D02*
D03*
X796658D02*
D03*
Y306339D02*
D03*
X855658D02*
D03*
D20*
X466365Y751504D02*
D03*
Y738804D02*
D03*
Y726104D02*
D03*
Y713404D02*
D03*
X514865Y751504D02*
D03*
Y738804D02*
D03*
Y726104D02*
D03*
Y713404D02*
D03*
D21*
X124296Y267000D02*
D03*
Y276500D02*
D03*
Y286000D02*
D03*
X151296D02*
D03*
Y276500D02*
D03*
Y267000D02*
D03*
D22*
X716500Y761750D02*
D03*
D23*
X848500Y626750D02*
D03*
Y761750D02*
D03*
D24*
X790500D02*
D03*
D25*
X700000Y629250D02*
D03*
D26*
Y755250D02*
D03*
D27*
X699000Y663250D02*
D03*
Y674250D02*
D03*
Y685250D02*
D03*
Y696250D02*
D03*
Y707250D02*
D03*
Y718250D02*
D03*
Y729250D02*
D03*
Y740250D02*
D03*
D45*
X850000Y830000D02*
D03*
X729250Y60734D02*
D03*
X187500Y62984D02*
D03*
D46*
X867545Y30145D02*
X869650Y32250D01*
X867545Y17915D02*
Y30145D01*
X858520Y8890D02*
X867545Y17915D01*
X139262Y8890D02*
X858520D01*
X116152Y29977D02*
Y32000D01*
Y29977D02*
X121233Y24895D01*
X123257D01*
X139262Y8890D01*
X863158Y399560D02*
X870694D01*
X789158D02*
X863158D01*
X870694D02*
X884428Y385826D01*
X863869Y306339D02*
X884428Y326898D01*
Y385826D01*
X863158Y306339D02*
X863869D01*
X765947Y399560D02*
X789158D01*
X751490Y414017D02*
X753241D01*
X753740Y413517D01*
Y411767D02*
Y413517D01*
Y411767D02*
X765947Y399560D01*
X733484Y300950D02*
X734422D01*
X734922Y300450D01*
Y294032D02*
Y300450D01*
Y294032D02*
X743712Y285242D01*
X763042D01*
X784139Y306339D02*
X789158D01*
X763042Y285242D02*
X784139Y306339D01*
X789158D02*
X863158D01*
D47*
X148600Y830650D02*
D03*
X174000D02*
D03*
X199400D02*
D03*
X224800D02*
D03*
X250200D02*
D03*
X275600D02*
D03*
X301000D02*
D03*
X326400D02*
D03*
X351800D02*
D03*
X377200D02*
D03*
X402600D02*
D03*
X428000D02*
D03*
X453400D02*
D03*
D03*
X148600Y627150D02*
D03*
X174000D02*
D03*
X199400D02*
D03*
X224800D02*
D03*
X250200D02*
D03*
X275600D02*
D03*
X301000D02*
D03*
X326400D02*
D03*
X351800D02*
D03*
X377200D02*
D03*
X402600D02*
D03*
X428000D02*
D03*
X453400D02*
D03*
X478800D02*
D03*
Y830650D02*
D03*
D48*
X41402Y243078D02*
D03*
Y319278D02*
D03*
Y294278D02*
D03*
Y268478D02*
D03*
Y395478D02*
D03*
Y421278D02*
D03*
Y446278D02*
D03*
Y370078D02*
D03*
Y344678D02*
D03*
D49*
X835500Y177250D02*
D03*
Y197250D02*
D03*
Y217250D02*
D03*
X815500Y177250D02*
D03*
Y197250D02*
D03*
Y217250D02*
D03*
D50*
X825500Y149250D02*
D03*
Y245250D02*
D03*
D51*
X844650Y32250D02*
D03*
X869650D02*
D03*
X40352Y32000D02*
D03*
X65752D02*
D03*
X116152D02*
D03*
X91152D02*
D03*
X300777Y32500D02*
D03*
X275777D02*
D03*
X250377D02*
D03*
X413250Y32250D02*
D03*
X388250D02*
D03*
X362850D02*
D03*
X523750Y31500D02*
D03*
X548750D02*
D03*
X498350D02*
D03*
X472950D02*
D03*
X610500Y31750D02*
D03*
X635900D02*
D03*
X660900D02*
D03*
D52*
X314171Y571019D02*
D03*
X340868Y559816D02*
D03*
X150876Y239081D02*
D03*
X152146Y446278D02*
D03*
X289316Y187190D02*
D03*
X351282Y228854D02*
D03*
X325882Y430276D02*
D03*
X615950Y408686D02*
D03*
X188722Y728726D02*
D03*
X613410Y741934D02*
D03*
X613918Y699770D02*
D03*
X628396Y119126D02*
D03*
X176022Y120650D02*
D03*
X297942Y344170D02*
D03*
X433832Y460502D02*
D03*
X274574Y208788D02*
D03*
X479298Y208280D02*
D03*
X386334Y157226D02*
D03*
X277114Y142748D02*
D03*
X270002Y348996D02*
D03*
X245872Y371348D02*
D03*
X497840Y397764D02*
D03*
X219710Y288798D02*
D03*
X209550Y751586D02*
D03*
X521970Y317500D02*
D03*
X535432Y863854D02*
D03*
X542539Y726104D02*
D03*
X379476Y742950D02*
D03*
X525258Y855750D02*
D03*
X531818Y712978D02*
D03*
X510032Y322326D02*
D03*
D53*
X670902Y516278D02*
D03*
X671402Y173278D02*
D03*
X56902Y173178D02*
D03*
Y517878D02*
D03*
M02*
