M48
;Layer_Color=9474304
;FILE_FORMAT=4:4
METRIC,LZ
;TYPE=PLATED
T1F00S00C0.3000
T2F00S00C0.8000
T3F00S00C1.0000
T4F00S00C1.0160
T5F00S00C1.2000
T6F00S00C3.1000
%
T01
X00165354Y00014732
X0043434Y00226822
X00582168Y00192278
X0070866Y0022606
X00471932Y00381254
X00421132Y00408178
X00364576Y00374175
X00314452Y00344678
X00290574Y00292114
X00296074Y00187903
X00306045Y00171425
X00269748Y0014097
X00272527Y00129794
X00105156Y00164338
X00107442Y00178054
X0012319Y00199136
X00131392Y00246936
X00161036Y00322072
X00190246Y00327152
X00150046Y00400269
X00263398Y00387096
X00375412Y00255524
X00403606Y0044958
X0038989Y00476758
X00127618Y00443738
X00176276Y00594868
X00204724Y00663956
X00228346Y00671576
X00268478Y00741426
X0033401Y00790956
X00475488Y00739902
X00551034Y00685448
X00576978Y00690262
X00598424Y00678942
X00598978Y00786892
X00576978Y00776732
X00554978Y0080013
X0055626Y00610362
X00562102Y00603758
X00739513Y00545988
X00483362Y0086487
T02
X00813976Y00201634
X00833976
Y00221634
Y00241634
X00813976
Y00221634
T03
X0084465Y0003225
X0086965
X006609Y0003175
X006359
X006105
X0054875Y000315
X0052375
X0049835
X0047295
X0041325Y0003225
X0038825
X0036285
X00300777Y000325
X00275777
X00250377
X00116152Y00032
X00091152
X00065752
X00040352
X00041402Y00243078
Y00268478
Y00294278
Y00319278
Y00344678
Y00370078
Y00395478
Y00421278
X00338074Y00249936
Y00224936
Y00199136
Y00173736
X00041402Y00446278
X00865632Y00650748
Y00676148
Y00701548
Y00726548
T04
X00125476Y00633176
X00150876
X00176276
X00201676
X00227076
X00252476
X00277876
X00303276
X00328676
X00354076
X00379476
X00404876
X00430276
X00455676
Y00836676
X00430276
X00404876
X00379476
X00354076
X00328676
X00303276
X00277876
X00252476
X00227076
X00201676
X00176276
X00150876
X00125476
T05
X00823976Y00173634
Y00269634
T06
X0072925Y00060734
X00671402Y00173278
X001875Y00062984
X00056902Y00173178
Y00517878
X00670902Y00516278
X0085Y0083
M30
