G04*
G04 #@! TF.GenerationSoftware,Altium Limited,Altium Designer,21.0.9 (235)*
G04*
G04 Layer_Color=8388736*
%FSLAX44Y44*%
%MOMM*%
G71*
G04*
G04 #@! TF.SameCoordinates,9AB719E8-7283-4354-A60F-73F0A454480C*
G04*
G04*
G04 #@! TF.FilePolarity,Negative*
G04*
G01*
G75*
%ADD30R,1.0032X1.6032*%
%ADD31R,1.8032X1.7032*%
%ADD32R,1.9032X1.7032*%
%ADD33R,1.7032X1.9032*%
%ADD34R,1.4032X1.6032*%
%ADD35R,1.7032X1.5032*%
%ADD36R,1.5032X1.0532*%
%ADD37R,1.7032X1.2032*%
%ADD38R,0.8032X1.1532*%
%ADD39R,1.1532X0.8032*%
%ADD40R,1.7532X1.2032*%
%ADD41O,2.3032X0.8532*%
%ADD42R,1.2032X0.7032*%
%ADD43O,1.7032X2.2032*%
%ADD44O,2.8032X1.8032*%
%ADD45C,1.4032*%
%ADD46C,2.2032*%
%ADD47O,1.8032X2.8032*%
%ADD48C,6.0000*%
D30*
X543978Y695392D02*
D03*
X554978D02*
D03*
X565978D02*
D03*
X576978D02*
D03*
X587978D02*
D03*
X598978D02*
D03*
X609978D02*
D03*
X620978D02*
D03*
D31*
X528978Y696392D02*
D03*
D32*
X654978D02*
D03*
D33*
X522478Y844892D02*
D03*
X657478D02*
D03*
D34*
X522478Y786892D02*
D03*
D35*
Y712892D02*
D03*
D36*
X602996Y162150D02*
D03*
Y142650D02*
D03*
D37*
X846944Y522988D02*
D03*
Y554988D02*
D03*
X796944D02*
D03*
Y522988D02*
D03*
D38*
X819406Y601472D02*
D03*
X835406D02*
D03*
X745346Y819258D02*
D03*
X729346D02*
D03*
X746362Y730866D02*
D03*
X730362D02*
D03*
X590024Y651002D02*
D03*
X574024D02*
D03*
X407288Y131572D02*
D03*
X391288D02*
D03*
X296544Y129794D02*
D03*
X280544D02*
D03*
D39*
X149296Y272522D02*
D03*
Y288522D02*
D03*
X753726Y222162D02*
D03*
Y206162D02*
D03*
X736976Y221634D02*
D03*
Y205634D02*
D03*
X748694Y337518D02*
D03*
Y353518D02*
D03*
X730944Y353018D02*
D03*
Y337018D02*
D03*
X728290Y430456D02*
D03*
Y446456D02*
D03*
X744886Y446273D02*
D03*
Y430273D02*
D03*
D40*
X854134Y453944D02*
D03*
X795134D02*
D03*
Y423944D02*
D03*
X854134D02*
D03*
Y360723D02*
D03*
X795134D02*
D03*
Y330723D02*
D03*
X854134D02*
D03*
D41*
X758650Y753580D02*
D03*
Y766280D02*
D03*
Y778980D02*
D03*
Y791680D02*
D03*
X710150Y753580D02*
D03*
Y766280D02*
D03*
Y778980D02*
D03*
Y791680D02*
D03*
D42*
X100618Y267614D02*
D03*
Y277114D02*
D03*
Y286614D02*
D03*
X127618D02*
D03*
Y277114D02*
D03*
Y267614D02*
D03*
D43*
X455676Y633176D02*
D03*
X430276D02*
D03*
X404876D02*
D03*
X379476D02*
D03*
X354076D02*
D03*
X328676D02*
D03*
X303276D02*
D03*
X277876D02*
D03*
X252476D02*
D03*
X227076D02*
D03*
X201676D02*
D03*
X176276D02*
D03*
X150876D02*
D03*
D03*
X455676Y836676D02*
D03*
X430276D02*
D03*
X404876D02*
D03*
X379476D02*
D03*
X354076D02*
D03*
X328676D02*
D03*
X303276D02*
D03*
X277876D02*
D03*
X252476D02*
D03*
X227076D02*
D03*
X201676D02*
D03*
X176276D02*
D03*
X150876D02*
D03*
X125476D02*
D03*
Y633176D02*
D03*
D44*
X338074Y173736D02*
D03*
Y249936D02*
D03*
Y224936D02*
D03*
Y199136D02*
D03*
X865632Y650748D02*
D03*
Y676148D02*
D03*
Y726548D02*
D03*
Y701548D02*
D03*
X41402Y243078D02*
D03*
Y319278D02*
D03*
Y294278D02*
D03*
Y268478D02*
D03*
Y395478D02*
D03*
Y421278D02*
D03*
Y446278D02*
D03*
Y370078D02*
D03*
Y344678D02*
D03*
D45*
X833976Y201634D02*
D03*
Y221634D02*
D03*
Y241634D02*
D03*
X813976Y201634D02*
D03*
Y221634D02*
D03*
Y241634D02*
D03*
D46*
X823976Y173634D02*
D03*
Y269634D02*
D03*
D47*
X844650Y32250D02*
D03*
X869650D02*
D03*
X40352Y32000D02*
D03*
X65752D02*
D03*
X116152D02*
D03*
X91152D02*
D03*
X300777Y32500D02*
D03*
X275777D02*
D03*
X250377D02*
D03*
X413250Y32250D02*
D03*
X388250D02*
D03*
X362850D02*
D03*
X523750Y31500D02*
D03*
X548750D02*
D03*
X498350D02*
D03*
X472950D02*
D03*
X610500Y31750D02*
D03*
X635900D02*
D03*
X660900D02*
D03*
D48*
X850000Y830000D02*
D03*
X729250Y60734D02*
D03*
X187500Y62984D02*
D03*
M02*
