G04*
G04 #@! TF.GenerationSoftware,Altium Limited,Altium Designer,21.0.9 (235)*
G04*
G04 Layer_Physical_Order=2*
G04 Layer_Color=16711680*
%FSLAX44Y44*%
%MOMM*%
G71*
G04*
G04 #@! TF.SameCoordinates,9AB719E8-7283-4354-A60F-73F0A454480C*
G04*
G04*
G04 #@! TF.FilePolarity,Positive*
G04*
G01*
G75*
%ADD26R,0.9500X0.6000*%
%ADD48C,6.0000*%
%ADD49C,0.3000*%
%ADD50C,0.5000*%
%ADD51O,1.5000X2.0000*%
%ADD52O,2.6000X1.6000*%
%ADD53C,1.2000*%
%ADD54C,2.0000*%
%ADD55O,1.6000X2.6000*%
%ADD56C,0.5000*%
%ADD57C,5.0000*%
G36*
X898441Y878441D02*
X898441Y1558D01*
X1558Y1558D01*
X1558Y878441D01*
X898441Y878441D01*
D02*
G37*
%LPC*%
G36*
X455676Y848254D02*
X453326Y847944D01*
X451137Y847038D01*
X449257Y845595D01*
X447814Y843715D01*
X446908Y841525D01*
X446598Y839176D01*
Y834176D01*
X446908Y831826D01*
X447814Y829637D01*
X449257Y827757D01*
X451137Y826314D01*
X453326Y825408D01*
X455676Y825098D01*
X458026Y825408D01*
X460215Y826314D01*
X462095Y827757D01*
X463537Y829637D01*
X464444Y831826D01*
X464754Y834176D01*
Y839176D01*
X464444Y841525D01*
X463537Y843715D01*
X462095Y845595D01*
X460215Y847038D01*
X458026Y847944D01*
X455676Y848254D01*
D02*
G37*
G36*
X430276D02*
X427926Y847944D01*
X425737Y847038D01*
X423857Y845595D01*
X422415Y843715D01*
X421508Y841525D01*
X421198Y839176D01*
Y834176D01*
X421508Y831826D01*
X422415Y829637D01*
X423857Y827757D01*
X425737Y826314D01*
X427926Y825408D01*
X430276Y825098D01*
X432626Y825408D01*
X434815Y826314D01*
X436695Y827757D01*
X438138Y829637D01*
X439044Y831826D01*
X439354Y834176D01*
Y839176D01*
X439044Y841525D01*
X438138Y843715D01*
X436695Y845595D01*
X434815Y847038D01*
X432626Y847944D01*
X430276Y848254D01*
D02*
G37*
G36*
X277876D02*
X275527Y847944D01*
X273337Y847038D01*
X271457Y845595D01*
X270014Y843715D01*
X269108Y841525D01*
X268798Y839176D01*
Y834176D01*
X269108Y831826D01*
X270014Y829637D01*
X271457Y827757D01*
X273337Y826314D01*
X275527Y825408D01*
X277876Y825098D01*
X280226Y825408D01*
X282415Y826314D01*
X284295Y827757D01*
X285737Y829637D01*
X286644Y831826D01*
X286954Y834176D01*
Y839176D01*
X286644Y841525D01*
X285737Y843715D01*
X284295Y845595D01*
X282415Y847038D01*
X280226Y847944D01*
X277876Y848254D01*
D02*
G37*
G36*
X252476D02*
X250126Y847944D01*
X247937Y847038D01*
X246057Y845595D01*
X244615Y843715D01*
X243708Y841525D01*
X243398Y839176D01*
Y834176D01*
X243708Y831826D01*
X244615Y829637D01*
X246057Y827757D01*
X247937Y826314D01*
X250126Y825408D01*
X252476Y825098D01*
X254825Y825408D01*
X257015Y826314D01*
X258895Y827757D01*
X260338Y829637D01*
X261244Y831826D01*
X261554Y834176D01*
Y839176D01*
X261244Y841525D01*
X260338Y843715D01*
X258895Y845595D01*
X257015Y847038D01*
X254825Y847944D01*
X252476Y848254D01*
D02*
G37*
G36*
X176276D02*
X173927Y847944D01*
X171737Y847038D01*
X169857Y845595D01*
X168414Y843715D01*
X167508Y841525D01*
X167198Y839176D01*
Y834176D01*
X167508Y831826D01*
X168414Y829637D01*
X169857Y827757D01*
X171737Y826314D01*
X173927Y825408D01*
X176276Y825098D01*
X178626Y825408D01*
X180815Y826314D01*
X182695Y827757D01*
X184137Y829637D01*
X185044Y831826D01*
X185354Y834176D01*
Y839176D01*
X185044Y841525D01*
X184137Y843715D01*
X182695Y845595D01*
X180815Y847038D01*
X178626Y847944D01*
X176276Y848254D01*
D02*
G37*
G36*
X850000Y861597D02*
X845057Y861208D01*
X840236Y860051D01*
X835655Y858154D01*
X831428Y855563D01*
X827657Y852343D01*
X824437Y848572D01*
X821846Y844345D01*
X819949Y839764D01*
X818792Y834943D01*
X818403Y830000D01*
X818792Y825057D01*
X819949Y820236D01*
X821846Y815655D01*
X824437Y811428D01*
X827657Y807657D01*
X831428Y804437D01*
X835655Y801846D01*
X840236Y799949D01*
X845057Y798792D01*
X850000Y798403D01*
X854943Y798792D01*
X859764Y799949D01*
X864345Y801846D01*
X868572Y804437D01*
X872343Y807657D01*
X875563Y811428D01*
X878154Y815655D01*
X880051Y820236D01*
X881208Y825057D01*
X881597Y830000D01*
X881208Y834943D01*
X880051Y839764D01*
X878154Y844345D01*
X875563Y848572D01*
X872343Y852343D01*
X868572Y855563D01*
X864345Y858154D01*
X859764Y860051D01*
X854943Y861208D01*
X850000Y861597D01*
D02*
G37*
G36*
X201676Y848254D02*
X199326Y847944D01*
X197137Y847038D01*
X195257Y845595D01*
X193815Y843715D01*
X192908Y841525D01*
X192598Y839176D01*
Y834176D01*
X192908Y831826D01*
X193815Y829637D01*
X195257Y827757D01*
X197137Y826314D01*
X198617Y825702D01*
Y792650D01*
X198617Y792649D01*
X198640Y792534D01*
X197470Y791908D01*
X159031Y830347D01*
X159644Y831826D01*
X159954Y834176D01*
Y839176D01*
X159644Y841525D01*
X158737Y843715D01*
X157295Y845595D01*
X155415Y847038D01*
X153225Y847944D01*
X150876Y848254D01*
X148526Y847944D01*
X146337Y847038D01*
X144457Y845595D01*
X143014Y843715D01*
X142108Y841525D01*
X141798Y839176D01*
Y834176D01*
X142108Y831826D01*
X143014Y829637D01*
X144457Y827757D01*
X146337Y826314D01*
X148526Y825408D01*
X150876Y825098D01*
X153225Y825408D01*
X154705Y826021D01*
X237225Y743501D01*
Y637266D01*
X235955Y637183D01*
X235844Y638026D01*
X234937Y640215D01*
X233495Y642095D01*
X231615Y643538D01*
X231022Y643783D01*
Y668553D01*
X231230Y668692D01*
X232114Y670015D01*
X232424Y671576D01*
X232114Y673137D01*
X231230Y674460D01*
X229907Y675344D01*
X228346Y675654D01*
X226785Y675344D01*
X225462Y674460D01*
X224578Y673137D01*
X224268Y671576D01*
X224578Y670015D01*
X224905Y669527D01*
Y644468D01*
X224727Y644444D01*
X222537Y643538D01*
X220657Y642095D01*
X219214Y640215D01*
X218705Y638984D01*
X217435Y639237D01*
Y745276D01*
X217202Y746447D01*
X216539Y747439D01*
X216539Y747439D01*
X133631Y830347D01*
X134244Y831826D01*
X134554Y834176D01*
Y839176D01*
X134244Y841525D01*
X133337Y843715D01*
X131895Y845595D01*
X130015Y847038D01*
X127825Y847944D01*
X125476Y848254D01*
X123126Y847944D01*
X120937Y847038D01*
X119057Y845595D01*
X117614Y843715D01*
X116708Y841525D01*
X116398Y839176D01*
Y834176D01*
X116708Y831826D01*
X117614Y829637D01*
X119057Y827757D01*
X120937Y826314D01*
X123126Y825408D01*
X125476Y825098D01*
X127825Y825408D01*
X129305Y826021D01*
X211317Y744009D01*
Y639237D01*
X210047Y638984D01*
X209538Y640215D01*
X208095Y642095D01*
X206215Y643538D01*
X204735Y644150D01*
Y659100D01*
X205708Y660073D01*
X206285Y660188D01*
X207608Y661072D01*
X208492Y662395D01*
X208802Y663956D01*
X208492Y665517D01*
X207608Y666840D01*
X206285Y667724D01*
X204724Y668034D01*
X203163Y667724D01*
X201840Y666840D01*
X200956Y665517D01*
X200646Y663956D01*
X200694Y663711D01*
X199513Y662530D01*
X198850Y661537D01*
X198617Y660367D01*
X198617Y660367D01*
Y644150D01*
X197137Y643538D01*
X195257Y642095D01*
X193815Y640215D01*
X192908Y638026D01*
X192598Y635676D01*
Y630676D01*
X192908Y628326D01*
X193521Y626847D01*
X188083Y621409D01*
X187420Y620416D01*
X187187Y619246D01*
X187187Y619246D01*
Y329774D01*
X186478Y328713D01*
X186168Y327152D01*
X186478Y325591D01*
X187362Y324268D01*
X188685Y323384D01*
X190246Y323074D01*
X191807Y323384D01*
X193130Y324268D01*
X194014Y325591D01*
X194324Y327152D01*
X194014Y328713D01*
X193305Y329774D01*
Y617979D01*
X197847Y622521D01*
X199326Y621908D01*
X201676Y621598D01*
X204025Y621908D01*
X206215Y622814D01*
X208095Y624257D01*
X209538Y626137D01*
X210047Y627368D01*
X211317Y627115D01*
Y180487D01*
X211317Y180487D01*
X211550Y179317D01*
X212213Y178324D01*
X262906Y127631D01*
X262906Y127631D01*
X263899Y126968D01*
X265069Y126735D01*
X269905D01*
X270966Y126026D01*
X272527Y125716D01*
X274088Y126026D01*
X275411Y126910D01*
X276295Y128233D01*
X276605Y129794D01*
X276295Y131355D01*
X275411Y132678D01*
X274088Y133562D01*
X272527Y133872D01*
X270966Y133562D01*
X269905Y132853D01*
X266336D01*
X217435Y181754D01*
Y627115D01*
X218705Y627368D01*
X219214Y626137D01*
X220657Y624257D01*
X222537Y622814D01*
X224727Y621908D01*
X227076Y621598D01*
X229426Y621908D01*
X231615Y622814D01*
X233495Y624257D01*
X234937Y626137D01*
X235844Y628326D01*
X235955Y629169D01*
X237225Y629086D01*
Y170434D01*
X237225Y170434D01*
X237458Y169263D01*
X238121Y168271D01*
X265731Y140661D01*
X265980Y139409D01*
X266864Y138086D01*
X268187Y137202D01*
X269748Y136892D01*
X271309Y137202D01*
X272632Y138086D01*
X273516Y139409D01*
X273826Y140970D01*
X273516Y142531D01*
X272632Y143854D01*
X271309Y144738D01*
X270057Y144987D01*
X243343Y171701D01*
Y625889D01*
X244613Y626141D01*
X244615Y626137D01*
X246057Y624257D01*
X247937Y622814D01*
X250126Y621908D01*
X252476Y621598D01*
X254825Y621908D01*
X257015Y622814D01*
X258895Y624257D01*
X260338Y626137D01*
X261101Y627981D01*
X262371Y627729D01*
Y390970D01*
X261837Y390864D01*
X260514Y389980D01*
X259630Y388657D01*
X259320Y387096D01*
X259630Y385535D01*
X260514Y384212D01*
X261837Y383328D01*
X263398Y383018D01*
X264959Y383328D01*
X266282Y384212D01*
X267166Y385535D01*
X267415Y386787D01*
X267593Y386965D01*
X268256Y387957D01*
X268489Y389128D01*
Y626502D01*
X269759Y626755D01*
X270014Y626137D01*
X271457Y624257D01*
X273337Y622814D01*
X275527Y621908D01*
X277876Y621598D01*
X280226Y621908D01*
X282415Y622814D01*
X284295Y624257D01*
X285737Y626137D01*
X286644Y628326D01*
X286954Y630676D01*
Y635676D01*
X286644Y638026D01*
X285737Y640215D01*
X284295Y642095D01*
X282415Y643538D01*
X280226Y644444D01*
X277876Y644754D01*
X275527Y644444D01*
X273337Y643538D01*
X271457Y642095D01*
X270014Y640215D01*
X269759Y639597D01*
X268489Y639850D01*
Y728895D01*
X268256Y730066D01*
X267593Y731058D01*
X204735Y793916D01*
Y825702D01*
X206215Y826314D01*
X208095Y827757D01*
X209538Y829637D01*
X210444Y831826D01*
X210754Y834176D01*
Y839176D01*
X210444Y841525D01*
X209538Y843715D01*
X208095Y845595D01*
X206215Y847038D01*
X204025Y847944D01*
X201676Y848254D01*
D02*
G37*
G36*
X483362Y868948D02*
X481801Y868638D01*
X480478Y867754D01*
X479594Y866431D01*
X479284Y864870D01*
X479594Y863309D01*
X480303Y862248D01*
Y742181D01*
X479033Y741796D01*
X478372Y742786D01*
X477049Y743670D01*
X475488Y743980D01*
X473927Y743670D01*
X472604Y742786D01*
X471720Y741463D01*
X471410Y739902D01*
X471720Y738341D01*
X472429Y737280D01*
Y410210D01*
X472429Y410210D01*
X472662Y409039D01*
X473325Y408047D01*
X520691Y360681D01*
Y45516D01*
X518959Y44798D01*
X516974Y43275D01*
X515452Y41291D01*
X514495Y38980D01*
X514168Y36500D01*
Y26500D01*
X514495Y24020D01*
X515452Y21709D01*
X516974Y19725D01*
X518959Y18202D01*
X521270Y17244D01*
X523750Y16918D01*
X526230Y17244D01*
X528541Y18202D01*
X530525Y19725D01*
X532048Y21709D01*
X533005Y24020D01*
X533332Y26500D01*
Y36500D01*
X533005Y38980D01*
X532048Y41291D01*
X530525Y43275D01*
X528541Y44798D01*
X526809Y45516D01*
Y361948D01*
X526576Y363119D01*
X525913Y364111D01*
X478547Y411477D01*
Y736889D01*
X479033Y737335D01*
X480303Y736777D01*
Y414020D01*
X480303Y414020D01*
X480536Y412850D01*
X481199Y411857D01*
X536437Y356619D01*
Y234950D01*
X536437Y234950D01*
X536670Y233780D01*
X537333Y232787D01*
X578151Y191969D01*
X578400Y190717D01*
X579284Y189394D01*
X580607Y188510D01*
X582168Y188200D01*
X583729Y188510D01*
X585052Y189394D01*
X585936Y190717D01*
X586246Y192278D01*
X585936Y193839D01*
X585052Y195162D01*
X583729Y196046D01*
X582477Y196295D01*
X542555Y236217D01*
Y357886D01*
X542555Y357886D01*
X542322Y359057D01*
X541659Y360049D01*
X486421Y415287D01*
Y862248D01*
X487130Y863309D01*
X487440Y864870D01*
X487130Y866431D01*
X486246Y867754D01*
X484923Y868638D01*
X483362Y868948D01*
D02*
G37*
G36*
X227076Y848254D02*
X224727Y847944D01*
X222537Y847038D01*
X220657Y845595D01*
X219214Y843715D01*
X218308Y841525D01*
X217998Y839176D01*
Y834176D01*
X218308Y831826D01*
X219214Y829637D01*
X220657Y827757D01*
X222537Y826314D01*
X224017Y825702D01*
Y782828D01*
X224017Y782828D01*
X224250Y781657D01*
X224913Y780665D01*
X264461Y741117D01*
X264710Y739865D01*
X265594Y738542D01*
X266917Y737658D01*
X268478Y737348D01*
X270039Y737658D01*
X271362Y738542D01*
X272246Y739865D01*
X272556Y741426D01*
X272246Y742987D01*
X271362Y744310D01*
X270039Y745194D01*
X268787Y745443D01*
X230135Y784095D01*
Y825702D01*
X231615Y826314D01*
X233495Y827757D01*
X234937Y829637D01*
X235844Y831826D01*
X236154Y834176D01*
Y839176D01*
X235844Y841525D01*
X234937Y843715D01*
X233495Y845595D01*
X231615Y847038D01*
X229426Y847944D01*
X227076Y848254D01*
D02*
G37*
G36*
X870632Y736130D02*
X860632D01*
X858152Y735804D01*
X855841Y734846D01*
X853857Y733324D01*
X852334Y731339D01*
X851376Y729028D01*
X851050Y726548D01*
X851376Y724068D01*
X852334Y721757D01*
X853857Y719773D01*
X855841Y718250D01*
X858152Y717292D01*
X860632Y716966D01*
X870632D01*
X873112Y717292D01*
X875423Y718250D01*
X877408Y719773D01*
X878930Y721757D01*
X879887Y724068D01*
X880214Y726548D01*
X879887Y729028D01*
X878930Y731339D01*
X877408Y733324D01*
X875423Y734846D01*
X873112Y735804D01*
X870632Y736130D01*
D02*
G37*
G36*
Y711130D02*
X866382D01*
Y702298D01*
X880115D01*
X879887Y704028D01*
X878930Y706339D01*
X877408Y708323D01*
X875423Y709846D01*
X873112Y710804D01*
X870632Y711130D01*
D02*
G37*
G36*
X864882D02*
X860632D01*
X858152Y710804D01*
X855841Y709846D01*
X853857Y708323D01*
X852334Y706339D01*
X851376Y704028D01*
X851149Y702298D01*
X864882D01*
Y711130D01*
D02*
G37*
G36*
X880115Y700798D02*
X866382D01*
Y691966D01*
X870632D01*
X873112Y692292D01*
X875423Y693250D01*
X877408Y694772D01*
X878930Y696757D01*
X879887Y699068D01*
X880115Y700798D01*
D02*
G37*
G36*
X864882D02*
X851149D01*
X851376Y699068D01*
X852334Y696757D01*
X853857Y694772D01*
X855841Y693250D01*
X858152Y692292D01*
X860632Y691966D01*
X864882D01*
Y700798D01*
D02*
G37*
G36*
X576978Y780810D02*
X575417Y780500D01*
X574094Y779616D01*
X573210Y778293D01*
X572900Y776732D01*
X573210Y775171D01*
X573919Y774110D01*
Y692884D01*
X573210Y691823D01*
X572900Y690262D01*
X573210Y688701D01*
X574094Y687378D01*
X575417Y686494D01*
X576978Y686184D01*
X578539Y686494D01*
X579862Y687378D01*
X580746Y688701D01*
X581056Y690262D01*
X580746Y691823D01*
X580037Y692884D01*
Y774110D01*
X580746Y775171D01*
X581056Y776732D01*
X580746Y778293D01*
X579862Y779616D01*
X578539Y780500D01*
X576978Y780810D01*
D02*
G37*
G36*
X554978Y804208D02*
X553417Y803898D01*
X552094Y803014D01*
X551210Y801691D01*
X550900Y800130D01*
X551210Y798569D01*
X551919Y797508D01*
Y690659D01*
X550725Y689465D01*
X549473Y689216D01*
X548150Y688332D01*
X547266Y687009D01*
X546956Y685448D01*
X547266Y683887D01*
X548150Y682564D01*
X549473Y681680D01*
X551034Y681370D01*
X552595Y681680D01*
X553918Y682564D01*
X554802Y683887D01*
X555051Y685139D01*
X557141Y687229D01*
X557141Y687229D01*
X557804Y688221D01*
X558037Y689392D01*
Y797508D01*
X558746Y798569D01*
X559056Y800130D01*
X558746Y801691D01*
X557862Y803014D01*
X556539Y803898D01*
X554978Y804208D01*
D02*
G37*
G36*
X598978Y790970D02*
X597417Y790660D01*
X596094Y789776D01*
X595210Y788453D01*
X594900Y786892D01*
X595210Y785331D01*
X595919Y784270D01*
Y682079D01*
X595540Y681826D01*
X594656Y680503D01*
X594346Y678942D01*
X594656Y677381D01*
X595540Y676058D01*
X596863Y675174D01*
X598424Y674864D01*
X599985Y675174D01*
X601308Y676058D01*
X602192Y677381D01*
X602502Y678942D01*
X602192Y680503D01*
X602037Y680735D01*
Y784270D01*
X602746Y785331D01*
X603056Y786892D01*
X602746Y788453D01*
X601862Y789776D01*
X600539Y790660D01*
X598978Y790970D01*
D02*
G37*
G36*
X870632Y685730D02*
X860632D01*
X858152Y685404D01*
X855841Y684446D01*
X853857Y682923D01*
X852334Y680939D01*
X851616Y679207D01*
X715010D01*
X713839Y678974D01*
X712847Y678311D01*
X647957Y613421D01*
X558882D01*
X557821Y614130D01*
X556260Y614440D01*
X554699Y614130D01*
X553376Y613246D01*
X552492Y611923D01*
X552182Y610362D01*
X552492Y608801D01*
X553376Y607478D01*
X554699Y606594D01*
X556260Y606284D01*
X557634Y606557D01*
X558106Y606128D01*
X558474Y605528D01*
X558334Y605319D01*
X558024Y603758D01*
X558334Y602197D01*
X559218Y600874D01*
X560541Y599990D01*
X562102Y599680D01*
X563663Y599990D01*
X564724Y600699D01*
X718910D01*
X718910Y600699D01*
X720080Y600932D01*
X721073Y601595D01*
X767167Y647689D01*
X851616D01*
X852334Y645957D01*
X853857Y643972D01*
X855841Y642450D01*
X858152Y641492D01*
X860632Y641166D01*
X870632D01*
X873112Y641492D01*
X875423Y642450D01*
X877408Y643972D01*
X878930Y645957D01*
X879887Y648268D01*
X880214Y650748D01*
X879887Y653228D01*
X878930Y655539D01*
X877408Y657523D01*
X875423Y659046D01*
X873112Y660004D01*
X870632Y660330D01*
X860632D01*
X858152Y660004D01*
X855841Y659046D01*
X853857Y657523D01*
X852334Y655539D01*
X851616Y653807D01*
X765900D01*
X764730Y653574D01*
X763737Y652911D01*
X717643Y606817D01*
X651604D01*
X651219Y608087D01*
X651387Y608199D01*
X716277Y673089D01*
X851616D01*
X852334Y671357D01*
X853857Y669372D01*
X855841Y667850D01*
X858152Y666892D01*
X860632Y666566D01*
X870632D01*
X873112Y666892D01*
X875423Y667850D01*
X877408Y669372D01*
X878930Y671357D01*
X879887Y673668D01*
X880214Y676148D01*
X879887Y678628D01*
X878930Y680939D01*
X877408Y682923D01*
X875423Y684446D01*
X873112Y685404D01*
X870632Y685730D01*
D02*
G37*
G36*
X379476Y848254D02*
X377127Y847944D01*
X374937Y847038D01*
X373057Y845595D01*
X371614Y843715D01*
X370708Y841525D01*
X370398Y839176D01*
Y834176D01*
X370708Y831826D01*
X371614Y829637D01*
X373057Y827757D01*
X374937Y826314D01*
X376417Y825702D01*
Y767334D01*
X376417Y767334D01*
X376650Y766163D01*
X377313Y765171D01*
X386917Y755567D01*
Y642671D01*
X385647Y642285D01*
X384015Y643538D01*
X381825Y644444D01*
X380226Y644655D01*
Y633176D01*
Y621697D01*
X381825Y621908D01*
X384015Y622814D01*
X385561Y624001D01*
X386831Y623532D01*
Y479380D01*
X386122Y478319D01*
X385812Y476758D01*
X386122Y475197D01*
X387006Y473874D01*
X388329Y472990D01*
X389890Y472680D01*
X391451Y472990D01*
X392774Y473874D01*
X393658Y475197D01*
X393968Y476758D01*
X393658Y478319D01*
X392949Y479380D01*
Y625894D01*
X393035Y626327D01*
X393035Y626327D01*
Y756834D01*
X392802Y758005D01*
X392139Y758997D01*
X382535Y768601D01*
Y825702D01*
X384015Y826314D01*
X385895Y827757D01*
X387337Y829637D01*
X388244Y831826D01*
X388554Y834176D01*
Y839176D01*
X388244Y841525D01*
X387337Y843715D01*
X385895Y845595D01*
X384015Y847038D01*
X381825Y847944D01*
X379476Y848254D01*
D02*
G37*
G36*
X354076D02*
X351726Y847944D01*
X349537Y847038D01*
X347657Y845595D01*
X346214Y843715D01*
X345308Y841525D01*
X344998Y839176D01*
Y834176D01*
X345308Y831826D01*
X346214Y829637D01*
X347657Y827757D01*
X349537Y826314D01*
X351726Y825408D01*
X354076Y825098D01*
X356426Y825408D01*
X357906Y826021D01*
X361517Y822409D01*
Y642671D01*
X360247Y642285D01*
X358615Y643538D01*
X356426Y644444D01*
X354076Y644754D01*
X351726Y644444D01*
X349537Y643538D01*
X347657Y642095D01*
X346214Y640215D01*
X345451Y638371D01*
X344181Y638624D01*
Y783844D01*
X344181Y783844D01*
X343948Y785014D01*
X343285Y786007D01*
X343285Y786007D01*
X338027Y791265D01*
X337778Y792517D01*
X336894Y793840D01*
X335571Y794724D01*
X334010Y795034D01*
X332449Y794724D01*
X331126Y793840D01*
X330242Y792517D01*
X329932Y790956D01*
X330242Y789395D01*
X331126Y788072D01*
X332449Y787188D01*
X333701Y786939D01*
X338063Y782577D01*
Y639850D01*
X336793Y639597D01*
X336538Y640215D01*
X335095Y642095D01*
X333215Y643538D01*
X331026Y644444D01*
X328676Y644754D01*
X326326Y644444D01*
X324137Y643538D01*
X322257Y642095D01*
X320815Y640215D01*
X319908Y638026D01*
X319598Y635676D01*
Y630676D01*
X319908Y628326D01*
X320815Y626137D01*
X322257Y624257D01*
X324137Y622814D01*
X325617Y622201D01*
Y330705D01*
X303882Y308970D01*
X303219Y307978D01*
X302986Y306807D01*
X302986Y306807D01*
Y174047D01*
X302277Y172986D01*
X301967Y171425D01*
X302277Y169864D01*
X303161Y168541D01*
X304484Y167657D01*
X306045Y167347D01*
X307606Y167657D01*
X308929Y168541D01*
X309813Y169864D01*
X310124Y171425D01*
X309813Y172986D01*
X309104Y174047D01*
Y305540D01*
X330839Y327275D01*
X330839Y327275D01*
X331502Y328268D01*
X331735Y329438D01*
X331735Y329438D01*
Y622201D01*
X333215Y622814D01*
X335095Y624257D01*
X336538Y626137D01*
X336793Y626755D01*
X338063Y626502D01*
Y289814D01*
X338063Y289814D01*
X338296Y288643D01*
X338959Y287651D01*
X371395Y255215D01*
X371644Y253963D01*
X372528Y252640D01*
X373851Y251756D01*
X375412Y251446D01*
X376973Y251756D01*
X378296Y252640D01*
X379180Y253963D01*
X379490Y255524D01*
X379180Y257085D01*
X378296Y258408D01*
X376973Y259292D01*
X375721Y259541D01*
X344181Y291081D01*
Y627729D01*
X345451Y627981D01*
X346214Y626137D01*
X347657Y624257D01*
X349537Y622814D01*
X351726Y621908D01*
X354076Y621598D01*
X356426Y621908D01*
X358615Y622814D01*
X360247Y624067D01*
X361517Y623681D01*
Y376797D01*
X360808Y375736D01*
X360498Y374175D01*
X360808Y372615D01*
X361692Y371291D01*
X363015Y370407D01*
X364576Y370097D01*
X366137Y370407D01*
X367460Y371291D01*
X368344Y372615D01*
X368654Y374175D01*
X368344Y375736D01*
X367635Y376797D01*
Y823676D01*
X367402Y824846D01*
X366739Y825839D01*
X362231Y830347D01*
X362844Y831826D01*
X363154Y834176D01*
Y839176D01*
X362844Y841525D01*
X361937Y843715D01*
X360495Y845595D01*
X358615Y847038D01*
X356426Y847944D01*
X354076Y848254D01*
D02*
G37*
G36*
X404876D02*
X402527Y847944D01*
X400337Y847038D01*
X398457Y845595D01*
X397015Y843715D01*
X396108Y841525D01*
X395798Y839176D01*
Y834176D01*
X396108Y831826D01*
X397015Y829637D01*
X398457Y827757D01*
X400337Y826314D01*
X402527Y825408D01*
X404876Y825098D01*
X407225Y825408D01*
X408705Y826021D01*
X412342Y822384D01*
Y642627D01*
X411072Y642266D01*
X409415Y643538D01*
X407225Y644444D01*
X404876Y644754D01*
X402527Y644444D01*
X400337Y643538D01*
X398457Y642095D01*
X397015Y640215D01*
X396108Y638026D01*
X395798Y635676D01*
Y630676D01*
X396108Y628326D01*
X397015Y626137D01*
X398457Y624257D01*
X400337Y622814D01*
X401817Y622201D01*
Y561140D01*
X400404D01*
Y552140D01*
X412904D01*
Y561140D01*
X407935D01*
Y622201D01*
X409415Y622814D01*
X411072Y624086D01*
X412342Y623725D01*
Y576977D01*
X412342Y576977D01*
X412575Y575806D01*
X413238Y574814D01*
X418073Y569979D01*
Y410800D01*
X417364Y409739D01*
X417054Y408178D01*
X417364Y406617D01*
X418248Y405294D01*
X419571Y404410D01*
X421132Y404100D01*
X422693Y404410D01*
X424016Y405294D01*
X424900Y406617D01*
X425210Y408178D01*
X424900Y409739D01*
X424191Y410800D01*
Y571246D01*
X423958Y572416D01*
X423295Y573409D01*
X418460Y578244D01*
Y823651D01*
X418460Y823651D01*
X418227Y824821D01*
X417564Y825814D01*
X417564Y825814D01*
X413031Y830347D01*
X413644Y831826D01*
X413954Y834176D01*
Y839176D01*
X413644Y841525D01*
X412738Y843715D01*
X411295Y845595D01*
X409415Y847038D01*
X407225Y847944D01*
X404876Y848254D01*
D02*
G37*
G36*
X328676D02*
X326326Y847944D01*
X324137Y847038D01*
X322257Y845595D01*
X320815Y843715D01*
X319908Y841525D01*
X319598Y839176D01*
Y834176D01*
X319908Y831826D01*
X320521Y830347D01*
X312035Y821861D01*
X311372Y820869D01*
X311139Y819698D01*
X311139Y819698D01*
Y642299D01*
X309869Y641868D01*
X309695Y642095D01*
X307815Y643538D01*
X305625Y644444D01*
X303276Y644754D01*
X300926Y644444D01*
X298737Y643538D01*
X296857Y642095D01*
X295667Y640544D01*
X294397Y640950D01*
Y720673D01*
X305439Y731715D01*
X305439Y731715D01*
X306102Y732707D01*
X306335Y733878D01*
Y825702D01*
X307815Y826314D01*
X309695Y827757D01*
X311138Y829637D01*
X312044Y831826D01*
X312354Y834176D01*
Y839176D01*
X312044Y841525D01*
X311138Y843715D01*
X309695Y845595D01*
X307815Y847038D01*
X305625Y847944D01*
X303276Y848254D01*
X300926Y847944D01*
X298737Y847038D01*
X296857Y845595D01*
X295415Y843715D01*
X294508Y841525D01*
X294198Y839176D01*
Y834176D01*
X294508Y831826D01*
X295415Y829637D01*
X296857Y827757D01*
X298737Y826314D01*
X300217Y825702D01*
Y735145D01*
X289175Y724103D01*
X288512Y723110D01*
X288279Y721940D01*
X288279Y721940D01*
Y554413D01*
X287748Y553619D01*
X287515Y552448D01*
X287515Y552448D01*
Y294736D01*
X286806Y293675D01*
X286496Y292114D01*
X286806Y290553D01*
X287690Y289230D01*
X289013Y288346D01*
X290574Y288036D01*
X291745Y288269D01*
X293015Y287523D01*
Y190525D01*
X292306Y189464D01*
X291996Y187903D01*
X292306Y186343D01*
X293190Y185019D01*
X294513Y184135D01*
X296074Y183825D01*
X297635Y184135D01*
X298958Y185019D01*
X299842Y186343D01*
X300152Y187903D01*
X299842Y189464D01*
X299133Y190525D01*
Y418060D01*
X305439Y424366D01*
X305439Y424366D01*
X306102Y425358D01*
X306335Y426529D01*
Y622201D01*
X307815Y622814D01*
X309695Y624257D01*
X309869Y624484D01*
X311139Y624053D01*
Y346920D01*
X310684Y346239D01*
X310374Y344678D01*
X310684Y343117D01*
X311568Y341794D01*
X312891Y340910D01*
X314452Y340600D01*
X316013Y340910D01*
X317336Y341794D01*
X318220Y343117D01*
X318530Y344678D01*
X318220Y346239D01*
X317336Y347562D01*
X317257Y347615D01*
Y818431D01*
X324846Y826021D01*
X326326Y825408D01*
X328676Y825098D01*
X331026Y825408D01*
X333215Y826314D01*
X335095Y827757D01*
X336538Y829637D01*
X337444Y831826D01*
X337754Y834176D01*
Y839176D01*
X337444Y841525D01*
X336538Y843715D01*
X335095Y845595D01*
X333215Y847038D01*
X331026Y847944D01*
X328676Y848254D01*
D02*
G37*
G36*
X378726Y644655D02*
X377127Y644444D01*
X374937Y643538D01*
X373057Y642095D01*
X371614Y640215D01*
X370708Y638026D01*
X370398Y635676D01*
Y633926D01*
X378726D01*
Y644655D01*
D02*
G37*
G36*
Y632426D02*
X370398D01*
Y630676D01*
X370708Y628326D01*
X371614Y626137D01*
X373057Y624257D01*
X374937Y622814D01*
X377127Y621908D01*
X378726Y621697D01*
Y632426D01*
D02*
G37*
G36*
X455676Y644754D02*
X453326Y644444D01*
X451137Y643538D01*
X449257Y642095D01*
X447814Y640215D01*
X446908Y638026D01*
X446598Y635676D01*
Y630676D01*
X446908Y628326D01*
X447814Y626137D01*
X449257Y624257D01*
X451137Y622814D01*
X453326Y621908D01*
X455676Y621598D01*
X458026Y621908D01*
X460215Y622814D01*
X462095Y624257D01*
X463537Y626137D01*
X464444Y628326D01*
X464754Y630676D01*
Y635676D01*
X464444Y638026D01*
X463537Y640215D01*
X462095Y642095D01*
X460215Y643538D01*
X458026Y644444D01*
X455676Y644754D01*
D02*
G37*
G36*
X125476D02*
X123126Y644444D01*
X120937Y643538D01*
X119057Y642095D01*
X117614Y640215D01*
X116708Y638026D01*
X116398Y635676D01*
Y630676D01*
X116708Y628326D01*
X117614Y626137D01*
X119057Y624257D01*
X120937Y622814D01*
X123126Y621908D01*
X125476Y621598D01*
X127825Y621908D01*
X130015Y622814D01*
X131895Y624257D01*
X133337Y626137D01*
X134244Y628326D01*
X134554Y630676D01*
Y635676D01*
X134244Y638026D01*
X133337Y640215D01*
X131895Y642095D01*
X130015Y643538D01*
X127825Y644444D01*
X125476Y644754D01*
D02*
G37*
G36*
X430276D02*
X427926Y644444D01*
X425737Y643538D01*
X423857Y642095D01*
X422415Y640215D01*
X421508Y638026D01*
X421198Y635676D01*
Y630676D01*
X421508Y628326D01*
X422415Y626137D01*
X423857Y624257D01*
X425737Y622814D01*
X426198Y622624D01*
Y556922D01*
X426198Y556922D01*
X426312Y556347D01*
Y551886D01*
X438812D01*
Y560886D01*
X434354D01*
Y622624D01*
X434815Y622814D01*
X436695Y624257D01*
X438138Y626137D01*
X439044Y628326D01*
X439354Y630676D01*
Y635676D01*
X439044Y638026D01*
X438138Y640215D01*
X436695Y642095D01*
X434815Y643538D01*
X432626Y644444D01*
X430276Y644754D01*
D02*
G37*
G36*
X56902Y544460D02*
X52744Y544133D01*
X48688Y543159D01*
X44834Y541563D01*
X41277Y539383D01*
X38106Y536674D01*
X35397Y533503D01*
X33217Y529946D01*
X31621Y526092D01*
X30647Y522036D01*
X30320Y517878D01*
X30647Y513720D01*
X31621Y509664D01*
X33217Y505810D01*
X35397Y502253D01*
X38106Y499082D01*
X41277Y496373D01*
X44834Y494193D01*
X48688Y492597D01*
X52744Y491623D01*
X56902Y491296D01*
X61060Y491623D01*
X65116Y492597D01*
X68970Y494193D01*
X72526Y496373D01*
X75698Y499082D01*
X78407Y502253D01*
X80587Y505810D01*
X82183Y509664D01*
X83157Y513720D01*
X83484Y517878D01*
X83157Y522036D01*
X82183Y526092D01*
X80587Y529946D01*
X78407Y533503D01*
X75698Y536674D01*
X72526Y539383D01*
X68970Y541563D01*
X65116Y543159D01*
X61060Y544133D01*
X56902Y544460D01*
D02*
G37*
G36*
X670902Y542860D02*
X666744Y542533D01*
X662688Y541559D01*
X658834Y539963D01*
X655277Y537783D01*
X652106Y535074D01*
X649397Y531903D01*
X647217Y528346D01*
X645621Y524492D01*
X644647Y520436D01*
X644320Y516278D01*
X644647Y512120D01*
X645621Y508064D01*
X647217Y504210D01*
X649397Y500653D01*
X652106Y497482D01*
X655277Y494773D01*
X658834Y492593D01*
X662688Y490997D01*
X666744Y490023D01*
X670902Y489696D01*
X675060Y490023D01*
X679116Y490997D01*
X682970Y492593D01*
X686526Y494773D01*
X689698Y497482D01*
X692407Y500653D01*
X694587Y504210D01*
X696183Y508064D01*
X697157Y512120D01*
X697484Y516278D01*
X697157Y520436D01*
X696183Y524492D01*
X694587Y528346D01*
X692407Y531903D01*
X689698Y535074D01*
X686526Y537783D01*
X682970Y539963D01*
X679116Y541559D01*
X675060Y542533D01*
X670902Y542860D01*
D02*
G37*
G36*
X412904Y545140D02*
X400404D01*
Y536140D01*
X400547D01*
Y452202D01*
X399838Y451141D01*
X399528Y449580D01*
X399838Y448019D01*
X400722Y446696D01*
X402045Y445812D01*
X403606Y445502D01*
X405167Y445812D01*
X406490Y446696D01*
X407374Y448019D01*
X407684Y449580D01*
X407374Y451141D01*
X406665Y452202D01*
Y536140D01*
X412904D01*
Y545140D01*
D02*
G37*
G36*
X46402Y455860D02*
X36402D01*
X33922Y455533D01*
X31611Y454576D01*
X29627Y453053D01*
X28104Y451069D01*
X27146Y448758D01*
X26820Y446278D01*
X27146Y443798D01*
X28104Y441487D01*
X29627Y439502D01*
X31611Y437980D01*
X33922Y437023D01*
X36402Y436696D01*
X46402D01*
X48882Y437023D01*
X51193Y437980D01*
X53177Y439502D01*
X54700Y441487D01*
X55658Y443798D01*
X55984Y446278D01*
X55658Y448758D01*
X54700Y451069D01*
X53177Y453053D01*
X51193Y454576D01*
X48882Y455533D01*
X46402Y455860D01*
D02*
G37*
G36*
Y430860D02*
X42152D01*
Y422028D01*
X55885D01*
X55658Y423758D01*
X54700Y426069D01*
X53177Y428053D01*
X51193Y429576D01*
X48882Y430533D01*
X46402Y430860D01*
D02*
G37*
G36*
X40652D02*
X36402D01*
X33922Y430533D01*
X31611Y429576D01*
X29627Y428053D01*
X28104Y426069D01*
X27146Y423758D01*
X26919Y422028D01*
X40652D01*
Y430860D01*
D02*
G37*
G36*
X55885Y420528D02*
X42152D01*
Y411696D01*
X46402D01*
X48882Y412023D01*
X51193Y412980D01*
X53177Y414502D01*
X54700Y416487D01*
X55658Y418798D01*
X55885Y420528D01*
D02*
G37*
G36*
X40652D02*
X26919D01*
X27146Y418798D01*
X28104Y416487D01*
X29627Y414502D01*
X31611Y412980D01*
X33922Y412023D01*
X36402Y411696D01*
X40652D01*
Y420528D01*
D02*
G37*
G36*
X150876Y644754D02*
X148526Y644444D01*
X146337Y643538D01*
X144457Y642095D01*
X143014Y640215D01*
X142108Y638026D01*
X141798Y635676D01*
Y630676D01*
X142108Y628326D01*
X143014Y626137D01*
X144457Y624257D01*
X146337Y622814D01*
X147370Y622387D01*
Y403292D01*
X147162Y403153D01*
X146278Y401830D01*
X145968Y400269D01*
X146278Y398708D01*
X147162Y397385D01*
X148485Y396501D01*
X150046Y396191D01*
X151607Y396501D01*
X152930Y397385D01*
X153814Y398708D01*
X154124Y400269D01*
X153814Y401830D01*
X153487Y402318D01*
Y622016D01*
X155415Y622814D01*
X157295Y624257D01*
X158737Y626137D01*
X159644Y628326D01*
X159954Y630676D01*
Y635676D01*
X159644Y638026D01*
X158737Y640215D01*
X157295Y642095D01*
X155415Y643538D01*
X153225Y644444D01*
X150876Y644754D01*
D02*
G37*
G36*
X46402Y405060D02*
X36402D01*
X33922Y404734D01*
X31611Y403776D01*
X29627Y402253D01*
X28104Y400269D01*
X27146Y397958D01*
X26820Y395478D01*
X27146Y392998D01*
X28104Y390687D01*
X29627Y388703D01*
X31611Y387180D01*
X33922Y386222D01*
X36402Y385896D01*
X46402D01*
X48882Y386222D01*
X51193Y387180D01*
X53177Y388703D01*
X54700Y390687D01*
X55658Y392998D01*
X55984Y395478D01*
X55658Y397958D01*
X54700Y400269D01*
X53177Y402253D01*
X51193Y403776D01*
X48882Y404734D01*
X46402Y405060D01*
D02*
G37*
G36*
Y379660D02*
X36402D01*
X33922Y379333D01*
X31611Y378376D01*
X29627Y376853D01*
X28104Y374869D01*
X27146Y372558D01*
X26820Y370078D01*
X27146Y367598D01*
X28104Y365287D01*
X29627Y363303D01*
X31611Y361780D01*
X33922Y360822D01*
X36402Y360496D01*
X46402D01*
X48882Y360822D01*
X51193Y361780D01*
X53177Y363303D01*
X54700Y365287D01*
X55658Y367598D01*
X55984Y370078D01*
X55658Y372558D01*
X54700Y374869D01*
X53177Y376853D01*
X51193Y378376D01*
X48882Y379333D01*
X46402Y379660D01*
D02*
G37*
G36*
Y354260D02*
X36402D01*
X33922Y353933D01*
X31611Y352976D01*
X29627Y351453D01*
X28104Y349469D01*
X27146Y347158D01*
X26820Y344678D01*
X27146Y342198D01*
X28104Y339887D01*
X29627Y337903D01*
X31611Y336380D01*
X33922Y335423D01*
X36402Y335096D01*
X46402D01*
X48882Y335423D01*
X51193Y336380D01*
X53177Y337903D01*
X54700Y339887D01*
X55658Y342198D01*
X55984Y344678D01*
X55658Y347158D01*
X54700Y349469D01*
X53177Y351453D01*
X51193Y352976D01*
X48882Y353933D01*
X46402Y354260D01*
D02*
G37*
G36*
X176276Y644754D02*
X173927Y644444D01*
X171737Y643538D01*
X169857Y642095D01*
X168414Y640215D01*
X167508Y638026D01*
X167198Y635676D01*
Y630676D01*
X167508Y628326D01*
X168414Y626137D01*
X169857Y624257D01*
X171737Y622814D01*
X173217Y622201D01*
Y597490D01*
X172508Y596429D01*
X172198Y594868D01*
X172508Y593307D01*
X173217Y592246D01*
Y338579D01*
X160727Y326089D01*
X159475Y325840D01*
X158152Y324956D01*
X157268Y323633D01*
X156958Y322072D01*
X157268Y320511D01*
X158152Y319188D01*
X159475Y318304D01*
X161036Y317994D01*
X162597Y318304D01*
X163920Y319188D01*
X164804Y320511D01*
X165053Y321763D01*
X178439Y335149D01*
X179102Y336142D01*
X179335Y337312D01*
Y592246D01*
X180044Y593307D01*
X180354Y594868D01*
X180044Y596429D01*
X179335Y597490D01*
Y622201D01*
X180815Y622814D01*
X182695Y624257D01*
X184137Y626137D01*
X185044Y628326D01*
X185354Y630676D01*
Y635676D01*
X185044Y638026D01*
X184137Y640215D01*
X182695Y642095D01*
X180815Y643538D01*
X178626Y644444D01*
X176276Y644754D01*
D02*
G37*
G36*
X46402Y328860D02*
X36402D01*
X33922Y328534D01*
X31611Y327576D01*
X29627Y326053D01*
X28104Y324069D01*
X27146Y321758D01*
X26820Y319278D01*
X27146Y316798D01*
X28104Y314487D01*
X29627Y312502D01*
X31611Y310980D01*
X33922Y310023D01*
X36402Y309696D01*
X46402D01*
X48882Y310023D01*
X51193Y310980D01*
X53177Y312502D01*
X54700Y314487D01*
X55658Y316798D01*
X55984Y319278D01*
X55658Y321758D01*
X54700Y324069D01*
X53177Y326053D01*
X51193Y327576D01*
X48882Y328534D01*
X46402Y328860D01*
D02*
G37*
G36*
Y303860D02*
X36402D01*
X33922Y303533D01*
X31611Y302576D01*
X29627Y301053D01*
X28104Y299069D01*
X27146Y296758D01*
X26820Y294278D01*
X27146Y291798D01*
X28104Y289487D01*
X29627Y287502D01*
X31611Y285980D01*
X33922Y285023D01*
X36402Y284696D01*
X46402D01*
X48882Y285023D01*
X51193Y285980D01*
X53177Y287502D01*
X54700Y289487D01*
X55658Y291798D01*
X55984Y294278D01*
X55658Y296758D01*
X54700Y299069D01*
X53177Y301053D01*
X51193Y302576D01*
X48882Y303533D01*
X46402Y303860D01*
D02*
G37*
G36*
Y278060D02*
X36402D01*
X33922Y277733D01*
X31611Y276776D01*
X29627Y275254D01*
X28104Y273269D01*
X27146Y270958D01*
X26820Y268478D01*
X27146Y265998D01*
X28104Y263687D01*
X29627Y261702D01*
X31611Y260180D01*
X33922Y259223D01*
X36402Y258896D01*
X46402D01*
X48882Y259223D01*
X51193Y260180D01*
X53177Y261702D01*
X54700Y263687D01*
X55658Y265998D01*
X55984Y268478D01*
X55658Y270958D01*
X54700Y273269D01*
X53177Y275254D01*
X51193Y276776D01*
X48882Y277733D01*
X46402Y278060D01*
D02*
G37*
G36*
X823976Y281233D02*
X820974Y280838D01*
X818176Y279679D01*
X815774Y277836D01*
X813931Y275434D01*
X812772Y272636D01*
X812377Y269634D01*
X812772Y266632D01*
X813931Y263834D01*
X815774Y261432D01*
X818176Y259589D01*
X820974Y258430D01*
X823976Y258035D01*
X826978Y258430D01*
X829776Y259589D01*
X832178Y261432D01*
X834021Y263834D01*
X835180Y266632D01*
X835575Y269634D01*
X835180Y272636D01*
X834021Y275434D01*
X832178Y277836D01*
X829776Y279679D01*
X826978Y280838D01*
X823976Y281233D01*
D02*
G37*
G36*
X343074Y259518D02*
X338824D01*
Y250686D01*
X352557D01*
X352329Y252416D01*
X351372Y254727D01*
X349850Y256711D01*
X347865Y258234D01*
X345554Y259191D01*
X343074Y259518D01*
D02*
G37*
G36*
X337324D02*
X333074D01*
X330594Y259191D01*
X328283Y258234D01*
X326298Y256711D01*
X324776Y254727D01*
X323819Y252416D01*
X323591Y250686D01*
X337324D01*
Y259518D01*
D02*
G37*
G36*
X352557Y249186D02*
X338824D01*
Y240354D01*
X343074D01*
X345554Y240681D01*
X347865Y241638D01*
X349850Y243160D01*
X351372Y245145D01*
X352329Y247456D01*
X352557Y249186D01*
D02*
G37*
G36*
X337324D02*
X323591D01*
X323819Y247456D01*
X324776Y245145D01*
X326298Y243160D01*
X328283Y241638D01*
X330594Y240681D01*
X333074Y240354D01*
X337324D01*
Y249186D01*
D02*
G37*
G36*
X833976Y249199D02*
X832018Y248941D01*
X830194Y248185D01*
X828627Y246983D01*
X827425Y245416D01*
X826669Y243592D01*
X826411Y241634D01*
X826669Y239676D01*
X827425Y237852D01*
X828627Y236285D01*
X830194Y235083D01*
X832018Y234327D01*
X833976Y234069D01*
X835934Y234327D01*
X837758Y235083D01*
X839325Y236285D01*
X840527Y237852D01*
X841283Y239676D01*
X841541Y241634D01*
X841283Y243592D01*
X840527Y245416D01*
X839325Y246983D01*
X837758Y248185D01*
X835934Y248941D01*
X833976Y249199D01*
D02*
G37*
G36*
X813976D02*
X812018Y248941D01*
X810194Y248185D01*
X808627Y246983D01*
X807425Y245416D01*
X806669Y243592D01*
X806411Y241634D01*
X806669Y239676D01*
X807425Y237852D01*
X808627Y236285D01*
X810194Y235083D01*
X812018Y234327D01*
X813976Y234069D01*
X815934Y234327D01*
X817758Y235083D01*
X819325Y236285D01*
X820527Y237852D01*
X821283Y239676D01*
X821541Y241634D01*
X821283Y243592D01*
X820527Y245416D01*
X819325Y246983D01*
X817758Y248185D01*
X815934Y248941D01*
X813976Y249199D01*
D02*
G37*
G36*
X46402Y252660D02*
X36402D01*
X33922Y252334D01*
X31611Y251376D01*
X29627Y249853D01*
X28104Y247869D01*
X27146Y245558D01*
X26820Y243078D01*
X27146Y240598D01*
X28104Y238287D01*
X29627Y236303D01*
X31611Y234780D01*
X33922Y233822D01*
X36402Y233496D01*
X46402D01*
X48882Y233822D01*
X51193Y234780D01*
X53177Y236303D01*
X54700Y238287D01*
X55658Y240598D01*
X55984Y243078D01*
X55658Y245558D01*
X54700Y247869D01*
X53177Y249853D01*
X51193Y251376D01*
X48882Y252334D01*
X46402Y252660D01*
D02*
G37*
G36*
X438812Y544886D02*
X426312D01*
Y535886D01*
X429503D01*
Y228600D01*
X429503Y228600D01*
X429736Y227430D01*
X430312Y226567D01*
X430572Y225261D01*
X431456Y223938D01*
X432779Y223054D01*
X434340Y222744D01*
X435901Y223054D01*
X437224Y223938D01*
X438108Y225261D01*
X438418Y226822D01*
X438108Y228383D01*
X437224Y229706D01*
X435901Y230590D01*
X435621Y230646D01*
Y535886D01*
X438812D01*
Y544886D01*
D02*
G37*
G36*
X739513Y550066D02*
X737952Y549756D01*
X736629Y548872D01*
X735745Y547549D01*
X735496Y546297D01*
X706497Y517298D01*
X705834Y516306D01*
X705601Y515135D01*
X705601Y515135D01*
Y228682D01*
X704892Y227621D01*
X704582Y226060D01*
X704892Y224499D01*
X705776Y223176D01*
X707099Y222292D01*
X708660Y221982D01*
X710221Y222292D01*
X711544Y223176D01*
X712428Y224499D01*
X712738Y226060D01*
X712428Y227621D01*
X711719Y228682D01*
Y513868D01*
X739821Y541971D01*
X741073Y542220D01*
X742396Y543104D01*
X743280Y544427D01*
X743591Y545988D01*
X743280Y547549D01*
X742396Y548872D01*
X741073Y549756D01*
X739513Y550066D01*
D02*
G37*
G36*
X343074Y234518D02*
X333074D01*
X330594Y234191D01*
X328283Y233234D01*
X326298Y231711D01*
X324776Y229727D01*
X323819Y227416D01*
X323492Y224936D01*
X323819Y222456D01*
X324776Y220145D01*
X326298Y218160D01*
X328283Y216638D01*
X330594Y215681D01*
X333074Y215354D01*
X343074D01*
X345554Y215681D01*
X347865Y216638D01*
X349850Y218160D01*
X351372Y220145D01*
X352329Y222456D01*
X352656Y224936D01*
X352329Y227416D01*
X351372Y229727D01*
X349850Y231711D01*
X347865Y233234D01*
X345554Y234191D01*
X343074Y234518D01*
D02*
G37*
G36*
X833976Y229199D02*
X832018Y228941D01*
X830194Y228185D01*
X828627Y226983D01*
X827425Y225416D01*
X826669Y223592D01*
X826411Y221634D01*
X826669Y219676D01*
X827425Y217852D01*
X828627Y216285D01*
X830194Y215083D01*
X832018Y214327D01*
X833976Y214069D01*
X835934Y214327D01*
X837758Y215083D01*
X839325Y216285D01*
X840527Y217852D01*
X841283Y219676D01*
X841541Y221634D01*
X841283Y223592D01*
X840527Y225416D01*
X839325Y226983D01*
X837758Y228185D01*
X835934Y228941D01*
X833976Y229199D01*
D02*
G37*
G36*
X813976D02*
X812018Y228941D01*
X810194Y228185D01*
X808627Y226983D01*
X807425Y225416D01*
X806669Y223592D01*
X806411Y221634D01*
X806669Y219676D01*
X807425Y217852D01*
X808627Y216285D01*
X810194Y215083D01*
X812018Y214327D01*
X813976Y214069D01*
X815934Y214327D01*
X817758Y215083D01*
X819325Y216285D01*
X820527Y217852D01*
X821283Y219676D01*
X821541Y221634D01*
X821283Y223592D01*
X820527Y225416D01*
X819325Y226983D01*
X817758Y228185D01*
X815934Y228941D01*
X813976Y229199D01*
D02*
G37*
G36*
X814726Y209100D02*
Y202384D01*
X821442D01*
X821283Y203592D01*
X820527Y205416D01*
X819325Y206983D01*
X817758Y208185D01*
X815934Y208941D01*
X814726Y209100D01*
D02*
G37*
G36*
X813226Y209100D02*
X812018Y208941D01*
X810194Y208185D01*
X808627Y206983D01*
X807425Y205416D01*
X806669Y203592D01*
X806510Y202384D01*
X813226D01*
Y209100D01*
D02*
G37*
G36*
X127618Y447816D02*
X126057Y447506D01*
X124734Y446622D01*
X123850Y445299D01*
X123540Y443738D01*
X123850Y442177D01*
X124559Y441116D01*
Y250710D01*
X124559Y250710D01*
X124792Y249540D01*
X125455Y248547D01*
X127375Y246627D01*
X127624Y245375D01*
X128333Y244314D01*
Y200292D01*
X127063Y200167D01*
X126958Y200697D01*
X126074Y202020D01*
X124751Y202904D01*
X123190Y203214D01*
X121629Y202904D01*
X120306Y202020D01*
X120306Y202020D01*
X113268Y194982D01*
X112384Y193659D01*
X112074Y192098D01*
X112074Y192098D01*
Y180608D01*
X110804Y180223D01*
X110326Y180938D01*
X109003Y181822D01*
X107442Y182132D01*
X105881Y181822D01*
X104558Y180938D01*
X103674Y179615D01*
X103425Y178363D01*
X40255Y115193D01*
X39592Y114200D01*
X39359Y113030D01*
X39359Y113030D01*
Y46451D01*
X37872Y46255D01*
X35561Y45298D01*
X33577Y43776D01*
X32054Y41791D01*
X31097Y39480D01*
X30770Y37000D01*
Y27000D01*
X31097Y24520D01*
X32054Y22209D01*
X33577Y20224D01*
X35561Y18702D01*
X37872Y17744D01*
X40352Y17418D01*
X42832Y17744D01*
X45143Y18702D01*
X47127Y20224D01*
X48650Y22209D01*
X49608Y24520D01*
X49934Y27000D01*
Y37000D01*
X49608Y39480D01*
X48650Y41791D01*
X47127Y43776D01*
X45477Y45042D01*
Y111763D01*
X100360Y166647D01*
X101388Y165899D01*
X101139Y164647D01*
X63589Y127097D01*
X62926Y126104D01*
X62693Y124934D01*
X62693Y124934D01*
Y46016D01*
X60961Y45298D01*
X58977Y43776D01*
X57454Y41791D01*
X56497Y39480D01*
X56170Y37000D01*
Y27000D01*
X56497Y24520D01*
X57454Y22209D01*
X58977Y20224D01*
X60961Y18702D01*
X63272Y17744D01*
X65752Y17418D01*
X68232Y17744D01*
X70543Y18702D01*
X72527Y20224D01*
X74050Y22209D01*
X75008Y24520D01*
X75334Y27000D01*
Y37000D01*
X75008Y39480D01*
X74050Y41791D01*
X72527Y43776D01*
X70543Y45298D01*
X68811Y46016D01*
Y123667D01*
X105465Y160321D01*
X106717Y160570D01*
X108040Y161454D01*
X108924Y162777D01*
X109234Y164338D01*
X108924Y165899D01*
X108040Y167222D01*
X106717Y168106D01*
X105156Y168416D01*
X103595Y168106D01*
X102847Y169134D01*
X107751Y174037D01*
X109003Y174286D01*
X110326Y175170D01*
X110804Y175885D01*
X112074Y175500D01*
Y45593D01*
X111361Y45298D01*
X109377Y43776D01*
X107854Y41791D01*
X106897Y39480D01*
X106570Y37000D01*
Y27000D01*
X106897Y24520D01*
X107854Y22209D01*
X109377Y20224D01*
X111361Y18702D01*
X113672Y17744D01*
X116152Y17418D01*
X118632Y17744D01*
X120943Y18702D01*
X122928Y20224D01*
X124450Y22209D01*
X125407Y24520D01*
X125734Y27000D01*
Y37000D01*
X125407Y39480D01*
X124450Y41791D01*
X122928Y43776D01*
X120943Y45298D01*
X120230Y45593D01*
Y190409D01*
X126074Y196252D01*
X126074Y196252D01*
X126958Y197575D01*
X127063Y198105D01*
X128333Y197980D01*
Y48694D01*
X128333Y48694D01*
X128566Y47523D01*
X129229Y46531D01*
X161337Y14423D01*
X161586Y13171D01*
X162470Y11848D01*
X163793Y10964D01*
X165354Y10654D01*
X166915Y10964D01*
X168238Y11848D01*
X169122Y13171D01*
X169432Y14732D01*
X169122Y16293D01*
X168238Y17616D01*
X166915Y18500D01*
X165663Y18749D01*
X134451Y49961D01*
Y244314D01*
X135160Y245375D01*
X135470Y246936D01*
X135160Y248497D01*
X134276Y249820D01*
X132953Y250704D01*
X131701Y250953D01*
X130677Y251977D01*
Y441116D01*
X131386Y442177D01*
X131696Y443738D01*
X131386Y445299D01*
X130502Y446622D01*
X129179Y447506D01*
X127618Y447816D01*
D02*
G37*
G36*
X813226Y200884D02*
X806510D01*
X806669Y199676D01*
X807425Y197852D01*
X808627Y196285D01*
X810194Y195083D01*
X812018Y194327D01*
X813226Y194168D01*
Y200884D01*
D02*
G37*
G36*
X821442D02*
X814726D01*
Y194168D01*
X815934Y194327D01*
X817758Y195083D01*
X819325Y196285D01*
X820527Y197852D01*
X821283Y199676D01*
X821442Y200884D01*
D02*
G37*
G36*
X833976Y209199D02*
X832018Y208941D01*
X830194Y208185D01*
X828627Y206983D01*
X827425Y205416D01*
X826669Y203592D01*
X826411Y201634D01*
X826669Y199676D01*
X827425Y197852D01*
X828627Y196285D01*
X830194Y195083D01*
X832018Y194327D01*
X833976Y194069D01*
X835934Y194327D01*
X837758Y195083D01*
X839325Y196285D01*
X840527Y197852D01*
X841283Y199676D01*
X841541Y201634D01*
X841283Y203592D01*
X840527Y205416D01*
X839325Y206983D01*
X837758Y208185D01*
X835934Y208941D01*
X833976Y209199D01*
D02*
G37*
G36*
X343074Y208718D02*
X333074D01*
X330594Y208391D01*
X328283Y207434D01*
X326298Y205911D01*
X324776Y203927D01*
X323819Y201616D01*
X323492Y199136D01*
X323819Y196656D01*
X324776Y194345D01*
X326298Y192361D01*
X328283Y190838D01*
X330594Y189881D01*
X333074Y189554D01*
X343074D01*
X345554Y189881D01*
X347865Y190838D01*
X349850Y192361D01*
X351372Y194345D01*
X352329Y196656D01*
X352656Y199136D01*
X352329Y201616D01*
X351372Y203927D01*
X349850Y205911D01*
X347865Y207434D01*
X345554Y208391D01*
X343074Y208718D01*
D02*
G37*
G36*
Y183318D02*
X333074D01*
X330594Y182992D01*
X328283Y182034D01*
X326298Y180511D01*
X324776Y178527D01*
X323819Y176216D01*
X323492Y173736D01*
X323819Y171256D01*
X324776Y168945D01*
X326298Y166961D01*
X328283Y165438D01*
X330594Y164480D01*
X333074Y164154D01*
X343074D01*
X345554Y164480D01*
X347865Y165438D01*
X349850Y166961D01*
X351372Y168945D01*
X352329Y171256D01*
X352656Y173736D01*
X352329Y176216D01*
X351372Y178527D01*
X349850Y180511D01*
X347865Y182034D01*
X345554Y182992D01*
X343074Y183318D01*
D02*
G37*
G36*
X823976Y185233D02*
X820974Y184838D01*
X818176Y183679D01*
X815774Y181836D01*
X813931Y179434D01*
X812772Y176636D01*
X812377Y173634D01*
X812772Y170632D01*
X813931Y167834D01*
X815774Y165432D01*
X818176Y163589D01*
X820974Y162430D01*
X823976Y162035D01*
X826978Y162430D01*
X829776Y163589D01*
X832178Y165432D01*
X834021Y167834D01*
X835180Y170632D01*
X835575Y173634D01*
X835180Y176636D01*
X834021Y179434D01*
X832178Y181836D01*
X829776Y183679D01*
X826978Y184838D01*
X823976Y185233D01*
D02*
G37*
G36*
X671402Y199860D02*
X667244Y199533D01*
X663188Y198559D01*
X659334Y196963D01*
X655778Y194783D01*
X652606Y192074D01*
X649897Y188902D01*
X647717Y185346D01*
X646121Y181492D01*
X645147Y177436D01*
X644820Y173278D01*
X645147Y169120D01*
X646121Y165064D01*
X647717Y161210D01*
X649897Y157654D01*
X652606Y154482D01*
X655778Y151773D01*
X659334Y149593D01*
X663188Y147997D01*
X667244Y147023D01*
X671402Y146696D01*
X675560Y147023D01*
X679616Y147997D01*
X683470Y149593D01*
X687027Y151773D01*
X690198Y154482D01*
X692907Y157654D01*
X695087Y161210D01*
X696683Y165064D01*
X697657Y169120D01*
X697984Y173278D01*
X697657Y177436D01*
X696683Y181492D01*
X695087Y185346D01*
X692907Y188902D01*
X690198Y192074D01*
X687027Y194783D01*
X683470Y196963D01*
X679616Y198559D01*
X675560Y199533D01*
X671402Y199860D01*
D02*
G37*
G36*
X56902Y199760D02*
X52744Y199433D01*
X48688Y198459D01*
X44834Y196863D01*
X41277Y194683D01*
X38106Y191974D01*
X35397Y188803D01*
X33217Y185246D01*
X31621Y181392D01*
X30647Y177336D01*
X30320Y173178D01*
X30647Y169020D01*
X31621Y164964D01*
X33217Y161110D01*
X35397Y157554D01*
X38106Y154382D01*
X41277Y151673D01*
X44834Y149493D01*
X48688Y147897D01*
X52744Y146923D01*
X56902Y146596D01*
X61060Y146923D01*
X65116Y147897D01*
X68970Y149493D01*
X72526Y151673D01*
X75698Y154382D01*
X78407Y157554D01*
X80587Y161110D01*
X82183Y164964D01*
X83157Y169020D01*
X83484Y173178D01*
X83157Y177336D01*
X82183Y181392D01*
X80587Y185246D01*
X78407Y188803D01*
X75698Y191974D01*
X72526Y194683D01*
X68970Y196863D01*
X65116Y198459D01*
X61060Y199433D01*
X56902Y199760D01*
D02*
G37*
G36*
X251127Y46983D02*
Y33250D01*
X259959D01*
Y37500D01*
X259633Y39980D01*
X258675Y42291D01*
X257153Y44275D01*
X255168Y45798D01*
X252857Y46755D01*
X251127Y46983D01*
D02*
G37*
G36*
X249627D02*
X247897Y46755D01*
X245586Y45798D01*
X243602Y44275D01*
X242079Y42291D01*
X241122Y39980D01*
X240795Y37500D01*
Y33250D01*
X249627D01*
Y46983D01*
D02*
G37*
G36*
X363600Y46733D02*
Y33000D01*
X372432D01*
Y37250D01*
X372105Y39730D01*
X371148Y42041D01*
X369625Y44026D01*
X367641Y45548D01*
X365330Y46505D01*
X363600Y46733D01*
D02*
G37*
G36*
X362100D02*
X360370Y46505D01*
X358059Y45548D01*
X356074Y44026D01*
X354552Y42041D01*
X353595Y39730D01*
X353268Y37250D01*
Y33000D01*
X362100D01*
Y46733D01*
D02*
G37*
G36*
X845400D02*
Y33000D01*
X854232D01*
Y37250D01*
X853905Y39730D01*
X852948Y42041D01*
X851425Y44026D01*
X849441Y45548D01*
X847130Y46505D01*
X845400Y46733D01*
D02*
G37*
G36*
X843900Y46733D02*
X842170Y46505D01*
X839859Y45548D01*
X837875Y44026D01*
X836352Y42041D01*
X835395Y39730D01*
X835068Y37250D01*
Y33000D01*
X843900D01*
Y46733D01*
D02*
G37*
G36*
X91902Y46483D02*
Y32750D01*
X100734D01*
Y37000D01*
X100407Y39480D01*
X99450Y41791D01*
X97928Y43776D01*
X95943Y45298D01*
X93632Y46255D01*
X91902Y46483D01*
D02*
G37*
G36*
X90402D02*
X88672Y46255D01*
X86361Y45298D01*
X84377Y43776D01*
X82854Y41791D01*
X81897Y39480D01*
X81570Y37000D01*
Y32750D01*
X90402D01*
Y46483D01*
D02*
G37*
G36*
X636650Y46233D02*
Y32500D01*
X645482D01*
Y36750D01*
X645155Y39230D01*
X644198Y41541D01*
X642675Y43526D01*
X640691Y45048D01*
X638380Y46006D01*
X636650Y46233D01*
D02*
G37*
G36*
X635150D02*
X633420Y46006D01*
X631109Y45048D01*
X629124Y43526D01*
X627602Y41541D01*
X626645Y39230D01*
X626318Y36750D01*
Y32500D01*
X635150D01*
Y46233D01*
D02*
G37*
G36*
X549500Y45983D02*
Y32250D01*
X558332D01*
Y36500D01*
X558005Y38980D01*
X557048Y41291D01*
X555525Y43275D01*
X553541Y44798D01*
X551230Y45756D01*
X549500Y45983D01*
D02*
G37*
G36*
X548000D02*
X546270Y45756D01*
X543959Y44798D01*
X541974Y43275D01*
X540452Y41291D01*
X539495Y38980D01*
X539168Y36500D01*
Y32250D01*
X548000D01*
Y45983D01*
D02*
G37*
G36*
X187500Y94581D02*
X182557Y94192D01*
X177736Y93035D01*
X173155Y91138D01*
X168927Y88547D01*
X165157Y85327D01*
X161937Y81557D01*
X159347Y77329D01*
X157449Y72748D01*
X156292Y67927D01*
X155903Y62984D01*
X156292Y58041D01*
X157449Y53220D01*
X159347Y48639D01*
X161937Y44412D01*
X165157Y40641D01*
X168927Y37421D01*
X173155Y34831D01*
X177736Y32933D01*
X182557Y31776D01*
X187500Y31387D01*
X192443Y31776D01*
X197264Y32933D01*
X201845Y34831D01*
X206073Y37421D01*
X209843Y40641D01*
X213063Y44412D01*
X215653Y48639D01*
X217551Y53220D01*
X218708Y58041D01*
X219097Y62984D01*
X218708Y67927D01*
X217551Y72748D01*
X215653Y77329D01*
X213063Y81557D01*
X209843Y85327D01*
X206073Y88547D01*
X201845Y91138D01*
X197264Y93035D01*
X192443Y94192D01*
X187500Y94581D01*
D02*
G37*
G36*
X729250Y92331D02*
X724307Y91942D01*
X719486Y90785D01*
X714905Y88888D01*
X710677Y86297D01*
X706907Y83077D01*
X703687Y79307D01*
X701096Y75079D01*
X699199Y70498D01*
X698042Y65677D01*
X697653Y60734D01*
X698042Y55791D01*
X699199Y50970D01*
X701096Y46389D01*
X703687Y42161D01*
X706907Y38391D01*
X710677Y35171D01*
X714905Y32580D01*
X719486Y30683D01*
X724307Y29526D01*
X729250Y29137D01*
X734193Y29526D01*
X739014Y30683D01*
X743595Y32580D01*
X747822Y35171D01*
X751593Y38391D01*
X754813Y42161D01*
X757403Y46389D01*
X759301Y50970D01*
X760458Y55791D01*
X760847Y60734D01*
X760458Y65677D01*
X759301Y70498D01*
X757403Y75079D01*
X754813Y79307D01*
X751593Y83077D01*
X747822Y86297D01*
X743595Y88888D01*
X739014Y90785D01*
X734193Y91942D01*
X729250Y92331D01*
D02*
G37*
G36*
X259959Y31750D02*
X251127D01*
Y18017D01*
X252857Y18245D01*
X255168Y19202D01*
X257153Y20724D01*
X258675Y22709D01*
X259633Y25020D01*
X259959Y27500D01*
Y31750D01*
D02*
G37*
G36*
X249627D02*
X240795D01*
Y27500D01*
X241122Y25020D01*
X242079Y22709D01*
X243602Y20724D01*
X245586Y19202D01*
X247897Y18245D01*
X249627Y18017D01*
Y31750D01*
D02*
G37*
G36*
X300777Y47082D02*
X298297Y46755D01*
X295986Y45798D01*
X294002Y44275D01*
X292479Y42291D01*
X291522Y39980D01*
X291195Y37500D01*
Y27500D01*
X291522Y25020D01*
X292479Y22709D01*
X294002Y20724D01*
X295986Y19202D01*
X298297Y18245D01*
X300777Y17918D01*
X303257Y18245D01*
X305568Y19202D01*
X307553Y20724D01*
X309075Y22709D01*
X310033Y25020D01*
X310359Y27500D01*
Y37500D01*
X310033Y39980D01*
X309075Y42291D01*
X307553Y44275D01*
X305568Y45798D01*
X303257Y46755D01*
X300777Y47082D01*
D02*
G37*
G36*
X275777D02*
X273297Y46755D01*
X270986Y45798D01*
X269002Y44275D01*
X267479Y42291D01*
X266522Y39980D01*
X266195Y37500D01*
Y27500D01*
X266522Y25020D01*
X267479Y22709D01*
X269002Y20724D01*
X270986Y19202D01*
X273297Y18245D01*
X275777Y17918D01*
X278257Y18245D01*
X280568Y19202D01*
X282553Y20724D01*
X284075Y22709D01*
X285033Y25020D01*
X285359Y27500D01*
Y37500D01*
X285033Y39980D01*
X284075Y42291D01*
X282553Y44275D01*
X280568Y45798D01*
X278257Y46755D01*
X275777Y47082D01*
D02*
G37*
G36*
X843900Y31500D02*
X835068D01*
Y27250D01*
X835395Y24770D01*
X836352Y22459D01*
X837875Y20475D01*
X839859Y18952D01*
X842170Y17995D01*
X843900Y17767D01*
Y31500D01*
D02*
G37*
G36*
X362100Y31500D02*
X353268D01*
Y27250D01*
X353595Y24770D01*
X354552Y22459D01*
X356074Y20475D01*
X358059Y18952D01*
X360370Y17995D01*
X362100Y17767D01*
Y31500D01*
D02*
G37*
G36*
X372432D02*
X363600D01*
Y17767D01*
X365330Y17995D01*
X367641Y18952D01*
X369625Y20475D01*
X371148Y22459D01*
X372105Y24770D01*
X372432Y27250D01*
Y31500D01*
D02*
G37*
G36*
X854232Y31500D02*
X845400D01*
Y17767D01*
X847130Y17995D01*
X849441Y18952D01*
X851425Y20475D01*
X852948Y22459D01*
X853905Y24770D01*
X854232Y27250D01*
Y31500D01*
D02*
G37*
G36*
X869650Y46832D02*
X867170Y46505D01*
X864859Y45548D01*
X862875Y44026D01*
X861352Y42041D01*
X860395Y39730D01*
X860068Y37250D01*
Y27250D01*
X860395Y24770D01*
X861352Y22459D01*
X862875Y20475D01*
X864859Y18952D01*
X867170Y17995D01*
X869650Y17668D01*
X872130Y17995D01*
X874441Y18952D01*
X876425Y20475D01*
X877948Y22459D01*
X878905Y24770D01*
X879232Y27250D01*
Y37250D01*
X878905Y39730D01*
X877948Y42041D01*
X876425Y44026D01*
X874441Y45548D01*
X872130Y46505D01*
X869650Y46832D01*
D02*
G37*
G36*
X413250D02*
X410770Y46505D01*
X408459Y45548D01*
X406474Y44026D01*
X404952Y42041D01*
X403994Y39730D01*
X403668Y37250D01*
Y27250D01*
X403994Y24770D01*
X404952Y22459D01*
X406474Y20475D01*
X408459Y18952D01*
X410770Y17995D01*
X413250Y17668D01*
X415730Y17995D01*
X418041Y18952D01*
X420025Y20475D01*
X421548Y22459D01*
X422505Y24770D01*
X422832Y27250D01*
Y37250D01*
X422505Y39730D01*
X421548Y42041D01*
X420025Y44026D01*
X418041Y45548D01*
X415730Y46505D01*
X413250Y46832D01*
D02*
G37*
G36*
X388250D02*
X385770Y46505D01*
X383459Y45548D01*
X381474Y44026D01*
X379952Y42041D01*
X378994Y39730D01*
X378668Y37250D01*
Y27250D01*
X378994Y24770D01*
X379952Y22459D01*
X381474Y20475D01*
X383459Y18952D01*
X385770Y17995D01*
X388250Y17668D01*
X390730Y17995D01*
X393041Y18952D01*
X395025Y20475D01*
X396548Y22459D01*
X397505Y24770D01*
X397832Y27250D01*
Y37250D01*
X397505Y39730D01*
X396548Y42041D01*
X395025Y44026D01*
X393041Y45548D01*
X390730Y46505D01*
X388250Y46832D01*
D02*
G37*
G36*
X100734Y31250D02*
X91902D01*
Y17517D01*
X93632Y17744D01*
X95943Y18702D01*
X97928Y20224D01*
X99450Y22209D01*
X100407Y24520D01*
X100734Y27000D01*
Y31250D01*
D02*
G37*
G36*
X90402D02*
X81570D01*
Y27000D01*
X81897Y24520D01*
X82854Y22209D01*
X84377Y20224D01*
X86361Y18702D01*
X88672Y17744D01*
X90402Y17517D01*
Y31250D01*
D02*
G37*
G36*
X645482Y31000D02*
X636650D01*
Y17267D01*
X638380Y17494D01*
X640691Y18452D01*
X642675Y19974D01*
X644198Y21959D01*
X645155Y24270D01*
X645482Y26750D01*
Y31000D01*
D02*
G37*
G36*
X635150D02*
X626318D01*
Y26750D01*
X626645Y24270D01*
X627602Y21959D01*
X629124Y19974D01*
X631109Y18452D01*
X633420Y17494D01*
X635150Y17267D01*
Y31000D01*
D02*
G37*
G36*
X660900Y46332D02*
X658420Y46006D01*
X656109Y45048D01*
X654125Y43526D01*
X652602Y41541D01*
X651645Y39230D01*
X651318Y36750D01*
Y26750D01*
X651645Y24270D01*
X652602Y21959D01*
X654125Y19974D01*
X656109Y18452D01*
X658420Y17494D01*
X660900Y17168D01*
X663380Y17494D01*
X665691Y18452D01*
X667675Y19974D01*
X669198Y21959D01*
X670155Y24270D01*
X670482Y26750D01*
Y36750D01*
X670155Y39230D01*
X669198Y41541D01*
X667675Y43526D01*
X665691Y45048D01*
X663380Y46006D01*
X660900Y46332D01*
D02*
G37*
G36*
X610500D02*
X608020Y46006D01*
X605709Y45048D01*
X603725Y43526D01*
X602202Y41541D01*
X601245Y39230D01*
X600918Y36750D01*
Y26750D01*
X601245Y24270D01*
X602202Y21959D01*
X603725Y19974D01*
X605709Y18452D01*
X608020Y17494D01*
X610500Y17168D01*
X612980Y17494D01*
X615291Y18452D01*
X617275Y19974D01*
X618798Y21959D01*
X619755Y24270D01*
X620082Y26750D01*
Y36750D01*
X619755Y39230D01*
X618798Y41541D01*
X617275Y43526D01*
X615291Y45048D01*
X612980Y46006D01*
X610500Y46332D01*
D02*
G37*
G36*
X558332Y30750D02*
X549500D01*
Y17017D01*
X551230Y17244D01*
X553541Y18202D01*
X555525Y19725D01*
X557048Y21709D01*
X558005Y24020D01*
X558332Y26500D01*
Y30750D01*
D02*
G37*
G36*
X548000D02*
X539168D01*
Y26500D01*
X539495Y24020D01*
X540452Y21709D01*
X541974Y19725D01*
X543959Y18202D01*
X546270Y17244D01*
X548000Y17017D01*
Y30750D01*
D02*
G37*
G36*
X471932Y385332D02*
X470371Y385022D01*
X469048Y384138D01*
X468164Y382815D01*
X467854Y381254D01*
X468164Y379693D01*
X469048Y378370D01*
X470371Y377486D01*
X471623Y377237D01*
X495291Y353569D01*
Y45516D01*
X493559Y44798D01*
X491575Y43275D01*
X490052Y41291D01*
X489095Y38980D01*
X488768Y36500D01*
Y26500D01*
X489095Y24020D01*
X490052Y21709D01*
X491575Y19725D01*
X493559Y18202D01*
X495870Y17244D01*
X498350Y16918D01*
X500830Y17244D01*
X503141Y18202D01*
X505125Y19725D01*
X506648Y21709D01*
X507605Y24020D01*
X507932Y26500D01*
Y36500D01*
X507605Y38980D01*
X506648Y41291D01*
X505125Y43275D01*
X503141Y44798D01*
X501409Y45516D01*
Y354836D01*
X501176Y356007D01*
X500513Y356999D01*
X500513Y356999D01*
X475949Y381563D01*
X475700Y382815D01*
X474816Y384138D01*
X473493Y385022D01*
X471932Y385332D01*
D02*
G37*
G36*
X472950Y46082D02*
X470470Y45756D01*
X468159Y44798D01*
X466175Y43275D01*
X464652Y41291D01*
X463694Y38980D01*
X463368Y36500D01*
Y26500D01*
X463694Y24020D01*
X464652Y21709D01*
X466175Y19725D01*
X468159Y18202D01*
X470470Y17244D01*
X472950Y16918D01*
X475430Y17244D01*
X477741Y18202D01*
X479725Y19725D01*
X481248Y21709D01*
X482205Y24020D01*
X482532Y26500D01*
Y36500D01*
X482205Y38980D01*
X481248Y41291D01*
X479725Y43275D01*
X477741Y44798D01*
X475430Y45756D01*
X472950Y46082D01*
D02*
G37*
%LPD*%
G36*
X262371Y727628D02*
Y638624D01*
X261101Y638371D01*
X260338Y640215D01*
X258895Y642095D01*
X257015Y643538D01*
X254825Y644444D01*
X252476Y644754D01*
X250126Y644444D01*
X247937Y643538D01*
X246057Y642095D01*
X244615Y640215D01*
X244613Y640211D01*
X243343Y640463D01*
Y744768D01*
X243343Y744768D01*
X243320Y744884D01*
X244490Y745509D01*
X262371Y727628D01*
D02*
G37*
G36*
X296857Y624257D02*
X298737Y622814D01*
X300217Y622201D01*
Y427796D01*
X294903Y422481D01*
X293633Y423007D01*
Y551246D01*
X294164Y552042D01*
X294397Y553212D01*
X294397Y553212D01*
Y625402D01*
X295667Y625808D01*
X296857Y624257D01*
D02*
G37*
D26*
X432562Y556386D02*
D03*
Y540386D02*
D03*
X406654Y556640D02*
D03*
Y540640D02*
D03*
D48*
X850000Y830000D02*
D03*
X729250Y60734D02*
D03*
X187500Y62984D02*
D03*
D49*
X765900Y650748D02*
X865632D01*
X718910Y603758D02*
X765900Y650748D01*
X562102Y603758D02*
X718910D01*
X556260Y610362D02*
X649224D01*
X715010Y676148D01*
X865632D01*
X598978Y679496D02*
Y786892D01*
X598424Y678942D02*
X598978Y679496D01*
X551034Y685448D02*
X554978Y689392D01*
Y800130D01*
X576978Y690262D02*
Y776732D01*
X404876Y834176D02*
X415401Y823651D01*
Y576977D02*
Y823651D01*
X404876Y834176D02*
Y836676D01*
X415401Y576977D02*
X421132Y571246D01*
Y408178D02*
Y571246D01*
X379476Y767334D02*
X389976Y756834D01*
X379476Y767334D02*
Y836676D01*
X389890Y626241D02*
X389976Y626327D01*
Y756834D01*
X389890Y476758D02*
Y626241D01*
X176276Y594868D02*
Y633176D01*
Y337312D02*
Y594868D01*
X201676Y660367D02*
X204724Y663415D01*
X201676Y633176D02*
Y660367D01*
X204724Y663415D02*
Y663956D01*
X227963Y671193D02*
X228346Y671576D01*
X227076Y633176D02*
X227963Y634063D01*
Y671193D01*
X341122Y289814D02*
X375412Y255524D01*
X341122Y289814D02*
Y783844D01*
X334010Y790956D02*
X341122Y783844D01*
X708660Y515135D02*
X739513Y545988D01*
X708660Y226060D02*
Y515135D01*
X498350Y31500D02*
Y354836D01*
X471932Y381254D02*
X498350Y354836D01*
X523750Y31500D02*
Y361948D01*
X539496Y234950D02*
Y357886D01*
Y234950D02*
X582168Y192278D01*
X475488Y410210D02*
X523750Y361948D01*
X42418Y113030D02*
X107442Y178054D01*
X42418Y34066D02*
Y113030D01*
X65752Y124934D02*
X105156Y164338D01*
X65752Y32000D02*
Y124934D01*
X403606Y539140D02*
X405106Y540640D01*
X403606Y449580D02*
Y539140D01*
X405106Y540640D02*
X406654D01*
X131392Y48694D02*
X165354Y14732D01*
X131392Y48694D02*
Y246936D01*
X127618Y250710D02*
X131392Y246936D01*
X127618Y250710D02*
Y443738D01*
X150046Y400269D02*
X150429Y400652D01*
Y632729D02*
X150876Y633176D01*
X150429Y400652D02*
Y632729D01*
X483362Y414020D02*
Y864870D01*
Y414020D02*
X539496Y357886D01*
X475488Y410210D02*
Y739902D01*
X404876Y558140D02*
X406376Y556640D01*
X406654D01*
X404876Y558140D02*
Y633176D01*
X432562Y228600D02*
X434340Y226822D01*
X432562Y228600D02*
Y540386D01*
X227076Y782828D02*
X268478Y741426D01*
X201676Y792649D02*
X265430Y728895D01*
X263398Y387096D02*
X265430Y389128D01*
Y728895D01*
X227076Y782828D02*
Y836676D01*
X201676Y792649D02*
Y836676D01*
X150876Y834176D02*
X240284Y744768D01*
Y170434D02*
Y744768D01*
X125476Y834176D02*
X214376Y745276D01*
Y180487D02*
X265069Y129794D01*
X214376Y180487D02*
Y745276D01*
X240284Y170434D02*
X269748Y140970D01*
X150876Y834176D02*
Y836676D01*
X265069Y129794D02*
X272527D01*
X201676Y630676D02*
Y633176D01*
X190246Y619246D02*
X201676Y630676D01*
X190246Y327152D02*
Y619246D01*
X125476Y834176D02*
Y836676D01*
X290574Y552448D02*
X291338Y553212D01*
X290574Y292114D02*
Y552448D01*
X296074Y187903D02*
Y419327D01*
X303276Y426529D01*
Y633176D01*
X306045Y306807D02*
X328676Y329438D01*
X306045Y171425D02*
Y306807D01*
X328676Y329438D02*
Y633176D01*
X40352Y32000D02*
X42418Y34066D01*
X291338Y721940D02*
X303276Y733878D01*
X291338Y553212D02*
Y721940D01*
X314198Y344932D02*
Y819698D01*
Y344932D02*
X314452Y344678D01*
X354076Y834176D02*
X364576Y823676D01*
Y374175D02*
Y823676D01*
X314198Y819698D02*
X328676Y834176D01*
X303276Y733878D02*
Y836676D01*
X354076Y834176D02*
Y836676D01*
X328676Y834176D02*
Y836676D01*
X161036Y322072D02*
X176276Y337312D01*
D50*
X116152Y192098D02*
X123190Y199136D01*
X116152Y32000D02*
Y192098D01*
X430276Y556922D02*
Y633176D01*
Y556922D02*
X430812Y556386D01*
X432562D01*
D51*
X455676Y633176D02*
D03*
X430276D02*
D03*
X404876D02*
D03*
X379476D02*
D03*
X354076D02*
D03*
X328676D02*
D03*
X303276D02*
D03*
X277876D02*
D03*
X252476D02*
D03*
X227076D02*
D03*
X201676D02*
D03*
X176276D02*
D03*
X150876D02*
D03*
D03*
X455676Y836676D02*
D03*
X430276D02*
D03*
X404876D02*
D03*
X379476D02*
D03*
X354076D02*
D03*
X328676D02*
D03*
X303276D02*
D03*
X277876D02*
D03*
X252476D02*
D03*
X227076D02*
D03*
X201676D02*
D03*
X176276D02*
D03*
X150876D02*
D03*
X125476D02*
D03*
Y633176D02*
D03*
D52*
X338074Y173736D02*
D03*
Y249936D02*
D03*
Y224936D02*
D03*
Y199136D02*
D03*
X865632Y650748D02*
D03*
Y676148D02*
D03*
Y726548D02*
D03*
Y701548D02*
D03*
X41402Y243078D02*
D03*
Y319278D02*
D03*
Y294278D02*
D03*
Y268478D02*
D03*
Y395478D02*
D03*
Y421278D02*
D03*
Y446278D02*
D03*
Y370078D02*
D03*
Y344678D02*
D03*
D53*
X833976Y201634D02*
D03*
Y221634D02*
D03*
Y241634D02*
D03*
X813976Y201634D02*
D03*
Y221634D02*
D03*
Y241634D02*
D03*
D54*
X823976Y173634D02*
D03*
Y269634D02*
D03*
D55*
X844650Y32250D02*
D03*
X869650D02*
D03*
X40352Y32000D02*
D03*
X65752D02*
D03*
X116152D02*
D03*
X91152D02*
D03*
X300777Y32500D02*
D03*
X275777D02*
D03*
X250377D02*
D03*
X413250Y32250D02*
D03*
X388250D02*
D03*
X362850D02*
D03*
X523750Y31500D02*
D03*
X548750D02*
D03*
X498350D02*
D03*
X472950D02*
D03*
X610500Y31750D02*
D03*
X635900D02*
D03*
X660900D02*
D03*
D56*
X562102Y603758D02*
D03*
X556260Y610362D02*
D03*
X551034Y685448D02*
D03*
X554978Y800130D02*
D03*
X576978Y690262D02*
D03*
Y776732D02*
D03*
X598424Y678942D02*
D03*
X598978Y786892D02*
D03*
X421132Y408178D02*
D03*
X389890Y476758D02*
D03*
X176276Y594868D02*
D03*
X204724Y663956D02*
D03*
X228346Y671576D02*
D03*
X375412Y255524D02*
D03*
X334010Y790956D02*
D03*
X739513Y545988D02*
D03*
X708660Y226060D02*
D03*
X582168Y192278D02*
D03*
X107442Y178054D02*
D03*
X123190Y199136D02*
D03*
X105156Y164338D02*
D03*
X403606Y449580D02*
D03*
X165354Y14732D02*
D03*
X131392Y246936D02*
D03*
X150046Y400269D02*
D03*
X127618Y443738D02*
D03*
X483362Y864870D02*
D03*
X475488Y739902D02*
D03*
X434340Y226822D02*
D03*
X268478Y741426D02*
D03*
X471932Y381254D02*
D03*
X263398Y387096D02*
D03*
X269748Y140970D02*
D03*
X272527Y129794D02*
D03*
X296074Y187903D02*
D03*
X290574Y292114D02*
D03*
X306045Y171425D02*
D03*
X314452Y344678D02*
D03*
X364576Y374175D02*
D03*
X190246Y327152D02*
D03*
X161036Y322072D02*
D03*
D57*
X670902Y516278D02*
D03*
X671402Y173278D02*
D03*
X56902Y173178D02*
D03*
Y517878D02*
D03*
M02*
