G04*
G04 #@! TF.GenerationSoftware,Altium Limited,Altium Designer,21.0.9 (235)*
G04*
G04 Layer_Color=8388736*
%FSLAX44Y44*%
%MOMM*%
G71*
G04*
G04 #@! TF.SameCoordinates,A596C356-34D0-456B-85E7-90C285C8AFC8*
G04*
G04*
G04 #@! TF.FilePolarity,Negative*
G04*
G01*
G75*
%ADD30R,1.0532X1.5032*%
%ADD31O,1.4032X0.6032*%
%ADD32R,1.1532X0.8032*%
%ADD33R,1.7532X1.2032*%
%ADD34R,1.2032X0.7032*%
%ADD35R,0.8032X1.1532*%
%ADD36R,1.7032X1.5032*%
%ADD37R,1.7032X1.9032*%
%ADD38R,1.4032X1.6032*%
%ADD39R,1.9032X1.7032*%
%ADD40R,1.8032X1.7032*%
%ADD41R,1.0032X1.6032*%
%ADD42R,1.2032X1.1032*%
%ADD43R,1.7032X1.2032*%
%ADD44O,1.8032X2.8032*%
%ADD45C,2.2032*%
%ADD46C,1.4032*%
%ADD47C,1.2032*%
%ADD48C,1.8542*%
%ADD49O,3.2512X1.7272*%
%ADD50O,2.8032X1.8032*%
%ADD51C,6.0000*%
D30*
X939322Y24641D02*
D03*
X919822D02*
D03*
D31*
X1111638Y114701D02*
D03*
Y108201D02*
D03*
Y101701D02*
D03*
Y95201D02*
D03*
Y88701D02*
D03*
Y82201D02*
D03*
Y75701D02*
D03*
Y69201D02*
D03*
X1168638Y114701D02*
D03*
Y108201D02*
D03*
Y101701D02*
D03*
Y95201D02*
D03*
Y88701D02*
D03*
Y82201D02*
D03*
Y75701D02*
D03*
Y69201D02*
D03*
X238349Y295716D02*
D03*
Y289216D02*
D03*
Y282716D02*
D03*
Y276216D02*
D03*
Y269716D02*
D03*
Y263216D02*
D03*
Y256716D02*
D03*
Y250216D02*
D03*
X295348Y295716D02*
D03*
Y289216D02*
D03*
Y282716D02*
D03*
Y276216D02*
D03*
Y269716D02*
D03*
Y263216D02*
D03*
Y256716D02*
D03*
Y250216D02*
D03*
D32*
X175260Y210440D02*
D03*
Y226440D02*
D03*
X733484Y300950D02*
D03*
Y316950D02*
D03*
X751234Y317450D02*
D03*
Y301450D02*
D03*
X751490Y414017D02*
D03*
Y430017D02*
D03*
X734894Y430200D02*
D03*
Y414200D02*
D03*
X755250Y181778D02*
D03*
Y197778D02*
D03*
X738500Y181250D02*
D03*
Y197250D02*
D03*
X311500Y174750D02*
D03*
Y158750D02*
D03*
X293000Y175000D02*
D03*
Y159000D02*
D03*
D33*
X855658Y306339D02*
D03*
X796658D02*
D03*
Y336339D02*
D03*
X855658D02*
D03*
Y399560D02*
D03*
X796658D02*
D03*
Y429560D02*
D03*
X855658D02*
D03*
D34*
X129046Y203500D02*
D03*
Y213000D02*
D03*
Y222500D02*
D03*
X156046D02*
D03*
Y213000D02*
D03*
Y203500D02*
D03*
D35*
X301493Y230548D02*
D03*
X285492D02*
D03*
X252243Y231056D02*
D03*
X236243D02*
D03*
X209510Y363250D02*
D03*
X193510D02*
D03*
X732750Y463250D02*
D03*
X748750D02*
D03*
D36*
X142546Y407802D02*
D03*
D37*
X277546Y539802D02*
D03*
X142546D02*
D03*
D38*
Y481802D02*
D03*
D39*
X275046Y391302D02*
D03*
D40*
X149046D02*
D03*
D41*
X241046Y390302D02*
D03*
X230046D02*
D03*
X219046D02*
D03*
X208046D02*
D03*
X197046D02*
D03*
X186046D02*
D03*
X175046D02*
D03*
X164046D02*
D03*
D42*
X747894Y531500D02*
D03*
Y491500D02*
D03*
X731894D02*
D03*
Y531500D02*
D03*
D43*
X852250Y525750D02*
D03*
Y493750D02*
D03*
X802250D02*
D03*
Y525750D02*
D03*
D44*
X476700Y31750D02*
D03*
X502100D02*
D03*
X552500D02*
D03*
X527500D02*
D03*
X1035304Y146812D02*
D03*
X1009904D02*
D03*
X959504D02*
D03*
X984504D02*
D03*
X844650Y32250D02*
D03*
X869650D02*
D03*
X819250D02*
D03*
X793850D02*
D03*
X40352Y32000D02*
D03*
X65752D02*
D03*
X116152D02*
D03*
X91152D02*
D03*
X300777Y32500D02*
D03*
X275777D02*
D03*
X250377D02*
D03*
X413250Y32250D02*
D03*
X388250D02*
D03*
X362850D02*
D03*
X610500Y31750D02*
D03*
X635900D02*
D03*
X660900D02*
D03*
D45*
X825500Y245250D02*
D03*
Y149250D02*
D03*
D46*
X815500Y217250D02*
D03*
Y197250D02*
D03*
Y177250D02*
D03*
X835500Y217250D02*
D03*
Y197250D02*
D03*
Y177250D02*
D03*
D47*
X476700Y177720D02*
D03*
X502100Y152320D02*
D03*
Y177720D02*
D03*
X476700Y152320D02*
D03*
X451300D02*
D03*
Y177720D02*
D03*
X505910Y552620D02*
D03*
X531310D02*
D03*
D48*
X552900Y151300D02*
D03*
X400500D02*
D03*
Y557700D02*
D03*
X552900D02*
D03*
D49*
X392880Y176700D02*
D03*
Y202100D02*
D03*
Y227500D02*
D03*
Y252900D02*
D03*
Y278300D02*
D03*
Y303700D02*
D03*
Y329100D02*
D03*
Y354500D02*
D03*
Y379900D02*
D03*
Y405300D02*
D03*
Y430700D02*
D03*
Y456100D02*
D03*
Y481500D02*
D03*
Y506900D02*
D03*
Y532300D02*
D03*
X560520Y176700D02*
D03*
D03*
Y202100D02*
D03*
Y227500D02*
D03*
Y252900D02*
D03*
Y278300D02*
D03*
Y303700D02*
D03*
Y329100D02*
D03*
Y354500D02*
D03*
Y379900D02*
D03*
Y405300D02*
D03*
Y430700D02*
D03*
Y456100D02*
D03*
Y481500D02*
D03*
Y506900D02*
D03*
Y532300D02*
D03*
D50*
X41402Y344678D02*
D03*
Y370078D02*
D03*
Y446278D02*
D03*
Y421278D02*
D03*
Y395478D02*
D03*
Y268478D02*
D03*
Y294278D02*
D03*
Y319278D02*
D03*
Y243078D02*
D03*
D51*
X743750Y371000D02*
D03*
X729250Y60734D02*
D03*
X187500Y62984D02*
D03*
M02*
