G04*
G04 #@! TF.GenerationSoftware,Altium Limited,Altium Designer,21.0.9 (235)*
G04*
G04 Layer_Color=8421504*
%FSLAX44Y44*%
%MOMM*%
G71*
G04*
G04 #@! TF.SameCoordinates,A596C356-34D0-456B-85E7-90C285C8AFC8*
G04*
G04*
G04 #@! TF.FilePolarity,Positive*
G04*
G01*
G75*
%ADD16R,0.8500X1.3000*%
%ADD17O,1.2000X0.4000*%
%ADD18R,0.9500X0.6000*%
%ADD19R,1.5500X1.0000*%
%ADD20R,1.0000X0.5000*%
%ADD21R,0.6000X0.9500*%
%ADD22R,1.5000X1.3000*%
%ADD23R,1.5000X1.7000*%
%ADD24R,1.2000X1.4000*%
%ADD25R,1.7000X1.5000*%
%ADD26R,1.6000X1.5000*%
%ADD27R,0.8000X1.4000*%
%ADD28R,1.0000X0.9000*%
%ADD29R,1.5000X1.0000*%
D16*
X939322Y24641D02*
D03*
X919822D02*
D03*
D17*
X1111638Y114701D02*
D03*
Y108201D02*
D03*
Y101701D02*
D03*
Y95201D02*
D03*
Y88701D02*
D03*
Y82201D02*
D03*
Y75701D02*
D03*
Y69201D02*
D03*
X1168638Y114701D02*
D03*
Y108201D02*
D03*
Y101701D02*
D03*
Y95201D02*
D03*
Y88701D02*
D03*
Y82201D02*
D03*
Y75701D02*
D03*
Y69201D02*
D03*
X238349Y295716D02*
D03*
Y289216D02*
D03*
Y282716D02*
D03*
Y276216D02*
D03*
Y269716D02*
D03*
Y263216D02*
D03*
Y256716D02*
D03*
Y250216D02*
D03*
X295348Y295716D02*
D03*
Y289216D02*
D03*
Y282716D02*
D03*
Y276216D02*
D03*
Y269716D02*
D03*
Y263216D02*
D03*
Y256716D02*
D03*
Y250216D02*
D03*
D18*
X175260Y210440D02*
D03*
Y226440D02*
D03*
X733484Y300950D02*
D03*
Y316950D02*
D03*
X751234Y317450D02*
D03*
Y301450D02*
D03*
X751490Y414017D02*
D03*
Y430017D02*
D03*
X734894Y430200D02*
D03*
Y414200D02*
D03*
X755250Y181778D02*
D03*
Y197778D02*
D03*
X738500Y181250D02*
D03*
Y197250D02*
D03*
X311500Y174750D02*
D03*
Y158750D02*
D03*
X293000Y175000D02*
D03*
Y159000D02*
D03*
D19*
X855658Y306339D02*
D03*
X796658D02*
D03*
Y336339D02*
D03*
X855658D02*
D03*
Y399560D02*
D03*
X796658D02*
D03*
Y429560D02*
D03*
X855658D02*
D03*
D20*
X129046Y203500D02*
D03*
Y213000D02*
D03*
Y222500D02*
D03*
X156046D02*
D03*
Y213000D02*
D03*
Y203500D02*
D03*
D21*
X301493Y230548D02*
D03*
X285492D02*
D03*
X252243Y231056D02*
D03*
X236243D02*
D03*
X209510Y363250D02*
D03*
X193510D02*
D03*
X732750Y463250D02*
D03*
X748750D02*
D03*
D22*
X142546Y407802D02*
D03*
D23*
X277546Y539802D02*
D03*
X142546D02*
D03*
D24*
Y481802D02*
D03*
D25*
X275046Y391302D02*
D03*
D26*
X149046D02*
D03*
D27*
X241046Y390302D02*
D03*
X230046D02*
D03*
X219046D02*
D03*
X208046D02*
D03*
X197046D02*
D03*
X186046D02*
D03*
X175046D02*
D03*
X164046D02*
D03*
D28*
X747894Y531500D02*
D03*
Y491500D02*
D03*
X731894D02*
D03*
Y531500D02*
D03*
D29*
X852250Y525750D02*
D03*
Y493750D02*
D03*
X802250D02*
D03*
Y525750D02*
D03*
M02*
