M48
;Layer_Color=9474304
;FILE_FORMAT=4:4
METRIC,LZ
;TYPE=PLATED
T1F00S00C0.6000
T2F00S00C0.8000
T3F00S00C1.0000
T4F00S00C1.0160
T5F00S00C1.2000
T6F00S00C3.1000
;TYPE=NON_PLATED
T7F00S00C1.6510
%
T01
X004513Y0015232
X004767
Y0017772
X005021
Y0015232
X004513Y0017772
X0050591Y0055262
X0053131
T02
X008155Y0017725
Y0019725
Y0021725
X008355
Y0019725
Y0017725
T03
X0081925Y0003225
X0084465
X0086965
X00959504Y00146812
X00984504
X01009904
X01035304
X0079385Y0003225
X006609Y0003175
X006359
X006105
X005525
X005275
X005021
X004767
X0041325Y0003225
X0038825
X0036285
X00300777Y000325
X00275777
X00250377
X00116152Y00032
X00091152
X00065752
X00040352
X00041402Y00243078
Y00268478
Y00294278
Y00319278
Y00344678
Y00370078
Y00395478
Y00421278
Y00446278
T04
X005529Y001767
Y002021
Y002275
Y002529
Y002783
Y003037
Y003291
Y003545
Y003799
Y004053
X004005
Y003799
Y003545
Y003291
Y003037
Y002783
Y002529
Y002275
Y002021
Y001767
Y004307
Y004561
Y004815
Y005069
Y005323
X005529
Y005069
Y004815
Y004561
Y004307
T05
X008255Y0014925
Y0024525
T06
X0072925Y00060734
X00671402Y00173278
X0074375Y00371
X001875Y00062984
X00056902Y00173178
Y00517878
X00670902Y00516278
T07
X005529Y001513
X004005
Y005577
X005529
M30
