G04*
G04 #@! TF.GenerationSoftware,Altium Limited,Altium Designer,21.0.9 (235)*
G04*
G04 Layer_Color=255*
%FSLAX44Y44*%
%MOMM*%
G71*
G04*
G04 #@! TF.SameCoordinates,A09F276E-AA30-40E7-8DD8-8EDFBC635AFD*
G04*
G04*
G04 #@! TF.FilePolarity,Positive*
G04*
G01*
G75*
%ADD13R,0.9500X0.6000*%
%ADD14R,0.9500X0.7000*%
%ADD15R,0.6000X0.9500*%
%ADD23O,2.6000X1.6000*%
%ADD24O,1.6000X2.6000*%
%ADD25O,1.0000X0.8000*%
D13*
X20988Y217320D02*
D03*
Y201320D02*
D03*
D14*
Y253320D02*
D03*
Y269320D02*
D03*
D15*
X209170Y363982D02*
D03*
X225170D02*
D03*
D23*
X354000Y213400D02*
D03*
Y238800D02*
D03*
Y264200D02*
D03*
Y289600D02*
D03*
X100000Y188000D02*
D03*
Y212000D02*
D03*
Y238800D02*
D03*
Y315000D02*
D03*
Y290000D02*
D03*
Y264200D02*
D03*
D24*
X261600Y42000D02*
D03*
X210800D02*
D03*
X185000D02*
D03*
X160000D02*
D03*
X236200D02*
D03*
X337600Y408000D02*
D03*
X363000D02*
D03*
X388400D02*
D03*
X30750Y408900D02*
D03*
X56150D02*
D03*
X81550D02*
D03*
X82790Y42000D02*
D03*
X57390D02*
D03*
X31990D02*
D03*
X388400Y41000D02*
D03*
X363000D02*
D03*
X337600D02*
D03*
D25*
X206618Y415036D02*
D03*
Y402336D02*
D03*
Y389636D02*
D03*
M02*
