G04*
G04 #@! TF.GenerationSoftware,Altium Limited,Altium Designer,21.0.9 (235)*
G04*
G04 Layer_Color=128*
%FSLAX44Y44*%
%MOMM*%
G71*
G04*
G04 #@! TF.SameCoordinates,A09F276E-AA30-40E7-8DD8-8EDFBC635AFD*
G04*
G04*
G04 #@! TF.FilePolarity,Positive*
G04*
G01*
G75*
%ADD27C,0.1270*%
D27*
X349000Y213400D02*
X359000D01*
X354000Y208400D02*
Y218400D01*
X349000Y238800D02*
X359000D01*
X354000Y233800D02*
Y243800D01*
X349000Y264200D02*
X359000D01*
X354000Y259200D02*
Y269200D01*
X349000Y289600D02*
X359000D01*
X354000Y284600D02*
Y294600D01*
X95000Y188000D02*
X105000D01*
X100000Y183000D02*
Y193000D01*
X95000Y212000D02*
X105000D01*
X100000Y207000D02*
Y217000D01*
X95000Y238800D02*
X105000D01*
X100000Y233800D02*
Y243800D01*
X95000Y315000D02*
X105000D01*
X100000Y310000D02*
Y320000D01*
X95000Y290000D02*
X105000D01*
X100000Y285000D02*
Y295000D01*
X95000Y264200D02*
X105000D01*
X100000Y259200D02*
Y269200D01*
X256600Y42000D02*
X266600D01*
X261600Y37000D02*
Y47000D01*
X205800Y42000D02*
X215800D01*
X210800Y37000D02*
Y47000D01*
X180000Y42000D02*
X190000D01*
X185000Y37000D02*
Y47000D01*
X155000Y42000D02*
X165000D01*
X160000Y37000D02*
Y47000D01*
X231200Y42000D02*
X241200D01*
X236200Y37000D02*
Y47000D01*
X332600Y408000D02*
X342600D01*
X337600Y403000D02*
Y413000D01*
X358000Y408000D02*
X368000D01*
X363000Y403000D02*
Y413000D01*
X383400Y408000D02*
X393400D01*
X388400Y403000D02*
Y413000D01*
X25750Y408900D02*
X35750D01*
X30750Y403900D02*
Y413900D01*
X51150Y408900D02*
X61150D01*
X56150Y403900D02*
Y413900D01*
X76550Y408900D02*
X86550D01*
X81550Y403900D02*
Y413900D01*
X77790Y42000D02*
X87790D01*
X82790Y37000D02*
Y47000D01*
X52390Y42000D02*
X62390D01*
X57390Y37000D02*
Y47000D01*
X26990Y42000D02*
X36990D01*
X31990Y37000D02*
Y47000D01*
X383400Y41000D02*
X393400D01*
X388400Y36000D02*
Y46000D01*
X358000Y41000D02*
X368000D01*
X363000Y36000D02*
Y46000D01*
X332600Y41000D02*
X342600D01*
X337600Y36000D02*
Y46000D01*
X203618Y415036D02*
X209618D01*
X206618Y412036D02*
Y418036D01*
X203618Y402336D02*
X209618D01*
X206618Y399336D02*
Y405336D01*
X203618Y389636D02*
X209618D01*
X206618Y386636D02*
Y392636D01*
X313971Y314452D02*
X316971D01*
X315471Y312952D02*
Y315952D01*
X183500Y235731D02*
X186500D01*
X185000Y234231D02*
Y237231D01*
X206820Y264200D02*
X209820D01*
X208320Y262700D02*
Y265700D01*
X143026Y212000D02*
X146026D01*
X144526Y210500D02*
Y213500D01*
X18738Y171704D02*
X21738D01*
X20238Y170204D02*
Y173204D01*
X143026Y138684D02*
X146026D01*
X144526Y137184D02*
Y140184D01*
X132866Y439674D02*
X135866D01*
X134366Y438174D02*
Y441174D01*
M02*
