G04*
G04 #@! TF.GenerationSoftware,Altium Limited,Altium Designer,21.0.9 (235)*
G04*
G04 Layer_Physical_Order=1*
G04 Layer_Color=255*
%FSLAX44Y44*%
%MOMM*%
G71*
G04*
G04 #@! TF.SameCoordinates,A09F276E-AA30-40E7-8DD8-8EDFBC635AFD*
G04*
G04*
G04 #@! TF.FilePolarity,Positive*
G04*
G01*
G75*
%ADD13R,0.9500X0.6000*%
%ADD14R,0.9500X0.7000*%
%ADD15R,0.6000X0.9500*%
%ADD22C,0.3000*%
%ADD23O,2.6000X1.6000*%
%ADD24O,1.6000X2.6000*%
%ADD25O,1.0000X0.8000*%
%ADD26C,0.5000*%
G36*
X418461Y448461D02*
X418461Y1539D01*
X1539Y1539D01*
X1539Y448461D01*
X418461Y448461D01*
D02*
G37*
%LPC*%
G36*
X207618Y420644D02*
X207368D01*
Y415786D01*
X213076D01*
X212799Y417182D01*
X211583Y419001D01*
X209764Y420217D01*
X207618Y420644D01*
D02*
G37*
G36*
X205868D02*
X205618D01*
X203472Y420217D01*
X201653Y419001D01*
X200437Y417182D01*
X200159Y415786D01*
X205868D01*
Y420644D01*
D02*
G37*
G36*
X213076Y414286D02*
X207368D01*
Y409428D01*
X207618D01*
X209764Y409855D01*
X211583Y411071D01*
X212799Y412890D01*
X213076Y414286D01*
D02*
G37*
G36*
X205868D02*
X200159D01*
X200437Y412890D01*
X201653Y411071D01*
X203472Y409855D01*
X205618Y409428D01*
X205868D01*
Y414286D01*
D02*
G37*
G36*
X30750Y423482D02*
X28270Y423156D01*
X25959Y422198D01*
X23974Y420676D01*
X22452Y418691D01*
X21495Y416380D01*
X21168Y413900D01*
Y403900D01*
X21495Y401420D01*
X22452Y399109D01*
X23974Y397124D01*
X25959Y395602D01*
X28270Y394645D01*
X30750Y394318D01*
X33230Y394645D01*
X35541Y395602D01*
X37525Y397124D01*
X39048Y399109D01*
X40005Y401420D01*
X40332Y403900D01*
Y413900D01*
X40005Y416380D01*
X39048Y418691D01*
X37525Y420676D01*
X35541Y422198D01*
X33230Y423156D01*
X30750Y423482D01*
D02*
G37*
G36*
X388400Y422582D02*
X385920Y422256D01*
X383609Y421298D01*
X381625Y419776D01*
X380102Y417791D01*
X379145Y415480D01*
X378818Y413000D01*
Y403000D01*
X379145Y400520D01*
X380102Y398209D01*
X381625Y396225D01*
X383609Y394702D01*
X385920Y393745D01*
X388400Y393418D01*
X390880Y393745D01*
X393191Y394702D01*
X395176Y396225D01*
X396698Y398209D01*
X397655Y400520D01*
X397982Y403000D01*
Y413000D01*
X397655Y415480D01*
X396698Y417791D01*
X395176Y419776D01*
X393191Y421298D01*
X390880Y422256D01*
X388400Y422582D01*
D02*
G37*
G36*
X337600D02*
X335120Y422256D01*
X332809Y421298D01*
X330825Y419776D01*
X329302Y417791D01*
X328345Y415480D01*
X328018Y413000D01*
Y403000D01*
X328345Y400520D01*
X329302Y398209D01*
X330825Y396225D01*
X332809Y394702D01*
X335120Y393745D01*
X337600Y393418D01*
X340080Y393745D01*
X342391Y394702D01*
X344375Y396225D01*
X345898Y398209D01*
X346856Y400520D01*
X347182Y403000D01*
Y413000D01*
X346856Y415480D01*
X345898Y417791D01*
X344375Y419776D01*
X342391Y421298D01*
X340080Y422256D01*
X337600Y422582D01*
D02*
G37*
G36*
X229670Y370232D02*
X225920D01*
Y364732D01*
X229670D01*
Y370232D01*
D02*
G37*
G36*
X224420D02*
X220670D01*
Y364732D01*
X224420D01*
Y370232D01*
D02*
G37*
G36*
X229670Y363232D02*
X225920D01*
Y357732D01*
X229670D01*
Y363232D01*
D02*
G37*
G36*
X224420D02*
X220670D01*
Y357732D01*
X224420D01*
Y363232D01*
D02*
G37*
G36*
X105000Y324582D02*
X95000D01*
X92520Y324255D01*
X90209Y323298D01*
X88224Y321776D01*
X86702Y319791D01*
X85744Y317480D01*
X85418Y315000D01*
X85744Y312520D01*
X86702Y310209D01*
X88224Y308225D01*
X90209Y306702D01*
X92520Y305744D01*
X95000Y305418D01*
X105000D01*
X107480Y305744D01*
X109791Y306702D01*
X111776Y308225D01*
X113298Y310209D01*
X114256Y312520D01*
X114582Y315000D01*
X114256Y317480D01*
X113298Y319791D01*
X111776Y321776D01*
X109791Y323298D01*
X107480Y324255D01*
X105000Y324582D01*
D02*
G37*
G36*
X359000Y299182D02*
X354750D01*
Y290350D01*
X368483D01*
X368256Y292080D01*
X367298Y294391D01*
X365775Y296376D01*
X363791Y297898D01*
X361480Y298855D01*
X359000Y299182D01*
D02*
G37*
G36*
X353250D02*
X349000D01*
X346520Y298855D01*
X344209Y297898D01*
X342225Y296376D01*
X340702Y294391D01*
X339744Y292080D01*
X339517Y290350D01*
X353250D01*
Y299182D01*
D02*
G37*
G36*
X81550Y423482D02*
X79070Y423156D01*
X76759Y422198D01*
X74774Y420676D01*
X73252Y418691D01*
X72295Y416380D01*
X71968Y413900D01*
Y403900D01*
X72295Y401420D01*
X73252Y399109D01*
X74774Y397124D01*
X76759Y395602D01*
X78491Y394884D01*
Y351446D01*
X76187Y349142D01*
X75524Y348149D01*
X75291Y346979D01*
X75291Y346979D01*
Y296776D01*
X75291Y296775D01*
X75524Y295605D01*
X76187Y294613D01*
X80475Y290325D01*
X80475Y290324D01*
X81468Y289662D01*
X82638Y289429D01*
X82638Y289429D01*
X85493D01*
X85744Y287520D01*
X86702Y285209D01*
X88224Y283225D01*
X90209Y281702D01*
X92520Y280744D01*
X95000Y280418D01*
X105000D01*
X107480Y280744D01*
X109791Y281702D01*
X111776Y283225D01*
X113298Y285209D01*
X114256Y287520D01*
X114582Y290000D01*
X114256Y292480D01*
X113298Y294791D01*
X111776Y296775D01*
X109791Y298298D01*
X107480Y299256D01*
X105000Y299582D01*
X95000D01*
X92520Y299256D01*
X90209Y298298D01*
X88224Y296775D01*
X87281Y295546D01*
X83905D01*
X81409Y298043D01*
Y345712D01*
X83713Y348016D01*
X83713Y348016D01*
X84376Y349008D01*
X84609Y350179D01*
X84609Y350179D01*
Y394884D01*
X86341Y395602D01*
X88325Y397124D01*
X89848Y399109D01*
X90805Y401420D01*
X91132Y403900D01*
Y413900D01*
X90805Y416380D01*
X89848Y418691D01*
X88325Y420676D01*
X86341Y422198D01*
X84030Y423156D01*
X81550Y423482D01*
D02*
G37*
G36*
X368483Y288850D02*
X354750D01*
Y280018D01*
X359000D01*
X361480Y280345D01*
X363791Y281302D01*
X365775Y282825D01*
X367298Y284809D01*
X368256Y287120D01*
X368483Y288850D01*
D02*
G37*
G36*
X353250D02*
X339517D01*
X339744Y287120D01*
X340702Y284809D01*
X342225Y282825D01*
X344209Y281302D01*
X346520Y280345D01*
X349000Y280018D01*
X353250D01*
Y288850D01*
D02*
G37*
G36*
X27238Y274320D02*
X21738D01*
Y270070D01*
X27238D01*
Y274320D01*
D02*
G37*
G36*
X20238D02*
X14738D01*
Y270070D01*
X20238D01*
Y274320D01*
D02*
G37*
G36*
X134366Y443752D02*
X132805Y443442D01*
X131482Y442558D01*
X130598Y441235D01*
X130349Y439983D01*
X125853Y435487D01*
X125190Y434495D01*
X124957Y433324D01*
X124957Y433324D01*
Y273047D01*
X119169Y267259D01*
X114016D01*
X113298Y268991D01*
X111776Y270975D01*
X109791Y272498D01*
X107480Y273456D01*
X105000Y273782D01*
X95000D01*
X92520Y273456D01*
X90209Y272498D01*
X88224Y270975D01*
X86702Y268991D01*
X85744Y266680D01*
X85418Y264200D01*
X85744Y261720D01*
X86702Y259409D01*
X88224Y257425D01*
X90209Y255902D01*
X92520Y254944D01*
X95000Y254618D01*
X105000D01*
X107480Y254944D01*
X109791Y255902D01*
X111776Y257425D01*
X113298Y259409D01*
X114016Y261141D01*
X120436D01*
X120436Y261141D01*
X121607Y261374D01*
X122599Y262037D01*
X130179Y269617D01*
X130179Y269617D01*
X130842Y270609D01*
X131075Y271780D01*
X131075Y271780D01*
Y432057D01*
X134675Y435657D01*
X135927Y435906D01*
X137250Y436790D01*
X138134Y438113D01*
X138444Y439674D01*
X138134Y441235D01*
X137250Y442558D01*
X135927Y443442D01*
X134366Y443752D01*
D02*
G37*
G36*
X27238Y268570D02*
X21738D01*
Y264320D01*
X27238D01*
Y268570D01*
D02*
G37*
G36*
X20238D02*
X14738D01*
Y264320D01*
X20238D01*
Y268570D01*
D02*
G37*
G36*
X359000Y273782D02*
X349000D01*
X346520Y273456D01*
X344209Y272498D01*
X342225Y270975D01*
X340702Y268991D01*
X339744Y266680D01*
X339418Y264200D01*
X339744Y261720D01*
X340702Y259409D01*
X342225Y257425D01*
X344209Y255902D01*
X346520Y254944D01*
X349000Y254618D01*
X359000D01*
X361480Y254944D01*
X363791Y255902D01*
X365775Y257425D01*
X367298Y259409D01*
X368256Y261720D01*
X368582Y264200D01*
X368256Y266680D01*
X367298Y268991D01*
X365775Y270975D01*
X363791Y272498D01*
X361480Y273456D01*
X359000Y273782D01*
D02*
G37*
G36*
X105000Y248382D02*
X95000D01*
X92520Y248055D01*
X90209Y247098D01*
X88224Y245576D01*
X86702Y243591D01*
X85984Y241859D01*
X57952D01*
X57952Y241859D01*
X56782Y241626D01*
X55789Y240963D01*
X55789Y240963D01*
X53987Y239161D01*
X53324Y238169D01*
X53091Y236998D01*
X53091Y236998D01*
Y152200D01*
X29827Y128936D01*
X29164Y127944D01*
X28932Y126773D01*
X28932Y126773D01*
Y56016D01*
X27199Y55298D01*
X25215Y53776D01*
X23692Y51791D01*
X22735Y49480D01*
X22408Y47000D01*
Y37000D01*
X22735Y34520D01*
X23692Y32209D01*
X25215Y30224D01*
X27199Y28702D01*
X29510Y27745D01*
X31990Y27418D01*
X34470Y27745D01*
X36781Y28702D01*
X38766Y30224D01*
X40289Y32209D01*
X41246Y34520D01*
X41572Y37000D01*
Y47000D01*
X41246Y49480D01*
X40289Y51791D01*
X38766Y53776D01*
X36781Y55298D01*
X35049Y56016D01*
Y125506D01*
X58313Y148770D01*
X58976Y149763D01*
X59209Y150933D01*
Y235731D01*
X59219Y235741D01*
X85984D01*
X86702Y234009D01*
X88224Y232025D01*
X90209Y230502D01*
X92520Y229545D01*
X95000Y229218D01*
X105000D01*
X107480Y229545D01*
X109791Y230502D01*
X111776Y232025D01*
X113298Y234009D01*
X114256Y236320D01*
X114582Y238800D01*
X114256Y241280D01*
X113298Y243591D01*
X111776Y245576D01*
X109791Y247098D01*
X107480Y248055D01*
X105000Y248382D01*
D02*
G37*
G36*
X359000D02*
X349000D01*
X346520Y248055D01*
X344209Y247098D01*
X342225Y245576D01*
X340702Y243591D01*
X339744Y241280D01*
X339418Y238800D01*
X339744Y236320D01*
X340702Y234009D01*
X342225Y232025D01*
X344209Y230502D01*
X346520Y229545D01*
X349000Y229218D01*
X359000D01*
X361480Y229545D01*
X363791Y230502D01*
X365775Y232025D01*
X367298Y234009D01*
X368256Y236320D01*
X368582Y238800D01*
X368256Y241280D01*
X367298Y243591D01*
X365775Y245576D01*
X363791Y247098D01*
X361480Y248055D01*
X359000Y248382D01*
D02*
G37*
G36*
X27238Y258320D02*
X14738D01*
Y248320D01*
X17929D01*
Y221820D01*
X14738D01*
Y212820D01*
X27238D01*
Y221820D01*
X24047D01*
Y248320D01*
X27238D01*
Y258320D01*
D02*
G37*
G36*
X359000Y222982D02*
X349000D01*
X346520Y222656D01*
X344209Y221698D01*
X342225Y220175D01*
X340702Y218191D01*
X339744Y215880D01*
X339418Y213400D01*
X339744Y210920D01*
X340702Y208609D01*
X342225Y206625D01*
X344209Y205102D01*
X346520Y204144D01*
X349000Y203818D01*
X359000D01*
X361480Y204144D01*
X363791Y205102D01*
X365775Y206625D01*
X367298Y208609D01*
X368256Y210920D01*
X368582Y213400D01*
X368256Y215880D01*
X367298Y218191D01*
X365775Y220175D01*
X363791Y221698D01*
X361480Y222656D01*
X359000Y222982D01*
D02*
G37*
G36*
X105000Y221582D02*
X95000D01*
X92520Y221255D01*
X90209Y220298D01*
X88224Y218776D01*
X86702Y216791D01*
X85744Y214480D01*
X85418Y212000D01*
X85744Y209520D01*
X86702Y207209D01*
X88224Y205225D01*
X90209Y203702D01*
X92520Y202745D01*
X95000Y202418D01*
X105000D01*
X107480Y202745D01*
X109791Y203702D01*
X111776Y205225D01*
X113298Y207209D01*
X114256Y209520D01*
X114582Y212000D01*
X114256Y214480D01*
X113298Y216791D01*
X111776Y218776D01*
X109791Y220298D01*
X107480Y221255D01*
X105000Y221582D01*
D02*
G37*
G36*
Y197582D02*
X95000D01*
X92520Y197255D01*
X90209Y196298D01*
X88224Y194776D01*
X86702Y192791D01*
X85744Y190480D01*
X85418Y188000D01*
X85744Y185520D01*
X86702Y183209D01*
X88224Y181225D01*
X90209Y179702D01*
X92520Y178745D01*
X95000Y178418D01*
X105000D01*
X107480Y178745D01*
X109791Y179702D01*
X111776Y181225D01*
X113298Y183209D01*
X114256Y185520D01*
X114582Y188000D01*
X114256Y190480D01*
X113298Y192791D01*
X111776Y194776D01*
X109791Y196298D01*
X107480Y197255D01*
X105000Y197582D01*
D02*
G37*
G36*
X27238Y205820D02*
X14738D01*
Y196820D01*
X17179D01*
Y174326D01*
X16470Y173265D01*
X16160Y171704D01*
X16470Y170143D01*
X17354Y168820D01*
X18677Y167936D01*
X20238Y167626D01*
X21799Y167936D01*
X23122Y168820D01*
X24006Y170143D01*
X24316Y171704D01*
X24006Y173265D01*
X23297Y174326D01*
Y196820D01*
X27238D01*
Y205820D01*
D02*
G37*
G36*
X262350Y56483D02*
Y42750D01*
X271182D01*
Y47000D01*
X270856Y49480D01*
X269898Y51791D01*
X268375Y53776D01*
X266391Y55298D01*
X264080Y56255D01*
X262350Y56483D01*
D02*
G37*
G36*
X260850D02*
X259120Y56255D01*
X256809Y55298D01*
X254825Y53776D01*
X253302Y51791D01*
X252345Y49480D01*
X252018Y47000D01*
Y42750D01*
X260850D01*
Y56483D01*
D02*
G37*
G36*
X271182Y41250D02*
X262350D01*
Y27517D01*
X264080Y27745D01*
X266391Y28702D01*
X268375Y30224D01*
X269898Y32209D01*
X270856Y34520D01*
X271182Y37000D01*
Y41250D01*
D02*
G37*
G36*
X260850D02*
X252018D01*
Y37000D01*
X252345Y34520D01*
X253302Y32209D01*
X254825Y30224D01*
X256809Y28702D01*
X259120Y27745D01*
X260850Y27517D01*
Y41250D01*
D02*
G37*
G36*
X207618Y407944D02*
X205618D01*
X203472Y407517D01*
X201653Y406301D01*
X200437Y404482D01*
X200010Y402336D01*
X200437Y400190D01*
X201653Y398371D01*
X203472Y397155D01*
X205618Y396728D01*
X207618D01*
X209764Y397155D01*
X211583Y398371D01*
X212189Y399277D01*
X229293D01*
X242723Y385848D01*
Y85251D01*
X233803Y76331D01*
X233140Y75339D01*
X232907Y74168D01*
X232907Y74168D01*
Y55919D01*
X231409Y55298D01*
X229425Y53776D01*
X227902Y51791D01*
X226945Y49480D01*
X226618Y47000D01*
Y37000D01*
X226945Y34520D01*
X227902Y32209D01*
X229425Y30224D01*
X231409Y28702D01*
X233720Y27745D01*
X236200Y27418D01*
X238680Y27745D01*
X240991Y28702D01*
X242976Y30224D01*
X244498Y32209D01*
X245455Y34520D01*
X245782Y37000D01*
Y47000D01*
X245455Y49480D01*
X244498Y51791D01*
X242976Y53776D01*
X240991Y55298D01*
X239025Y56113D01*
Y72901D01*
X247945Y81821D01*
X248608Y82813D01*
X248841Y83984D01*
X248841Y83984D01*
Y387114D01*
X248608Y388285D01*
X247945Y389277D01*
X247945Y389277D01*
X232723Y404499D01*
X231731Y405162D01*
X230560Y405395D01*
X230560Y405395D01*
X212189D01*
X211583Y406301D01*
X209764Y407517D01*
X207618Y407944D01*
D02*
G37*
G36*
X208320Y268278D02*
X206759Y267968D01*
X205436Y267084D01*
X204552Y265761D01*
X204242Y264200D01*
X204552Y262639D01*
X205436Y261316D01*
X205644Y261177D01*
Y55018D01*
X204025Y53776D01*
X202502Y51791D01*
X201545Y49480D01*
X201218Y47000D01*
Y37000D01*
X201545Y34520D01*
X202502Y32209D01*
X204025Y30224D01*
X206009Y28702D01*
X208320Y27745D01*
X210800Y27418D01*
X213280Y27745D01*
X215591Y28702D01*
X217575Y30224D01*
X219098Y32209D01*
X220056Y34520D01*
X220382Y37000D01*
Y47000D01*
X220056Y49480D01*
X219098Y51791D01*
X217575Y53776D01*
X215591Y55298D01*
X213280Y56255D01*
X211761Y56455D01*
Y262151D01*
X212088Y262639D01*
X212398Y264200D01*
X212088Y265761D01*
X211204Y267084D01*
X209881Y267968D01*
X208320Y268278D01*
D02*
G37*
G36*
X185000Y239809D02*
X183439Y239499D01*
X182116Y238615D01*
X181232Y237292D01*
X180922Y235731D01*
X181232Y234170D01*
X181941Y233109D01*
Y56016D01*
X180209Y55298D01*
X178225Y53776D01*
X176702Y51791D01*
X175745Y49480D01*
X175418Y47000D01*
Y37000D01*
X175745Y34520D01*
X176702Y32209D01*
X178225Y30224D01*
X180209Y28702D01*
X182520Y27745D01*
X185000Y27418D01*
X187480Y27745D01*
X189791Y28702D01*
X191775Y30224D01*
X193298Y32209D01*
X194256Y34520D01*
X194582Y37000D01*
Y47000D01*
X194256Y49480D01*
X193298Y51791D01*
X191775Y53776D01*
X189791Y55298D01*
X188059Y56016D01*
Y233109D01*
X188768Y234170D01*
X189078Y235731D01*
X188768Y237292D01*
X187884Y238615D01*
X186561Y239499D01*
X185000Y239809D01*
D02*
G37*
G36*
X207618Y395244D02*
X205618D01*
X203472Y394817D01*
X201653Y393601D01*
X200437Y391782D01*
X200010Y389636D01*
X200437Y387490D01*
X201653Y385671D01*
X203472Y384455D01*
X203559Y384438D01*
Y368284D01*
X203559Y368284D01*
X203792Y367114D01*
X204455Y366121D01*
X204670Y365906D01*
Y362058D01*
X142363Y299751D01*
X141700Y298759D01*
X141467Y297588D01*
X141467Y297588D01*
Y214622D01*
X140758Y213561D01*
X140448Y212000D01*
X140758Y210439D01*
X141467Y209378D01*
Y141306D01*
X140758Y140245D01*
X140448Y138684D01*
X140758Y137123D01*
X141642Y135800D01*
X142965Y134916D01*
X144217Y134667D01*
X156941Y121943D01*
Y56016D01*
X155209Y55298D01*
X153225Y53776D01*
X151702Y51791D01*
X150745Y49480D01*
X150418Y47000D01*
Y37000D01*
X150745Y34520D01*
X151702Y32209D01*
X153225Y30224D01*
X155209Y28702D01*
X157520Y27745D01*
X160000Y27418D01*
X162480Y27745D01*
X164791Y28702D01*
X166775Y30224D01*
X168298Y32209D01*
X169256Y34520D01*
X169582Y37000D01*
Y47000D01*
X169256Y49480D01*
X168298Y51791D01*
X166775Y53776D01*
X164791Y55298D01*
X163059Y56016D01*
Y123210D01*
X162826Y124381D01*
X162163Y125373D01*
X162163Y125373D01*
X148543Y138993D01*
X148294Y140245D01*
X147585Y141306D01*
Y209378D01*
X148294Y210439D01*
X148604Y212000D01*
X148294Y213561D01*
X147585Y214622D01*
Y296321D01*
X208996Y357732D01*
X213670D01*
Y370232D01*
X209676D01*
Y384438D01*
X209764Y384455D01*
X211583Y385671D01*
X212799Y387490D01*
X213225Y389636D01*
X212799Y391782D01*
X211583Y393601D01*
X209764Y394817D01*
X207618Y395244D01*
D02*
G37*
G36*
X56150Y423482D02*
X53670Y423156D01*
X51359Y422198D01*
X49374Y420676D01*
X47852Y418691D01*
X46894Y416380D01*
X46568Y413900D01*
Y403900D01*
X46894Y401420D01*
X47852Y399109D01*
X49374Y397124D01*
X51359Y395602D01*
X53670Y394645D01*
X55571Y394394D01*
Y358999D01*
X39493Y342921D01*
X38830Y341929D01*
X38597Y340758D01*
X38597Y340758D01*
Y160017D01*
X9267Y130687D01*
X8604Y129694D01*
X8371Y128524D01*
X8371Y128524D01*
Y26740D01*
X8371Y26740D01*
X8604Y25570D01*
X9267Y24577D01*
X21529Y12315D01*
X21529Y12315D01*
X22522Y11652D01*
X23692Y11419D01*
X29868D01*
X29868Y11419D01*
X31039Y11652D01*
X32031Y12315D01*
X49982Y30266D01*
X50615Y30224D01*
X52599Y28702D01*
X54910Y27745D01*
X57390Y27418D01*
X59870Y27745D01*
X62181Y28702D01*
X64166Y30224D01*
X65689Y32209D01*
X66646Y34520D01*
X66972Y37000D01*
Y47000D01*
X66646Y49480D01*
X65689Y51791D01*
X64166Y53776D01*
X62181Y55298D01*
X59870Y56255D01*
X57390Y56582D01*
X54910Y56255D01*
X52599Y55298D01*
X50615Y53776D01*
X49092Y51791D01*
X48135Y49480D01*
X47808Y47000D01*
Y37000D01*
X47842Y36744D01*
X47740Y36676D01*
X47740Y36675D01*
X28601Y17537D01*
X24959D01*
X14489Y28007D01*
Y127257D01*
X43819Y156587D01*
X44482Y157579D01*
X44715Y158750D01*
Y339491D01*
X60793Y355569D01*
X61456Y356562D01*
X61689Y357732D01*
X61689Y357732D01*
Y396176D01*
X62925Y397124D01*
X64448Y399109D01*
X65405Y401420D01*
X65732Y403900D01*
Y413900D01*
X65405Y416380D01*
X64448Y418691D01*
X62925Y420676D01*
X60941Y422198D01*
X58630Y423156D01*
X56150Y423482D01*
D02*
G37*
G36*
X82790Y56582D02*
X80310Y56255D01*
X77999Y55298D01*
X76015Y53776D01*
X74492Y51791D01*
X73535Y49480D01*
X73208Y47000D01*
Y37000D01*
X73535Y34520D01*
X74492Y32209D01*
X76015Y30224D01*
X77999Y28702D01*
X80310Y27745D01*
X82790Y27418D01*
X85270Y27745D01*
X87581Y28702D01*
X89566Y30224D01*
X90198Y30266D01*
X112467Y7997D01*
X112467Y7997D01*
X113460Y7334D01*
X114630Y7101D01*
X114630Y7101D01*
X357560D01*
X357560Y7101D01*
X358731Y7334D01*
X359723Y7997D01*
X380992Y29266D01*
X381625Y29225D01*
X383609Y27702D01*
X385920Y26744D01*
X388400Y26418D01*
X390880Y26744D01*
X393191Y27702D01*
X395176Y29225D01*
X396698Y31209D01*
X397655Y33520D01*
X397982Y36000D01*
Y46000D01*
X397655Y48480D01*
X396698Y50791D01*
X395176Y52776D01*
X393191Y54298D01*
X390880Y55255D01*
X388400Y55582D01*
X385920Y55255D01*
X383609Y54298D01*
X381625Y52776D01*
X380102Y50791D01*
X379145Y48480D01*
X378818Y46000D01*
Y36000D01*
X378852Y35744D01*
X378750Y35675D01*
X356293Y13219D01*
X115897D01*
X92441Y36676D01*
X92338Y36744D01*
X92372Y37000D01*
Y47000D01*
X92046Y49480D01*
X91088Y51791D01*
X89566Y53776D01*
X87581Y55298D01*
X85270Y56255D01*
X82790Y56582D01*
D02*
G37*
G36*
X363000Y422582D02*
X360520Y422256D01*
X358209Y421298D01*
X356225Y419776D01*
X354702Y417791D01*
X353745Y415480D01*
X353418Y413000D01*
Y403000D01*
X353745Y400520D01*
X354702Y398209D01*
X356225Y396225D01*
X358209Y394702D01*
X359941Y393984D01*
Y387923D01*
X359941Y387923D01*
X360174Y386752D01*
X360837Y385760D01*
X390132Y356465D01*
Y110994D01*
X360549Y81411D01*
X359886Y80419D01*
X359653Y79248D01*
X359653Y79248D01*
Y54896D01*
X358209Y54298D01*
X356225Y52776D01*
X354702Y50791D01*
X353745Y48480D01*
X353418Y46000D01*
Y36000D01*
X353745Y33520D01*
X354702Y31209D01*
X356225Y29225D01*
X358209Y27702D01*
X360520Y26744D01*
X363000Y26418D01*
X365480Y26744D01*
X367791Y27702D01*
X369776Y29225D01*
X371298Y31209D01*
X372256Y33520D01*
X372582Y36000D01*
Y46000D01*
X372256Y48480D01*
X371298Y50791D01*
X369776Y52776D01*
X367791Y54298D01*
X365771Y55135D01*
Y77981D01*
X395354Y107564D01*
X395354Y107564D01*
X396017Y108556D01*
X396250Y109727D01*
X396250Y109727D01*
Y357732D01*
X396250Y357732D01*
X396017Y358903D01*
X395354Y359895D01*
X366059Y389190D01*
Y393984D01*
X367791Y394702D01*
X369776Y396225D01*
X371298Y398209D01*
X372256Y400520D01*
X372582Y403000D01*
Y413000D01*
X372256Y415480D01*
X371298Y417791D01*
X369776Y419776D01*
X367791Y421298D01*
X365480Y422256D01*
X363000Y422582D01*
D02*
G37*
G36*
X315471Y318530D02*
X313910Y318220D01*
X312587Y317336D01*
X311703Y316013D01*
X311393Y314452D01*
X311703Y312891D01*
X312412Y311830D01*
Y68129D01*
X312412Y68129D01*
X312645Y66958D01*
X313308Y65966D01*
X329062Y50212D01*
X328345Y48480D01*
X328018Y46000D01*
Y36000D01*
X328345Y33520D01*
X329302Y31209D01*
X330825Y29225D01*
X332809Y27702D01*
X335120Y26744D01*
X337600Y26418D01*
X340080Y26744D01*
X342391Y27702D01*
X344375Y29225D01*
X345898Y31209D01*
X346856Y33520D01*
X347182Y36000D01*
Y46000D01*
X346856Y48480D01*
X345898Y50791D01*
X344375Y52776D01*
X342391Y54298D01*
X340080Y55255D01*
X337600Y55582D01*
X335120Y55255D01*
X333388Y54538D01*
X318530Y69396D01*
Y311830D01*
X319239Y312891D01*
X319549Y314452D01*
X319239Y316013D01*
X318355Y317336D01*
X317032Y318220D01*
X315471Y318530D01*
D02*
G37*
%LPD*%
D13*
X20988Y217320D02*
D03*
Y201320D02*
D03*
D14*
Y253320D02*
D03*
Y269320D02*
D03*
D15*
X209170Y363982D02*
D03*
X225170D02*
D03*
D22*
X315471Y68129D02*
X337600Y46000D01*
Y41000D02*
Y46000D01*
X315471Y68129D02*
Y314452D01*
X208703Y44097D02*
X210800Y42000D01*
X208703Y44097D02*
Y263817D01*
X208320Y264200D02*
X208703Y263817D01*
X185000Y42000D02*
Y235731D01*
X144526Y212000D02*
Y297588D01*
Y138684D02*
Y212000D01*
X209170Y362232D02*
Y363982D01*
X144526Y297588D02*
X209170Y362232D01*
X20238Y171704D02*
Y200570D01*
X20988Y201320D01*
X160000Y42000D02*
Y123210D01*
X144526Y138684D02*
X160000Y123210D01*
X235966Y42234D02*
Y74168D01*
Y42234D02*
X236200Y42000D01*
X245782Y83984D02*
Y387114D01*
X235966Y74168D02*
X245782Y83984D01*
X230560Y402336D02*
X245782Y387114D01*
X206618Y402336D02*
X230560D01*
X206618Y368284D02*
Y389636D01*
Y368284D02*
X209170Y365732D01*
Y363982D02*
Y365732D01*
X128016Y433324D02*
X134366Y439674D01*
X128016Y271780D02*
Y433324D01*
X100000Y264200D02*
X120436D01*
X128016Y271780D01*
X82790Y40518D02*
X88795Y34513D01*
X90278D02*
X114630Y10160D01*
X82790Y40518D02*
Y42000D01*
X88795Y34513D02*
X90278D01*
X114630Y10160D02*
X357560D01*
X388400Y39518D02*
Y41000D01*
X382395Y33513D02*
X388400Y39518D01*
X380913Y33513D02*
X382395D01*
X357560Y10160D02*
X380913Y33513D01*
X56150Y408900D02*
X58630Y406420D01*
Y357732D02*
Y406420D01*
X41656Y340758D02*
X58630Y357732D01*
X41656Y158750D02*
Y340758D01*
X11430Y128524D02*
X41656Y158750D01*
X11430Y26740D02*
Y128524D01*
Y26740D02*
X23692Y14478D01*
X29868D01*
X57390Y40518D02*
Y42000D01*
X51385Y34513D02*
X57390Y40518D01*
X49903Y34513D02*
X51385D01*
X29868Y14478D02*
X49903Y34513D01*
X56150Y236998D02*
X57952Y238800D01*
X100000D01*
X56150Y150933D02*
Y236998D01*
X31990Y126773D02*
X56150Y150933D01*
X31990Y42000D02*
Y126773D01*
X20988Y217320D02*
Y253320D01*
X362712Y41288D02*
Y79248D01*
Y41288D02*
X363000Y41000D01*
X393191Y109727D02*
Y357732D01*
X362712Y79248D02*
X393191Y109727D01*
X363000Y387923D02*
X393191Y357732D01*
X363000Y387923D02*
Y408000D01*
X78350Y346979D02*
X81550Y350179D01*
Y408900D01*
X78350Y296775D02*
Y346979D01*
X82638Y292487D02*
X97513D01*
X100000Y290000D01*
X78350Y296775D02*
X82638Y292487D01*
D23*
X354000Y213400D02*
D03*
Y238800D02*
D03*
Y264200D02*
D03*
Y289600D02*
D03*
X100000Y188000D02*
D03*
Y212000D02*
D03*
Y238800D02*
D03*
Y315000D02*
D03*
Y290000D02*
D03*
Y264200D02*
D03*
D24*
X261600Y42000D02*
D03*
X210800D02*
D03*
X185000D02*
D03*
X160000D02*
D03*
X236200D02*
D03*
X337600Y408000D02*
D03*
X363000D02*
D03*
X388400D02*
D03*
X30750Y408900D02*
D03*
X56150D02*
D03*
X81550D02*
D03*
X82790Y42000D02*
D03*
X57390D02*
D03*
X31990D02*
D03*
X388400Y41000D02*
D03*
X363000D02*
D03*
X337600D02*
D03*
D25*
X206618Y415036D02*
D03*
Y402336D02*
D03*
Y389636D02*
D03*
D26*
X315471Y314452D02*
D03*
X185000Y235731D02*
D03*
X208320Y264200D02*
D03*
X144526Y212000D02*
D03*
X20238Y171704D02*
D03*
X144526Y138684D02*
D03*
X134366Y439674D02*
D03*
M02*
