M48
;Layer_Color=9474304
;FILE_FORMAT=4:4
METRIC,LZ
;TYPE=PLATED
T1F00S00C0.3000
T2F00S00C0.6000
T3F00S00C0.8000
T4F00S00C1.0000
T5F00S00C1.0160
T6F00S00C1.2000
T7F00S00C3.1000
;TYPE=NON_PLATED
T8F00S00C1.6510
%
T01
X0042849Y00011
X0053075Y0025775
X0066Y002845
X006465Y003275
X0065325Y003535
X00679986Y00339236
X006895Y0031225
X0069625Y0030925
X0072175Y003005
X0068325Y0042325
X0037075Y0036325
X00318008Y00406654
X0025654Y00411226
X0021799Y00376174
X0019685Y00379222
X00174438Y003785
X00176764Y002529
X0019685Y00263216
X0021799Y00269716
X00219046Y00213
X00277622Y00173178
X00276Y0014075
X0036285Y00159
X00360344Y00258908
X00352207Y00264069
X00343916Y0027051
X00325131Y00276216
X00318516Y0028321
X0033475Y00295716
X00299619Y0031848
X00287169Y00307841
X00274828Y00322072
X00301119Y00425066
X0032639Y00432816
X00334264Y00454914
X00344932Y00494284
X00353269Y00525109
X00364744Y00519938
X00287528Y00507492
X00274828Y00466344
X006175Y0046875
X006895Y0046325
X007095Y004915
T02
X004513Y0015232
X004767
Y0017772
X005021
Y0015232
X004513Y0017772
X0050591Y0055262
X0053131
T03
X008265Y00187778
Y00207778
X008465
Y00187778
X008065
Y00207778
T04
X0081925Y0003225
X0084465
X0086965
X0079385
X006609Y0003175
X006359
X006105
X0054875Y000315
X0052375
X0049835
X0047295
X0041325Y0003225
X0038825
X0036285
X00300777Y000325
X00275777
X00250377
X00116152Y00032
X00091152
X00065752
X00040352
X00041402Y00243078
Y00268478
Y00294278
Y00319278
Y00344678
Y00370078
Y00395478
Y00421278
Y00446278
T05
X005529Y001767
Y002021
Y002275
Y002529
Y002783
Y003037
Y003291
Y003545
Y003799
Y004053
X004005
Y003799
Y003545
Y003291
Y003037
Y002783
Y002529
Y002275
Y002021
Y001767
Y004307
Y004561
Y004815
Y005069
Y005323
X005529
Y005069
Y004815
Y004561
Y004307
T06
X008745Y00197778
X007785
T07
X0072925Y00060734
X00671402Y00173278
X0074375Y00371
X001875Y00062984
X00056902Y00173178
Y00517878
X00670902Y00516278
T08
X005529Y001513
X004005
Y005577
X005529
M30
