G04*
G04 #@! TF.GenerationSoftware,Altium Limited,Altium Designer,21.0.9 (235)*
G04*
G04 Layer_Color=32896*
%FSLAX44Y44*%
%MOMM*%
G71*
G04*
G04 #@! TF.SameCoordinates,2588B0E2-F362-4AB3-B6B3-F61507E4C0EF*
G04*
G04*
G04 #@! TF.FilePolarity,Positive*
G04*
G01*
G75*
%ADD12C,0.2000*%
D12*
X303870Y517495D02*
Y503498D01*
Y517495D02*
X297871D01*
X295872Y516828D01*
X295205Y516162D01*
X294539Y514829D01*
Y513496D01*
X295205Y512163D01*
X295872Y511496D01*
X297871Y510830D01*
X303870D02*
X297871D01*
X295872Y510163D01*
X295205Y509497D01*
X294539Y508164D01*
Y506164D01*
X295205Y504831D01*
X295872Y504165D01*
X297871Y503498D01*
X303870D01*
X282741Y517495D02*
X291406D01*
Y503498D01*
X282741D01*
X291406Y510830D02*
X286074D01*
X271744Y517495D02*
X280408D01*
Y503498D01*
X271744D01*
X280408Y510830D02*
X275076D01*
X264745Y517495D02*
Y503498D01*
X269411Y517495D02*
X260079D01*
X249748D02*
X258413D01*
Y503498D01*
X249748D01*
X258413Y510830D02*
X253081D01*
X237418Y514162D02*
X238084Y515495D01*
X239417Y516828D01*
X240750Y517495D01*
X243416D01*
X244749Y516828D01*
X246082Y515495D01*
X246749Y514162D01*
X247416Y512163D01*
Y508830D01*
X246749Y506831D01*
X246082Y505498D01*
X244749Y504165D01*
X243416Y503498D01*
X240750D01*
X239417Y504165D01*
X238084Y505498D01*
X237418Y506831D01*
X233485Y517495D02*
Y503498D01*
X224154Y517495D02*
Y503498D01*
X233485Y510830D02*
X224154D01*
X303816Y491042D02*
Y481044D01*
Y491042D02*
X300007Y481044D01*
X296199Y491042D02*
X300007Y481044D01*
X296199Y491042D02*
Y481044D01*
X285725D02*
X289533Y491042D01*
X293342Y481044D01*
X291914Y484377D02*
X287153D01*
X283392Y491042D02*
Y481044D01*
X281297Y491042D02*
Y481044D01*
Y491042D02*
X274632Y481044D01*
Y491042D02*
Y481044D01*
X271870Y491042D02*
Y481044D01*
Y491042D02*
X267586D01*
X266157Y490566D01*
X265681Y490090D01*
X265205Y489137D01*
Y488185D01*
X265681Y487233D01*
X266157Y486757D01*
X267586Y486281D01*
X271870D02*
X267586D01*
X266157Y485805D01*
X265681Y485329D01*
X265205Y484377D01*
Y482948D01*
X265681Y481996D01*
X266157Y481520D01*
X267586Y481044D01*
X271870D01*
X260111Y491042D02*
X261063Y490566D01*
X262015Y489614D01*
X262491Y488661D01*
X262968Y487233D01*
Y484853D01*
X262491Y483424D01*
X262015Y482472D01*
X261063Y481520D01*
X260111Y481044D01*
X258207D01*
X257255Y481520D01*
X256302Y482472D01*
X255826Y483424D01*
X255350Y484853D01*
Y487233D01*
X255826Y488661D01*
X256302Y489614D01*
X257255Y490566D01*
X258207Y491042D01*
X260111D01*
X245400Y481044D02*
X249209Y491042D01*
X253017Y481044D01*
X251589Y484377D02*
X246828D01*
X243067Y491042D02*
Y481044D01*
Y491042D02*
X238782D01*
X237354Y490566D01*
X236878Y490090D01*
X236402Y489137D01*
Y488185D01*
X236878Y487233D01*
X237354Y486757D01*
X238782Y486281D01*
X243067D01*
X239734D02*
X236402Y481044D01*
X234164Y491042D02*
Y481044D01*
Y491042D02*
X230832D01*
X229403Y490566D01*
X228451Y489614D01*
X227975Y488661D01*
X227499Y487233D01*
Y484853D01*
X227975Y483424D01*
X228451Y482472D01*
X229403Y481520D01*
X230832Y481044D01*
X234164D01*
X217406Y491042D02*
X213597Y481044D01*
X209789Y491042D02*
X213597Y481044D01*
X202314Y491042D02*
X208503D01*
Y481044D01*
X202314D01*
X208503Y486281D02*
X204694D01*
X200648Y491042D02*
Y481044D01*
Y491042D02*
X196363D01*
X194935Y490566D01*
X194459Y490090D01*
X193982Y489137D01*
Y488185D01*
X194459Y487233D01*
X194935Y486757D01*
X196363Y486281D01*
X200648D01*
X197315D02*
X193982Y481044D01*
X185080Y489614D02*
X186032Y490566D01*
X187460Y491042D01*
X189364D01*
X190793Y490566D01*
X191745Y489614D01*
Y488661D01*
X191269Y487709D01*
X190793Y487233D01*
X189840Y486757D01*
X186984Y485805D01*
X186032Y485329D01*
X185556Y484853D01*
X185080Y483900D01*
Y482472D01*
X186032Y481520D01*
X187460Y481044D01*
X189364D01*
X190793Y481520D01*
X191745Y482472D01*
X182842Y491042D02*
Y481044D01*
X177891Y491042D02*
X178843Y490566D01*
X179795Y489614D01*
X180271Y488661D01*
X180747Y487233D01*
Y484853D01*
X180271Y483424D01*
X179795Y482472D01*
X178843Y481520D01*
X177891Y481044D01*
X175986D01*
X175034Y481520D01*
X174082Y482472D01*
X173606Y483424D01*
X173130Y484853D01*
Y487233D01*
X173606Y488661D01*
X174082Y489614D01*
X175034Y490566D01*
X175986Y491042D01*
X177891D01*
X170797D02*
Y481044D01*
Y491042D02*
X164132Y481044D01*
Y491042D02*
Y481044D01*
X150658Y491042D02*
X152087Y490566D01*
X153039Y489137D01*
X153515Y486757D01*
Y485329D01*
X153039Y482948D01*
X152087Y481520D01*
X150658Y481044D01*
X149706D01*
X148278Y481520D01*
X147326Y482948D01*
X146850Y485329D01*
Y486757D01*
X147326Y489137D01*
X148278Y490566D01*
X149706Y491042D01*
X150658D01*
X144136Y488661D02*
Y489137D01*
X143660Y490090D01*
X143184Y490566D01*
X142232Y491042D01*
X140327D01*
X139375Y490566D01*
X138899Y490090D01*
X138423Y489137D01*
Y488185D01*
X138899Y487233D01*
X139851Y485805D01*
X144612Y481044D01*
X137947D01*
M02*
