G04*
G04 #@! TF.GenerationSoftware,Altium Limited,Altium Designer,21.0.9 (235)*
G04*
G04 Layer_Physical_Order=2*
G04 Layer_Color=16711680*
%FSLAX44Y44*%
%MOMM*%
G71*
G04*
G04 #@! TF.SameCoordinates,2588B0E2-F362-4AB3-B6B3-F61507E4C0EF*
G04*
G04*
G04 #@! TF.FilePolarity,Positive*
G04*
G01*
G75*
%ADD51C,6.0000*%
%ADD52C,0.3000*%
%ADD53C,0.5000*%
%ADD54C,2.0000*%
%ADD55C,1.2000*%
%ADD56C,1.0000*%
%ADD57C,1.6510*%
%ADD58O,3.0480X1.5240*%
%ADD59O,2.6000X1.6000*%
%ADD60O,1.6000X2.6000*%
%ADD61C,0.5000*%
%ADD62C,5.0000*%
G36*
X397750Y568442D02*
X397953Y567204D01*
X395580Y566221D01*
X393543Y564657D01*
X391979Y562620D01*
X390996Y560247D01*
X390661Y557700D01*
X390996Y555154D01*
X391979Y552780D01*
X393543Y550743D01*
X395580Y549179D01*
X397953Y548196D01*
X400500Y547861D01*
X403047Y548196D01*
X405420Y549179D01*
X407457Y550743D01*
X409021Y552780D01*
X410004Y555154D01*
X410339Y557700D01*
X410004Y560247D01*
X409021Y562620D01*
X407457Y564657D01*
X405420Y566221D01*
X403047Y567204D01*
X403250Y568442D01*
X550150Y568441D01*
X550353Y567204D01*
X547980Y566221D01*
X545943Y564657D01*
X544379Y562620D01*
X543396Y560247D01*
X543061Y557700D01*
X543396Y555154D01*
X544379Y552780D01*
X545943Y550743D01*
X547980Y549179D01*
X550354Y548196D01*
X552900Y547861D01*
X555447Y548196D01*
X557820Y549179D01*
X559857Y550743D01*
X561421Y552780D01*
X562404Y555154D01*
X562739Y557700D01*
X562404Y560247D01*
X561421Y562620D01*
X559857Y564657D01*
X557820Y566221D01*
X555447Y567204D01*
X555650Y568441D01*
X898441Y568441D01*
X898441Y1558D01*
X1558Y1558D01*
X1558Y568442D01*
X397750Y568442D01*
D02*
G37*
%LPC*%
G36*
X531310Y559176D02*
X529613Y558953D01*
X528032Y558298D01*
X526674Y557256D01*
X525632Y555898D01*
X524977Y554317D01*
X524754Y552620D01*
X524977Y550923D01*
X525632Y549342D01*
X526674Y547984D01*
X528032Y546942D01*
X529613Y546287D01*
X531310Y546064D01*
X533007Y546287D01*
X534588Y546942D01*
X535946Y547984D01*
X536988Y549342D01*
X537643Y550923D01*
X537866Y552620D01*
X537643Y554317D01*
X536988Y555898D01*
X535946Y557256D01*
X534588Y558298D01*
X533007Y558953D01*
X531310Y559176D01*
D02*
G37*
G36*
X505910D02*
X504213Y558953D01*
X502632Y558298D01*
X501274Y557256D01*
X500232Y555898D01*
X499577Y554317D01*
X499354Y552620D01*
X499577Y550923D01*
X500232Y549342D01*
X501274Y547984D01*
X502632Y546942D01*
X504213Y546287D01*
X505910Y546064D01*
X507607Y546287D01*
X509188Y546942D01*
X510546Y547984D01*
X511588Y549342D01*
X512243Y550923D01*
X512466Y552620D01*
X512243Y554317D01*
X511588Y555898D01*
X510546Y557256D01*
X509188Y558298D01*
X507607Y558953D01*
X505910Y559176D01*
D02*
G37*
G36*
X568140Y541499D02*
X552900D01*
X550519Y541185D01*
X548301Y540266D01*
X546396Y538805D01*
X544934Y536899D01*
X544015Y534681D01*
X543701Y532300D01*
X544015Y529919D01*
X544934Y527701D01*
X546396Y525796D01*
X548301Y524334D01*
X550519Y523415D01*
X552900Y523101D01*
X568140D01*
X570521Y523415D01*
X572739Y524334D01*
X574645Y525796D01*
X576106Y527701D01*
X577025Y529919D01*
X577339Y532300D01*
X577025Y534681D01*
X576106Y536899D01*
X574645Y538805D01*
X572739Y540266D01*
X570521Y541185D01*
X568140Y541499D01*
D02*
G37*
G36*
X400500D02*
X385260D01*
X382879Y541185D01*
X380661Y540266D01*
X378756Y538805D01*
X377294Y536899D01*
X376375Y534681D01*
X376061Y532300D01*
X376375Y529919D01*
X377294Y527701D01*
X378756Y525796D01*
X380661Y524334D01*
X382879Y523415D01*
X385260Y523101D01*
X400500D01*
X402881Y523415D01*
X405099Y524334D01*
X407005Y525796D01*
X408466Y527701D01*
X409385Y529919D01*
X409699Y532300D01*
X409385Y534681D01*
X408466Y536899D01*
X407005Y538805D01*
X405099Y540266D01*
X402881Y541185D01*
X400500Y541499D01*
D02*
G37*
G36*
X568140Y516099D02*
X552900D01*
X550519Y515785D01*
X548301Y514866D01*
X546396Y513405D01*
X544934Y511499D01*
X544015Y509281D01*
X543701Y506900D01*
X544015Y504519D01*
X544934Y502301D01*
X546396Y500396D01*
X548301Y498934D01*
X550519Y498015D01*
X552900Y497701D01*
X568140D01*
X570521Y498015D01*
X572739Y498934D01*
X574645Y500396D01*
X576106Y502301D01*
X577025Y504519D01*
X577339Y506900D01*
X577025Y509281D01*
X576106Y511499D01*
X574645Y513405D01*
X572739Y514866D01*
X570521Y515785D01*
X568140Y516099D01*
D02*
G37*
G36*
X400500D02*
X385260D01*
X382879Y515785D01*
X380661Y514866D01*
X378756Y513405D01*
X377294Y511499D01*
X376375Y509281D01*
X376061Y506900D01*
X376375Y504519D01*
X377294Y502301D01*
X378756Y500396D01*
X380661Y498934D01*
X382879Y498015D01*
X385260Y497701D01*
X400500D01*
X402881Y498015D01*
X405099Y498934D01*
X407005Y500396D01*
X408466Y502301D01*
X409385Y504519D01*
X409699Y506900D01*
X409385Y509281D01*
X408466Y511499D01*
X407005Y513405D01*
X405099Y514866D01*
X402881Y515785D01*
X400500Y516099D01*
D02*
G37*
G36*
X353269Y529187D02*
X351708Y528877D01*
X350385Y527993D01*
X349501Y526670D01*
X349441Y526369D01*
X349381Y526279D01*
X349148Y525109D01*
Y497460D01*
X347878Y497074D01*
X347816Y497168D01*
X346493Y498052D01*
X344932Y498362D01*
X343371Y498052D01*
X342048Y497168D01*
X341164Y495845D01*
X340854Y494284D01*
X341164Y492723D01*
X341873Y491662D01*
Y273956D01*
X341032Y273394D01*
X340148Y272071D01*
X339838Y270510D01*
X340148Y268949D01*
X341032Y267626D01*
X342355Y266742D01*
X343916Y266432D01*
X345477Y266742D01*
X346800Y267626D01*
X347684Y268949D01*
X347878Y269926D01*
X349148Y269801D01*
Y266691D01*
X348439Y265630D01*
X348129Y264069D01*
X348439Y262508D01*
X349323Y261185D01*
X350646Y260301D01*
X352207Y259991D01*
X353768Y260301D01*
X355091Y261185D01*
X355975Y262508D01*
X356285Y264069D01*
X355975Y265630D01*
X355266Y266691D01*
Y521633D01*
X356152Y522225D01*
X357036Y523548D01*
X357347Y525109D01*
X357036Y526670D01*
X356152Y527993D01*
X354829Y528877D01*
X353269Y529187D01*
D02*
G37*
G36*
X56902Y544460D02*
X52744Y544133D01*
X48688Y543159D01*
X44834Y541563D01*
X41277Y539383D01*
X38106Y536674D01*
X35397Y533503D01*
X33217Y529946D01*
X31621Y526092D01*
X30647Y522036D01*
X30320Y517878D01*
X30647Y513720D01*
X31621Y509664D01*
X33217Y505810D01*
X35397Y502253D01*
X38106Y499082D01*
X41277Y496373D01*
X44834Y494193D01*
X48688Y492597D01*
X52744Y491623D01*
X56902Y491296D01*
X61060Y491623D01*
X65116Y492597D01*
X68970Y494193D01*
X72526Y496373D01*
X75698Y499082D01*
X78407Y502253D01*
X80587Y505810D01*
X82183Y509664D01*
X83157Y513720D01*
X83484Y517878D01*
X83157Y522036D01*
X82183Y526092D01*
X80587Y529946D01*
X78407Y533503D01*
X75698Y536674D01*
X72526Y539383D01*
X68970Y541563D01*
X65116Y543159D01*
X61060Y544133D01*
X56902Y544460D01*
D02*
G37*
G36*
X670902Y542860D02*
X666744Y542533D01*
X662688Y541559D01*
X658834Y539963D01*
X655277Y537783D01*
X652106Y535074D01*
X649397Y531903D01*
X647217Y528346D01*
X645621Y524492D01*
X644647Y520436D01*
X644320Y516278D01*
X644647Y512120D01*
X645621Y508064D01*
X647217Y504210D01*
X649397Y500653D01*
X652106Y497482D01*
X655277Y494773D01*
X658834Y492593D01*
X662688Y490997D01*
X666744Y490023D01*
X670902Y489696D01*
X675060Y490023D01*
X679116Y490997D01*
X682970Y492593D01*
X686526Y494773D01*
X689698Y497482D01*
X692407Y500653D01*
X694587Y504210D01*
X696183Y508064D01*
X697157Y512120D01*
X697484Y516278D01*
X697157Y520436D01*
X696183Y524492D01*
X694587Y528346D01*
X692407Y531903D01*
X689698Y535074D01*
X686526Y537783D01*
X682970Y539963D01*
X679116Y541559D01*
X675060Y542533D01*
X670902Y542860D01*
D02*
G37*
G36*
X568140Y490699D02*
X552900D01*
X550519Y490385D01*
X548301Y489466D01*
X546396Y488004D01*
X544934Y486099D01*
X544015Y483881D01*
X543701Y481500D01*
X544015Y479119D01*
X544934Y476901D01*
X546396Y474996D01*
X548301Y473534D01*
X550519Y472615D01*
X552900Y472301D01*
X568140D01*
X570521Y472615D01*
X572739Y473534D01*
X574645Y474996D01*
X576106Y476901D01*
X577025Y479119D01*
X577339Y481500D01*
X577025Y483881D01*
X576106Y486099D01*
X574645Y488004D01*
X572739Y489466D01*
X570521Y490385D01*
X568140Y490699D01*
D02*
G37*
G36*
X400500D02*
X385260D01*
X382879Y490385D01*
X380661Y489466D01*
X378756Y488004D01*
X377294Y486099D01*
X376375Y483881D01*
X376061Y481500D01*
X376375Y479119D01*
X377294Y476901D01*
X378756Y474996D01*
X380661Y473534D01*
X382879Y472615D01*
X385260Y472301D01*
X400500D01*
X402881Y472615D01*
X405099Y473534D01*
X407005Y474996D01*
X408466Y476901D01*
X409385Y479119D01*
X409699Y481500D01*
X409385Y483881D01*
X408466Y486099D01*
X407005Y488004D01*
X405099Y489466D01*
X402881Y490385D01*
X400500Y490699D01*
D02*
G37*
G36*
X709500Y495578D02*
X707939Y495268D01*
X706616Y494384D01*
X705732Y493061D01*
X705483Y491809D01*
X694087Y480413D01*
X693424Y479421D01*
X693191Y478250D01*
X693191Y478250D01*
Y467037D01*
X691921Y466443D01*
X691061Y467018D01*
X689500Y467328D01*
X687939Y467018D01*
X686616Y466134D01*
X685732Y464811D01*
X685422Y463250D01*
X685732Y461689D01*
X686441Y460628D01*
Y427456D01*
X685171Y426777D01*
X684811Y427018D01*
X683250Y427328D01*
X681689Y427018D01*
X680366Y426134D01*
X679482Y424811D01*
X679172Y423250D01*
X679482Y421689D01*
X680191Y420628D01*
Y343767D01*
X679677Y343253D01*
X678425Y343004D01*
X677102Y342120D01*
X676218Y340797D01*
X675908Y339236D01*
X676218Y337675D01*
X677102Y336352D01*
X678425Y335468D01*
X679986Y335158D01*
X681547Y335468D01*
X682870Y336352D01*
X683754Y337675D01*
X684003Y338927D01*
X685171Y340095D01*
X686118Y339841D01*
X686441Y339613D01*
Y314872D01*
X685732Y313811D01*
X685422Y312250D01*
X685732Y310689D01*
X686616Y309366D01*
X687939Y308482D01*
X689500Y308172D01*
X691061Y308482D01*
X691226Y308592D01*
X692399Y308106D01*
X692482Y307689D01*
X693366Y306366D01*
X694689Y305482D01*
X696250Y305172D01*
X697811Y305482D01*
X699134Y306366D01*
X700018Y307689D01*
X700328Y309250D01*
X700018Y310811D01*
X699309Y311872D01*
Y476983D01*
X709809Y487483D01*
X711061Y487732D01*
X712384Y488616D01*
X713268Y489939D01*
X713578Y491500D01*
X713268Y493061D01*
X712384Y494384D01*
X711061Y495268D01*
X709500Y495578D01*
D02*
G37*
G36*
X568140Y465299D02*
X552900D01*
X550519Y464985D01*
X548301Y464066D01*
X546396Y462604D01*
X544934Y460699D01*
X544015Y458481D01*
X543701Y456100D01*
X544015Y453719D01*
X544934Y451501D01*
X546396Y449596D01*
X548301Y448134D01*
X550519Y447215D01*
X552900Y446901D01*
X568140D01*
X570521Y447215D01*
X572739Y448134D01*
X574645Y449596D01*
X576106Y451501D01*
X577025Y453719D01*
X577339Y456100D01*
X577025Y458481D01*
X576106Y460699D01*
X574645Y462604D01*
X572739Y464066D01*
X570521Y464985D01*
X568140Y465299D01*
D02*
G37*
G36*
X400500D02*
X385260D01*
X382879Y464985D01*
X380661Y464066D01*
X378756Y462604D01*
X377294Y460699D01*
X376375Y458481D01*
X376061Y456100D01*
X376375Y453719D01*
X377294Y451501D01*
X378756Y449596D01*
X380661Y448134D01*
X382879Y447215D01*
X385260Y446901D01*
X400500D01*
X402881Y447215D01*
X405099Y448134D01*
X407005Y449596D01*
X408466Y451501D01*
X409385Y453719D01*
X409699Y456100D01*
X409385Y458481D01*
X408466Y460699D01*
X407005Y462604D01*
X405099Y464066D01*
X402881Y464985D01*
X400500Y465299D01*
D02*
G37*
G36*
X46402Y455860D02*
X36402D01*
X33922Y455533D01*
X31611Y454576D01*
X29627Y453053D01*
X28104Y451069D01*
X27146Y448758D01*
X26820Y446278D01*
X27146Y443798D01*
X28104Y441487D01*
X29627Y439502D01*
X31611Y437980D01*
X33922Y437023D01*
X36402Y436696D01*
X46402D01*
X48882Y437023D01*
X51193Y437980D01*
X53177Y439502D01*
X54700Y441487D01*
X55658Y443798D01*
X55984Y446278D01*
X55658Y448758D01*
X54700Y451069D01*
X53177Y453053D01*
X51193Y454576D01*
X48882Y455533D01*
X46402Y455860D01*
D02*
G37*
G36*
X334264Y458992D02*
X332703Y458682D01*
X331380Y457798D01*
X330496Y456475D01*
X330186Y454914D01*
X330496Y453353D01*
X331380Y452030D01*
X331691Y451822D01*
Y433730D01*
X331602Y433626D01*
X330236Y433985D01*
X330158Y434377D01*
X329274Y435700D01*
X327951Y436584D01*
X326390Y436894D01*
X324829Y436584D01*
X323506Y435700D01*
X322622Y434377D01*
X322312Y432816D01*
X322622Y431255D01*
X323331Y430194D01*
Y407679D01*
X323204Y407545D01*
X321830Y407942D01*
X321776Y408215D01*
X320892Y409538D01*
X319569Y410422D01*
X318008Y410732D01*
X316447Y410422D01*
X315124Y409538D01*
X314240Y408215D01*
X313930Y406654D01*
X314240Y405093D01*
X314949Y404032D01*
Y285072D01*
X314748Y284771D01*
X314438Y283210D01*
X314748Y281649D01*
X315632Y280326D01*
X316955Y279442D01*
X318516Y279132D01*
X320077Y279442D01*
X321400Y280326D01*
X321978Y281191D01*
X323159Y280819D01*
X323204Y279739D01*
X322247Y279100D01*
X321363Y277777D01*
X321052Y276216D01*
X321363Y274655D01*
X322247Y273332D01*
X323570Y272448D01*
X325131Y272138D01*
X326691Y272448D01*
X328014Y273332D01*
X328899Y274655D01*
X329209Y276216D01*
X329197Y276276D01*
X329216Y276305D01*
X329449Y277475D01*
X329449Y277476D01*
Y294802D01*
X329538Y294906D01*
X330904Y294547D01*
X330982Y294155D01*
X331866Y292832D01*
X333189Y291948D01*
X334750Y291638D01*
X336311Y291948D01*
X337634Y292832D01*
X338518Y294155D01*
X338828Y295716D01*
X338518Y297277D01*
X337809Y298338D01*
Y453014D01*
X337809Y453014D01*
X337808Y453018D01*
X338032Y453353D01*
X338342Y454914D01*
X338032Y456475D01*
X337148Y457798D01*
X335825Y458682D01*
X334264Y458992D01*
D02*
G37*
G36*
X46402Y430860D02*
X42152D01*
Y422028D01*
X55885D01*
X55658Y423758D01*
X54700Y426069D01*
X53177Y428053D01*
X51193Y429576D01*
X48882Y430533D01*
X46402Y430860D01*
D02*
G37*
G36*
X40652D02*
X36402D01*
X33922Y430533D01*
X31611Y429576D01*
X29627Y428053D01*
X28104Y426069D01*
X27146Y423758D01*
X26919Y422028D01*
X40652D01*
Y430860D01*
D02*
G37*
G36*
X568140Y439899D02*
X552900D01*
X550519Y439585D01*
X548301Y438666D01*
X546396Y437205D01*
X544934Y435299D01*
X544015Y433081D01*
X543701Y430700D01*
X544015Y428319D01*
X544934Y426101D01*
X546396Y424196D01*
X548301Y422734D01*
X550519Y421815D01*
X552900Y421501D01*
X568140D01*
X570521Y421815D01*
X572739Y422734D01*
X574645Y424196D01*
X576106Y426101D01*
X577025Y428319D01*
X577339Y430700D01*
X577025Y433081D01*
X576106Y435299D01*
X574645Y437205D01*
X572739Y438666D01*
X570521Y439585D01*
X568140Y439899D01*
D02*
G37*
G36*
X400500D02*
X385260D01*
X382879Y439585D01*
X380661Y438666D01*
X378756Y437205D01*
X377294Y435299D01*
X376375Y433081D01*
X376061Y430700D01*
X376375Y428319D01*
X377294Y426101D01*
X378756Y424196D01*
X380661Y422734D01*
X382879Y421815D01*
X385260Y421501D01*
X400500D01*
X402881Y421815D01*
X405099Y422734D01*
X407005Y424196D01*
X408466Y426101D01*
X409385Y428319D01*
X409699Y430700D01*
X409385Y433081D01*
X408466Y435299D01*
X407005Y437205D01*
X405099Y438666D01*
X402881Y439585D01*
X400500Y439899D01*
D02*
G37*
G36*
X55885Y420528D02*
X42152D01*
Y411696D01*
X46402D01*
X48882Y412023D01*
X51193Y412980D01*
X53177Y414502D01*
X54700Y416487D01*
X55658Y418798D01*
X55885Y420528D01*
D02*
G37*
G36*
X40652D02*
X26919D01*
X27146Y418798D01*
X28104Y416487D01*
X29627Y414502D01*
X31611Y412980D01*
X33922Y412023D01*
X36402Y411696D01*
X40652D01*
Y420528D01*
D02*
G37*
G36*
X568140Y414499D02*
X552900D01*
X550519Y414185D01*
X548301Y413266D01*
X546396Y411805D01*
X544934Y409899D01*
X544015Y407681D01*
X543701Y405300D01*
X544015Y402919D01*
X544934Y400701D01*
X546396Y398796D01*
X548301Y397334D01*
X550519Y396415D01*
X552900Y396101D01*
X568140D01*
X570521Y396415D01*
X572739Y397334D01*
X574645Y398796D01*
X576106Y400701D01*
X577025Y402919D01*
X577339Y405300D01*
X577025Y407681D01*
X576106Y409899D01*
X574645Y411805D01*
X572739Y413266D01*
X570521Y414185D01*
X568140Y414499D01*
D02*
G37*
G36*
X46402Y405060D02*
X36402D01*
X33922Y404734D01*
X31611Y403776D01*
X29627Y402253D01*
X28104Y400269D01*
X27146Y397958D01*
X26820Y395478D01*
X27146Y392998D01*
X28104Y390687D01*
X29627Y388703D01*
X31611Y387180D01*
X33922Y386222D01*
X36402Y385896D01*
X46402D01*
X48882Y386222D01*
X51193Y387180D01*
X53177Y388703D01*
X54700Y390687D01*
X55658Y392998D01*
X55984Y395478D01*
X55658Y397958D01*
X54700Y400269D01*
X53177Y402253D01*
X51193Y403776D01*
X48882Y404734D01*
X46402Y405060D01*
D02*
G37*
G36*
X400500Y414499D02*
X385260D01*
X382879Y414185D01*
X380661Y413266D01*
X378756Y411805D01*
X377294Y409899D01*
X376375Y407681D01*
X376061Y405300D01*
X376375Y402919D01*
X377294Y400701D01*
X378756Y398796D01*
X380661Y397334D01*
X382879Y396415D01*
X385260Y396101D01*
X400500D01*
X402881Y396415D01*
X405099Y397334D01*
X407005Y398796D01*
X408466Y400701D01*
X409104Y402241D01*
X464463D01*
X520691Y346013D01*
Y45516D01*
X518959Y44798D01*
X516974Y43275D01*
X515452Y41291D01*
X514495Y38980D01*
X514168Y36500D01*
Y26500D01*
X514495Y24020D01*
X515452Y21709D01*
X516974Y19725D01*
X518959Y18202D01*
X521270Y17244D01*
X523750Y16918D01*
X526230Y17244D01*
X528541Y18202D01*
X530525Y19725D01*
X532048Y21709D01*
X533005Y24020D01*
X533332Y26500D01*
Y36500D01*
X533005Y38980D01*
X532048Y41291D01*
X530525Y43275D01*
X528541Y44798D01*
X526809Y45516D01*
Y254163D01*
X527292Y254484D01*
X528079Y254724D01*
X529189Y253982D01*
X530750Y253672D01*
X532311Y253982D01*
X533634Y254866D01*
X534518Y256189D01*
X534828Y257750D01*
X534518Y259311D01*
X533809Y260372D01*
Y356483D01*
X548979Y371653D01*
X550519Y371015D01*
X552900Y370701D01*
X568140D01*
X570521Y371015D01*
X572739Y371934D01*
X574645Y373396D01*
X576106Y375301D01*
X577025Y377519D01*
X577339Y379900D01*
X577025Y382281D01*
X576106Y384499D01*
X574645Y386404D01*
X572739Y387866D01*
X570521Y388785D01*
X568140Y389099D01*
X552900D01*
X550519Y388785D01*
X548301Y387866D01*
X546396Y386404D01*
X544934Y384499D01*
X544015Y382281D01*
X543701Y379900D01*
X544015Y377519D01*
X544653Y375979D01*
X528587Y359913D01*
X527924Y358921D01*
X527691Y357750D01*
X527691Y357750D01*
Y348893D01*
X527554Y348839D01*
X526421Y348682D01*
X525913Y349443D01*
X525913Y349443D01*
X467893Y407463D01*
X466900Y408126D01*
X465730Y408359D01*
X465730Y408359D01*
X409104D01*
X408466Y409899D01*
X407005Y411805D01*
X405099Y413266D01*
X402881Y414185D01*
X400500Y414499D01*
D02*
G37*
G36*
X46402Y379660D02*
X36402D01*
X33922Y379333D01*
X31611Y378376D01*
X29627Y376853D01*
X28104Y374869D01*
X27146Y372558D01*
X26820Y370078D01*
X27146Y367598D01*
X28104Y365287D01*
X29627Y363303D01*
X31611Y361780D01*
X33922Y360822D01*
X36402Y360496D01*
X46402D01*
X48882Y360822D01*
X51193Y361780D01*
X53177Y363303D01*
X54700Y365287D01*
X55658Y367598D01*
X55984Y370078D01*
X55658Y372558D01*
X54700Y374869D01*
X53177Y376853D01*
X51193Y378376D01*
X48882Y379333D01*
X46402Y379660D01*
D02*
G37*
G36*
X568140Y363699D02*
X552900D01*
X550519Y363385D01*
X548301Y362466D01*
X546396Y361004D01*
X544934Y359099D01*
X544015Y356881D01*
X543701Y354500D01*
X544015Y352119D01*
X544934Y349901D01*
X546396Y347996D01*
X548301Y346534D01*
X550519Y345615D01*
X552900Y345301D01*
X568140D01*
X570521Y345615D01*
X572739Y346534D01*
X574645Y347996D01*
X576106Y349901D01*
X577025Y352119D01*
X577339Y354500D01*
X577025Y356881D01*
X576106Y359099D01*
X574645Y361004D01*
X572739Y362466D01*
X570521Y363385D01*
X568140Y363699D01*
D02*
G37*
G36*
X400500D02*
X385260D01*
X382879Y363385D01*
X380661Y362466D01*
X378756Y361004D01*
X377294Y359099D01*
X376375Y356881D01*
X376061Y354500D01*
X376375Y352119D01*
X377294Y349901D01*
X378756Y347996D01*
X380661Y346534D01*
X382879Y345615D01*
X385260Y345301D01*
X400500D01*
X402881Y345615D01*
X405099Y346534D01*
X407005Y347996D01*
X408466Y349901D01*
X409385Y352119D01*
X409699Y354500D01*
X409385Y356881D01*
X408466Y359099D01*
X407005Y361004D01*
X405099Y362466D01*
X402881Y363385D01*
X400500Y363699D01*
D02*
G37*
G36*
X743750Y402597D02*
X738807Y402208D01*
X733986Y401051D01*
X729405Y399154D01*
X725178Y396563D01*
X721407Y393343D01*
X718187Y389572D01*
X715596Y385345D01*
X713699Y380764D01*
X712542Y375943D01*
X712153Y371000D01*
X712542Y366057D01*
X713699Y361236D01*
X715596Y356655D01*
X718187Y352427D01*
X721407Y348657D01*
X725178Y345437D01*
X729405Y342846D01*
X733986Y340949D01*
X738807Y339792D01*
X743750Y339403D01*
X748693Y339792D01*
X753514Y340949D01*
X758095Y342846D01*
X762322Y345437D01*
X766093Y348657D01*
X769313Y352427D01*
X771904Y356655D01*
X773801Y361236D01*
X774958Y366057D01*
X775347Y371000D01*
X774958Y375943D01*
X773801Y380764D01*
X771904Y385345D01*
X769313Y389572D01*
X766093Y393343D01*
X762322Y396563D01*
X758095Y399154D01*
X753514Y401051D01*
X748693Y402208D01*
X743750Y402597D01*
D02*
G37*
G36*
X46402Y354260D02*
X36402D01*
X33922Y353933D01*
X31611Y352976D01*
X29627Y351453D01*
X28104Y349469D01*
X27146Y347158D01*
X26820Y344678D01*
X27146Y342198D01*
X28104Y339887D01*
X29627Y337903D01*
X31611Y336380D01*
X33922Y335423D01*
X36402Y335096D01*
X46402D01*
X48882Y335423D01*
X51193Y336380D01*
X53177Y337903D01*
X54700Y339887D01*
X55658Y342198D01*
X55984Y344678D01*
X55658Y347158D01*
X54700Y349469D01*
X53177Y351453D01*
X51193Y352976D01*
X48882Y353933D01*
X46402Y354260D01*
D02*
G37*
G36*
X653250Y357578D02*
X651689Y357268D01*
X650366Y356384D01*
X649482Y355061D01*
X649172Y353500D01*
X649482Y351939D01*
X650221Y350833D01*
Y331243D01*
X648951Y330673D01*
X648061Y331268D01*
X646500Y331578D01*
X644939Y331268D01*
X643616Y330384D01*
X642732Y329061D01*
X642422Y327500D01*
X642732Y325939D01*
X642793Y325848D01*
X642691Y325336D01*
X642691Y325336D01*
Y244500D01*
X642691Y244500D01*
X642924Y243330D01*
X643587Y242337D01*
X790791Y95133D01*
Y46266D01*
X789059Y45548D01*
X787075Y44026D01*
X785552Y42041D01*
X784594Y39730D01*
X784268Y37250D01*
Y27250D01*
X784594Y24770D01*
X785552Y22459D01*
X787075Y20475D01*
X789059Y18952D01*
X791370Y17995D01*
X793850Y17668D01*
X796330Y17995D01*
X798641Y18952D01*
X800625Y20475D01*
X802148Y22459D01*
X803105Y24770D01*
X803432Y27250D01*
Y37250D01*
X803105Y39730D01*
X802148Y42041D01*
X800625Y44026D01*
X798641Y45548D01*
X796909Y46266D01*
Y96400D01*
X796909Y96400D01*
X796676Y97570D01*
X796013Y98563D01*
X796013Y98563D01*
X648809Y245767D01*
Y322999D01*
X648951Y323091D01*
X650221Y322401D01*
Y250750D01*
X650221Y250750D01*
X650454Y249580D01*
X651117Y248587D01*
X816191Y83513D01*
Y46266D01*
X814459Y45548D01*
X812475Y44026D01*
X810952Y42041D01*
X809995Y39730D01*
X809668Y37250D01*
Y27250D01*
X809995Y24770D01*
X810952Y22459D01*
X812475Y20475D01*
X814459Y18952D01*
X816770Y17995D01*
X819250Y17668D01*
X821730Y17995D01*
X824041Y18952D01*
X826025Y20475D01*
X827548Y22459D01*
X828505Y24770D01*
X828832Y27250D01*
Y37250D01*
X828505Y39730D01*
X827548Y42041D01*
X826025Y44026D01*
X824041Y45548D01*
X822309Y46266D01*
Y84780D01*
X822309Y84780D01*
X822076Y85950D01*
X821413Y86943D01*
X821413Y86943D01*
X656339Y252017D01*
Y280668D01*
X657609Y281287D01*
X658439Y280732D01*
X660000Y280422D01*
X661561Y280732D01*
X662884Y281616D01*
X663768Y282939D01*
X664078Y284500D01*
X663768Y286061D01*
X663059Y287122D01*
Y291031D01*
X669469Y297441D01*
X719128D01*
X720189Y296732D01*
X721750Y296422D01*
X723311Y296732D01*
X724634Y297616D01*
X725518Y298939D01*
X725828Y300500D01*
X725518Y302061D01*
X724634Y303384D01*
X723311Y304268D01*
X721750Y304578D01*
X720189Y304268D01*
X719128Y303559D01*
X668202D01*
X668202Y303559D01*
X667031Y303326D01*
X666039Y302663D01*
X657837Y294461D01*
X657609Y294119D01*
X656339Y294504D01*
Y350923D01*
X657018Y351939D01*
X657328Y353500D01*
X657018Y355061D01*
X656134Y356384D01*
X654811Y357268D01*
X653250Y357578D01*
D02*
G37*
G36*
X568140Y338299D02*
X552900D01*
X550519Y337985D01*
X548301Y337066D01*
X546396Y335605D01*
X544934Y333699D01*
X544015Y331481D01*
X543701Y329100D01*
X544015Y326719D01*
X544934Y324501D01*
X546396Y322596D01*
X548301Y321134D01*
X550519Y320215D01*
X552900Y319901D01*
X568140D01*
X570521Y320215D01*
X572739Y321134D01*
X574645Y322596D01*
X576106Y324501D01*
X577025Y326719D01*
X577339Y329100D01*
X577025Y331481D01*
X576106Y333699D01*
X574645Y335605D01*
X572739Y337066D01*
X570521Y337985D01*
X568140Y338299D01*
D02*
G37*
G36*
X400500D02*
X385260D01*
X382879Y337985D01*
X380661Y337066D01*
X378756Y335605D01*
X377294Y333699D01*
X376375Y331481D01*
X376061Y329100D01*
X376375Y326719D01*
X377294Y324501D01*
X378756Y322596D01*
X380661Y321134D01*
X382879Y320215D01*
X385260Y319901D01*
X400500D01*
X402881Y320215D01*
X405099Y321134D01*
X407005Y322596D01*
X408466Y324501D01*
X409385Y326719D01*
X409699Y329100D01*
X409385Y331481D01*
X408466Y333699D01*
X407005Y335605D01*
X405099Y337066D01*
X402881Y337985D01*
X400500Y338299D01*
D02*
G37*
G36*
X274828Y470422D02*
X273267Y470112D01*
X271944Y469228D01*
X271060Y467905D01*
X270750Y466344D01*
X271060Y464783D01*
X271769Y463722D01*
Y324694D01*
X271060Y323633D01*
X270750Y322072D01*
X271060Y320511D01*
X271944Y319188D01*
X273267Y318304D01*
X274828Y317994D01*
X276389Y318304D01*
X277712Y319188D01*
X278596Y320511D01*
X278906Y322072D01*
X278596Y323633D01*
X277887Y324694D01*
Y463722D01*
X278596Y464783D01*
X278906Y466344D01*
X278596Y467905D01*
X277712Y469228D01*
X276389Y470112D01*
X274828Y470422D01*
D02*
G37*
G36*
X301119Y429144D02*
X299558Y428834D01*
X298235Y427950D01*
X297351Y426627D01*
X297052Y425125D01*
X296793Y424737D01*
X296560Y423566D01*
X296560Y423566D01*
Y321102D01*
X295851Y320041D01*
X295541Y318480D01*
X295851Y316919D01*
X296735Y315596D01*
X298058Y314712D01*
X299619Y314402D01*
X301180Y314712D01*
X302503Y315596D01*
X303387Y316919D01*
X303697Y318480D01*
X303387Y320041D01*
X302678Y321102D01*
Y421298D01*
X302680Y421298D01*
X304003Y422182D01*
X304887Y423505D01*
X305198Y425066D01*
X304887Y426627D01*
X304003Y427950D01*
X302680Y428834D01*
X301119Y429144D01*
D02*
G37*
G36*
X46402Y328860D02*
X36402D01*
X33922Y328534D01*
X31611Y327576D01*
X29627Y326053D01*
X28104Y324069D01*
X27146Y321758D01*
X26820Y319278D01*
X27146Y316798D01*
X28104Y314487D01*
X29627Y312502D01*
X31611Y310980D01*
X33922Y310023D01*
X36402Y309696D01*
X46402D01*
X48882Y310023D01*
X51193Y310980D01*
X53177Y312502D01*
X54700Y314487D01*
X55658Y316798D01*
X55984Y319278D01*
X55658Y321758D01*
X54700Y324069D01*
X53177Y326053D01*
X51193Y327576D01*
X48882Y328534D01*
X46402Y328860D01*
D02*
G37*
G36*
X287528Y511570D02*
X285967Y511260D01*
X284644Y510376D01*
X283760Y509053D01*
X283450Y507492D01*
X283760Y505931D01*
X284110Y505408D01*
Y310463D01*
X283401Y309401D01*
X283090Y307841D01*
X283401Y306280D01*
X284285Y304957D01*
X285608Y304073D01*
X287169Y303762D01*
X288729Y304073D01*
X290052Y304957D01*
X290937Y306280D01*
X291247Y307841D01*
X290937Y309401D01*
X290227Y310463D01*
Y504485D01*
X290412Y504608D01*
X291296Y505931D01*
X291606Y507492D01*
X291296Y509053D01*
X290412Y510376D01*
X289089Y511260D01*
X287528Y511570D01*
D02*
G37*
G36*
X568140Y312899D02*
X552900D01*
X550519Y312585D01*
X548301Y311666D01*
X546396Y310205D01*
X544934Y308299D01*
X544015Y306081D01*
X543701Y303700D01*
X544015Y301319D01*
X544934Y299101D01*
X546396Y297196D01*
X548301Y295734D01*
X550519Y294815D01*
X552900Y294501D01*
X568140D01*
X570521Y294815D01*
X572739Y295734D01*
X574645Y297196D01*
X576106Y299101D01*
X577025Y301319D01*
X577339Y303700D01*
X577025Y306081D01*
X576106Y308299D01*
X574645Y310205D01*
X572739Y311666D01*
X570521Y312585D01*
X568140Y312899D01*
D02*
G37*
G36*
X400500D02*
X385260D01*
X382879Y312585D01*
X380661Y311666D01*
X378756Y310205D01*
X377294Y308299D01*
X376375Y306081D01*
X376061Y303700D01*
X376375Y301319D01*
X377294Y299101D01*
X378756Y297196D01*
X380661Y295734D01*
X382879Y294815D01*
X385260Y294501D01*
X400500D01*
X402881Y294815D01*
X405099Y295734D01*
X407005Y297196D01*
X408466Y299101D01*
X409385Y301319D01*
X409699Y303700D01*
X409385Y306081D01*
X408466Y308299D01*
X407005Y310205D01*
X405099Y311666D01*
X402881Y312585D01*
X400500Y312899D01*
D02*
G37*
G36*
X46402Y303860D02*
X36402D01*
X33922Y303533D01*
X31611Y302576D01*
X29627Y301053D01*
X28104Y299069D01*
X27146Y296758D01*
X26820Y294278D01*
X27146Y291798D01*
X28104Y289487D01*
X29627Y287502D01*
X31611Y285980D01*
X33922Y285023D01*
X36402Y284696D01*
X46402D01*
X48882Y285023D01*
X51193Y285980D01*
X53177Y287502D01*
X54700Y289487D01*
X55658Y291798D01*
X55984Y294278D01*
X55658Y296758D01*
X54700Y299069D01*
X53177Y301053D01*
X51193Y302576D01*
X48882Y303533D01*
X46402Y303860D01*
D02*
G37*
G36*
X568140Y287499D02*
X552900D01*
X550519Y287185D01*
X548301Y286266D01*
X546396Y284804D01*
X544934Y282899D01*
X544015Y280681D01*
X543701Y278300D01*
X544015Y275919D01*
X544934Y273701D01*
X546396Y271796D01*
X548301Y270334D01*
X550519Y269415D01*
X552900Y269101D01*
X568140D01*
X570521Y269415D01*
X572739Y270334D01*
X574645Y271796D01*
X576106Y273701D01*
X577025Y275919D01*
X577339Y278300D01*
X577025Y280681D01*
X576106Y282899D01*
X574645Y284804D01*
X572739Y286266D01*
X570521Y287185D01*
X568140Y287499D01*
D02*
G37*
G36*
X400500D02*
X385260D01*
X382879Y287185D01*
X380661Y286266D01*
X378756Y284804D01*
X377294Y282899D01*
X376375Y280681D01*
X376061Y278300D01*
X376375Y275919D01*
X377294Y273701D01*
X378756Y271796D01*
X380661Y270334D01*
X382879Y269415D01*
X385260Y269101D01*
X400500D01*
X402881Y269415D01*
X405099Y270334D01*
X407005Y271796D01*
X408466Y273701D01*
X409385Y275919D01*
X409699Y278300D01*
X409385Y280681D01*
X408466Y282899D01*
X407005Y284804D01*
X405099Y286266D01*
X402881Y287185D01*
X400500Y287499D01*
D02*
G37*
G36*
X217990Y380253D02*
X216430Y379942D01*
X215107Y379058D01*
X214223Y377735D01*
X213912Y376174D01*
X214223Y374613D01*
X214932Y373552D01*
Y272338D01*
X214223Y271277D01*
X213912Y269716D01*
X214223Y268155D01*
X215107Y266832D01*
X216430Y265948D01*
X217990Y265638D01*
X219551Y265948D01*
X220874Y266832D01*
X221758Y268155D01*
X222069Y269716D01*
X221758Y271277D01*
X221049Y272338D01*
Y373552D01*
X221758Y374613D01*
X222069Y376174D01*
X221758Y377735D01*
X220874Y379058D01*
X219551Y379942D01*
X217990Y380253D01*
D02*
G37*
G36*
X196850Y383300D02*
X195289Y382990D01*
X193966Y382106D01*
X193082Y380783D01*
X192772Y379222D01*
X193082Y377661D01*
X193791Y376600D01*
Y265838D01*
X193082Y264777D01*
X192772Y263216D01*
X193082Y261655D01*
X193966Y260332D01*
X195289Y259448D01*
X196850Y259138D01*
X198411Y259448D01*
X199734Y260332D01*
X200618Y261655D01*
X200928Y263216D01*
X200618Y264777D01*
X199909Y265838D01*
Y376600D01*
X200618Y377661D01*
X200928Y379222D01*
X200618Y380783D01*
X199734Y382106D01*
X198411Y382990D01*
X196850Y383300D01*
D02*
G37*
G36*
X46402Y278060D02*
X36402D01*
X33922Y277733D01*
X31611Y276776D01*
X29627Y275254D01*
X28104Y273269D01*
X27146Y270958D01*
X26820Y268478D01*
X27146Y265998D01*
X28104Y263687D01*
X29627Y261702D01*
X31611Y260180D01*
X33922Y259223D01*
X36402Y258896D01*
X46402D01*
X48882Y259223D01*
X51193Y260180D01*
X53177Y261702D01*
X54700Y263687D01*
X55658Y265998D01*
X55984Y268478D01*
X55658Y270958D01*
X54700Y273269D01*
X53177Y275254D01*
X51193Y276776D01*
X48882Y277733D01*
X46402Y278060D01*
D02*
G37*
G36*
X364744Y524016D02*
X363183Y523706D01*
X361860Y522822D01*
X360976Y521499D01*
X360666Y519938D01*
X360976Y518377D01*
X361685Y517316D01*
Y515617D01*
X359025Y512957D01*
X358362Y511964D01*
X358129Y510794D01*
X358129Y510794D01*
Y262239D01*
X357460Y261792D01*
X356576Y260469D01*
X356266Y258908D01*
X356576Y257347D01*
X357460Y256024D01*
X358783Y255140D01*
X360344Y254830D01*
X361905Y255140D01*
X363228Y256024D01*
X364112Y257347D01*
X364422Y258908D01*
X364247Y259791D01*
Y509527D01*
X366907Y512187D01*
X367570Y513180D01*
X367803Y514350D01*
X367803Y514350D01*
Y517316D01*
X368512Y518377D01*
X368822Y519938D01*
X368512Y521499D01*
X367628Y522822D01*
X366305Y523706D01*
X364744Y524016D01*
D02*
G37*
G36*
X568140Y262099D02*
X561270D01*
Y253650D01*
X577240D01*
X577025Y255281D01*
X576106Y257499D01*
X574645Y259405D01*
X572739Y260866D01*
X570521Y261785D01*
X568140Y262099D01*
D02*
G37*
G36*
X559770D02*
X552900D01*
X550519Y261785D01*
X548301Y260866D01*
X546396Y259405D01*
X544934Y257499D01*
X544015Y255281D01*
X543800Y253650D01*
X559770D01*
Y262099D01*
D02*
G37*
G36*
X174438Y382578D02*
X172877Y382268D01*
X171554Y381384D01*
X170670Y380061D01*
X170360Y378500D01*
X170670Y376939D01*
X171554Y375616D01*
X172877Y374732D01*
X173705Y374567D01*
Y255522D01*
X172996Y254461D01*
X172685Y252900D01*
X172996Y251339D01*
X173880Y250016D01*
X175203Y249132D01*
X176764Y248822D01*
X178325Y249132D01*
X179648Y250016D01*
X180532Y251339D01*
X180842Y252900D01*
X180532Y254461D01*
X179823Y255522D01*
Y376174D01*
X179590Y377345D01*
X178927Y378337D01*
X178927Y378337D01*
X178455Y378809D01*
X178206Y380061D01*
X177322Y381384D01*
X175999Y382268D01*
X174438Y382578D01*
D02*
G37*
G36*
X577240Y252150D02*
X561270D01*
Y243701D01*
X568140D01*
X570521Y244015D01*
X572739Y244934D01*
X574645Y246396D01*
X576106Y248301D01*
X577025Y250519D01*
X577240Y252150D01*
D02*
G37*
G36*
X559770D02*
X543800D01*
X544015Y250519D01*
X544934Y248301D01*
X546396Y246396D01*
X548301Y244934D01*
X550519Y244015D01*
X552900Y243701D01*
X559770D01*
Y252150D01*
D02*
G37*
G36*
X46402Y252660D02*
X36402D01*
X33922Y252334D01*
X31611Y251376D01*
X29627Y249853D01*
X28104Y247869D01*
X27146Y245558D01*
X26820Y243078D01*
X27146Y240598D01*
X28104Y238287D01*
X29627Y236303D01*
X31611Y234780D01*
X33922Y233822D01*
X36402Y233496D01*
X46402D01*
X48882Y233822D01*
X51193Y234780D01*
X53177Y236303D01*
X54700Y238287D01*
X55658Y240598D01*
X55984Y243078D01*
X55658Y245558D01*
X54700Y247869D01*
X53177Y249853D01*
X51193Y251376D01*
X48882Y252334D01*
X46402Y252660D01*
D02*
G37*
G36*
X568140Y236699D02*
X552900D01*
X550519Y236385D01*
X548301Y235466D01*
X546396Y234004D01*
X544934Y232099D01*
X544015Y229881D01*
X543701Y227500D01*
X544015Y225119D01*
X544934Y222901D01*
X546396Y220996D01*
X548301Y219534D01*
X550519Y218615D01*
X552900Y218301D01*
X568140D01*
X570521Y218615D01*
X572739Y219534D01*
X574645Y220996D01*
X576106Y222901D01*
X577025Y225119D01*
X577339Y227500D01*
X577025Y229881D01*
X576106Y232099D01*
X574645Y234004D01*
X572739Y235466D01*
X570521Y236385D01*
X568140Y236699D01*
D02*
G37*
G36*
X400500D02*
X385260D01*
X382879Y236385D01*
X380661Y235466D01*
X378756Y234004D01*
X377294Y232099D01*
X376375Y229881D01*
X376061Y227500D01*
X376375Y225119D01*
X377294Y222901D01*
X378756Y220996D01*
X380661Y219534D01*
X382879Y218615D01*
X385260Y218301D01*
X400500D01*
X402881Y218615D01*
X405099Y219534D01*
X407005Y220996D01*
X408466Y222901D01*
X409385Y225119D01*
X409699Y227500D01*
X409385Y229881D01*
X408466Y232099D01*
X407005Y234004D01*
X405099Y235466D01*
X402881Y236385D01*
X400500Y236699D01*
D02*
G37*
G36*
X256540Y415304D02*
X254979Y414994D01*
X253656Y414110D01*
X252772Y412787D01*
X252462Y411226D01*
X252772Y409665D01*
X253481Y408604D01*
Y216059D01*
X221668D01*
X220607Y216768D01*
X219046Y217078D01*
X217485Y216768D01*
X216162Y215884D01*
X215278Y214561D01*
X214968Y213000D01*
X215278Y211439D01*
X216162Y210116D01*
X217485Y209232D01*
X219046Y208922D01*
X220607Y209232D01*
X221668Y209941D01*
X254856D01*
X254856Y209941D01*
X256027Y210174D01*
X257019Y210837D01*
X258703Y212521D01*
X258703Y212521D01*
X259366Y213513D01*
X259599Y214684D01*
X259599Y214684D01*
Y408604D01*
X260308Y409665D01*
X260618Y411226D01*
X260308Y412787D01*
X259424Y414110D01*
X258101Y414994D01*
X256540Y415304D01*
D02*
G37*
G36*
X807250Y215244D02*
Y208528D01*
X813966D01*
X813807Y209736D01*
X813051Y211560D01*
X811849Y213127D01*
X810282Y214329D01*
X808458Y215085D01*
X807250Y215244D01*
D02*
G37*
G36*
X805750D02*
X804542Y215085D01*
X802718Y214329D01*
X801151Y213127D01*
X799949Y211560D01*
X799193Y209736D01*
X799034Y208528D01*
X805750D01*
Y215244D01*
D02*
G37*
G36*
X400500Y211299D02*
X393630D01*
Y202850D01*
X409600D01*
X409385Y204481D01*
X408466Y206699D01*
X407005Y208605D01*
X405099Y210066D01*
X402881Y210985D01*
X400500Y211299D01*
D02*
G37*
G36*
X392130D02*
X385260D01*
X382879Y210985D01*
X380661Y210066D01*
X378756Y208605D01*
X377294Y206699D01*
X376375Y204481D01*
X376160Y202850D01*
X392130D01*
Y211299D01*
D02*
G37*
G36*
X813966Y207028D02*
X807250D01*
Y200312D01*
X808458Y200471D01*
X810282Y201227D01*
X811849Y202429D01*
X813051Y203996D01*
X813807Y205820D01*
X813966Y207028D01*
D02*
G37*
G36*
X805750D02*
X799034D01*
X799193Y205820D01*
X799949Y203996D01*
X801151Y202429D01*
X802718Y201227D01*
X804542Y200471D01*
X805750Y200312D01*
Y207028D01*
D02*
G37*
G36*
X846500Y215343D02*
X844542Y215085D01*
X842718Y214329D01*
X841151Y213127D01*
X839949Y211560D01*
X839193Y209736D01*
X838935Y207778D01*
X839193Y205820D01*
X839949Y203996D01*
X841151Y202429D01*
X842718Y201227D01*
X844542Y200471D01*
X846500Y200213D01*
X848458Y200471D01*
X850282Y201227D01*
X851849Y202429D01*
X853051Y203996D01*
X853807Y205820D01*
X854065Y207778D01*
X853807Y209736D01*
X853051Y211560D01*
X851849Y213127D01*
X850282Y214329D01*
X848458Y215085D01*
X846500Y215343D01*
D02*
G37*
G36*
X826500D02*
X824542Y215085D01*
X822718Y214329D01*
X821151Y213127D01*
X819949Y211560D01*
X819193Y209736D01*
X818935Y207778D01*
X819193Y205820D01*
X819949Y203996D01*
X821151Y202429D01*
X822718Y201227D01*
X824542Y200471D01*
X826500Y200213D01*
X828458Y200471D01*
X830282Y201227D01*
X831849Y202429D01*
X833051Y203996D01*
X833807Y205820D01*
X834065Y207778D01*
X833807Y209736D01*
X833051Y211560D01*
X831849Y213127D01*
X830282Y214329D01*
X828458Y215085D01*
X826500Y215343D01*
D02*
G37*
G36*
X568140Y211299D02*
X552900D01*
X550519Y210985D01*
X548301Y210066D01*
X546396Y208605D01*
X544934Y206699D01*
X544015Y204481D01*
X543701Y202100D01*
X544015Y199719D01*
X544934Y197501D01*
X546396Y195596D01*
X548301Y194134D01*
X550519Y193215D01*
X552900Y192901D01*
X568140D01*
X570521Y193215D01*
X572739Y194134D01*
X574645Y195596D01*
X576106Y197501D01*
X577025Y199719D01*
X577339Y202100D01*
X577025Y204481D01*
X576106Y206699D01*
X574645Y208605D01*
X572739Y210066D01*
X570521Y210985D01*
X568140Y211299D01*
D02*
G37*
G36*
X409600Y201350D02*
X393630D01*
Y192901D01*
X400500D01*
X402881Y193215D01*
X405099Y194134D01*
X407005Y195596D01*
X408466Y197501D01*
X409385Y199719D01*
X409600Y201350D01*
D02*
G37*
G36*
X392130D02*
X376160D01*
X376375Y199719D01*
X377294Y197501D01*
X378756Y195596D01*
X380661Y194134D01*
X382879Y193215D01*
X385260Y192901D01*
X392130D01*
Y201350D01*
D02*
G37*
G36*
X874500Y209377D02*
X871498Y208982D01*
X868700Y207823D01*
X866298Y205980D01*
X864455Y203578D01*
X863296Y200780D01*
X862901Y197778D01*
X863296Y194776D01*
X864455Y191978D01*
X866298Y189576D01*
X868700Y187733D01*
X871498Y186574D01*
X874500Y186179D01*
X877502Y186574D01*
X880300Y187733D01*
X882702Y189576D01*
X884545Y191978D01*
X885704Y194776D01*
X886099Y197778D01*
X885704Y200780D01*
X884545Y203578D01*
X882702Y205980D01*
X880300Y207823D01*
X877502Y208982D01*
X874500Y209377D01*
D02*
G37*
G36*
X778500D02*
X775498Y208982D01*
X772700Y207823D01*
X770298Y205980D01*
X768455Y203578D01*
X767296Y200780D01*
X766901Y197778D01*
X767296Y194776D01*
X768455Y191978D01*
X770298Y189576D01*
X772700Y187733D01*
X775498Y186574D01*
X778500Y186179D01*
X781502Y186574D01*
X784300Y187733D01*
X786702Y189576D01*
X788545Y191978D01*
X789704Y194776D01*
X790099Y197778D01*
X789704Y200780D01*
X788545Y203578D01*
X786702Y205980D01*
X784300Y207823D01*
X781502Y208982D01*
X778500Y209377D01*
D02*
G37*
G36*
X846500Y195343D02*
X844542Y195085D01*
X842718Y194329D01*
X841151Y193127D01*
X839949Y191560D01*
X839193Y189736D01*
X838935Y187778D01*
X839193Y185820D01*
X839949Y183996D01*
X841151Y182429D01*
X842718Y181227D01*
X844542Y180471D01*
X846500Y180213D01*
X848458Y180471D01*
X850282Y181227D01*
X851849Y182429D01*
X853051Y183996D01*
X853807Y185820D01*
X854065Y187778D01*
X853807Y189736D01*
X853051Y191560D01*
X851849Y193127D01*
X850282Y194329D01*
X848458Y195085D01*
X846500Y195343D01*
D02*
G37*
G36*
X826500D02*
X824542Y195085D01*
X822718Y194329D01*
X821151Y193127D01*
X819949Y191560D01*
X819193Y189736D01*
X818935Y187778D01*
X819193Y185820D01*
X819949Y183996D01*
X821151Y182429D01*
X822718Y181227D01*
X824542Y180471D01*
X826500Y180213D01*
X828458Y180471D01*
X830282Y181227D01*
X831849Y182429D01*
X833051Y183996D01*
X833807Y185820D01*
X834065Y187778D01*
X833807Y189736D01*
X833051Y191560D01*
X831849Y193127D01*
X830282Y194329D01*
X828458Y195085D01*
X826500Y195343D01*
D02*
G37*
G36*
X806500D02*
X804542Y195085D01*
X802718Y194329D01*
X801151Y193127D01*
X799949Y191560D01*
X799193Y189736D01*
X798935Y187778D01*
X799193Y185820D01*
X799949Y183996D01*
X801151Y182429D01*
X802718Y181227D01*
X804542Y180471D01*
X806500Y180213D01*
X808458Y180471D01*
X810282Y181227D01*
X811849Y182429D01*
X813051Y183996D01*
X813807Y185820D01*
X814065Y187778D01*
X813807Y189736D01*
X813051Y191560D01*
X811849Y193127D01*
X810282Y194329D01*
X808458Y195085D01*
X806500Y195343D01*
D02*
G37*
G36*
X502100Y184276D02*
X500403Y184053D01*
X498822Y183398D01*
X497464Y182356D01*
X496422Y180998D01*
X495767Y179417D01*
X495544Y177720D01*
X495767Y176023D01*
X496422Y174442D01*
X497464Y173084D01*
X498822Y172042D01*
X500403Y171387D01*
X502100Y171164D01*
X503797Y171387D01*
X505378Y172042D01*
X506736Y173084D01*
X507778Y174442D01*
X508433Y176023D01*
X508656Y177720D01*
X508433Y179417D01*
X507778Y180998D01*
X506736Y182356D01*
X505378Y183398D01*
X503797Y184053D01*
X502100Y184276D01*
D02*
G37*
G36*
X400500Y262099D02*
X385260D01*
X382879Y261785D01*
X380661Y260866D01*
X378756Y259405D01*
X377294Y257499D01*
X376375Y255281D01*
X376061Y252900D01*
X376375Y250519D01*
X377294Y248301D01*
X378756Y246396D01*
X380661Y244934D01*
X382879Y244015D01*
X385260Y243701D01*
X400500D01*
X402881Y244015D01*
X403402Y244231D01*
X463622Y184011D01*
Y148592D01*
X463622Y148592D01*
X463932Y147031D01*
X464816Y145708D01*
X468872Y141653D01*
Y45093D01*
X468159Y44798D01*
X466175Y43275D01*
X464652Y41291D01*
X463694Y38980D01*
X463368Y36500D01*
Y26500D01*
X463694Y24020D01*
X464652Y21709D01*
X466175Y19725D01*
X468159Y18202D01*
X470470Y17244D01*
X472950Y16918D01*
X475430Y17244D01*
X477741Y18202D01*
X479725Y19725D01*
X481248Y21709D01*
X482205Y24020D01*
X482532Y26500D01*
Y36500D01*
X482205Y38980D01*
X481248Y41291D01*
X479725Y43275D01*
X477741Y44798D01*
X477028Y45093D01*
Y143342D01*
X477028Y143342D01*
X476793Y144524D01*
X476823Y144735D01*
X477306Y145561D01*
X477592Y145881D01*
X478397Y145987D01*
X479978Y146642D01*
X481336Y147684D01*
X482378Y149042D01*
X483033Y150623D01*
X483256Y152320D01*
X483033Y154017D01*
X482378Y155598D01*
X481336Y156956D01*
X479978Y157998D01*
X478397Y158653D01*
X476700Y158876D01*
X475003Y158653D01*
X473422Y157998D01*
X473048Y157711D01*
X471778Y158337D01*
Y171703D01*
X473048Y172329D01*
X473422Y172042D01*
X475003Y171387D01*
X476700Y171164D01*
X478397Y171387D01*
X479978Y172042D01*
X481336Y173084D01*
X482378Y174442D01*
X483033Y176023D01*
X483256Y177720D01*
X483033Y179417D01*
X482378Y180998D01*
X481336Y182356D01*
X479978Y183398D01*
X478397Y184053D01*
X476700Y184276D01*
X475003Y184053D01*
X473422Y183398D01*
X473048Y183111D01*
X471778Y183737D01*
Y185700D01*
X471778Y185700D01*
X471468Y187261D01*
X470584Y188584D01*
X409170Y249998D01*
X409385Y250519D01*
X409699Y252900D01*
X409385Y255281D01*
X408466Y257499D01*
X407005Y259405D01*
X405099Y260866D01*
X402881Y261785D01*
X400500Y262099D01*
D02*
G37*
G36*
X451300Y184276D02*
X449603Y184053D01*
X448022Y183398D01*
X446664Y182356D01*
X445622Y180998D01*
X444967Y179417D01*
X444744Y177720D01*
X444967Y176023D01*
X445622Y174442D01*
X446664Y173084D01*
X448022Y172042D01*
X449603Y171387D01*
X451300Y171164D01*
X452997Y171387D01*
X454578Y172042D01*
X455936Y173084D01*
X456978Y174442D01*
X457633Y176023D01*
X457856Y177720D01*
X457633Y179417D01*
X456978Y180998D01*
X455936Y182356D01*
X454578Y183398D01*
X452997Y184053D01*
X451300Y184276D01*
D02*
G37*
G36*
X568140Y185899D02*
X552900D01*
X550519Y185585D01*
X548301Y184666D01*
X546396Y183204D01*
X544934Y181299D01*
X544015Y179081D01*
X543701Y176700D01*
X544015Y174319D01*
X544934Y172101D01*
X546396Y170196D01*
X548301Y168734D01*
X550519Y167815D01*
X552900Y167501D01*
X568140D01*
X570521Y167815D01*
X572739Y168734D01*
X574645Y170196D01*
X576106Y172101D01*
X577025Y174319D01*
X577339Y176700D01*
X577025Y179081D01*
X576106Y181299D01*
X574645Y183204D01*
X572739Y184666D01*
X570521Y185585D01*
X568140Y185899D01*
D02*
G37*
G36*
X671402Y199860D02*
X667244Y199533D01*
X663188Y198559D01*
X659334Y196963D01*
X655778Y194783D01*
X652606Y192074D01*
X649897Y188902D01*
X647717Y185346D01*
X646121Y181492D01*
X645147Y177436D01*
X644820Y173278D01*
X645147Y169120D01*
X646121Y165064D01*
X647717Y161210D01*
X649897Y157654D01*
X652606Y154482D01*
X655778Y151773D01*
X659334Y149593D01*
X663188Y147997D01*
X667244Y147023D01*
X671402Y146696D01*
X675560Y147023D01*
X679616Y147997D01*
X683470Y149593D01*
X687027Y151773D01*
X690198Y154482D01*
X692907Y157654D01*
X695087Y161210D01*
X696683Y165064D01*
X697657Y169120D01*
X697984Y173278D01*
X697657Y177436D01*
X696683Y181492D01*
X695087Y185346D01*
X692907Y188902D01*
X690198Y192074D01*
X687027Y194783D01*
X683470Y196963D01*
X679616Y198559D01*
X675560Y199533D01*
X671402Y199860D01*
D02*
G37*
G36*
X56902Y199760D02*
X52744Y199433D01*
X48688Y198459D01*
X44834Y196863D01*
X41277Y194683D01*
X38106Y191974D01*
X35397Y188803D01*
X33217Y185246D01*
X31621Y181392D01*
X30647Y177336D01*
X30320Y173178D01*
X30647Y169020D01*
X31621Y164964D01*
X33217Y161110D01*
X35397Y157554D01*
X38106Y154382D01*
X41277Y151673D01*
X44834Y149493D01*
X48688Y147897D01*
X52744Y146923D01*
X56902Y146596D01*
X61060Y146923D01*
X65116Y147897D01*
X68970Y149493D01*
X72526Y151673D01*
X75698Y154382D01*
X78407Y157554D01*
X80587Y161110D01*
X82183Y164964D01*
X83157Y169020D01*
X83484Y173178D01*
X83157Y177336D01*
X82183Y181392D01*
X80587Y185246D01*
X78407Y188803D01*
X75698Y191974D01*
X72526Y194683D01*
X68970Y196863D01*
X65116Y198459D01*
X61060Y199433D01*
X56902Y199760D01*
D02*
G37*
G36*
X502100Y158876D02*
X500403Y158653D01*
X498822Y157998D01*
X497464Y156956D01*
X496422Y155598D01*
X495767Y154017D01*
X495544Y152320D01*
X495767Y150623D01*
X496422Y149042D01*
X497464Y147684D01*
X498822Y146642D01*
X500403Y145987D01*
X502100Y145764D01*
X503797Y145987D01*
X505378Y146642D01*
X506736Y147684D01*
X507778Y149042D01*
X508433Y150623D01*
X508656Y152320D01*
X508433Y154017D01*
X507778Y155598D01*
X506736Y156956D01*
X505378Y157998D01*
X503797Y158653D01*
X502100Y158876D01*
D02*
G37*
G36*
X451300D02*
X449603Y158653D01*
X448022Y157998D01*
X446664Y156956D01*
X445622Y155598D01*
X444967Y154017D01*
X444744Y152320D01*
X444967Y150623D01*
X445622Y149042D01*
X446664Y147684D01*
X448022Y146642D01*
X449603Y145987D01*
X451300Y145764D01*
X452997Y145987D01*
X454578Y146642D01*
X455936Y147684D01*
X456978Y149042D01*
X457633Y150623D01*
X457856Y152320D01*
X457633Y154017D01*
X456978Y155598D01*
X455936Y156956D01*
X454578Y157998D01*
X452997Y158653D01*
X451300Y158876D01*
D02*
G37*
G36*
X552900Y161139D02*
X550354Y160804D01*
X547980Y159821D01*
X545943Y158257D01*
X544379Y156220D01*
X543396Y153847D01*
X543061Y151300D01*
X543396Y148753D01*
X544379Y146380D01*
X545943Y144343D01*
X547980Y142779D01*
X550354Y141796D01*
X552900Y141461D01*
X555447Y141796D01*
X557820Y142779D01*
X559857Y144343D01*
X561421Y146380D01*
X562404Y148753D01*
X562739Y151300D01*
X562404Y153847D01*
X561421Y156220D01*
X559857Y158257D01*
X557820Y159821D01*
X555447Y160804D01*
X552900Y161139D01*
D02*
G37*
G36*
X400500D02*
X397953Y160804D01*
X395580Y159821D01*
X393543Y158257D01*
X391979Y156220D01*
X390996Y153847D01*
X390661Y151300D01*
X390996Y148753D01*
X391979Y146380D01*
X393543Y144343D01*
X395580Y142779D01*
X397953Y141796D01*
X400500Y141461D01*
X403047Y141796D01*
X405420Y142779D01*
X407457Y144343D01*
X409021Y146380D01*
X410004Y148753D01*
X410339Y151300D01*
X410004Y153847D01*
X409021Y156220D01*
X407457Y158257D01*
X405420Y159821D01*
X403047Y160804D01*
X400500Y161139D01*
D02*
G37*
G36*
X251127Y46983D02*
Y33250D01*
X259959D01*
Y37500D01*
X259633Y39980D01*
X258675Y42291D01*
X257153Y44275D01*
X255168Y45798D01*
X252857Y46755D01*
X251127Y46983D01*
D02*
G37*
G36*
X249627D02*
X247897Y46755D01*
X245586Y45798D01*
X243602Y44275D01*
X242079Y42291D01*
X241122Y39980D01*
X240795Y37500D01*
Y33250D01*
X249627D01*
Y46983D01*
D02*
G37*
G36*
X363600Y46733D02*
Y33000D01*
X372432D01*
Y37250D01*
X372105Y39730D01*
X371148Y42041D01*
X369625Y44026D01*
X367641Y45548D01*
X365330Y46505D01*
X363600Y46733D01*
D02*
G37*
G36*
X362100D02*
X360370Y46505D01*
X358059Y45548D01*
X356074Y44026D01*
X354552Y42041D01*
X353595Y39730D01*
X353268Y37250D01*
Y33000D01*
X362100D01*
Y46733D01*
D02*
G37*
G36*
X845400D02*
Y33000D01*
X854232D01*
Y37250D01*
X853905Y39730D01*
X852948Y42041D01*
X851425Y44026D01*
X849441Y45548D01*
X847130Y46505D01*
X845400Y46733D01*
D02*
G37*
G36*
X843900Y46733D02*
X842170Y46505D01*
X839859Y45548D01*
X837875Y44026D01*
X836352Y42041D01*
X835395Y39730D01*
X835068Y37250D01*
Y33000D01*
X843900D01*
Y46733D01*
D02*
G37*
G36*
X91902Y46483D02*
Y32750D01*
X100734D01*
Y37000D01*
X100407Y39480D01*
X99450Y41791D01*
X97928Y43776D01*
X95943Y45298D01*
X93632Y46255D01*
X91902Y46483D01*
D02*
G37*
G36*
X90402D02*
X88672Y46255D01*
X86361Y45298D01*
X84377Y43776D01*
X82854Y41791D01*
X81897Y39480D01*
X81570Y37000D01*
Y32750D01*
X90402D01*
Y46483D01*
D02*
G37*
G36*
X611250Y46233D02*
Y32500D01*
X620082D01*
Y36750D01*
X619755Y39230D01*
X618798Y41541D01*
X617275Y43526D01*
X615291Y45048D01*
X612980Y46006D01*
X611250Y46233D01*
D02*
G37*
G36*
X609750D02*
X608020Y46006D01*
X605709Y45048D01*
X603725Y43526D01*
X602202Y41541D01*
X601245Y39230D01*
X600918Y36750D01*
Y32500D01*
X609750D01*
Y46233D01*
D02*
G37*
G36*
X549500Y45983D02*
Y32250D01*
X558332D01*
Y36500D01*
X558005Y38980D01*
X557048Y41291D01*
X555525Y43275D01*
X553541Y44798D01*
X551230Y45756D01*
X549500Y45983D01*
D02*
G37*
G36*
X548000D02*
X546270Y45756D01*
X543959Y44798D01*
X541974Y43275D01*
X540452Y41291D01*
X539495Y38980D01*
X539168Y36500D01*
Y32250D01*
X548000D01*
Y45983D01*
D02*
G37*
G36*
X187500Y94581D02*
X182557Y94192D01*
X177736Y93035D01*
X173155Y91138D01*
X168927Y88547D01*
X165157Y85327D01*
X161937Y81557D01*
X159347Y77329D01*
X157449Y72748D01*
X156292Y67927D01*
X155903Y62984D01*
X156292Y58041D01*
X157449Y53220D01*
X159347Y48639D01*
X161937Y44412D01*
X165157Y40641D01*
X168927Y37421D01*
X173155Y34831D01*
X177736Y32933D01*
X182557Y31776D01*
X187500Y31387D01*
X192443Y31776D01*
X197264Y32933D01*
X201845Y34831D01*
X206073Y37421D01*
X209843Y40641D01*
X213063Y44412D01*
X215653Y48639D01*
X217551Y53220D01*
X218708Y58041D01*
X219097Y62984D01*
X218708Y67927D01*
X217551Y72748D01*
X215653Y77329D01*
X213063Y81557D01*
X209843Y85327D01*
X206073Y88547D01*
X201845Y91138D01*
X197264Y93035D01*
X192443Y94192D01*
X187500Y94581D01*
D02*
G37*
G36*
X729250Y92331D02*
X724307Y91942D01*
X719486Y90785D01*
X714905Y88888D01*
X710677Y86297D01*
X706907Y83077D01*
X703687Y79307D01*
X701096Y75079D01*
X699199Y70498D01*
X698042Y65677D01*
X697653Y60734D01*
X698042Y55791D01*
X699199Y50970D01*
X701096Y46389D01*
X703687Y42161D01*
X706907Y38391D01*
X710677Y35171D01*
X714905Y32580D01*
X719486Y30683D01*
X724307Y29526D01*
X729250Y29137D01*
X734193Y29526D01*
X739014Y30683D01*
X743595Y32580D01*
X747822Y35171D01*
X751593Y38391D01*
X754813Y42161D01*
X757403Y46389D01*
X759301Y50970D01*
X760458Y55791D01*
X760847Y60734D01*
X760458Y65677D01*
X759301Y70498D01*
X757403Y75079D01*
X754813Y79307D01*
X751593Y83077D01*
X747822Y86297D01*
X743595Y88888D01*
X739014Y90785D01*
X734193Y91942D01*
X729250Y92331D01*
D02*
G37*
G36*
X259959Y31750D02*
X251127D01*
Y18017D01*
X252857Y18245D01*
X255168Y19202D01*
X257153Y20724D01*
X258675Y22709D01*
X259633Y25020D01*
X259959Y27500D01*
Y31750D01*
D02*
G37*
G36*
X249627D02*
X240795D01*
Y27500D01*
X241122Y25020D01*
X242079Y22709D01*
X243602Y20724D01*
X245586Y19202D01*
X247897Y18245D01*
X249627Y18017D01*
Y31750D01*
D02*
G37*
G36*
X277622Y177256D02*
X276061Y176946D01*
X274738Y176062D01*
X273854Y174739D01*
X273544Y173178D01*
X273854Y171617D01*
X274738Y170294D01*
X296699Y148334D01*
Y46093D01*
X295986Y45798D01*
X294002Y44275D01*
X292479Y42291D01*
X291522Y39980D01*
X291195Y37500D01*
Y27500D01*
X291522Y25020D01*
X292479Y22709D01*
X294002Y20724D01*
X295986Y19202D01*
X298297Y18245D01*
X300777Y17918D01*
X303257Y18245D01*
X305568Y19202D01*
X307553Y20724D01*
X309075Y22709D01*
X310033Y25020D01*
X310359Y27500D01*
Y37500D01*
X310033Y39980D01*
X309075Y42291D01*
X307553Y44275D01*
X305568Y45798D01*
X304855Y46093D01*
Y150023D01*
X304545Y151583D01*
X303661Y152907D01*
X303661Y152907D01*
X280506Y176062D01*
X279183Y176946D01*
X278924Y176997D01*
X277622Y177256D01*
D02*
G37*
G36*
X276000Y144828D02*
X274439Y144518D01*
X273116Y143634D01*
X272232Y142311D01*
X271922Y140750D01*
X272232Y139189D01*
X272718Y138461D01*
Y46516D01*
X270986Y45798D01*
X269002Y44275D01*
X267479Y42291D01*
X266522Y39980D01*
X266195Y37500D01*
Y27500D01*
X266522Y25020D01*
X267479Y22709D01*
X269002Y20724D01*
X270986Y19202D01*
X273297Y18245D01*
X275777Y17918D01*
X278257Y18245D01*
X280568Y19202D01*
X282553Y20724D01*
X284075Y22709D01*
X285033Y25020D01*
X285359Y27500D01*
Y37500D01*
X285033Y39980D01*
X284075Y42291D01*
X282553Y44275D01*
X280568Y45798D01*
X278836Y46516D01*
Y137834D01*
X278884Y137866D01*
X279768Y139189D01*
X280078Y140750D01*
X279768Y142311D01*
X278884Y143634D01*
X277561Y144518D01*
X276000Y144828D01*
D02*
G37*
G36*
X843900Y31500D02*
X835068D01*
Y27250D01*
X835395Y24770D01*
X836352Y22459D01*
X837875Y20475D01*
X839859Y18952D01*
X842170Y17995D01*
X843900Y17767D01*
Y31500D01*
D02*
G37*
G36*
X362100Y31500D02*
X353268D01*
Y27250D01*
X353595Y24770D01*
X354552Y22459D01*
X356074Y20475D01*
X358059Y18952D01*
X360370Y17995D01*
X362100Y17767D01*
Y31500D01*
D02*
G37*
G36*
X372432D02*
X363600D01*
Y17767D01*
X365330Y17995D01*
X367641Y18952D01*
X369625Y20475D01*
X371148Y22459D01*
X372105Y24770D01*
X372432Y27250D01*
Y31500D01*
D02*
G37*
G36*
X854232Y31500D02*
X845400D01*
Y17767D01*
X847130Y17995D01*
X849441Y18952D01*
X851425Y20475D01*
X852948Y22459D01*
X853905Y24770D01*
X854232Y27250D01*
Y31500D01*
D02*
G37*
G36*
X869650Y46832D02*
X867170Y46505D01*
X864859Y45548D01*
X862875Y44026D01*
X861352Y42041D01*
X860395Y39730D01*
X860068Y37250D01*
Y27250D01*
X860395Y24770D01*
X861352Y22459D01*
X862875Y20475D01*
X864859Y18952D01*
X867170Y17995D01*
X869650Y17668D01*
X872130Y17995D01*
X874441Y18952D01*
X876425Y20475D01*
X877948Y22459D01*
X878905Y24770D01*
X879232Y27250D01*
Y37250D01*
X878905Y39730D01*
X877948Y42041D01*
X876425Y44026D01*
X874441Y45548D01*
X872130Y46505D01*
X869650Y46832D01*
D02*
G37*
G36*
X413250D02*
X410770Y46505D01*
X408459Y45548D01*
X406474Y44026D01*
X404952Y42041D01*
X403994Y39730D01*
X403668Y37250D01*
Y27250D01*
X403994Y24770D01*
X404952Y22459D01*
X406474Y20475D01*
X408459Y18952D01*
X410770Y17995D01*
X413250Y17668D01*
X415730Y17995D01*
X418041Y18952D01*
X420025Y20475D01*
X421548Y22459D01*
X422505Y24770D01*
X422832Y27250D01*
Y37250D01*
X422505Y39730D01*
X421548Y42041D01*
X420025Y44026D01*
X418041Y45548D01*
X415730Y46505D01*
X413250Y46832D01*
D02*
G37*
G36*
X370750Y367328D02*
X369189Y367018D01*
X367866Y366134D01*
X366982Y364811D01*
X366672Y363250D01*
X366982Y361689D01*
X367197Y361367D01*
X367191Y361336D01*
X367191Y361336D01*
Y167667D01*
X362541Y163017D01*
X361289Y162768D01*
X359966Y161884D01*
X359082Y160561D01*
X358772Y159000D01*
X359082Y157439D01*
X359791Y156378D01*
Y111900D01*
X359791Y111900D01*
X360024Y110730D01*
X360687Y109737D01*
X385191Y85233D01*
Y46266D01*
X383459Y45548D01*
X381474Y44026D01*
X379952Y42041D01*
X378994Y39730D01*
X378668Y37250D01*
Y27250D01*
X378994Y24770D01*
X379952Y22459D01*
X381474Y20475D01*
X383459Y18952D01*
X385770Y17995D01*
X388250Y17668D01*
X390730Y17995D01*
X393041Y18952D01*
X395025Y20475D01*
X396548Y22459D01*
X397505Y24770D01*
X397832Y27250D01*
Y37250D01*
X397505Y39730D01*
X396548Y42041D01*
X395025Y44026D01*
X393041Y45548D01*
X391309Y46266D01*
Y86500D01*
X391309Y86500D01*
X391076Y87671D01*
X390413Y88663D01*
X390413Y88663D01*
X365909Y113167D01*
Y156378D01*
X366618Y157439D01*
X366867Y158691D01*
X372413Y164237D01*
X373076Y165229D01*
X373309Y166400D01*
X373309Y166400D01*
Y360149D01*
X373634Y360366D01*
X374518Y361689D01*
X374828Y363250D01*
X374518Y364811D01*
X373634Y366134D01*
X372311Y367018D01*
X370750Y367328D01*
D02*
G37*
G36*
X100734Y31250D02*
X91902D01*
Y17517D01*
X93632Y17744D01*
X95943Y18702D01*
X97928Y20224D01*
X99450Y22209D01*
X100407Y24520D01*
X100734Y27000D01*
Y31250D01*
D02*
G37*
G36*
X90402D02*
X81570D01*
Y27000D01*
X81897Y24520D01*
X82854Y22209D01*
X84377Y20224D01*
X86361Y18702D01*
X88672Y17744D01*
X90402Y17517D01*
Y31250D01*
D02*
G37*
G36*
X116152Y46582D02*
X113672Y46255D01*
X111361Y45298D01*
X109377Y43776D01*
X107854Y41791D01*
X106897Y39480D01*
X106570Y37000D01*
Y27000D01*
X106897Y24520D01*
X107854Y22209D01*
X109377Y20224D01*
X111361Y18702D01*
X113672Y17744D01*
X116152Y17418D01*
X118632Y17744D01*
X120943Y18702D01*
X122928Y20224D01*
X124450Y22209D01*
X125407Y24520D01*
X125734Y27000D01*
Y37000D01*
X125407Y39480D01*
X124450Y41791D01*
X122928Y43776D01*
X120943Y45298D01*
X118632Y46255D01*
X116152Y46582D01*
D02*
G37*
G36*
X65752D02*
X63272Y46255D01*
X60961Y45298D01*
X58977Y43776D01*
X57454Y41791D01*
X56497Y39480D01*
X56170Y37000D01*
Y27000D01*
X56497Y24520D01*
X57454Y22209D01*
X58977Y20224D01*
X60961Y18702D01*
X63272Y17744D01*
X65752Y17418D01*
X68232Y17744D01*
X70543Y18702D01*
X72527Y20224D01*
X74050Y22209D01*
X75008Y24520D01*
X75334Y27000D01*
Y37000D01*
X75008Y39480D01*
X74050Y41791D01*
X72527Y43776D01*
X70543Y45298D01*
X68232Y46255D01*
X65752Y46582D01*
D02*
G37*
G36*
X40352D02*
X37872Y46255D01*
X35561Y45298D01*
X33577Y43776D01*
X32054Y41791D01*
X31097Y39480D01*
X30770Y37000D01*
Y27000D01*
X31097Y24520D01*
X32054Y22209D01*
X33577Y20224D01*
X35561Y18702D01*
X37872Y17744D01*
X40352Y17418D01*
X42832Y17744D01*
X45143Y18702D01*
X47127Y20224D01*
X48650Y22209D01*
X49608Y24520D01*
X49934Y27000D01*
Y37000D01*
X49608Y39480D01*
X48650Y41791D01*
X47127Y43776D01*
X45143Y45298D01*
X42832Y46255D01*
X40352Y46582D01*
D02*
G37*
G36*
X620082Y31000D02*
X611250D01*
Y17267D01*
X612980Y17494D01*
X615291Y18452D01*
X617275Y19974D01*
X618798Y21959D01*
X619755Y24270D01*
X620082Y26750D01*
Y31000D01*
D02*
G37*
G36*
X609750D02*
X600918D01*
Y26750D01*
X601245Y24270D01*
X602202Y21959D01*
X603725Y19974D01*
X605709Y18452D01*
X608020Y17494D01*
X609750Y17267D01*
Y31000D01*
D02*
G37*
G36*
X660900Y46332D02*
X658420Y46006D01*
X656109Y45048D01*
X654125Y43526D01*
X652602Y41541D01*
X651645Y39230D01*
X651318Y36750D01*
Y26750D01*
X651645Y24270D01*
X652602Y21959D01*
X654125Y19974D01*
X656109Y18452D01*
X658420Y17494D01*
X660900Y17168D01*
X663380Y17494D01*
X665691Y18452D01*
X667675Y19974D01*
X669198Y21959D01*
X670155Y24270D01*
X670482Y26750D01*
Y36750D01*
X670155Y39230D01*
X669198Y41541D01*
X667675Y43526D01*
X665691Y45048D01*
X663380Y46006D01*
X660900Y46332D01*
D02*
G37*
G36*
X617500Y472828D02*
X615939Y472518D01*
X614616Y471634D01*
X613732Y470311D01*
X613422Y468750D01*
X613732Y467189D01*
X614616Y465866D01*
X615939Y464982D01*
X617191Y464733D01*
X632841Y449083D01*
Y45766D01*
X631109Y45048D01*
X629124Y43526D01*
X627602Y41541D01*
X626645Y39230D01*
X626318Y36750D01*
Y26750D01*
X626645Y24270D01*
X627602Y21959D01*
X629124Y19974D01*
X631109Y18452D01*
X633420Y17494D01*
X635900Y17168D01*
X638380Y17494D01*
X640691Y18452D01*
X642675Y19974D01*
X644198Y21959D01*
X645155Y24270D01*
X645482Y26750D01*
Y36750D01*
X645155Y39230D01*
X644198Y41541D01*
X642675Y43526D01*
X640691Y45048D01*
X638959Y45766D01*
Y450350D01*
X638726Y451521D01*
X638063Y452513D01*
X638063Y452513D01*
X621517Y469059D01*
X621268Y470311D01*
X620384Y471634D01*
X619061Y472518D01*
X617500Y472828D01*
D02*
G37*
G36*
X558332Y30750D02*
X549500D01*
Y17017D01*
X551230Y17244D01*
X553541Y18202D01*
X555525Y19725D01*
X557048Y21709D01*
X558005Y24020D01*
X558332Y26500D01*
Y30750D01*
D02*
G37*
G36*
X548000D02*
X539168D01*
Y26500D01*
X539495Y24020D01*
X540452Y21709D01*
X541974Y19725D01*
X543959Y18202D01*
X546270Y17244D01*
X548000Y17017D01*
Y30750D01*
D02*
G37*
G36*
X400500Y389099D02*
X385260D01*
X382879Y388785D01*
X380661Y387866D01*
X378756Y386404D01*
X377294Y384499D01*
X376375Y382281D01*
X376061Y379900D01*
X376375Y377519D01*
X377294Y375301D01*
X378756Y373396D01*
X380661Y371934D01*
X382879Y371015D01*
X385260Y370701D01*
X400500D01*
X402881Y371015D01*
X405099Y371934D01*
X407005Y373396D01*
X408466Y375301D01*
X408525Y375441D01*
X479983D01*
X512671Y342753D01*
Y70747D01*
X496087Y54163D01*
X495424Y53170D01*
X495191Y52000D01*
X495191Y52000D01*
Y45474D01*
X493559Y44798D01*
X491575Y43275D01*
X490052Y41291D01*
X489095Y38980D01*
X488768Y36500D01*
Y26500D01*
X489095Y24020D01*
X490052Y21709D01*
X491575Y19725D01*
X493559Y18202D01*
X495870Y17244D01*
X498350Y16918D01*
X500830Y17244D01*
X503141Y18202D01*
X505125Y19725D01*
X506648Y21709D01*
X507605Y24020D01*
X507932Y26500D01*
Y36500D01*
X507605Y38980D01*
X506648Y41291D01*
X505125Y43275D01*
X503141Y44798D01*
X501309Y45557D01*
Y50733D01*
X517893Y67317D01*
X517893Y67317D01*
X518556Y68309D01*
X518789Y69480D01*
X518789Y69480D01*
Y344020D01*
X518789Y344020D01*
X518556Y345191D01*
X517893Y346183D01*
X517893Y346183D01*
X483413Y380663D01*
X482421Y381326D01*
X481250Y381559D01*
X481250Y381559D01*
X409480D01*
X409385Y382281D01*
X408466Y384499D01*
X407005Y386404D01*
X405099Y387866D01*
X402881Y388785D01*
X400500Y389099D01*
D02*
G37*
G36*
Y185899D02*
X385260D01*
X382879Y185585D01*
X380661Y184666D01*
X378756Y183204D01*
X377294Y181299D01*
X376375Y179081D01*
X376061Y176700D01*
X376375Y174319D01*
X377294Y172101D01*
X378756Y170196D01*
X380661Y168734D01*
X382879Y167815D01*
X385260Y167501D01*
X400500D01*
X402881Y167815D01*
X405099Y168734D01*
X407005Y170196D01*
X408466Y172101D01*
X408682Y172622D01*
X415851D01*
X424412Y164061D01*
Y11000D01*
X424722Y9439D01*
X425606Y8116D01*
X426929Y7232D01*
X428490Y6922D01*
X430051Y7232D01*
X431374Y8116D01*
X432258Y9439D01*
X432568Y11000D01*
Y165750D01*
X432568Y165750D01*
X432258Y167311D01*
X431374Y168634D01*
X431374Y168634D01*
X420424Y179584D01*
X419101Y180468D01*
X417540Y180778D01*
X417540Y180778D01*
X408682D01*
X408466Y181299D01*
X407005Y183204D01*
X405099Y184666D01*
X402881Y185585D01*
X400500Y185899D01*
D02*
G37*
%LPD*%
G36*
X331691Y431902D02*
Y298338D01*
X330982Y297277D01*
X330904Y296885D01*
X329538Y296527D01*
X329449Y296630D01*
Y430194D01*
X330158Y431255D01*
X330236Y431647D01*
X331602Y432006D01*
X331691Y431902D01*
D02*
G37*
G36*
X323331Y405629D02*
Y285489D01*
X322061Y285104D01*
X321400Y286094D01*
X321067Y286316D01*
Y404032D01*
X321776Y405093D01*
X321830Y405366D01*
X323204Y405763D01*
X323331Y405629D01*
D02*
G37*
D51*
X743750Y371000D02*
D03*
X729250Y60734D02*
D03*
X187500Y62984D02*
D03*
D52*
X219046Y213000D02*
X254856D01*
X256540Y214684D01*
X274828Y322072D02*
Y466344D01*
X256540Y214684D02*
Y411226D01*
X287169Y307841D02*
Y507132D01*
X287528Y507492D01*
X299619Y318480D02*
Y423566D01*
X301119Y425066D01*
X318008Y283718D02*
Y406654D01*
Y283718D02*
X318516Y283210D01*
X326390Y277475D02*
Y432816D01*
X325131Y276216D02*
X326390Y277475D01*
X334264Y454914D02*
X334647Y454531D01*
Y453117D02*
Y454531D01*
Y453117D02*
X334750Y453014D01*
Y295716D02*
Y453014D01*
X344932Y271526D02*
Y494284D01*
X343916Y270510D02*
X344932Y271526D01*
X352207Y264069D02*
Y525109D01*
X353269D01*
X361188Y259752D02*
Y510794D01*
X360344Y258908D02*
X361188Y259752D01*
X364744Y514350D02*
Y519938D01*
X361188Y510794D02*
X364744Y514350D01*
X362850Y159000D02*
X370250Y166400D01*
X370367Y362867D02*
X370750Y363250D01*
X370367Y361453D02*
Y362867D01*
X370250Y361336D02*
X370367Y361453D01*
X370250Y166400D02*
Y361336D01*
X362850Y111900D02*
Y159000D01*
X217990Y269716D02*
Y376174D01*
X196850Y263216D02*
Y379222D01*
X176764Y252900D02*
Y376174D01*
X174438Y378500D02*
X176764Y376174D01*
X660000Y284500D02*
Y292298D01*
X668202Y300500D01*
X721750D01*
X530750Y357750D02*
X552900Y379900D01*
X530750Y257750D02*
Y357750D01*
X401900Y378500D02*
X481250D01*
X515730Y69480D02*
Y344020D01*
X481250Y378500D02*
X515730Y344020D01*
X523750Y31500D02*
Y347280D01*
X400500Y405300D02*
X465730D01*
X523750Y347280D01*
X617500Y468750D02*
X635900Y450350D01*
Y31750D02*
Y450350D01*
X679986Y339236D02*
X683250Y342500D01*
Y423250D01*
X696250Y309250D02*
Y478250D01*
X709500Y491500D01*
X689500Y312250D02*
Y463250D01*
X388250Y32250D02*
Y86500D01*
X362850Y111900D02*
X388250Y86500D01*
X400500Y379900D02*
X401900Y378500D01*
X498250Y31600D02*
X498350Y31500D01*
X498250Y31600D02*
Y52000D01*
X515730Y69480D01*
X653250Y353500D02*
X653280Y353470D01*
Y250750D02*
Y353470D01*
X819250Y32250D02*
Y84780D01*
X653280Y250750D02*
X819250Y84780D01*
X646117Y327117D02*
X646500Y327500D01*
X646117Y325703D02*
Y327117D01*
X645750Y325336D02*
X646117Y325703D01*
X645750Y244500D02*
X793850Y96400D01*
X645750Y244500D02*
Y325336D01*
X793850Y32250D02*
Y96400D01*
X275777Y32500D02*
Y140527D01*
X276000Y140750D01*
D53*
X300777Y32500D02*
Y150023D01*
X277622Y173178D02*
X300777Y150023D01*
X467700Y148592D02*
Y185700D01*
Y148592D02*
X472950Y143342D01*
X400500Y252900D02*
X467700Y185700D01*
X472950Y31500D02*
Y143342D01*
X428490Y11000D02*
Y165750D01*
X400500Y176700D02*
X417540D01*
X428490Y165750D01*
D54*
X874500Y197778D02*
D03*
X778500D02*
D03*
D55*
X846500Y207778D02*
D03*
X826500D02*
D03*
X806500D02*
D03*
X846500Y187778D02*
D03*
X826500D02*
D03*
X806500D02*
D03*
D56*
X476700Y177720D02*
D03*
X502100Y152320D02*
D03*
Y177720D02*
D03*
X476700Y152320D02*
D03*
X451300D02*
D03*
Y177720D02*
D03*
X505910Y552620D02*
D03*
X531310D02*
D03*
D57*
X552900Y151300D02*
D03*
X400500D02*
D03*
Y557700D02*
D03*
X552900D02*
D03*
D58*
X392880Y176700D02*
D03*
Y202100D02*
D03*
Y227500D02*
D03*
Y252900D02*
D03*
Y278300D02*
D03*
Y303700D02*
D03*
Y329100D02*
D03*
Y354500D02*
D03*
Y379900D02*
D03*
Y405300D02*
D03*
Y430700D02*
D03*
Y456100D02*
D03*
Y481500D02*
D03*
Y506900D02*
D03*
Y532300D02*
D03*
X560520Y176700D02*
D03*
D03*
Y202100D02*
D03*
Y227500D02*
D03*
Y252900D02*
D03*
Y278300D02*
D03*
Y303700D02*
D03*
Y329100D02*
D03*
Y354500D02*
D03*
Y379900D02*
D03*
Y405300D02*
D03*
Y430700D02*
D03*
Y456100D02*
D03*
Y481500D02*
D03*
Y506900D02*
D03*
Y532300D02*
D03*
D59*
X41402Y344678D02*
D03*
Y370078D02*
D03*
Y446278D02*
D03*
Y421278D02*
D03*
Y395478D02*
D03*
Y268478D02*
D03*
Y294278D02*
D03*
Y319278D02*
D03*
Y243078D02*
D03*
D60*
X844650Y32250D02*
D03*
X869650D02*
D03*
X819250D02*
D03*
X793850D02*
D03*
X40352Y32000D02*
D03*
X65752D02*
D03*
X116152D02*
D03*
X91152D02*
D03*
X300777Y32500D02*
D03*
X275777D02*
D03*
X250377D02*
D03*
X413250Y32250D02*
D03*
X388250D02*
D03*
X362850D02*
D03*
X523750Y31500D02*
D03*
X548750D02*
D03*
X498350D02*
D03*
X472950D02*
D03*
X610500Y31750D02*
D03*
X635900D02*
D03*
X660900D02*
D03*
D61*
X277622Y173178D02*
D03*
X219046Y213000D02*
D03*
X274828Y466344D02*
D03*
Y322072D02*
D03*
X256540Y411226D02*
D03*
X287528Y507492D02*
D03*
X287169Y307841D02*
D03*
X301119Y425066D02*
D03*
X299619Y318480D02*
D03*
X318516Y283210D02*
D03*
X318008Y406654D02*
D03*
X325131Y276216D02*
D03*
X326390Y432816D02*
D03*
X334750Y295716D02*
D03*
X334264Y454914D02*
D03*
X343916Y270510D02*
D03*
X344932Y494284D02*
D03*
X353269Y525109D02*
D03*
X352207Y264069D02*
D03*
X360344Y258908D02*
D03*
X364744Y519938D02*
D03*
X217990Y269716D02*
D03*
Y376174D02*
D03*
X196850Y263216D02*
D03*
Y379222D02*
D03*
X174438Y378500D02*
D03*
X176764Y252900D02*
D03*
X721750Y300500D02*
D03*
X660000Y284500D02*
D03*
X428490Y11000D02*
D03*
X530750Y257750D02*
D03*
X617500Y468750D02*
D03*
X370750Y363250D02*
D03*
X683250Y423250D02*
D03*
X679986Y339236D02*
D03*
X709500Y491500D02*
D03*
X696250Y309250D02*
D03*
X689500Y463250D02*
D03*
Y312250D02*
D03*
X362850Y159000D02*
D03*
X653250Y353500D02*
D03*
X646500Y327500D02*
D03*
X276000Y140750D02*
D03*
D62*
X56902Y517878D02*
D03*
Y173178D02*
D03*
X671402Y173278D02*
D03*
X670902Y516278D02*
D03*
M02*
