G04*
G04 #@! TF.GenerationSoftware,Altium Limited,Altium Designer,21.0.9 (235)*
G04*
G04 Layer_Color=255*
%FSLAX44Y44*%
%MOMM*%
G71*
G04*
G04 #@! TF.SameCoordinates,2588B0E2-F362-4AB3-B6B3-F61507E4C0EF*
G04*
G04*
G04 #@! TF.FilePolarity,Positive*
G04*
G01*
G75*
%ADD16R,1.5500X1.0000*%
%ADD17R,1.0000X0.5000*%
%ADD18R,0.6400X0.5000*%
%ADD19R,0.9500X0.6000*%
%ADD20R,0.6000X0.9500*%
%ADD21R,1.5000X1.3000*%
%ADD22R,1.5000X1.7000*%
%ADD23R,1.2000X1.4000*%
%ADD24R,1.7000X1.5000*%
%ADD25R,1.6000X1.5000*%
%ADD26R,0.8000X1.4000*%
%ADD27R,1.0000X0.9000*%
%ADD28R,1.5000X1.0000*%
%ADD29O,1.2000X0.4000*%
%ADD54C,2.0000*%
%ADD55C,1.2000*%
%ADD56C,1.0000*%
%ADD57C,1.6510*%
%ADD58O,3.0480X1.5240*%
%ADD59O,2.6000X1.6000*%
%ADD60O,1.6000X2.6000*%
D16*
X855658Y306339D02*
D03*
X796658D02*
D03*
Y336339D02*
D03*
X855658D02*
D03*
Y399560D02*
D03*
X796658D02*
D03*
Y429560D02*
D03*
X855658D02*
D03*
D17*
X129046Y203500D02*
D03*
Y213000D02*
D03*
Y222500D02*
D03*
X156046D02*
D03*
Y213000D02*
D03*
Y203500D02*
D03*
D18*
X175260Y223740D02*
D03*
Y213140D02*
D03*
D19*
X330962Y485520D02*
D03*
Y469520D02*
D03*
X313157Y484918D02*
D03*
Y468918D02*
D03*
Y441066D02*
D03*
Y425066D02*
D03*
X733484Y300950D02*
D03*
Y316950D02*
D03*
X751234Y317450D02*
D03*
Y301450D02*
D03*
X751490Y414017D02*
D03*
Y430017D02*
D03*
X734894Y430200D02*
D03*
Y414200D02*
D03*
X755250Y181778D02*
D03*
Y197778D02*
D03*
X738500Y181250D02*
D03*
Y197250D02*
D03*
X311500Y174750D02*
D03*
Y158750D02*
D03*
X293000Y175000D02*
D03*
Y159000D02*
D03*
D20*
X301493Y230548D02*
D03*
X285492D02*
D03*
X252243Y231056D02*
D03*
X236243D02*
D03*
X209510Y363250D02*
D03*
X193510D02*
D03*
X732750Y463250D02*
D03*
X748750D02*
D03*
D21*
X142546Y407802D02*
D03*
D22*
X277546Y539802D02*
D03*
X142546D02*
D03*
D23*
Y481802D02*
D03*
D24*
X275046Y391302D02*
D03*
D25*
X149046D02*
D03*
D26*
X241046Y390302D02*
D03*
X230046D02*
D03*
X219046D02*
D03*
X208046D02*
D03*
X197046D02*
D03*
X186046D02*
D03*
X175046D02*
D03*
X164046D02*
D03*
D27*
X747894Y531500D02*
D03*
Y491500D02*
D03*
X731894D02*
D03*
Y531500D02*
D03*
D28*
X852250Y525750D02*
D03*
Y493750D02*
D03*
X802250D02*
D03*
Y525750D02*
D03*
D29*
X238349Y295716D02*
D03*
Y289216D02*
D03*
Y282716D02*
D03*
Y276216D02*
D03*
Y269716D02*
D03*
Y263216D02*
D03*
Y256716D02*
D03*
Y250216D02*
D03*
X295348Y295716D02*
D03*
Y289216D02*
D03*
Y282716D02*
D03*
Y276216D02*
D03*
Y269716D02*
D03*
Y263216D02*
D03*
Y256716D02*
D03*
Y250216D02*
D03*
D54*
X874500Y197778D02*
D03*
X778500D02*
D03*
D55*
X846500Y207778D02*
D03*
X826500D02*
D03*
X806500D02*
D03*
X846500Y187778D02*
D03*
X826500D02*
D03*
X806500D02*
D03*
D56*
X476700Y177720D02*
D03*
X502100Y152320D02*
D03*
Y177720D02*
D03*
X476700Y152320D02*
D03*
X451300D02*
D03*
Y177720D02*
D03*
X505910Y552620D02*
D03*
X531310D02*
D03*
D57*
X552900Y151300D02*
D03*
X400500D02*
D03*
Y557700D02*
D03*
X552900D02*
D03*
D58*
X392880Y176700D02*
D03*
Y202100D02*
D03*
Y227500D02*
D03*
Y252900D02*
D03*
Y278300D02*
D03*
Y303700D02*
D03*
Y329100D02*
D03*
Y354500D02*
D03*
Y379900D02*
D03*
Y405300D02*
D03*
Y430700D02*
D03*
Y456100D02*
D03*
Y481500D02*
D03*
Y506900D02*
D03*
Y532300D02*
D03*
X560520Y176700D02*
D03*
D03*
Y202100D02*
D03*
Y227500D02*
D03*
Y252900D02*
D03*
Y278300D02*
D03*
Y303700D02*
D03*
Y329100D02*
D03*
Y354500D02*
D03*
Y379900D02*
D03*
Y405300D02*
D03*
Y430700D02*
D03*
Y456100D02*
D03*
Y481500D02*
D03*
Y506900D02*
D03*
Y532300D02*
D03*
D59*
X41402Y344678D02*
D03*
Y370078D02*
D03*
Y446278D02*
D03*
Y421278D02*
D03*
Y395478D02*
D03*
Y268478D02*
D03*
Y294278D02*
D03*
Y319278D02*
D03*
Y243078D02*
D03*
D60*
X844650Y32250D02*
D03*
X869650D02*
D03*
X819250D02*
D03*
X793850D02*
D03*
X40352Y32000D02*
D03*
X65752D02*
D03*
X116152D02*
D03*
X91152D02*
D03*
X300777Y32500D02*
D03*
X275777D02*
D03*
X250377D02*
D03*
X413250Y32250D02*
D03*
X388250D02*
D03*
X362850D02*
D03*
X523750Y31500D02*
D03*
X548750D02*
D03*
X498350D02*
D03*
X472950D02*
D03*
X610500Y31750D02*
D03*
X635900D02*
D03*
X660900D02*
D03*
M02*
