G04*
G04 #@! TF.GenerationSoftware,Altium Limited,Altium Designer,21.0.9 (235)*
G04*
G04 Layer_Color=32896*
%FSLAX44Y44*%
%MOMM*%
G71*
G04*
G04 #@! TF.SameCoordinates,9AB719E8-7283-4354-A60F-73F0A454480C*
G04*
G04*
G04 #@! TF.FilePolarity,Positive*
G04*
G01*
G75*
%ADD13C,0.2000*%
%ADD15C,0.1000*%
D13*
X303870Y517495D02*
Y503498D01*
Y517495D02*
X297871D01*
X295872Y516828D01*
X295205Y516162D01*
X294539Y514829D01*
Y513496D01*
X295205Y512163D01*
X295872Y511496D01*
X297871Y510830D01*
X303870D02*
X297871D01*
X295872Y510163D01*
X295205Y509497D01*
X294539Y508164D01*
Y506164D01*
X295205Y504831D01*
X295872Y504165D01*
X297871Y503498D01*
X303870D01*
X282741Y517495D02*
X291406D01*
Y503498D01*
X282741D01*
X291406Y510830D02*
X286074D01*
X271744Y517495D02*
X280408D01*
Y503498D01*
X271744D01*
X280408Y510830D02*
X275076D01*
X264745Y517495D02*
Y503498D01*
X269411Y517495D02*
X260079D01*
X249748D02*
X258413D01*
Y503498D01*
X249748D01*
X258413Y510830D02*
X253081D01*
X237418Y514162D02*
X238084Y515495D01*
X239417Y516828D01*
X240750Y517495D01*
X243416D01*
X244749Y516828D01*
X246082Y515495D01*
X246749Y514162D01*
X247416Y512163D01*
Y508830D01*
X246749Y506831D01*
X246082Y505498D01*
X244749Y504165D01*
X243416Y503498D01*
X240750D01*
X239417Y504165D01*
X238084Y505498D01*
X237418Y506831D01*
X233485Y517495D02*
Y503498D01*
X224154Y517495D02*
Y503498D01*
X233485Y510830D02*
X224154D01*
X303816Y491042D02*
Y481044D01*
Y491042D02*
X300007Y481044D01*
X296199Y491042D02*
X300007Y481044D01*
X296199Y491042D02*
Y481044D01*
X285725D02*
X289533Y491042D01*
X293342Y481044D01*
X291914Y484377D02*
X287153D01*
X276727Y489614D02*
X277679Y490566D01*
X279107Y491042D01*
X281011D01*
X282440Y490566D01*
X283392Y489614D01*
Y488661D01*
X282916Y487709D01*
X282440Y487233D01*
X281487Y486757D01*
X278631Y485805D01*
X277679Y485329D01*
X277203Y484853D01*
X276727Y483900D01*
Y482472D01*
X277679Y481520D01*
X279107Y481044D01*
X281011D01*
X282440Y481520D01*
X283392Y482472D01*
X271156Y491042D02*
Y481044D01*
X274489Y491042D02*
X267824D01*
X260444D02*
X266633D01*
Y481044D01*
X260444D01*
X266633Y486281D02*
X262825D01*
X258778Y491042D02*
Y481044D01*
Y491042D02*
X254493D01*
X253065Y490566D01*
X252589Y490090D01*
X252113Y489137D01*
Y488185D01*
X252589Y487233D01*
X253065Y486757D01*
X254493Y486281D01*
X258778D01*
X255445D02*
X252113Y481044D01*
X242020Y491042D02*
Y481044D01*
Y491042D02*
X237735D01*
X236307Y490566D01*
X235831Y490090D01*
X235354Y489137D01*
Y488185D01*
X235831Y487233D01*
X236307Y486757D01*
X237735Y486281D01*
X242020D02*
X237735D01*
X236307Y485805D01*
X235831Y485329D01*
X235354Y484377D01*
Y482948D01*
X235831Y481996D01*
X236307Y481520D01*
X237735Y481044D01*
X242020D01*
X230260Y491042D02*
X231213Y490566D01*
X232165Y489614D01*
X232641Y488661D01*
X233117Y487233D01*
Y484853D01*
X232641Y483424D01*
X232165Y482472D01*
X231213Y481520D01*
X230260Y481044D01*
X228356D01*
X227404Y481520D01*
X226452Y482472D01*
X225975Y483424D01*
X225499Y484853D01*
Y487233D01*
X225975Y488661D01*
X226452Y489614D01*
X227404Y490566D01*
X228356Y491042D01*
X230260D01*
X215549Y481044D02*
X219358Y491042D01*
X223167Y481044D01*
X221738Y484377D02*
X216978D01*
X213216Y491042D02*
Y481044D01*
Y491042D02*
X208932D01*
X207503Y490566D01*
X207027Y490090D01*
X206551Y489137D01*
Y488185D01*
X207027Y487233D01*
X207503Y486757D01*
X208932Y486281D01*
X213216D01*
X209884D02*
X206551Y481044D01*
X204314Y491042D02*
Y481044D01*
Y491042D02*
X200981D01*
X199553Y490566D01*
X198601Y489614D01*
X198124Y488661D01*
X197648Y487233D01*
Y484853D01*
X198124Y483424D01*
X198601Y482472D01*
X199553Y481520D01*
X200981Y481044D01*
X204314D01*
X187555Y491042D02*
X183746Y481044D01*
X179938Y491042D02*
X183746Y481044D01*
X172463Y491042D02*
X178652D01*
Y481044D01*
X172463D01*
X178652Y486281D02*
X174844D01*
X170797Y491042D02*
Y481044D01*
Y491042D02*
X166512D01*
X165084Y490566D01*
X164608Y490090D01*
X164132Y489137D01*
Y488185D01*
X164608Y487233D01*
X165084Y486757D01*
X166512Y486281D01*
X170797D01*
X167464D02*
X164132Y481044D01*
X155229Y489614D02*
X156181Y490566D01*
X157609Y491042D01*
X159514D01*
X160942Y490566D01*
X161894Y489614D01*
Y488661D01*
X161418Y487709D01*
X160942Y487233D01*
X159990Y486757D01*
X157133Y485805D01*
X156181Y485329D01*
X155705Y484853D01*
X155229Y483900D01*
Y482472D01*
X156181Y481520D01*
X157609Y481044D01*
X159514D01*
X160942Y481520D01*
X161894Y482472D01*
X152991Y491042D02*
Y481044D01*
X148040Y491042D02*
X148992Y490566D01*
X149944Y489614D01*
X150420Y488661D01*
X150896Y487233D01*
Y484853D01*
X150420Y483424D01*
X149944Y482472D01*
X148992Y481520D01*
X148040Y481044D01*
X146136D01*
X145183Y481520D01*
X144231Y482472D01*
X143755Y483424D01*
X143279Y484853D01*
Y487233D01*
X143755Y488661D01*
X144231Y489614D01*
X145183Y490566D01*
X146136Y491042D01*
X148040D01*
X140946D02*
Y481044D01*
Y491042D02*
X134281Y481044D01*
Y491042D02*
Y481044D01*
X120808Y491042D02*
X122236Y490566D01*
X123188Y489137D01*
X123664Y486757D01*
Y485329D01*
X123188Y482948D01*
X122236Y481520D01*
X120808Y481044D01*
X119855D01*
X118427Y481520D01*
X117475Y482948D01*
X116999Y485329D01*
Y486757D01*
X117475Y489137D01*
X118427Y490566D01*
X119855Y491042D01*
X120808D01*
X114285Y488661D02*
Y489137D01*
X113809Y490090D01*
X113333Y490566D01*
X112381Y491042D01*
X110477D01*
X109524Y490566D01*
X109048Y490090D01*
X108572Y489137D01*
Y488185D01*
X109048Y487233D01*
X110000Y485805D01*
X114761Y481044D01*
X108096D01*
D15*
X437393Y532762D02*
X434727Y525764D01*
X432061Y532762D02*
X434727Y525764D01*
X430495Y532762D02*
X430162Y532429D01*
X429828Y532762D01*
X430162Y533096D01*
X430495Y532762D01*
X430162Y530430D02*
Y525764D01*
X428595Y530430D02*
Y525764D01*
Y529097D02*
X427595Y530096D01*
X426929Y530430D01*
X425929D01*
X425263Y530096D01*
X424930Y529097D01*
Y525764D01*
X411591Y532762D02*
X407926D01*
X409925Y530096D01*
X408925D01*
X408259Y529763D01*
X407926Y529430D01*
X407592Y528430D01*
Y527764D01*
X407926Y526764D01*
X408592Y526097D01*
X409592Y525764D01*
X410592D01*
X411591Y526097D01*
X411925Y526431D01*
X412258Y527097D01*
X405693Y526431D02*
X406026Y526097D01*
X405693Y525764D01*
X405359Y526097D01*
X405693Y526431D01*
X403160Y532762D02*
X399494D01*
X401494Y530096D01*
X400494D01*
X399827Y529763D01*
X399494Y529430D01*
X399161Y528430D01*
Y527764D01*
X399494Y526764D01*
X400161Y526097D01*
X401160Y525764D01*
X402160D01*
X403160Y526097D01*
X403493Y526431D01*
X403826Y527097D01*
X397594Y532762D02*
X394928Y525764D01*
X392262Y532762D02*
X394928Y525764D01*
X438394Y564505D02*
Y571503D01*
X434895D01*
X433728Y570337D01*
Y568004D01*
X434895Y566838D01*
X438394D01*
X436061D02*
X433728Y564505D01*
X431396Y571503D02*
X426730D01*
Y570337D01*
X431396Y565672D01*
Y564505D01*
X415401Y566480D02*
Y573478D01*
X411902D01*
X410736Y572312D01*
Y569979D01*
X411902Y568813D01*
X415401D01*
X413069D02*
X410736Y566480D01*
X408403D02*
X406071D01*
X407237D01*
Y573478D01*
X408403Y572312D01*
X397907Y566480D02*
X402572D01*
X397907Y571146D01*
Y572312D01*
X399073Y573478D01*
X401406D01*
X402572Y572312D01*
M02*
