G04*
G04 #@! TF.GenerationSoftware,Altium Limited,Altium Designer,21.0.9 (235)*
G04*
G04 Layer_Color=2752767*
%FSLAX44Y44*%
%MOMM*%
G71*
G04*
G04 #@! TF.SameCoordinates,9AB719E8-7283-4354-A60F-73F0A454480C*
G04*
G04*
G04 #@! TF.FilePolarity,Positive*
G04*
G01*
G75*
%ADD14C,0.1270*%
%ADD58C,0.1693*%
D14*
X450596Y628096D02*
Y638256D01*
X460756D01*
Y628096D01*
X450596D01*
X425196D02*
Y638256D01*
X435356D01*
Y628096D01*
X425196D01*
X399796D02*
Y638256D01*
X409956D01*
Y628096D01*
X399796D01*
X374396D02*
Y638256D01*
X384556D01*
Y628096D01*
X374396D01*
X348996D02*
Y638256D01*
X359156D01*
Y628096D01*
X348996D01*
X323596D02*
Y638256D01*
X333756D01*
Y628096D01*
X323596D01*
X298196D02*
Y638256D01*
X308356D01*
Y628096D01*
X298196D01*
X272796D02*
Y638256D01*
X282956D01*
Y628096D01*
X272796D01*
X247396D02*
Y638256D01*
X257556D01*
Y628096D01*
X247396D01*
X221996D02*
Y638256D01*
X232156D01*
Y628096D01*
X221996D01*
X196596D02*
Y638256D01*
X206756D01*
Y628096D01*
X196596D01*
X171196D02*
Y638256D01*
X181356D01*
Y628096D01*
X171196D01*
X145796D02*
Y638256D01*
X155956D01*
Y628096D01*
X145796D01*
Y638256D01*
X155956D01*
Y628096D01*
X145796D01*
X450596Y831596D02*
Y841756D01*
X460756D01*
Y831596D01*
X450596D01*
X425196D02*
Y841756D01*
X435356D01*
Y831596D01*
X425196D01*
X399796D02*
Y841756D01*
X409956D01*
Y831596D01*
X399796D01*
X374396D02*
Y841756D01*
X384556D01*
Y831596D01*
X374396D01*
X348996D02*
Y841756D01*
X359156D01*
Y831596D01*
X348996D01*
X323596D02*
Y841756D01*
X333756D01*
Y831596D01*
X323596D01*
X298196D02*
Y841756D01*
X308356D01*
Y831596D01*
X298196D01*
X272796D02*
Y841756D01*
X282956D01*
Y831596D01*
X272796D01*
X247396D02*
Y841756D01*
X257556D01*
Y831596D01*
X247396D01*
X221996D02*
Y841756D01*
X232156D01*
Y831596D01*
X221996D01*
X196596D02*
Y841756D01*
X206756D01*
Y831596D01*
X196596D01*
X171196D02*
Y841756D01*
X181356D01*
Y831596D01*
X171196D01*
X145796D02*
Y841756D01*
X155956D01*
Y831596D01*
X145796D01*
X120396D02*
Y841756D01*
X130556D01*
Y831596D01*
X120396D01*
Y628096D02*
Y638256D01*
X130556D01*
Y628096D01*
X120396D01*
X833976Y196554D02*
X828896Y206714D01*
X839056D01*
X833976Y196554D01*
Y216554D02*
X828896Y226714D01*
X839056D01*
X833976Y216554D01*
Y236554D02*
X828896Y246714D01*
X839056D01*
X833976Y236554D01*
X813976Y196554D02*
X808896Y206714D01*
X819056D01*
X813976Y196554D01*
Y216554D02*
X808896Y226714D01*
X819056D01*
X813976Y216554D01*
Y236554D02*
X808896Y246714D01*
X819056D01*
X813976Y236554D01*
X823976Y168554D02*
X826516Y171094D01*
X829056D01*
X826516Y173634D01*
X829056Y176174D01*
X826516D01*
X823976Y178714D01*
X821436Y176174D01*
X818896D01*
X821436Y173634D01*
X818896Y171094D01*
X821436D01*
X823976Y168554D01*
Y264554D02*
X826516Y267094D01*
X829056D01*
X826516Y269634D01*
X829056Y272174D01*
X826516D01*
X823976Y274714D01*
X821436Y272174D01*
X818896D01*
X821436Y269634D01*
X818896Y267094D01*
X821436D01*
X823976Y264554D01*
X557022Y598678D02*
X559562Y603758D01*
X557022Y608838D01*
X562102Y606298D01*
X567182Y608838D01*
X564642Y603758D01*
X567182Y598678D01*
X562102Y601218D01*
X557022Y598678D01*
X551180Y605282D02*
X553720Y610362D01*
X551180Y615442D01*
X556260Y612902D01*
X561340Y615442D01*
X558800Y610362D01*
X561340Y605282D01*
X556260Y607822D01*
X551180Y605282D01*
X545954Y680368D02*
X548494Y685448D01*
X545954Y690528D01*
X551034Y687988D01*
X556114Y690528D01*
X553574Y685448D01*
X556114Y680368D01*
X551034Y682908D01*
X545954Y680368D01*
X549898Y795050D02*
X552438Y800130D01*
X549898Y805210D01*
X554978Y802670D01*
X560058Y805210D01*
X557518Y800130D01*
X560058Y795050D01*
X554978Y797590D01*
X549898Y795050D01*
X571898Y685182D02*
X574438Y690262D01*
X571898Y695342D01*
X576978Y692802D01*
X582058Y695342D01*
X579518Y690262D01*
X582058Y685182D01*
X576978Y687722D01*
X571898Y685182D01*
Y771652D02*
X574438Y776732D01*
X571898Y781812D01*
X576978Y779272D01*
X582058Y781812D01*
X579518Y776732D01*
X582058Y771652D01*
X576978Y774192D01*
X571898Y771652D01*
X593344Y673862D02*
X595884Y678942D01*
X593344Y684022D01*
X598424Y681482D01*
X603504Y684022D01*
X600964Y678942D01*
X603504Y673862D01*
X598424Y676402D01*
X593344Y673862D01*
X593898Y781812D02*
X596438Y786892D01*
X593898Y791972D01*
X598978Y789432D01*
X604058Y791972D01*
X601518Y786892D01*
X604058Y781812D01*
X598978Y784352D01*
X593898Y781812D01*
X416052Y403098D02*
X418592Y408178D01*
X416052Y413258D01*
X421132Y410718D01*
X426212Y413258D01*
X423672Y408178D01*
X426212Y403098D01*
X421132Y405638D01*
X416052Y403098D01*
X384810Y471678D02*
X387350Y476758D01*
X384810Y481838D01*
X389890Y479298D01*
X394970Y481838D01*
X392430Y476758D01*
X394970Y471678D01*
X389890Y474218D01*
X384810Y471678D01*
X171196Y589788D02*
X173736Y594868D01*
X171196Y599948D01*
X176276Y597408D01*
X181356Y599948D01*
X178816Y594868D01*
X181356Y589788D01*
X176276Y592328D01*
X171196Y589788D01*
X199644Y658876D02*
X202184Y663956D01*
X199644Y669036D01*
X204724Y666496D01*
X209804Y669036D01*
X207264Y663956D01*
X209804Y658876D01*
X204724Y661416D01*
X199644Y658876D01*
X223266Y666496D02*
X225806Y671576D01*
X223266Y676656D01*
X228346Y674116D01*
X233426Y676656D01*
X230886Y671576D01*
X233426Y666496D01*
X228346Y669036D01*
X223266Y666496D01*
X370332Y250444D02*
X372872Y255524D01*
X370332Y260604D01*
X375412Y258064D01*
X380492Y260604D01*
X377952Y255524D01*
X380492Y250444D01*
X375412Y252984D01*
X370332Y250444D01*
X328930Y785876D02*
X331470Y790956D01*
X328930Y796036D01*
X334010Y793496D01*
X339090Y796036D01*
X336550Y790956D01*
X339090Y785876D01*
X334010Y788416D01*
X328930Y785876D01*
X734433Y540908D02*
X736973Y545988D01*
X734433Y551068D01*
X739513Y548528D01*
X744593Y551068D01*
X742053Y545988D01*
X744593Y540908D01*
X739513Y543448D01*
X734433Y540908D01*
X703580Y220980D02*
X706120Y226060D01*
X703580Y231140D01*
X708660Y228600D01*
X713740Y231140D01*
X711200Y226060D01*
X713740Y220980D01*
X708660Y223520D01*
X703580Y220980D01*
X577088Y187198D02*
X579628Y192278D01*
X577088Y197358D01*
X582168Y194818D01*
X587248Y197358D01*
X584708Y192278D01*
X587248Y187198D01*
X582168Y189738D01*
X577088Y187198D01*
X102362Y172974D02*
X104902Y178054D01*
X102362Y183134D01*
X107442Y180594D01*
X112522Y183134D01*
X109982Y178054D01*
X112522Y172974D01*
X107442Y175514D01*
X102362Y172974D01*
X118110Y194056D02*
X120650Y199136D01*
X118110Y204216D01*
X123190Y201676D01*
X128270Y204216D01*
X125730Y199136D01*
X128270Y194056D01*
X123190Y196596D01*
X118110Y194056D01*
X100076Y159258D02*
X102616Y164338D01*
X100076Y169418D01*
X105156Y166878D01*
X110236Y169418D01*
X107696Y164338D01*
X110236Y159258D01*
X105156Y161798D01*
X100076Y159258D01*
X398526Y444500D02*
X401066Y449580D01*
X398526Y454660D01*
X403606Y452120D01*
X408686Y454660D01*
X406146Y449580D01*
X408686Y444500D01*
X403606Y447040D01*
X398526Y444500D01*
X160274Y9652D02*
X162814Y14732D01*
X160274Y19812D01*
X165354Y17272D01*
X170434Y19812D01*
X167894Y14732D01*
X170434Y9652D01*
X165354Y12192D01*
X160274Y9652D01*
X126312Y241856D02*
X128852Y246936D01*
X126312Y252016D01*
X131392Y249476D01*
X136472Y252016D01*
X133932Y246936D01*
X136472Y241856D01*
X131392Y244396D01*
X126312Y241856D01*
X144966Y395189D02*
X147506Y400269D01*
X144966Y405349D01*
X150046Y402809D01*
X155126Y405349D01*
X152586Y400269D01*
X155126Y395189D01*
X150046Y397729D01*
X144966Y395189D01*
X122538Y438658D02*
X125078Y443738D01*
X122538Y448818D01*
X127618Y446278D01*
X132698Y448818D01*
X130158Y443738D01*
X132698Y438658D01*
X127618Y441198D01*
X122538Y438658D01*
X478282Y859790D02*
X480822Y864870D01*
X478282Y869950D01*
X483362Y867410D01*
X488442Y869950D01*
X485902Y864870D01*
X488442Y859790D01*
X483362Y862330D01*
X478282Y859790D01*
X470408Y734822D02*
X472948Y739902D01*
X470408Y744982D01*
X475488Y742442D01*
X480568Y744982D01*
X478028Y739902D01*
X480568Y734822D01*
X475488Y737362D01*
X470408Y734822D01*
X429260Y221742D02*
X431800Y226822D01*
X429260Y231902D01*
X434340Y229362D01*
X439420Y231902D01*
X436880Y226822D01*
X439420Y221742D01*
X434340Y224282D01*
X429260Y221742D01*
X263398Y736346D02*
X265938Y741426D01*
X263398Y746506D01*
X268478Y743966D01*
X273558Y746506D01*
X271018Y741426D01*
X273558Y736346D01*
X268478Y738886D01*
X263398Y736346D01*
X466852Y376174D02*
X469392Y381254D01*
X466852Y386334D01*
X471932Y383794D01*
X477012Y386334D01*
X474472Y381254D01*
X477012Y376174D01*
X471932Y378714D01*
X466852Y376174D01*
X258318Y382016D02*
X260858Y387096D01*
X258318Y392176D01*
X263398Y389636D01*
X268478Y392176D01*
X265938Y387096D01*
X268478Y382016D01*
X263398Y384556D01*
X258318Y382016D01*
X264668Y135890D02*
X267208Y140970D01*
X264668Y146050D01*
X269748Y143510D01*
X274828Y146050D01*
X272288Y140970D01*
X274828Y135890D01*
X269748Y138430D01*
X264668Y135890D01*
X267447Y124714D02*
X269987Y129794D01*
X267447Y134874D01*
X272527Y132334D01*
X277607Y134874D01*
X275067Y129794D01*
X277607Y124714D01*
X272527Y127254D01*
X267447Y124714D01*
X290994Y182823D02*
X293534Y187903D01*
X290994Y192983D01*
X296074Y190443D01*
X301154Y192983D01*
X298614Y187903D01*
X301154Y182823D01*
X296074Y185363D01*
X290994Y182823D01*
X285494Y287034D02*
X288034Y292114D01*
X285494Y297194D01*
X290574Y294654D01*
X295654Y297194D01*
X293114Y292114D01*
X295654Y287034D01*
X290574Y289574D01*
X285494Y287034D01*
X300965Y166345D02*
X303505Y171425D01*
X300965Y176505D01*
X306045Y173965D01*
X311125Y176505D01*
X308585Y171425D01*
X311125Y166345D01*
X306045Y168885D01*
X300965Y166345D01*
X309372Y339598D02*
X311912Y344678D01*
X309372Y349758D01*
X314452Y347218D01*
X319532Y349758D01*
X316992Y344678D01*
X319532Y339598D01*
X314452Y342138D01*
X309372Y339598D01*
X359496Y369095D02*
X362036Y374175D01*
X359496Y379255D01*
X364576Y376715D01*
X369656Y379255D01*
X367116Y374175D01*
X369656Y369095D01*
X364576Y371635D01*
X359496Y369095D01*
X185166Y322072D02*
X187706Y327152D01*
X185166Y332232D01*
X190246Y329692D01*
X195326Y332232D01*
X192786Y327152D01*
X195326Y322072D01*
X190246Y324612D01*
X185166Y322072D01*
X155956Y316992D02*
X158496Y322072D01*
X155956Y327152D01*
X161036Y324612D01*
X166116Y327152D01*
X163576Y322072D01*
X166116Y316992D01*
X161036Y319532D01*
X155956Y316992D01*
X668362Y513738D02*
Y511198D01*
X673442D01*
Y513738D01*
X675982D01*
Y518818D01*
X673442D01*
Y521358D01*
X668362D01*
Y518818D01*
X665822D01*
Y513738D01*
X668362D01*
X668862Y170738D02*
Y168198D01*
X673942D01*
Y170738D01*
X676482D01*
Y175818D01*
X673942D01*
Y178358D01*
X668862D01*
Y175818D01*
X666322D01*
Y170738D01*
X668862D01*
X54362Y170638D02*
Y168098D01*
X59442D01*
Y170638D01*
X61982D01*
Y175718D01*
X59442D01*
Y178258D01*
X54362D01*
Y175718D01*
X51822D01*
Y170638D01*
X54362D01*
Y515338D02*
Y512798D01*
X59442D01*
Y515338D01*
X61982D01*
Y520418D01*
X59442D01*
Y522958D01*
X54362D01*
Y520418D01*
X51822D01*
Y515338D01*
X54362D01*
X847460Y827460D02*
Y824920D01*
X852540D01*
Y827460D01*
X855080D01*
Y832540D01*
X852540D01*
Y835080D01*
X847460D01*
Y832540D01*
X844920D01*
Y827460D01*
X847460D01*
X726710Y58194D02*
Y55654D01*
X731790D01*
Y58194D01*
X734330D01*
Y63274D01*
X731790D01*
Y65814D01*
X726710D01*
Y63274D01*
X724170D01*
Y58194D01*
X726710D01*
X184960Y60444D02*
Y57904D01*
X190040D01*
Y60444D01*
X192580D01*
Y65524D01*
X190040D01*
Y68064D01*
X184960D01*
Y65524D01*
X182420D01*
Y60444D01*
X184960D01*
D58*
X343154Y173736D02*
G03*
X343154Y173736I-5080J0D01*
G01*
Y249936D02*
G03*
X343154Y249936I-5080J0D01*
G01*
Y224936D02*
G03*
X343154Y224936I-5080J0D01*
G01*
Y199136D02*
G03*
X343154Y199136I-5080J0D01*
G01*
X870712Y650748D02*
G03*
X870712Y650748I-5080J0D01*
G01*
Y676148D02*
G03*
X870712Y676148I-5080J0D01*
G01*
Y726548D02*
G03*
X870712Y726548I-5080J0D01*
G01*
Y701548D02*
G03*
X870712Y701548I-5080J0D01*
G01*
X46482Y243078D02*
G03*
X46482Y243078I-5080J0D01*
G01*
Y319278D02*
G03*
X46482Y319278I-5080J0D01*
G01*
Y294278D02*
G03*
X46482Y294278I-5080J0D01*
G01*
Y268478D02*
G03*
X46482Y268478I-5080J0D01*
G01*
Y395478D02*
G03*
X46482Y395478I-5080J0D01*
G01*
Y421278D02*
G03*
X46482Y421278I-5080J0D01*
G01*
Y446278D02*
G03*
X46482Y446278I-5080J0D01*
G01*
Y370078D02*
G03*
X46482Y370078I-5080J0D01*
G01*
Y344678D02*
G03*
X46482Y344678I-5080J0D01*
G01*
X849730Y32250D02*
G03*
X849730Y32250I-5080J0D01*
G01*
X874730D02*
G03*
X874730Y32250I-5080J0D01*
G01*
X45432Y32000D02*
G03*
X45432Y32000I-5080J0D01*
G01*
X70832D02*
G03*
X70832Y32000I-5080J0D01*
G01*
X121232D02*
G03*
X121232Y32000I-5080J0D01*
G01*
X96232D02*
G03*
X96232Y32000I-5080J0D01*
G01*
X305857Y32500D02*
G03*
X305857Y32500I-5080J0D01*
G01*
X280857D02*
G03*
X280857Y32500I-5080J0D01*
G01*
X255457D02*
G03*
X255457Y32500I-5080J0D01*
G01*
X418330Y32250D02*
G03*
X418330Y32250I-5080J0D01*
G01*
X393330D02*
G03*
X393330Y32250I-5080J0D01*
G01*
X367930D02*
G03*
X367930Y32250I-5080J0D01*
G01*
X528830Y31500D02*
G03*
X528830Y31500I-5080J0D01*
G01*
X553830D02*
G03*
X553830Y31500I-5080J0D01*
G01*
X503430D02*
G03*
X503430Y31500I-5080J0D01*
G01*
X478030D02*
G03*
X478030Y31500I-5080J0D01*
G01*
X615580Y31750D02*
G03*
X615580Y31750I-5080J0D01*
G01*
X640980D02*
G03*
X640980Y31750I-5080J0D01*
G01*
X665980D02*
G03*
X665980Y31750I-5080J0D01*
G01*
M02*
