G04*
G04 #@! TF.GenerationSoftware,Altium Limited,Altium Designer,21.0.9 (235)*
G04*
G04 Layer_Color=8421504*
%FSLAX44Y44*%
%MOMM*%
G71*
G04*
G04 #@! TF.SameCoordinates,9AB719E8-7283-4354-A60F-73F0A454480C*
G04*
G04*
G04 #@! TF.FilePolarity,Positive*
G04*
G01*
G75*
%ADD17R,0.8000X1.4000*%
%ADD18R,1.6000X1.5000*%
%ADD19R,1.7000X1.5000*%
%ADD20R,1.5000X1.7000*%
%ADD21R,1.2000X1.4000*%
%ADD22R,1.5000X1.3000*%
%ADD23R,1.3000X0.8500*%
%ADD24R,1.5000X1.0000*%
%ADD25R,0.6000X0.9500*%
%ADD26R,0.9500X0.6000*%
%ADD27R,1.5500X1.0000*%
%ADD28O,2.1000X0.6500*%
%ADD29R,1.0000X0.5000*%
D17*
X543978Y695392D02*
D03*
X554978D02*
D03*
X565978D02*
D03*
X576978D02*
D03*
X587978D02*
D03*
X598978D02*
D03*
X609978D02*
D03*
X620978D02*
D03*
D18*
X528978Y696392D02*
D03*
D19*
X654978D02*
D03*
D20*
X522478Y844892D02*
D03*
X657478D02*
D03*
D21*
X522478Y786892D02*
D03*
D22*
Y712892D02*
D03*
D23*
X602996Y162150D02*
D03*
Y142650D02*
D03*
D24*
X846944Y522988D02*
D03*
Y554988D02*
D03*
X796944D02*
D03*
Y522988D02*
D03*
D25*
X819406Y601472D02*
D03*
X835406D02*
D03*
X745346Y819258D02*
D03*
X729346D02*
D03*
X746362Y730866D02*
D03*
X730362D02*
D03*
X590024Y651002D02*
D03*
X574024D02*
D03*
X407288Y131572D02*
D03*
X391288D02*
D03*
X296544Y129794D02*
D03*
X280544D02*
D03*
D26*
X149296Y272522D02*
D03*
Y288522D02*
D03*
X753726Y222162D02*
D03*
Y206162D02*
D03*
X736976Y221634D02*
D03*
Y205634D02*
D03*
X748694Y337518D02*
D03*
Y353518D02*
D03*
X730944Y353018D02*
D03*
Y337018D02*
D03*
X728290Y430456D02*
D03*
Y446456D02*
D03*
X744886Y446273D02*
D03*
Y430273D02*
D03*
D27*
X854134Y453944D02*
D03*
X795134D02*
D03*
Y423944D02*
D03*
X854134D02*
D03*
Y360723D02*
D03*
X795134D02*
D03*
Y330723D02*
D03*
X854134D02*
D03*
D28*
X758650Y753580D02*
D03*
Y766280D02*
D03*
Y778980D02*
D03*
Y791680D02*
D03*
X710150Y753580D02*
D03*
Y766280D02*
D03*
Y778980D02*
D03*
Y791680D02*
D03*
D29*
X100618Y267614D02*
D03*
Y277114D02*
D03*
Y286614D02*
D03*
X127618D02*
D03*
Y277114D02*
D03*
Y267614D02*
D03*
M02*
