G04*
G04 #@! TF.GenerationSoftware,Altium Limited,Altium Designer,21.0.9 (235)*
G04*
G04 Layer_Color=16711935*
%FSLAX44Y44*%
%MOMM*%
G71*
G04*
G04 #@! TF.SameCoordinates,9AB719E8-7283-4354-A60F-73F0A454480C*
G04*
G04*
G04 #@! TF.FilePolarity,Negative*
G04*
G01*
G75*
%ADD39R,1.1532X0.8032*%
%ADD43O,1.7032X2.2032*%
%ADD44O,2.8032X1.8032*%
%ADD45C,1.4032*%
%ADD46C,2.2032*%
%ADD47O,1.8032X2.8032*%
%ADD48C,6.0000*%
D39*
X432562Y556386D02*
D03*
Y540386D02*
D03*
X406654Y556640D02*
D03*
Y540640D02*
D03*
D43*
X455676Y633176D02*
D03*
X430276D02*
D03*
X404876D02*
D03*
X379476D02*
D03*
X354076D02*
D03*
X328676D02*
D03*
X303276D02*
D03*
X277876D02*
D03*
X252476D02*
D03*
X227076D02*
D03*
X201676D02*
D03*
X176276D02*
D03*
X150876D02*
D03*
D03*
X455676Y836676D02*
D03*
X430276D02*
D03*
X404876D02*
D03*
X379476D02*
D03*
X354076D02*
D03*
X328676D02*
D03*
X303276D02*
D03*
X277876D02*
D03*
X252476D02*
D03*
X227076D02*
D03*
X201676D02*
D03*
X176276D02*
D03*
X150876D02*
D03*
X125476D02*
D03*
Y633176D02*
D03*
D44*
X338074Y173736D02*
D03*
Y249936D02*
D03*
Y224936D02*
D03*
Y199136D02*
D03*
X865632Y650748D02*
D03*
Y676148D02*
D03*
Y726548D02*
D03*
Y701548D02*
D03*
X41402Y243078D02*
D03*
Y319278D02*
D03*
Y294278D02*
D03*
Y268478D02*
D03*
Y395478D02*
D03*
Y421278D02*
D03*
Y446278D02*
D03*
Y370078D02*
D03*
Y344678D02*
D03*
D45*
X833976Y201634D02*
D03*
Y221634D02*
D03*
Y241634D02*
D03*
X813976Y201634D02*
D03*
Y221634D02*
D03*
Y241634D02*
D03*
D46*
X823976Y173634D02*
D03*
Y269634D02*
D03*
D47*
X844650Y32250D02*
D03*
X869650D02*
D03*
X40352Y32000D02*
D03*
X65752D02*
D03*
X116152D02*
D03*
X91152D02*
D03*
X300777Y32500D02*
D03*
X275777D02*
D03*
X250377D02*
D03*
X413250Y32250D02*
D03*
X388250D02*
D03*
X362850D02*
D03*
X523750Y31500D02*
D03*
X548750D02*
D03*
X498350D02*
D03*
X472950D02*
D03*
X610500Y31750D02*
D03*
X635900D02*
D03*
X660900D02*
D03*
D48*
X850000Y830000D02*
D03*
X729250Y60734D02*
D03*
X187500Y62984D02*
D03*
M02*
