G04*
G04 #@! TF.GenerationSoftware,Altium Limited,Altium Designer,21.0.9 (235)*
G04*
G04 Layer_Color=255*
%FSLAX44Y44*%
%MOMM*%
G71*
G04*
G04 #@! TF.SameCoordinates,9AB719E8-7283-4354-A60F-73F0A454480C*
G04*
G04*
G04 #@! TF.FilePolarity,Positive*
G04*
G01*
G75*
%ADD26R,0.9500X0.6000*%
%ADD51O,1.5000X2.0000*%
%ADD52O,2.6000X1.6000*%
%ADD53C,1.2000*%
%ADD54C,2.0000*%
%ADD55O,1.6000X2.6000*%
D26*
X432562Y556386D02*
D03*
Y540386D02*
D03*
X406654Y556640D02*
D03*
Y540640D02*
D03*
D51*
X455676Y633176D02*
D03*
X430276D02*
D03*
X404876D02*
D03*
X379476D02*
D03*
X354076D02*
D03*
X328676D02*
D03*
X303276D02*
D03*
X277876D02*
D03*
X252476D02*
D03*
X227076D02*
D03*
X201676D02*
D03*
X176276D02*
D03*
X150876D02*
D03*
D03*
X455676Y836676D02*
D03*
X430276D02*
D03*
X404876D02*
D03*
X379476D02*
D03*
X354076D02*
D03*
X328676D02*
D03*
X303276D02*
D03*
X277876D02*
D03*
X252476D02*
D03*
X227076D02*
D03*
X201676D02*
D03*
X176276D02*
D03*
X150876D02*
D03*
X125476D02*
D03*
Y633176D02*
D03*
D52*
X338074Y173736D02*
D03*
Y249936D02*
D03*
Y224936D02*
D03*
Y199136D02*
D03*
X865632Y650748D02*
D03*
Y676148D02*
D03*
Y726548D02*
D03*
Y701548D02*
D03*
X41402Y243078D02*
D03*
Y319278D02*
D03*
Y294278D02*
D03*
Y268478D02*
D03*
Y395478D02*
D03*
Y421278D02*
D03*
Y446278D02*
D03*
Y370078D02*
D03*
Y344678D02*
D03*
D53*
X833976Y201634D02*
D03*
Y221634D02*
D03*
Y241634D02*
D03*
X813976Y201634D02*
D03*
Y221634D02*
D03*
Y241634D02*
D03*
D54*
X823976Y173634D02*
D03*
Y269634D02*
D03*
D55*
X844650Y32250D02*
D03*
X869650D02*
D03*
X40352Y32000D02*
D03*
X65752D02*
D03*
X116152D02*
D03*
X91152D02*
D03*
X300777Y32500D02*
D03*
X275777D02*
D03*
X250377D02*
D03*
X413250Y32250D02*
D03*
X388250D02*
D03*
X362850D02*
D03*
X523750Y31500D02*
D03*
X548750D02*
D03*
X498350D02*
D03*
X472950D02*
D03*
X610500Y31750D02*
D03*
X635900D02*
D03*
X660900D02*
D03*
M02*
