G04*
G04 #@! TF.GenerationSoftware,Altium Limited,Altium Designer,20.1.14 (287)*
G04*
G04 Layer_Color=16711935*
%FSLAX44Y44*%
%MOMM*%
G71*
G04*
G04 #@! TF.SameCoordinates,16ADFD51-ADDE-4969-A661-75AF1340BC1C*
G04*
G04*
G04 #@! TF.FilePolarity,Negative*
G04*
G01*
G75*
%ADD32R,1.1532X0.8032*%
%ADD42O,1.7032X2.2032*%
%ADD43O,2.8032X1.8032*%
%ADD44C,1.4032*%
%ADD45C,2.2032*%
%ADD46O,1.8032X2.8032*%
%ADD47C,6.0000*%
D32*
X170688Y784732D02*
D03*
Y768732D02*
D03*
X201507Y784732D02*
D03*
Y768732D02*
D03*
D42*
X148600Y830650D02*
D03*
X174000D02*
D03*
X199400D02*
D03*
X224800D02*
D03*
X250200D02*
D03*
X275600D02*
D03*
X301000D02*
D03*
X326400D02*
D03*
X351800D02*
D03*
X377200D02*
D03*
X402600D02*
D03*
X428000D02*
D03*
X453400D02*
D03*
D03*
X148600Y627150D02*
D03*
X174000D02*
D03*
X199400D02*
D03*
X224800D02*
D03*
X250200D02*
D03*
X275600D02*
D03*
X301000D02*
D03*
X326400D02*
D03*
X351800D02*
D03*
X377200D02*
D03*
X402600D02*
D03*
X428000D02*
D03*
X453400D02*
D03*
X478800D02*
D03*
Y830650D02*
D03*
D43*
X41402Y243078D02*
D03*
Y319278D02*
D03*
Y294278D02*
D03*
Y268478D02*
D03*
Y395478D02*
D03*
Y421278D02*
D03*
Y446278D02*
D03*
Y370078D02*
D03*
Y344678D02*
D03*
D44*
X835500Y177250D02*
D03*
Y197250D02*
D03*
Y217250D02*
D03*
X815500Y177250D02*
D03*
Y197250D02*
D03*
Y217250D02*
D03*
D45*
X825500Y149250D02*
D03*
Y245250D02*
D03*
D46*
X844650Y32250D02*
D03*
X869650D02*
D03*
X40352Y32000D02*
D03*
X65752D02*
D03*
X116152D02*
D03*
X91152D02*
D03*
X300777Y32500D02*
D03*
X275777D02*
D03*
X250377D02*
D03*
X413250Y32250D02*
D03*
X388250D02*
D03*
X362850D02*
D03*
X523750Y31500D02*
D03*
X548750D02*
D03*
X498350D02*
D03*
X472950D02*
D03*
X610500Y31750D02*
D03*
X635900D02*
D03*
X660900D02*
D03*
D47*
X850000Y830000D02*
D03*
X729250Y60734D02*
D03*
X187500Y62984D02*
D03*
M02*
